G04 #@! TF.GenerationSoftware,KiCad,Pcbnew,(5.1.12)-1*
G04 #@! TF.CreationDate,2021-12-11T09:13:36+00:00*
G04 #@! TF.ProjectId,Lily58_Pro,4c696c79-3538-45f5-9072-6f2e6b696361,rev?*
G04 #@! TF.SameCoordinates,Original*
G04 #@! TF.FileFunction,Soldermask,Top*
G04 #@! TF.FilePolarity,Negative*
%FSLAX46Y46*%
G04 Gerber Fmt 4.6, Leading zero omitted, Abs format (unit mm)*
G04 Created by KiCad (PCBNEW (5.1.12)-1) date 2021-12-11 09:13:36*
%MOMM*%
%LPD*%
G01*
G04 APERTURE LIST*
%ADD10C,3.400000*%
%ADD11C,4.400000*%
%ADD12C,2.300000*%
%ADD13C,2.100000*%
%ADD14C,2.400000*%
%ADD15C,1.600000*%
%ADD16C,1.924000*%
%ADD17C,5.300000*%
%ADD18C,1.797000*%
%ADD19C,2.900000*%
G04 APERTURE END LIST*
G36*
G01*
X163700000Y-117670000D02*
X163700000Y-119670000D01*
G75*
G02*
X163500000Y-119870000I-200000J0D01*
G01*
X161500000Y-119870000D01*
G75*
G02*
X161300000Y-119670000I0J200000D01*
G01*
X161300000Y-117670000D01*
G75*
G02*
X161500000Y-117470000I200000J0D01*
G01*
X163500000Y-117470000D01*
G75*
G02*
X163700000Y-117670000I0J-200000D01*
G01*
G37*
D10*
X171910000Y-121210000D03*
X165560000Y-118670000D03*
G36*
G01*
X176200000Y-120210000D02*
X176200000Y-122210000D01*
G75*
G02*
X176000000Y-122410000I-200000J0D01*
G01*
X174000000Y-122410000D01*
G75*
G02*
X173800000Y-122210000I0J200000D01*
G01*
X173800000Y-120210000D01*
G75*
G02*
X174000000Y-120010000I200000J0D01*
G01*
X176000000Y-120010000D01*
G75*
G02*
X176200000Y-120210000I0J-200000D01*
G01*
G37*
X173100000Y-127450000D03*
G36*
G01*
X166400000Y-128650000D02*
X166400000Y-130650000D01*
G75*
G02*
X166200000Y-130850000I-200000J0D01*
G01*
X164400000Y-130850000D01*
G75*
G02*
X164200000Y-130650000I0J200000D01*
G01*
X164200000Y-128650000D01*
G75*
G02*
X164400000Y-128450000I200000J0D01*
G01*
X166200000Y-128450000D01*
G75*
G02*
X166400000Y-128650000I0J-200000D01*
G01*
G37*
G36*
G01*
X177400000Y-126450000D02*
X177400000Y-128450000D01*
G75*
G02*
X177200000Y-128650000I-200000J0D01*
G01*
X175200000Y-128650000D01*
G75*
G02*
X175000000Y-128450000I0J200000D01*
G01*
X175000000Y-126450000D01*
G75*
G02*
X175200000Y-126250000I200000J0D01*
G01*
X177200000Y-126250000D01*
G75*
G02*
X177400000Y-126450000I0J-200000D01*
G01*
G37*
X163100000Y-127450000D03*
X168100000Y-129650000D03*
X170640000Y-118670000D03*
D11*
X168100000Y-123750000D03*
D12*
X162600000Y-123750000D03*
X173600000Y-123750000D03*
D13*
X173180000Y-123750000D03*
X163020000Y-123750000D03*
D10*
X164290000Y-121210000D03*
G36*
G01*
X144600000Y-117670000D02*
X144600000Y-119670000D01*
G75*
G02*
X144400000Y-119870000I-200000J0D01*
G01*
X142400000Y-119870000D01*
G75*
G02*
X142200000Y-119670000I0J200000D01*
G01*
X142200000Y-117670000D01*
G75*
G02*
X142400000Y-117470000I200000J0D01*
G01*
X144400000Y-117470000D01*
G75*
G02*
X144600000Y-117670000I0J-200000D01*
G01*
G37*
X152810000Y-121210000D03*
X146460000Y-118670000D03*
G36*
G01*
X157100000Y-120210000D02*
X157100000Y-122210000D01*
G75*
G02*
X156900000Y-122410000I-200000J0D01*
G01*
X154900000Y-122410000D01*
G75*
G02*
X154700000Y-122210000I0J200000D01*
G01*
X154700000Y-120210000D01*
G75*
G02*
X154900000Y-120010000I200000J0D01*
G01*
X156900000Y-120010000D01*
G75*
G02*
X157100000Y-120210000I0J-200000D01*
G01*
G37*
X154000000Y-127450000D03*
G36*
G01*
X147300000Y-128650000D02*
X147300000Y-130650000D01*
G75*
G02*
X147100000Y-130850000I-200000J0D01*
G01*
X145300000Y-130850000D01*
G75*
G02*
X145100000Y-130650000I0J200000D01*
G01*
X145100000Y-128650000D01*
G75*
G02*
X145300000Y-128450000I200000J0D01*
G01*
X147100000Y-128450000D01*
G75*
G02*
X147300000Y-128650000I0J-200000D01*
G01*
G37*
G36*
G01*
X158300000Y-126450000D02*
X158300000Y-128450000D01*
G75*
G02*
X158100000Y-128650000I-200000J0D01*
G01*
X156100000Y-128650000D01*
G75*
G02*
X155900000Y-128450000I0J200000D01*
G01*
X155900000Y-126450000D01*
G75*
G02*
X156100000Y-126250000I200000J0D01*
G01*
X158100000Y-126250000D01*
G75*
G02*
X158300000Y-126450000I0J-200000D01*
G01*
G37*
X144000000Y-127450000D03*
X149000000Y-129650000D03*
X151540000Y-118670000D03*
D11*
X149000000Y-123750000D03*
D12*
X143500000Y-123750000D03*
X154500000Y-123750000D03*
D13*
X154080000Y-123750000D03*
X143920000Y-123750000D03*
D10*
X145190000Y-121210000D03*
G36*
G01*
X125600000Y-119920000D02*
X125600000Y-121920000D01*
G75*
G02*
X125400000Y-122120000I-200000J0D01*
G01*
X123400000Y-122120000D01*
G75*
G02*
X123200000Y-121920000I0J200000D01*
G01*
X123200000Y-119920000D01*
G75*
G02*
X123400000Y-119720000I200000J0D01*
G01*
X125400000Y-119720000D01*
G75*
G02*
X125600000Y-119920000I0J-200000D01*
G01*
G37*
X133810000Y-123460000D03*
X127460000Y-120920000D03*
G36*
G01*
X138100000Y-122460000D02*
X138100000Y-124460000D01*
G75*
G02*
X137900000Y-124660000I-200000J0D01*
G01*
X135900000Y-124660000D01*
G75*
G02*
X135700000Y-124460000I0J200000D01*
G01*
X135700000Y-122460000D01*
G75*
G02*
X135900000Y-122260000I200000J0D01*
G01*
X137900000Y-122260000D01*
G75*
G02*
X138100000Y-122460000I0J-200000D01*
G01*
G37*
X135000000Y-129700000D03*
G36*
G01*
X128300000Y-130900000D02*
X128300000Y-132900000D01*
G75*
G02*
X128100000Y-133100000I-200000J0D01*
G01*
X126300000Y-133100000D01*
G75*
G02*
X126100000Y-132900000I0J200000D01*
G01*
X126100000Y-130900000D01*
G75*
G02*
X126300000Y-130700000I200000J0D01*
G01*
X128100000Y-130700000D01*
G75*
G02*
X128300000Y-130900000I0J-200000D01*
G01*
G37*
G36*
G01*
X139300000Y-128700000D02*
X139300000Y-130700000D01*
G75*
G02*
X139100000Y-130900000I-200000J0D01*
G01*
X137100000Y-130900000D01*
G75*
G02*
X136900000Y-130700000I0J200000D01*
G01*
X136900000Y-128700000D01*
G75*
G02*
X137100000Y-128500000I200000J0D01*
G01*
X139100000Y-128500000D01*
G75*
G02*
X139300000Y-128700000I0J-200000D01*
G01*
G37*
X125000000Y-129700000D03*
X130000000Y-131900000D03*
X132540000Y-120920000D03*
D11*
X130000000Y-126000000D03*
D12*
X124500000Y-126000000D03*
X135500000Y-126000000D03*
D13*
X135080000Y-126000000D03*
X124920000Y-126000000D03*
D10*
X126190000Y-123460000D03*
G36*
G01*
X108065434Y-120149488D02*
X106333384Y-121149488D01*
G75*
G02*
X106060179Y-121076283I-100000J173205D01*
G01*
X105060179Y-119344233D01*
G75*
G02*
X105133384Y-119071028I173205J100000D01*
G01*
X106865434Y-118071028D01*
G75*
G02*
X107138639Y-118144233I100000J-173205D01*
G01*
X108138639Y-119876283D01*
G75*
G02*
X108065434Y-120149488I-173205J-100000D01*
G01*
G37*
X109104705Y-129029557D03*
X108129409Y-122260295D03*
G36*
G01*
X112115730Y-132244805D02*
X110383680Y-133244805D01*
G75*
G02*
X110110475Y-133171600I-100000J173205D01*
G01*
X109110475Y-131439550D01*
G75*
G02*
X109183680Y-131166345I173205J100000D01*
G01*
X110915730Y-130166345D01*
G75*
G02*
X111188935Y-130239550I100000J-173205D01*
G01*
X112188935Y-131971600D01*
G75*
G02*
X112115730Y-132244805I-173205J-100000D01*
G01*
G37*
X104295706Y-133180127D03*
G36*
G01*
X99906475Y-127977757D02*
X98174425Y-128977757D01*
G75*
G02*
X97901220Y-128904552I-100000J173205D01*
G01*
X97001220Y-127345706D01*
G75*
G02*
X97074425Y-127072501I173205J100000D01*
G01*
X98806475Y-126072501D01*
G75*
G02*
X99079680Y-126145706I100000J-173205D01*
G01*
X99979680Y-127704552D01*
G75*
G02*
X99906475Y-127977757I-173205J-100000D01*
G01*
G37*
G36*
G01*
X107311731Y-136404036D02*
X105579681Y-137404036D01*
G75*
G02*
X105306476Y-137330831I-100000J173205D01*
G01*
X104306476Y-135598781D01*
G75*
G02*
X104379681Y-135325576I173205J100000D01*
G01*
X106111731Y-134325576D01*
G75*
G02*
X106384936Y-134398781I100000J-173205D01*
G01*
X107384936Y-136130831D01*
G75*
G02*
X107311731Y-136404036I-173205J-100000D01*
G01*
G37*
X99295706Y-124519873D03*
X99890450Y-129950000D03*
X110669409Y-126659705D03*
D11*
X105000000Y-127000000D03*
D12*
X102250000Y-122236860D03*
X107750000Y-131763140D03*
D13*
X107540000Y-131399409D03*
X102460000Y-122600591D03*
D10*
X105294705Y-122430443D03*
G36*
G01*
X211350000Y-104920000D02*
X211350000Y-106920000D01*
G75*
G02*
X211150000Y-107120000I-200000J0D01*
G01*
X209150000Y-107120000D01*
G75*
G02*
X208950000Y-106920000I0J200000D01*
G01*
X208950000Y-104920000D01*
G75*
G02*
X209150000Y-104720000I200000J0D01*
G01*
X211150000Y-104720000D01*
G75*
G02*
X211350000Y-104920000I0J-200000D01*
G01*
G37*
X219560000Y-108460000D03*
X213210000Y-105920000D03*
G36*
G01*
X223850000Y-107460000D02*
X223850000Y-109460000D01*
G75*
G02*
X223650000Y-109660000I-200000J0D01*
G01*
X221650000Y-109660000D01*
G75*
G02*
X221450000Y-109460000I0J200000D01*
G01*
X221450000Y-107460000D01*
G75*
G02*
X221650000Y-107260000I200000J0D01*
G01*
X223650000Y-107260000D01*
G75*
G02*
X223850000Y-107460000I0J-200000D01*
G01*
G37*
X220750000Y-114700000D03*
G36*
G01*
X214050000Y-115900000D02*
X214050000Y-117900000D01*
G75*
G02*
X213850000Y-118100000I-200000J0D01*
G01*
X212050000Y-118100000D01*
G75*
G02*
X211850000Y-117900000I0J200000D01*
G01*
X211850000Y-115900000D01*
G75*
G02*
X212050000Y-115700000I200000J0D01*
G01*
X213850000Y-115700000D01*
G75*
G02*
X214050000Y-115900000I0J-200000D01*
G01*
G37*
G36*
G01*
X225050000Y-113700000D02*
X225050000Y-115700000D01*
G75*
G02*
X224850000Y-115900000I-200000J0D01*
G01*
X222850000Y-115900000D01*
G75*
G02*
X222650000Y-115700000I0J200000D01*
G01*
X222650000Y-113700000D01*
G75*
G02*
X222850000Y-113500000I200000J0D01*
G01*
X224850000Y-113500000D01*
G75*
G02*
X225050000Y-113700000I0J-200000D01*
G01*
G37*
X210750000Y-114700000D03*
X215750000Y-116900000D03*
X218290000Y-105920000D03*
D11*
X215750000Y-111000000D03*
D12*
X210250000Y-111000000D03*
X221250000Y-111000000D03*
D13*
X220830000Y-111000000D03*
X210670000Y-111000000D03*
D10*
X211940000Y-108460000D03*
G36*
G01*
X192300000Y-103420000D02*
X192300000Y-105420000D01*
G75*
G02*
X192100000Y-105620000I-200000J0D01*
G01*
X190100000Y-105620000D01*
G75*
G02*
X189900000Y-105420000I0J200000D01*
G01*
X189900000Y-103420000D01*
G75*
G02*
X190100000Y-103220000I200000J0D01*
G01*
X192100000Y-103220000D01*
G75*
G02*
X192300000Y-103420000I0J-200000D01*
G01*
G37*
X200510000Y-106960000D03*
X194160000Y-104420000D03*
G36*
G01*
X204800000Y-105960000D02*
X204800000Y-107960000D01*
G75*
G02*
X204600000Y-108160000I-200000J0D01*
G01*
X202600000Y-108160000D01*
G75*
G02*
X202400000Y-107960000I0J200000D01*
G01*
X202400000Y-105960000D01*
G75*
G02*
X202600000Y-105760000I200000J0D01*
G01*
X204600000Y-105760000D01*
G75*
G02*
X204800000Y-105960000I0J-200000D01*
G01*
G37*
X201700000Y-113200000D03*
G36*
G01*
X195000000Y-114400000D02*
X195000000Y-116400000D01*
G75*
G02*
X194800000Y-116600000I-200000J0D01*
G01*
X193000000Y-116600000D01*
G75*
G02*
X192800000Y-116400000I0J200000D01*
G01*
X192800000Y-114400000D01*
G75*
G02*
X193000000Y-114200000I200000J0D01*
G01*
X194800000Y-114200000D01*
G75*
G02*
X195000000Y-114400000I0J-200000D01*
G01*
G37*
G36*
G01*
X206000000Y-112200000D02*
X206000000Y-114200000D01*
G75*
G02*
X205800000Y-114400000I-200000J0D01*
G01*
X203800000Y-114400000D01*
G75*
G02*
X203600000Y-114200000I0J200000D01*
G01*
X203600000Y-112200000D01*
G75*
G02*
X203800000Y-112000000I200000J0D01*
G01*
X205800000Y-112000000D01*
G75*
G02*
X206000000Y-112200000I0J-200000D01*
G01*
G37*
X191700000Y-113200000D03*
X196700000Y-115400000D03*
X199240000Y-104420000D03*
D11*
X196700000Y-109500000D03*
D12*
X191200000Y-109500000D03*
X202200000Y-109500000D03*
D13*
X201780000Y-109500000D03*
X191620000Y-109500000D03*
D10*
X192890000Y-106960000D03*
G36*
G01*
X173200000Y-98720000D02*
X173200000Y-100720000D01*
G75*
G02*
X173000000Y-100920000I-200000J0D01*
G01*
X171000000Y-100920000D01*
G75*
G02*
X170800000Y-100720000I0J200000D01*
G01*
X170800000Y-98720000D01*
G75*
G02*
X171000000Y-98520000I200000J0D01*
G01*
X173000000Y-98520000D01*
G75*
G02*
X173200000Y-98720000I0J-200000D01*
G01*
G37*
X181410000Y-102260000D03*
X175060000Y-99720000D03*
G36*
G01*
X185700000Y-101260000D02*
X185700000Y-103260000D01*
G75*
G02*
X185500000Y-103460000I-200000J0D01*
G01*
X183500000Y-103460000D01*
G75*
G02*
X183300000Y-103260000I0J200000D01*
G01*
X183300000Y-101260000D01*
G75*
G02*
X183500000Y-101060000I200000J0D01*
G01*
X185500000Y-101060000D01*
G75*
G02*
X185700000Y-101260000I0J-200000D01*
G01*
G37*
X182600000Y-108500000D03*
G36*
G01*
X175900000Y-109700000D02*
X175900000Y-111700000D01*
G75*
G02*
X175700000Y-111900000I-200000J0D01*
G01*
X173900000Y-111900000D01*
G75*
G02*
X173700000Y-111700000I0J200000D01*
G01*
X173700000Y-109700000D01*
G75*
G02*
X173900000Y-109500000I200000J0D01*
G01*
X175700000Y-109500000D01*
G75*
G02*
X175900000Y-109700000I0J-200000D01*
G01*
G37*
G36*
G01*
X186900000Y-107500000D02*
X186900000Y-109500000D01*
G75*
G02*
X186700000Y-109700000I-200000J0D01*
G01*
X184700000Y-109700000D01*
G75*
G02*
X184500000Y-109500000I0J200000D01*
G01*
X184500000Y-107500000D01*
G75*
G02*
X184700000Y-107300000I200000J0D01*
G01*
X186700000Y-107300000D01*
G75*
G02*
X186900000Y-107500000I0J-200000D01*
G01*
G37*
X172600000Y-108500000D03*
X177600000Y-110700000D03*
X180140000Y-99720000D03*
D11*
X177600000Y-104800000D03*
D12*
X172100000Y-104800000D03*
X183100000Y-104800000D03*
D13*
X182680000Y-104800000D03*
X172520000Y-104800000D03*
D10*
X173790000Y-102260000D03*
G36*
G01*
X154200000Y-97320000D02*
X154200000Y-99320000D01*
G75*
G02*
X154000000Y-99520000I-200000J0D01*
G01*
X152000000Y-99520000D01*
G75*
G02*
X151800000Y-99320000I0J200000D01*
G01*
X151800000Y-97320000D01*
G75*
G02*
X152000000Y-97120000I200000J0D01*
G01*
X154000000Y-97120000D01*
G75*
G02*
X154200000Y-97320000I0J-200000D01*
G01*
G37*
X162410000Y-100860000D03*
X156060000Y-98320000D03*
G36*
G01*
X166700000Y-99860000D02*
X166700000Y-101860000D01*
G75*
G02*
X166500000Y-102060000I-200000J0D01*
G01*
X164500000Y-102060000D01*
G75*
G02*
X164300000Y-101860000I0J200000D01*
G01*
X164300000Y-99860000D01*
G75*
G02*
X164500000Y-99660000I200000J0D01*
G01*
X166500000Y-99660000D01*
G75*
G02*
X166700000Y-99860000I0J-200000D01*
G01*
G37*
X163600000Y-107100000D03*
G36*
G01*
X156900000Y-108300000D02*
X156900000Y-110300000D01*
G75*
G02*
X156700000Y-110500000I-200000J0D01*
G01*
X154900000Y-110500000D01*
G75*
G02*
X154700000Y-110300000I0J200000D01*
G01*
X154700000Y-108300000D01*
G75*
G02*
X154900000Y-108100000I200000J0D01*
G01*
X156700000Y-108100000D01*
G75*
G02*
X156900000Y-108300000I0J-200000D01*
G01*
G37*
G36*
G01*
X167900000Y-106100000D02*
X167900000Y-108100000D01*
G75*
G02*
X167700000Y-108300000I-200000J0D01*
G01*
X165700000Y-108300000D01*
G75*
G02*
X165500000Y-108100000I0J200000D01*
G01*
X165500000Y-106100000D01*
G75*
G02*
X165700000Y-105900000I200000J0D01*
G01*
X167700000Y-105900000D01*
G75*
G02*
X167900000Y-106100000I0J-200000D01*
G01*
G37*
X153600000Y-107100000D03*
X158600000Y-109300000D03*
X161140000Y-98320000D03*
D11*
X158600000Y-103400000D03*
D12*
X153100000Y-103400000D03*
X164100000Y-103400000D03*
D13*
X163680000Y-103400000D03*
X153520000Y-103400000D03*
D10*
X154790000Y-100860000D03*
G36*
G01*
X135100000Y-98720000D02*
X135100000Y-100720000D01*
G75*
G02*
X134900000Y-100920000I-200000J0D01*
G01*
X132900000Y-100920000D01*
G75*
G02*
X132700000Y-100720000I0J200000D01*
G01*
X132700000Y-98720000D01*
G75*
G02*
X132900000Y-98520000I200000J0D01*
G01*
X134900000Y-98520000D01*
G75*
G02*
X135100000Y-98720000I0J-200000D01*
G01*
G37*
X143310000Y-102260000D03*
X136960000Y-99720000D03*
G36*
G01*
X147600000Y-101260000D02*
X147600000Y-103260000D01*
G75*
G02*
X147400000Y-103460000I-200000J0D01*
G01*
X145400000Y-103460000D01*
G75*
G02*
X145200000Y-103260000I0J200000D01*
G01*
X145200000Y-101260000D01*
G75*
G02*
X145400000Y-101060000I200000J0D01*
G01*
X147400000Y-101060000D01*
G75*
G02*
X147600000Y-101260000I0J-200000D01*
G01*
G37*
X144500000Y-108500000D03*
G36*
G01*
X137800000Y-109700000D02*
X137800000Y-111700000D01*
G75*
G02*
X137600000Y-111900000I-200000J0D01*
G01*
X135800000Y-111900000D01*
G75*
G02*
X135600000Y-111700000I0J200000D01*
G01*
X135600000Y-109700000D01*
G75*
G02*
X135800000Y-109500000I200000J0D01*
G01*
X137600000Y-109500000D01*
G75*
G02*
X137800000Y-109700000I0J-200000D01*
G01*
G37*
G36*
G01*
X148800000Y-107500000D02*
X148800000Y-109500000D01*
G75*
G02*
X148600000Y-109700000I-200000J0D01*
G01*
X146600000Y-109700000D01*
G75*
G02*
X146400000Y-109500000I0J200000D01*
G01*
X146400000Y-107500000D01*
G75*
G02*
X146600000Y-107300000I200000J0D01*
G01*
X148600000Y-107300000D01*
G75*
G02*
X148800000Y-107500000I0J-200000D01*
G01*
G37*
X134500000Y-108500000D03*
X139500000Y-110700000D03*
X142040000Y-99720000D03*
D11*
X139500000Y-104800000D03*
D12*
X134000000Y-104800000D03*
X145000000Y-104800000D03*
D13*
X144580000Y-104800000D03*
X134420000Y-104800000D03*
D10*
X135690000Y-102260000D03*
G36*
G01*
X116100000Y-101020000D02*
X116100000Y-103020000D01*
G75*
G02*
X115900000Y-103220000I-200000J0D01*
G01*
X113900000Y-103220000D01*
G75*
G02*
X113700000Y-103020000I0J200000D01*
G01*
X113700000Y-101020000D01*
G75*
G02*
X113900000Y-100820000I200000J0D01*
G01*
X115900000Y-100820000D01*
G75*
G02*
X116100000Y-101020000I0J-200000D01*
G01*
G37*
X124310000Y-104560000D03*
X117960000Y-102020000D03*
G36*
G01*
X128600000Y-103560000D02*
X128600000Y-105560000D01*
G75*
G02*
X128400000Y-105760000I-200000J0D01*
G01*
X126400000Y-105760000D01*
G75*
G02*
X126200000Y-105560000I0J200000D01*
G01*
X126200000Y-103560000D01*
G75*
G02*
X126400000Y-103360000I200000J0D01*
G01*
X128400000Y-103360000D01*
G75*
G02*
X128600000Y-103560000I0J-200000D01*
G01*
G37*
X125500000Y-110800000D03*
G36*
G01*
X118800000Y-112000000D02*
X118800000Y-114000000D01*
G75*
G02*
X118600000Y-114200000I-200000J0D01*
G01*
X116800000Y-114200000D01*
G75*
G02*
X116600000Y-114000000I0J200000D01*
G01*
X116600000Y-112000000D01*
G75*
G02*
X116800000Y-111800000I200000J0D01*
G01*
X118600000Y-111800000D01*
G75*
G02*
X118800000Y-112000000I0J-200000D01*
G01*
G37*
G36*
G01*
X129800000Y-109800000D02*
X129800000Y-111800000D01*
G75*
G02*
X129600000Y-112000000I-200000J0D01*
G01*
X127600000Y-112000000D01*
G75*
G02*
X127400000Y-111800000I0J200000D01*
G01*
X127400000Y-109800000D01*
G75*
G02*
X127600000Y-109600000I200000J0D01*
G01*
X129600000Y-109600000D01*
G75*
G02*
X129800000Y-109800000I0J-200000D01*
G01*
G37*
X115500000Y-110800000D03*
X120500000Y-113000000D03*
X123040000Y-102020000D03*
D11*
X120500000Y-107100000D03*
D12*
X115000000Y-107100000D03*
X126000000Y-107100000D03*
D13*
X125580000Y-107100000D03*
X115420000Y-107100000D03*
D10*
X116690000Y-104560000D03*
G36*
G01*
X211300000Y-85920000D02*
X211300000Y-87920000D01*
G75*
G02*
X211100000Y-88120000I-200000J0D01*
G01*
X209100000Y-88120000D01*
G75*
G02*
X208900000Y-87920000I0J200000D01*
G01*
X208900000Y-85920000D01*
G75*
G02*
X209100000Y-85720000I200000J0D01*
G01*
X211100000Y-85720000D01*
G75*
G02*
X211300000Y-85920000I0J-200000D01*
G01*
G37*
X219510000Y-89460000D03*
X213160000Y-86920000D03*
G36*
G01*
X223800000Y-88460000D02*
X223800000Y-90460000D01*
G75*
G02*
X223600000Y-90660000I-200000J0D01*
G01*
X221600000Y-90660000D01*
G75*
G02*
X221400000Y-90460000I0J200000D01*
G01*
X221400000Y-88460000D01*
G75*
G02*
X221600000Y-88260000I200000J0D01*
G01*
X223600000Y-88260000D01*
G75*
G02*
X223800000Y-88460000I0J-200000D01*
G01*
G37*
X220700000Y-95700000D03*
G36*
G01*
X214000000Y-96900000D02*
X214000000Y-98900000D01*
G75*
G02*
X213800000Y-99100000I-200000J0D01*
G01*
X212000000Y-99100000D01*
G75*
G02*
X211800000Y-98900000I0J200000D01*
G01*
X211800000Y-96900000D01*
G75*
G02*
X212000000Y-96700000I200000J0D01*
G01*
X213800000Y-96700000D01*
G75*
G02*
X214000000Y-96900000I0J-200000D01*
G01*
G37*
G36*
G01*
X225000000Y-94700000D02*
X225000000Y-96700000D01*
G75*
G02*
X224800000Y-96900000I-200000J0D01*
G01*
X222800000Y-96900000D01*
G75*
G02*
X222600000Y-96700000I0J200000D01*
G01*
X222600000Y-94700000D01*
G75*
G02*
X222800000Y-94500000I200000J0D01*
G01*
X224800000Y-94500000D01*
G75*
G02*
X225000000Y-94700000I0J-200000D01*
G01*
G37*
X210700000Y-95700000D03*
X215700000Y-97900000D03*
X218240000Y-86920000D03*
D11*
X215700000Y-92000000D03*
D12*
X210200000Y-92000000D03*
X221200000Y-92000000D03*
D13*
X220780000Y-92000000D03*
X210620000Y-92000000D03*
D10*
X211890000Y-89460000D03*
G36*
G01*
X192300000Y-84420000D02*
X192300000Y-86420000D01*
G75*
G02*
X192100000Y-86620000I-200000J0D01*
G01*
X190100000Y-86620000D01*
G75*
G02*
X189900000Y-86420000I0J200000D01*
G01*
X189900000Y-84420000D01*
G75*
G02*
X190100000Y-84220000I200000J0D01*
G01*
X192100000Y-84220000D01*
G75*
G02*
X192300000Y-84420000I0J-200000D01*
G01*
G37*
X200510000Y-87960000D03*
X194160000Y-85420000D03*
G36*
G01*
X204800000Y-86960000D02*
X204800000Y-88960000D01*
G75*
G02*
X204600000Y-89160000I-200000J0D01*
G01*
X202600000Y-89160000D01*
G75*
G02*
X202400000Y-88960000I0J200000D01*
G01*
X202400000Y-86960000D01*
G75*
G02*
X202600000Y-86760000I200000J0D01*
G01*
X204600000Y-86760000D01*
G75*
G02*
X204800000Y-86960000I0J-200000D01*
G01*
G37*
X201700000Y-94200000D03*
G36*
G01*
X195000000Y-95400000D02*
X195000000Y-97400000D01*
G75*
G02*
X194800000Y-97600000I-200000J0D01*
G01*
X193000000Y-97600000D01*
G75*
G02*
X192800000Y-97400000I0J200000D01*
G01*
X192800000Y-95400000D01*
G75*
G02*
X193000000Y-95200000I200000J0D01*
G01*
X194800000Y-95200000D01*
G75*
G02*
X195000000Y-95400000I0J-200000D01*
G01*
G37*
G36*
G01*
X206000000Y-93200000D02*
X206000000Y-95200000D01*
G75*
G02*
X205800000Y-95400000I-200000J0D01*
G01*
X203800000Y-95400000D01*
G75*
G02*
X203600000Y-95200000I0J200000D01*
G01*
X203600000Y-93200000D01*
G75*
G02*
X203800000Y-93000000I200000J0D01*
G01*
X205800000Y-93000000D01*
G75*
G02*
X206000000Y-93200000I0J-200000D01*
G01*
G37*
X191700000Y-94200000D03*
X196700000Y-96400000D03*
X199240000Y-85420000D03*
D11*
X196700000Y-90500000D03*
D12*
X191200000Y-90500000D03*
X202200000Y-90500000D03*
D13*
X201780000Y-90500000D03*
X191620000Y-90500000D03*
D10*
X192890000Y-87960000D03*
G36*
G01*
X173200000Y-79620000D02*
X173200000Y-81620000D01*
G75*
G02*
X173000000Y-81820000I-200000J0D01*
G01*
X171000000Y-81820000D01*
G75*
G02*
X170800000Y-81620000I0J200000D01*
G01*
X170800000Y-79620000D01*
G75*
G02*
X171000000Y-79420000I200000J0D01*
G01*
X173000000Y-79420000D01*
G75*
G02*
X173200000Y-79620000I0J-200000D01*
G01*
G37*
X181410000Y-83160000D03*
X175060000Y-80620000D03*
G36*
G01*
X185700000Y-82160000D02*
X185700000Y-84160000D01*
G75*
G02*
X185500000Y-84360000I-200000J0D01*
G01*
X183500000Y-84360000D01*
G75*
G02*
X183300000Y-84160000I0J200000D01*
G01*
X183300000Y-82160000D01*
G75*
G02*
X183500000Y-81960000I200000J0D01*
G01*
X185500000Y-81960000D01*
G75*
G02*
X185700000Y-82160000I0J-200000D01*
G01*
G37*
X182600000Y-89400000D03*
G36*
G01*
X175900000Y-90600000D02*
X175900000Y-92600000D01*
G75*
G02*
X175700000Y-92800000I-200000J0D01*
G01*
X173900000Y-92800000D01*
G75*
G02*
X173700000Y-92600000I0J200000D01*
G01*
X173700000Y-90600000D01*
G75*
G02*
X173900000Y-90400000I200000J0D01*
G01*
X175700000Y-90400000D01*
G75*
G02*
X175900000Y-90600000I0J-200000D01*
G01*
G37*
G36*
G01*
X186900000Y-88400000D02*
X186900000Y-90400000D01*
G75*
G02*
X186700000Y-90600000I-200000J0D01*
G01*
X184700000Y-90600000D01*
G75*
G02*
X184500000Y-90400000I0J200000D01*
G01*
X184500000Y-88400000D01*
G75*
G02*
X184700000Y-88200000I200000J0D01*
G01*
X186700000Y-88200000D01*
G75*
G02*
X186900000Y-88400000I0J-200000D01*
G01*
G37*
X172600000Y-89400000D03*
X177600000Y-91600000D03*
X180140000Y-80620000D03*
D11*
X177600000Y-85700000D03*
D12*
X172100000Y-85700000D03*
X183100000Y-85700000D03*
D13*
X182680000Y-85700000D03*
X172520000Y-85700000D03*
D10*
X173790000Y-83160000D03*
G36*
G01*
X154200000Y-78320000D02*
X154200000Y-80320000D01*
G75*
G02*
X154000000Y-80520000I-200000J0D01*
G01*
X152000000Y-80520000D01*
G75*
G02*
X151800000Y-80320000I0J200000D01*
G01*
X151800000Y-78320000D01*
G75*
G02*
X152000000Y-78120000I200000J0D01*
G01*
X154000000Y-78120000D01*
G75*
G02*
X154200000Y-78320000I0J-200000D01*
G01*
G37*
X162410000Y-81860000D03*
X156060000Y-79320000D03*
G36*
G01*
X166700000Y-80860000D02*
X166700000Y-82860000D01*
G75*
G02*
X166500000Y-83060000I-200000J0D01*
G01*
X164500000Y-83060000D01*
G75*
G02*
X164300000Y-82860000I0J200000D01*
G01*
X164300000Y-80860000D01*
G75*
G02*
X164500000Y-80660000I200000J0D01*
G01*
X166500000Y-80660000D01*
G75*
G02*
X166700000Y-80860000I0J-200000D01*
G01*
G37*
X163600000Y-88100000D03*
G36*
G01*
X156900000Y-89300000D02*
X156900000Y-91300000D01*
G75*
G02*
X156700000Y-91500000I-200000J0D01*
G01*
X154900000Y-91500000D01*
G75*
G02*
X154700000Y-91300000I0J200000D01*
G01*
X154700000Y-89300000D01*
G75*
G02*
X154900000Y-89100000I200000J0D01*
G01*
X156700000Y-89100000D01*
G75*
G02*
X156900000Y-89300000I0J-200000D01*
G01*
G37*
G36*
G01*
X167900000Y-87100000D02*
X167900000Y-89100000D01*
G75*
G02*
X167700000Y-89300000I-200000J0D01*
G01*
X165700000Y-89300000D01*
G75*
G02*
X165500000Y-89100000I0J200000D01*
G01*
X165500000Y-87100000D01*
G75*
G02*
X165700000Y-86900000I200000J0D01*
G01*
X167700000Y-86900000D01*
G75*
G02*
X167900000Y-87100000I0J-200000D01*
G01*
G37*
X153600000Y-88100000D03*
X158600000Y-90300000D03*
X161140000Y-79320000D03*
D11*
X158600000Y-84400000D03*
D12*
X153100000Y-84400000D03*
X164100000Y-84400000D03*
D13*
X163680000Y-84400000D03*
X153520000Y-84400000D03*
D10*
X154790000Y-81860000D03*
G36*
G01*
X135100000Y-79620000D02*
X135100000Y-81620000D01*
G75*
G02*
X134900000Y-81820000I-200000J0D01*
G01*
X132900000Y-81820000D01*
G75*
G02*
X132700000Y-81620000I0J200000D01*
G01*
X132700000Y-79620000D01*
G75*
G02*
X132900000Y-79420000I200000J0D01*
G01*
X134900000Y-79420000D01*
G75*
G02*
X135100000Y-79620000I0J-200000D01*
G01*
G37*
X143310000Y-83160000D03*
X136960000Y-80620000D03*
G36*
G01*
X147600000Y-82160000D02*
X147600000Y-84160000D01*
G75*
G02*
X147400000Y-84360000I-200000J0D01*
G01*
X145400000Y-84360000D01*
G75*
G02*
X145200000Y-84160000I0J200000D01*
G01*
X145200000Y-82160000D01*
G75*
G02*
X145400000Y-81960000I200000J0D01*
G01*
X147400000Y-81960000D01*
G75*
G02*
X147600000Y-82160000I0J-200000D01*
G01*
G37*
X144500000Y-89400000D03*
G36*
G01*
X137800000Y-90600000D02*
X137800000Y-92600000D01*
G75*
G02*
X137600000Y-92800000I-200000J0D01*
G01*
X135800000Y-92800000D01*
G75*
G02*
X135600000Y-92600000I0J200000D01*
G01*
X135600000Y-90600000D01*
G75*
G02*
X135800000Y-90400000I200000J0D01*
G01*
X137600000Y-90400000D01*
G75*
G02*
X137800000Y-90600000I0J-200000D01*
G01*
G37*
G36*
G01*
X148800000Y-88400000D02*
X148800000Y-90400000D01*
G75*
G02*
X148600000Y-90600000I-200000J0D01*
G01*
X146600000Y-90600000D01*
G75*
G02*
X146400000Y-90400000I0J200000D01*
G01*
X146400000Y-88400000D01*
G75*
G02*
X146600000Y-88200000I200000J0D01*
G01*
X148600000Y-88200000D01*
G75*
G02*
X148800000Y-88400000I0J-200000D01*
G01*
G37*
X134500000Y-89400000D03*
X139500000Y-91600000D03*
X142040000Y-80620000D03*
D11*
X139500000Y-85700000D03*
D12*
X134000000Y-85700000D03*
X145000000Y-85700000D03*
D13*
X144580000Y-85700000D03*
X134420000Y-85700000D03*
D10*
X135690000Y-83160000D03*
G36*
G01*
X116100000Y-82020000D02*
X116100000Y-84020000D01*
G75*
G02*
X115900000Y-84220000I-200000J0D01*
G01*
X113900000Y-84220000D01*
G75*
G02*
X113700000Y-84020000I0J200000D01*
G01*
X113700000Y-82020000D01*
G75*
G02*
X113900000Y-81820000I200000J0D01*
G01*
X115900000Y-81820000D01*
G75*
G02*
X116100000Y-82020000I0J-200000D01*
G01*
G37*
X124310000Y-85560000D03*
X117960000Y-83020000D03*
G36*
G01*
X128600000Y-84560000D02*
X128600000Y-86560000D01*
G75*
G02*
X128400000Y-86760000I-200000J0D01*
G01*
X126400000Y-86760000D01*
G75*
G02*
X126200000Y-86560000I0J200000D01*
G01*
X126200000Y-84560000D01*
G75*
G02*
X126400000Y-84360000I200000J0D01*
G01*
X128400000Y-84360000D01*
G75*
G02*
X128600000Y-84560000I0J-200000D01*
G01*
G37*
X125500000Y-91800000D03*
G36*
G01*
X118800000Y-93000000D02*
X118800000Y-95000000D01*
G75*
G02*
X118600000Y-95200000I-200000J0D01*
G01*
X116800000Y-95200000D01*
G75*
G02*
X116600000Y-95000000I0J200000D01*
G01*
X116600000Y-93000000D01*
G75*
G02*
X116800000Y-92800000I200000J0D01*
G01*
X118600000Y-92800000D01*
G75*
G02*
X118800000Y-93000000I0J-200000D01*
G01*
G37*
G36*
G01*
X129800000Y-90800000D02*
X129800000Y-92800000D01*
G75*
G02*
X129600000Y-93000000I-200000J0D01*
G01*
X127600000Y-93000000D01*
G75*
G02*
X127400000Y-92800000I0J200000D01*
G01*
X127400000Y-90800000D01*
G75*
G02*
X127600000Y-90600000I200000J0D01*
G01*
X129600000Y-90600000D01*
G75*
G02*
X129800000Y-90800000I0J-200000D01*
G01*
G37*
X115500000Y-91800000D03*
X120500000Y-94000000D03*
X123040000Y-83020000D03*
D11*
X120500000Y-88100000D03*
D12*
X115000000Y-88100000D03*
X126000000Y-88100000D03*
D13*
X125580000Y-88100000D03*
X115420000Y-88100000D03*
D10*
X116690000Y-85560000D03*
G36*
G01*
X211300000Y-66720000D02*
X211300000Y-68720000D01*
G75*
G02*
X211100000Y-68920000I-200000J0D01*
G01*
X209100000Y-68920000D01*
G75*
G02*
X208900000Y-68720000I0J200000D01*
G01*
X208900000Y-66720000D01*
G75*
G02*
X209100000Y-66520000I200000J0D01*
G01*
X211100000Y-66520000D01*
G75*
G02*
X211300000Y-66720000I0J-200000D01*
G01*
G37*
X219510000Y-70260000D03*
X213160000Y-67720000D03*
G36*
G01*
X223800000Y-69260000D02*
X223800000Y-71260000D01*
G75*
G02*
X223600000Y-71460000I-200000J0D01*
G01*
X221600000Y-71460000D01*
G75*
G02*
X221400000Y-71260000I0J200000D01*
G01*
X221400000Y-69260000D01*
G75*
G02*
X221600000Y-69060000I200000J0D01*
G01*
X223600000Y-69060000D01*
G75*
G02*
X223800000Y-69260000I0J-200000D01*
G01*
G37*
X220700000Y-76500000D03*
G36*
G01*
X214000000Y-77700000D02*
X214000000Y-79700000D01*
G75*
G02*
X213800000Y-79900000I-200000J0D01*
G01*
X212000000Y-79900000D01*
G75*
G02*
X211800000Y-79700000I0J200000D01*
G01*
X211800000Y-77700000D01*
G75*
G02*
X212000000Y-77500000I200000J0D01*
G01*
X213800000Y-77500000D01*
G75*
G02*
X214000000Y-77700000I0J-200000D01*
G01*
G37*
G36*
G01*
X225000000Y-75500000D02*
X225000000Y-77500000D01*
G75*
G02*
X224800000Y-77700000I-200000J0D01*
G01*
X222800000Y-77700000D01*
G75*
G02*
X222600000Y-77500000I0J200000D01*
G01*
X222600000Y-75500000D01*
G75*
G02*
X222800000Y-75300000I200000J0D01*
G01*
X224800000Y-75300000D01*
G75*
G02*
X225000000Y-75500000I0J-200000D01*
G01*
G37*
X210700000Y-76500000D03*
X215700000Y-78700000D03*
X218240000Y-67720000D03*
D11*
X215700000Y-72800000D03*
D12*
X210200000Y-72800000D03*
X221200000Y-72800000D03*
D13*
X220780000Y-72800000D03*
X210620000Y-72800000D03*
D10*
X211890000Y-70260000D03*
G36*
G01*
X192300000Y-65220000D02*
X192300000Y-67220000D01*
G75*
G02*
X192100000Y-67420000I-200000J0D01*
G01*
X190100000Y-67420000D01*
G75*
G02*
X189900000Y-67220000I0J200000D01*
G01*
X189900000Y-65220000D01*
G75*
G02*
X190100000Y-65020000I200000J0D01*
G01*
X192100000Y-65020000D01*
G75*
G02*
X192300000Y-65220000I0J-200000D01*
G01*
G37*
X200510000Y-68760000D03*
X194160000Y-66220000D03*
G36*
G01*
X204800000Y-67760000D02*
X204800000Y-69760000D01*
G75*
G02*
X204600000Y-69960000I-200000J0D01*
G01*
X202600000Y-69960000D01*
G75*
G02*
X202400000Y-69760000I0J200000D01*
G01*
X202400000Y-67760000D01*
G75*
G02*
X202600000Y-67560000I200000J0D01*
G01*
X204600000Y-67560000D01*
G75*
G02*
X204800000Y-67760000I0J-200000D01*
G01*
G37*
X201700000Y-75000000D03*
G36*
G01*
X195000000Y-76200000D02*
X195000000Y-78200000D01*
G75*
G02*
X194800000Y-78400000I-200000J0D01*
G01*
X193000000Y-78400000D01*
G75*
G02*
X192800000Y-78200000I0J200000D01*
G01*
X192800000Y-76200000D01*
G75*
G02*
X193000000Y-76000000I200000J0D01*
G01*
X194800000Y-76000000D01*
G75*
G02*
X195000000Y-76200000I0J-200000D01*
G01*
G37*
G36*
G01*
X206000000Y-74000000D02*
X206000000Y-76000000D01*
G75*
G02*
X205800000Y-76200000I-200000J0D01*
G01*
X203800000Y-76200000D01*
G75*
G02*
X203600000Y-76000000I0J200000D01*
G01*
X203600000Y-74000000D01*
G75*
G02*
X203800000Y-73800000I200000J0D01*
G01*
X205800000Y-73800000D01*
G75*
G02*
X206000000Y-74000000I0J-200000D01*
G01*
G37*
X191700000Y-75000000D03*
X196700000Y-77200000D03*
X199240000Y-66220000D03*
D11*
X196700000Y-71300000D03*
D12*
X191200000Y-71300000D03*
X202200000Y-71300000D03*
D13*
X201780000Y-71300000D03*
X191620000Y-71300000D03*
D10*
X192890000Y-68760000D03*
G36*
G01*
X173200000Y-60520000D02*
X173200000Y-62520000D01*
G75*
G02*
X173000000Y-62720000I-200000J0D01*
G01*
X171000000Y-62720000D01*
G75*
G02*
X170800000Y-62520000I0J200000D01*
G01*
X170800000Y-60520000D01*
G75*
G02*
X171000000Y-60320000I200000J0D01*
G01*
X173000000Y-60320000D01*
G75*
G02*
X173200000Y-60520000I0J-200000D01*
G01*
G37*
X181410000Y-64060000D03*
X175060000Y-61520000D03*
G36*
G01*
X185700000Y-63060000D02*
X185700000Y-65060000D01*
G75*
G02*
X185500000Y-65260000I-200000J0D01*
G01*
X183500000Y-65260000D01*
G75*
G02*
X183300000Y-65060000I0J200000D01*
G01*
X183300000Y-63060000D01*
G75*
G02*
X183500000Y-62860000I200000J0D01*
G01*
X185500000Y-62860000D01*
G75*
G02*
X185700000Y-63060000I0J-200000D01*
G01*
G37*
X182600000Y-70300000D03*
G36*
G01*
X175900000Y-71500000D02*
X175900000Y-73500000D01*
G75*
G02*
X175700000Y-73700000I-200000J0D01*
G01*
X173900000Y-73700000D01*
G75*
G02*
X173700000Y-73500000I0J200000D01*
G01*
X173700000Y-71500000D01*
G75*
G02*
X173900000Y-71300000I200000J0D01*
G01*
X175700000Y-71300000D01*
G75*
G02*
X175900000Y-71500000I0J-200000D01*
G01*
G37*
G36*
G01*
X186900000Y-69300000D02*
X186900000Y-71300000D01*
G75*
G02*
X186700000Y-71500000I-200000J0D01*
G01*
X184700000Y-71500000D01*
G75*
G02*
X184500000Y-71300000I0J200000D01*
G01*
X184500000Y-69300000D01*
G75*
G02*
X184700000Y-69100000I200000J0D01*
G01*
X186700000Y-69100000D01*
G75*
G02*
X186900000Y-69300000I0J-200000D01*
G01*
G37*
X172600000Y-70300000D03*
X177600000Y-72500000D03*
X180140000Y-61520000D03*
D11*
X177600000Y-66600000D03*
D12*
X172100000Y-66600000D03*
X183100000Y-66600000D03*
D13*
X182680000Y-66600000D03*
X172520000Y-66600000D03*
D10*
X173790000Y-64060000D03*
G36*
G01*
X154200000Y-59220000D02*
X154200000Y-61220000D01*
G75*
G02*
X154000000Y-61420000I-200000J0D01*
G01*
X152000000Y-61420000D01*
G75*
G02*
X151800000Y-61220000I0J200000D01*
G01*
X151800000Y-59220000D01*
G75*
G02*
X152000000Y-59020000I200000J0D01*
G01*
X154000000Y-59020000D01*
G75*
G02*
X154200000Y-59220000I0J-200000D01*
G01*
G37*
X162410000Y-62760000D03*
X156060000Y-60220000D03*
G36*
G01*
X166700000Y-61760000D02*
X166700000Y-63760000D01*
G75*
G02*
X166500000Y-63960000I-200000J0D01*
G01*
X164500000Y-63960000D01*
G75*
G02*
X164300000Y-63760000I0J200000D01*
G01*
X164300000Y-61760000D01*
G75*
G02*
X164500000Y-61560000I200000J0D01*
G01*
X166500000Y-61560000D01*
G75*
G02*
X166700000Y-61760000I0J-200000D01*
G01*
G37*
X163600000Y-69000000D03*
G36*
G01*
X156900000Y-70200000D02*
X156900000Y-72200000D01*
G75*
G02*
X156700000Y-72400000I-200000J0D01*
G01*
X154900000Y-72400000D01*
G75*
G02*
X154700000Y-72200000I0J200000D01*
G01*
X154700000Y-70200000D01*
G75*
G02*
X154900000Y-70000000I200000J0D01*
G01*
X156700000Y-70000000D01*
G75*
G02*
X156900000Y-70200000I0J-200000D01*
G01*
G37*
G36*
G01*
X167900000Y-68000000D02*
X167900000Y-70000000D01*
G75*
G02*
X167700000Y-70200000I-200000J0D01*
G01*
X165700000Y-70200000D01*
G75*
G02*
X165500000Y-70000000I0J200000D01*
G01*
X165500000Y-68000000D01*
G75*
G02*
X165700000Y-67800000I200000J0D01*
G01*
X167700000Y-67800000D01*
G75*
G02*
X167900000Y-68000000I0J-200000D01*
G01*
G37*
X153600000Y-69000000D03*
X158600000Y-71200000D03*
X161140000Y-60220000D03*
D11*
X158600000Y-65300000D03*
D12*
X153100000Y-65300000D03*
X164100000Y-65300000D03*
D13*
X163680000Y-65300000D03*
X153520000Y-65300000D03*
D10*
X154790000Y-62760000D03*
G36*
G01*
X135100000Y-60620000D02*
X135100000Y-62620000D01*
G75*
G02*
X134900000Y-62820000I-200000J0D01*
G01*
X132900000Y-62820000D01*
G75*
G02*
X132700000Y-62620000I0J200000D01*
G01*
X132700000Y-60620000D01*
G75*
G02*
X132900000Y-60420000I200000J0D01*
G01*
X134900000Y-60420000D01*
G75*
G02*
X135100000Y-60620000I0J-200000D01*
G01*
G37*
X143310000Y-64160000D03*
X136960000Y-61620000D03*
G36*
G01*
X147600000Y-63160000D02*
X147600000Y-65160000D01*
G75*
G02*
X147400000Y-65360000I-200000J0D01*
G01*
X145400000Y-65360000D01*
G75*
G02*
X145200000Y-65160000I0J200000D01*
G01*
X145200000Y-63160000D01*
G75*
G02*
X145400000Y-62960000I200000J0D01*
G01*
X147400000Y-62960000D01*
G75*
G02*
X147600000Y-63160000I0J-200000D01*
G01*
G37*
X144500000Y-70400000D03*
G36*
G01*
X137800000Y-71600000D02*
X137800000Y-73600000D01*
G75*
G02*
X137600000Y-73800000I-200000J0D01*
G01*
X135800000Y-73800000D01*
G75*
G02*
X135600000Y-73600000I0J200000D01*
G01*
X135600000Y-71600000D01*
G75*
G02*
X135800000Y-71400000I200000J0D01*
G01*
X137600000Y-71400000D01*
G75*
G02*
X137800000Y-71600000I0J-200000D01*
G01*
G37*
G36*
G01*
X148800000Y-69400000D02*
X148800000Y-71400000D01*
G75*
G02*
X148600000Y-71600000I-200000J0D01*
G01*
X146600000Y-71600000D01*
G75*
G02*
X146400000Y-71400000I0J200000D01*
G01*
X146400000Y-69400000D01*
G75*
G02*
X146600000Y-69200000I200000J0D01*
G01*
X148600000Y-69200000D01*
G75*
G02*
X148800000Y-69400000I0J-200000D01*
G01*
G37*
X134500000Y-70400000D03*
X139500000Y-72600000D03*
X142040000Y-61620000D03*
D11*
X139500000Y-66700000D03*
D12*
X134000000Y-66700000D03*
X145000000Y-66700000D03*
D13*
X144580000Y-66700000D03*
X134420000Y-66700000D03*
D10*
X135690000Y-64160000D03*
G36*
G01*
X116100000Y-63020000D02*
X116100000Y-65020000D01*
G75*
G02*
X115900000Y-65220000I-200000J0D01*
G01*
X113900000Y-65220000D01*
G75*
G02*
X113700000Y-65020000I0J200000D01*
G01*
X113700000Y-63020000D01*
G75*
G02*
X113900000Y-62820000I200000J0D01*
G01*
X115900000Y-62820000D01*
G75*
G02*
X116100000Y-63020000I0J-200000D01*
G01*
G37*
X124310000Y-66560000D03*
X117960000Y-64020000D03*
G36*
G01*
X128600000Y-65560000D02*
X128600000Y-67560000D01*
G75*
G02*
X128400000Y-67760000I-200000J0D01*
G01*
X126400000Y-67760000D01*
G75*
G02*
X126200000Y-67560000I0J200000D01*
G01*
X126200000Y-65560000D01*
G75*
G02*
X126400000Y-65360000I200000J0D01*
G01*
X128400000Y-65360000D01*
G75*
G02*
X128600000Y-65560000I0J-200000D01*
G01*
G37*
X125500000Y-72800000D03*
G36*
G01*
X118800000Y-74000000D02*
X118800000Y-76000000D01*
G75*
G02*
X118600000Y-76200000I-200000J0D01*
G01*
X116800000Y-76200000D01*
G75*
G02*
X116600000Y-76000000I0J200000D01*
G01*
X116600000Y-74000000D01*
G75*
G02*
X116800000Y-73800000I200000J0D01*
G01*
X118600000Y-73800000D01*
G75*
G02*
X118800000Y-74000000I0J-200000D01*
G01*
G37*
G36*
G01*
X129800000Y-71800000D02*
X129800000Y-73800000D01*
G75*
G02*
X129600000Y-74000000I-200000J0D01*
G01*
X127600000Y-74000000D01*
G75*
G02*
X127400000Y-73800000I0J200000D01*
G01*
X127400000Y-71800000D01*
G75*
G02*
X127600000Y-71600000I200000J0D01*
G01*
X129600000Y-71600000D01*
G75*
G02*
X129800000Y-71800000I0J-200000D01*
G01*
G37*
X115500000Y-72800000D03*
X120500000Y-75000000D03*
X123040000Y-64020000D03*
D11*
X120500000Y-69100000D03*
D12*
X115000000Y-69100000D03*
X126000000Y-69100000D03*
D13*
X125580000Y-69100000D03*
X115420000Y-69100000D03*
D10*
X116690000Y-66560000D03*
G36*
G01*
X211300000Y-47820000D02*
X211300000Y-49820000D01*
G75*
G02*
X211100000Y-50020000I-200000J0D01*
G01*
X209100000Y-50020000D01*
G75*
G02*
X208900000Y-49820000I0J200000D01*
G01*
X208900000Y-47820000D01*
G75*
G02*
X209100000Y-47620000I200000J0D01*
G01*
X211100000Y-47620000D01*
G75*
G02*
X211300000Y-47820000I0J-200000D01*
G01*
G37*
X219510000Y-51360000D03*
X213160000Y-48820000D03*
G36*
G01*
X223800000Y-50360000D02*
X223800000Y-52360000D01*
G75*
G02*
X223600000Y-52560000I-200000J0D01*
G01*
X221600000Y-52560000D01*
G75*
G02*
X221400000Y-52360000I0J200000D01*
G01*
X221400000Y-50360000D01*
G75*
G02*
X221600000Y-50160000I200000J0D01*
G01*
X223600000Y-50160000D01*
G75*
G02*
X223800000Y-50360000I0J-200000D01*
G01*
G37*
X220700000Y-57600000D03*
G36*
G01*
X214000000Y-58800000D02*
X214000000Y-60800000D01*
G75*
G02*
X213800000Y-61000000I-200000J0D01*
G01*
X212000000Y-61000000D01*
G75*
G02*
X211800000Y-60800000I0J200000D01*
G01*
X211800000Y-58800000D01*
G75*
G02*
X212000000Y-58600000I200000J0D01*
G01*
X213800000Y-58600000D01*
G75*
G02*
X214000000Y-58800000I0J-200000D01*
G01*
G37*
G36*
G01*
X225000000Y-56600000D02*
X225000000Y-58600000D01*
G75*
G02*
X224800000Y-58800000I-200000J0D01*
G01*
X222800000Y-58800000D01*
G75*
G02*
X222600000Y-58600000I0J200000D01*
G01*
X222600000Y-56600000D01*
G75*
G02*
X222800000Y-56400000I200000J0D01*
G01*
X224800000Y-56400000D01*
G75*
G02*
X225000000Y-56600000I0J-200000D01*
G01*
G37*
X210700000Y-57600000D03*
X215700000Y-59800000D03*
X218240000Y-48820000D03*
D11*
X215700000Y-53900000D03*
D12*
X210200000Y-53900000D03*
X221200000Y-53900000D03*
D13*
X220780000Y-53900000D03*
X210620000Y-53900000D03*
D10*
X211890000Y-51360000D03*
G36*
G01*
X192300000Y-46320000D02*
X192300000Y-48320000D01*
G75*
G02*
X192100000Y-48520000I-200000J0D01*
G01*
X190100000Y-48520000D01*
G75*
G02*
X189900000Y-48320000I0J200000D01*
G01*
X189900000Y-46320000D01*
G75*
G02*
X190100000Y-46120000I200000J0D01*
G01*
X192100000Y-46120000D01*
G75*
G02*
X192300000Y-46320000I0J-200000D01*
G01*
G37*
X200510000Y-49860000D03*
X194160000Y-47320000D03*
G36*
G01*
X204800000Y-48860000D02*
X204800000Y-50860000D01*
G75*
G02*
X204600000Y-51060000I-200000J0D01*
G01*
X202600000Y-51060000D01*
G75*
G02*
X202400000Y-50860000I0J200000D01*
G01*
X202400000Y-48860000D01*
G75*
G02*
X202600000Y-48660000I200000J0D01*
G01*
X204600000Y-48660000D01*
G75*
G02*
X204800000Y-48860000I0J-200000D01*
G01*
G37*
X201700000Y-56100000D03*
G36*
G01*
X195000000Y-57300000D02*
X195000000Y-59300000D01*
G75*
G02*
X194800000Y-59500000I-200000J0D01*
G01*
X193000000Y-59500000D01*
G75*
G02*
X192800000Y-59300000I0J200000D01*
G01*
X192800000Y-57300000D01*
G75*
G02*
X193000000Y-57100000I200000J0D01*
G01*
X194800000Y-57100000D01*
G75*
G02*
X195000000Y-57300000I0J-200000D01*
G01*
G37*
G36*
G01*
X206000000Y-55100000D02*
X206000000Y-57100000D01*
G75*
G02*
X205800000Y-57300000I-200000J0D01*
G01*
X203800000Y-57300000D01*
G75*
G02*
X203600000Y-57100000I0J200000D01*
G01*
X203600000Y-55100000D01*
G75*
G02*
X203800000Y-54900000I200000J0D01*
G01*
X205800000Y-54900000D01*
G75*
G02*
X206000000Y-55100000I0J-200000D01*
G01*
G37*
X191700000Y-56100000D03*
X196700000Y-58300000D03*
X199240000Y-47320000D03*
D11*
X196700000Y-52400000D03*
D12*
X191200000Y-52400000D03*
X202200000Y-52400000D03*
D13*
X201780000Y-52400000D03*
X191620000Y-52400000D03*
D10*
X192890000Y-49860000D03*
G36*
G01*
X173200000Y-41520000D02*
X173200000Y-43520000D01*
G75*
G02*
X173000000Y-43720000I-200000J0D01*
G01*
X171000000Y-43720000D01*
G75*
G02*
X170800000Y-43520000I0J200000D01*
G01*
X170800000Y-41520000D01*
G75*
G02*
X171000000Y-41320000I200000J0D01*
G01*
X173000000Y-41320000D01*
G75*
G02*
X173200000Y-41520000I0J-200000D01*
G01*
G37*
X181410000Y-45060000D03*
X175060000Y-42520000D03*
G36*
G01*
X185700000Y-44060000D02*
X185700000Y-46060000D01*
G75*
G02*
X185500000Y-46260000I-200000J0D01*
G01*
X183500000Y-46260000D01*
G75*
G02*
X183300000Y-46060000I0J200000D01*
G01*
X183300000Y-44060000D01*
G75*
G02*
X183500000Y-43860000I200000J0D01*
G01*
X185500000Y-43860000D01*
G75*
G02*
X185700000Y-44060000I0J-200000D01*
G01*
G37*
X182600000Y-51300000D03*
G36*
G01*
X175900000Y-52500000D02*
X175900000Y-54500000D01*
G75*
G02*
X175700000Y-54700000I-200000J0D01*
G01*
X173900000Y-54700000D01*
G75*
G02*
X173700000Y-54500000I0J200000D01*
G01*
X173700000Y-52500000D01*
G75*
G02*
X173900000Y-52300000I200000J0D01*
G01*
X175700000Y-52300000D01*
G75*
G02*
X175900000Y-52500000I0J-200000D01*
G01*
G37*
G36*
G01*
X186900000Y-50300000D02*
X186900000Y-52300000D01*
G75*
G02*
X186700000Y-52500000I-200000J0D01*
G01*
X184700000Y-52500000D01*
G75*
G02*
X184500000Y-52300000I0J200000D01*
G01*
X184500000Y-50300000D01*
G75*
G02*
X184700000Y-50100000I200000J0D01*
G01*
X186700000Y-50100000D01*
G75*
G02*
X186900000Y-50300000I0J-200000D01*
G01*
G37*
X172600000Y-51300000D03*
X177600000Y-53500000D03*
X180140000Y-42520000D03*
D11*
X177600000Y-47600000D03*
D12*
X172100000Y-47600000D03*
X183100000Y-47600000D03*
D13*
X182680000Y-47600000D03*
X172520000Y-47600000D03*
D10*
X173790000Y-45060000D03*
G36*
G01*
X154200000Y-40130000D02*
X154200000Y-42130000D01*
G75*
G02*
X154000000Y-42330000I-200000J0D01*
G01*
X152000000Y-42330000D01*
G75*
G02*
X151800000Y-42130000I0J200000D01*
G01*
X151800000Y-40130000D01*
G75*
G02*
X152000000Y-39930000I200000J0D01*
G01*
X154000000Y-39930000D01*
G75*
G02*
X154200000Y-40130000I0J-200000D01*
G01*
G37*
X162410000Y-43670000D03*
X156060000Y-41130000D03*
G36*
G01*
X166700000Y-42670000D02*
X166700000Y-44670000D01*
G75*
G02*
X166500000Y-44870000I-200000J0D01*
G01*
X164500000Y-44870000D01*
G75*
G02*
X164300000Y-44670000I0J200000D01*
G01*
X164300000Y-42670000D01*
G75*
G02*
X164500000Y-42470000I200000J0D01*
G01*
X166500000Y-42470000D01*
G75*
G02*
X166700000Y-42670000I0J-200000D01*
G01*
G37*
X163600000Y-49910000D03*
G36*
G01*
X156900000Y-51110000D02*
X156900000Y-53110000D01*
G75*
G02*
X156700000Y-53310000I-200000J0D01*
G01*
X154900000Y-53310000D01*
G75*
G02*
X154700000Y-53110000I0J200000D01*
G01*
X154700000Y-51110000D01*
G75*
G02*
X154900000Y-50910000I200000J0D01*
G01*
X156700000Y-50910000D01*
G75*
G02*
X156900000Y-51110000I0J-200000D01*
G01*
G37*
G36*
G01*
X167900000Y-48910000D02*
X167900000Y-50910000D01*
G75*
G02*
X167700000Y-51110000I-200000J0D01*
G01*
X165700000Y-51110000D01*
G75*
G02*
X165500000Y-50910000I0J200000D01*
G01*
X165500000Y-48910000D01*
G75*
G02*
X165700000Y-48710000I200000J0D01*
G01*
X167700000Y-48710000D01*
G75*
G02*
X167900000Y-48910000I0J-200000D01*
G01*
G37*
X153600000Y-49910000D03*
X158600000Y-52110000D03*
X161140000Y-41130000D03*
D11*
X158600000Y-46210000D03*
D12*
X153100000Y-46210000D03*
X164100000Y-46210000D03*
D13*
X163680000Y-46210000D03*
X153520000Y-46210000D03*
D10*
X154790000Y-43670000D03*
G36*
G01*
X135100000Y-41520000D02*
X135100000Y-43520000D01*
G75*
G02*
X134900000Y-43720000I-200000J0D01*
G01*
X132900000Y-43720000D01*
G75*
G02*
X132700000Y-43520000I0J200000D01*
G01*
X132700000Y-41520000D01*
G75*
G02*
X132900000Y-41320000I200000J0D01*
G01*
X134900000Y-41320000D01*
G75*
G02*
X135100000Y-41520000I0J-200000D01*
G01*
G37*
X143310000Y-45060000D03*
X136960000Y-42520000D03*
G36*
G01*
X147600000Y-44060000D02*
X147600000Y-46060000D01*
G75*
G02*
X147400000Y-46260000I-200000J0D01*
G01*
X145400000Y-46260000D01*
G75*
G02*
X145200000Y-46060000I0J200000D01*
G01*
X145200000Y-44060000D01*
G75*
G02*
X145400000Y-43860000I200000J0D01*
G01*
X147400000Y-43860000D01*
G75*
G02*
X147600000Y-44060000I0J-200000D01*
G01*
G37*
X144500000Y-51300000D03*
G36*
G01*
X137800000Y-52500000D02*
X137800000Y-54500000D01*
G75*
G02*
X137600000Y-54700000I-200000J0D01*
G01*
X135800000Y-54700000D01*
G75*
G02*
X135600000Y-54500000I0J200000D01*
G01*
X135600000Y-52500000D01*
G75*
G02*
X135800000Y-52300000I200000J0D01*
G01*
X137600000Y-52300000D01*
G75*
G02*
X137800000Y-52500000I0J-200000D01*
G01*
G37*
G36*
G01*
X148800000Y-50300000D02*
X148800000Y-52300000D01*
G75*
G02*
X148600000Y-52500000I-200000J0D01*
G01*
X146600000Y-52500000D01*
G75*
G02*
X146400000Y-52300000I0J200000D01*
G01*
X146400000Y-50300000D01*
G75*
G02*
X146600000Y-50100000I200000J0D01*
G01*
X148600000Y-50100000D01*
G75*
G02*
X148800000Y-50300000I0J-200000D01*
G01*
G37*
X134500000Y-51300000D03*
X139500000Y-53500000D03*
X142040000Y-42520000D03*
D11*
X139500000Y-47600000D03*
D12*
X134000000Y-47600000D03*
X145000000Y-47600000D03*
D13*
X144580000Y-47600000D03*
X134420000Y-47600000D03*
D10*
X135690000Y-45060000D03*
G36*
G01*
X116100000Y-43920000D02*
X116100000Y-45920000D01*
G75*
G02*
X115900000Y-46120000I-200000J0D01*
G01*
X113900000Y-46120000D01*
G75*
G02*
X113700000Y-45920000I0J200000D01*
G01*
X113700000Y-43920000D01*
G75*
G02*
X113900000Y-43720000I200000J0D01*
G01*
X115900000Y-43720000D01*
G75*
G02*
X116100000Y-43920000I0J-200000D01*
G01*
G37*
X124310000Y-47460000D03*
X117960000Y-44920000D03*
G36*
G01*
X128600000Y-46460000D02*
X128600000Y-48460000D01*
G75*
G02*
X128400000Y-48660000I-200000J0D01*
G01*
X126400000Y-48660000D01*
G75*
G02*
X126200000Y-48460000I0J200000D01*
G01*
X126200000Y-46460000D01*
G75*
G02*
X126400000Y-46260000I200000J0D01*
G01*
X128400000Y-46260000D01*
G75*
G02*
X128600000Y-46460000I0J-200000D01*
G01*
G37*
X125500000Y-53700000D03*
G36*
G01*
X118800000Y-54900000D02*
X118800000Y-56900000D01*
G75*
G02*
X118600000Y-57100000I-200000J0D01*
G01*
X116800000Y-57100000D01*
G75*
G02*
X116600000Y-56900000I0J200000D01*
G01*
X116600000Y-54900000D01*
G75*
G02*
X116800000Y-54700000I200000J0D01*
G01*
X118600000Y-54700000D01*
G75*
G02*
X118800000Y-54900000I0J-200000D01*
G01*
G37*
G36*
G01*
X129800000Y-52700000D02*
X129800000Y-54700000D01*
G75*
G02*
X129600000Y-54900000I-200000J0D01*
G01*
X127600000Y-54900000D01*
G75*
G02*
X127400000Y-54700000I0J200000D01*
G01*
X127400000Y-52700000D01*
G75*
G02*
X127600000Y-52500000I200000J0D01*
G01*
X129600000Y-52500000D01*
G75*
G02*
X129800000Y-52700000I0J-200000D01*
G01*
G37*
X115500000Y-53700000D03*
X120500000Y-55900000D03*
X123040000Y-44920000D03*
D11*
X120500000Y-50000000D03*
D12*
X115000000Y-50000000D03*
X126000000Y-50000000D03*
D13*
X125580000Y-50000000D03*
X115420000Y-50000000D03*
D10*
X116690000Y-47460000D03*
D14*
X93900000Y-95000000D03*
X93900000Y-97500000D03*
X93900000Y-100000000D03*
G36*
G01*
X99600000Y-92900000D02*
X99600000Y-90900000D01*
G75*
G02*
X99800000Y-90700000I200000J0D01*
G01*
X103000000Y-90700000D01*
G75*
G02*
X103200000Y-90900000I0J-200000D01*
G01*
X103200000Y-92900000D01*
G75*
G02*
X103000000Y-93100000I-200000J0D01*
G01*
X99800000Y-93100000D01*
G75*
G02*
X99600000Y-92900000I0J200000D01*
G01*
G37*
G36*
G01*
X99600000Y-104100000D02*
X99600000Y-102100000D01*
G75*
G02*
X99800000Y-101900000I200000J0D01*
G01*
X103000000Y-101900000D01*
G75*
G02*
X103200000Y-102100000I0J-200000D01*
G01*
X103200000Y-104100000D01*
G75*
G02*
X103000000Y-104300000I-200000J0D01*
G01*
X99800000Y-104300000D01*
G75*
G02*
X99600000Y-104100000I0J200000D01*
G01*
G37*
X108400000Y-95000000D03*
X108400000Y-100000000D03*
G36*
G01*
X85000000Y-52150000D02*
X85000000Y-50050000D01*
G75*
G02*
X85200000Y-49850000I200000J0D01*
G01*
X86400000Y-49850000D01*
G75*
G02*
X86600000Y-50050000I0J-200000D01*
G01*
X86600000Y-52150000D01*
G75*
G02*
X86400000Y-52350000I-200000J0D01*
G01*
X85200000Y-52350000D01*
G75*
G02*
X85000000Y-52150000I0J200000D01*
G01*
G37*
G36*
G01*
X89200000Y-50650000D02*
X89200000Y-48550000D01*
G75*
G02*
X89400000Y-48350000I200000J0D01*
G01*
X90600000Y-48350000D01*
G75*
G02*
X90800000Y-48550000I0J-200000D01*
G01*
X90800000Y-50650000D01*
G75*
G02*
X90600000Y-50850000I-200000J0D01*
G01*
X89400000Y-50850000D01*
G75*
G02*
X89200000Y-50650000I0J200000D01*
G01*
G37*
G36*
G01*
X89200000Y-46650000D02*
X89200000Y-44550000D01*
G75*
G02*
X89400000Y-44350000I200000J0D01*
G01*
X90600000Y-44350000D01*
G75*
G02*
X90800000Y-44550000I0J-200000D01*
G01*
X90800000Y-46650000D01*
G75*
G02*
X90600000Y-46850000I-200000J0D01*
G01*
X89400000Y-46850000D01*
G75*
G02*
X89200000Y-46650000I0J200000D01*
G01*
G37*
G36*
G01*
X89200000Y-43650000D02*
X89200000Y-41550000D01*
G75*
G02*
X89400000Y-41350000I200000J0D01*
G01*
X90600000Y-41350000D01*
G75*
G02*
X90800000Y-41550000I0J-200000D01*
G01*
X90800000Y-43650000D01*
G75*
G02*
X90600000Y-43850000I-200000J0D01*
G01*
X89400000Y-43850000D01*
G75*
G02*
X89200000Y-43650000I0J200000D01*
G01*
G37*
D15*
X87900000Y-47800000D03*
X87900000Y-40800000D03*
G36*
G01*
X83250000Y-46650000D02*
X83250000Y-44550000D01*
G75*
G02*
X83450000Y-44350000I200000J0D01*
G01*
X84650000Y-44350000D01*
G75*
G02*
X84850000Y-44550000I0J-200000D01*
G01*
X84850000Y-46650000D01*
G75*
G02*
X84650000Y-46850000I-200000J0D01*
G01*
X83450000Y-46850000D01*
G75*
G02*
X83250000Y-46650000I0J200000D01*
G01*
G37*
G36*
G01*
X83250000Y-43650000D02*
X83250000Y-41550000D01*
G75*
G02*
X83450000Y-41350000I200000J0D01*
G01*
X84650000Y-41350000D01*
G75*
G02*
X84850000Y-41550000I0J-200000D01*
G01*
X84850000Y-43650000D01*
G75*
G02*
X84650000Y-43850000I-200000J0D01*
G01*
X83450000Y-43850000D01*
G75*
G02*
X83250000Y-43650000I0J200000D01*
G01*
G37*
G36*
G01*
X87450000Y-52150000D02*
X87450000Y-50050000D01*
G75*
G02*
X87650000Y-49850000I200000J0D01*
G01*
X88850000Y-49850000D01*
G75*
G02*
X89050000Y-50050000I0J-200000D01*
G01*
X89050000Y-52150000D01*
G75*
G02*
X88850000Y-52350000I-200000J0D01*
G01*
X87650000Y-52350000D01*
G75*
G02*
X87450000Y-52150000I0J200000D01*
G01*
G37*
G36*
G01*
X83250000Y-50650000D02*
X83250000Y-48550000D01*
G75*
G02*
X83450000Y-48350000I200000J0D01*
G01*
X84650000Y-48350000D01*
G75*
G02*
X84850000Y-48550000I0J-200000D01*
G01*
X84850000Y-50650000D01*
G75*
G02*
X84650000Y-50850000I-200000J0D01*
G01*
X83450000Y-50850000D01*
G75*
G02*
X83250000Y-50650000I0J200000D01*
G01*
G37*
X86150000Y-40800000D03*
X86150000Y-47800000D03*
G36*
G01*
X113662000Y-75738000D02*
X113662000Y-77262000D01*
G75*
G02*
X113462000Y-77462000I-200000J0D01*
G01*
X111938000Y-77462000D01*
G75*
G02*
X111738000Y-77262000I0J200000D01*
G01*
X111738000Y-75738000D01*
G75*
G02*
X111938000Y-75538000I200000J0D01*
G01*
X113462000Y-75538000D01*
G75*
G02*
X113662000Y-75738000I0J-200000D01*
G01*
G37*
G36*
G01*
X113662000Y-77838000D02*
X113662000Y-79362000D01*
G75*
G02*
X113462000Y-79562000I-200000J0D01*
G01*
X111938000Y-79562000D01*
G75*
G02*
X111738000Y-79362000I0J200000D01*
G01*
X111738000Y-77838000D01*
G75*
G02*
X111938000Y-77638000I200000J0D01*
G01*
X113462000Y-77638000D01*
G75*
G02*
X113662000Y-77838000I0J-200000D01*
G01*
G37*
G36*
G01*
X111938000Y-79638000D02*
X113462000Y-79638000D01*
G75*
G02*
X113662000Y-79838000I0J-200000D01*
G01*
X113662000Y-81362000D01*
G75*
G02*
X113462000Y-81562000I-200000J0D01*
G01*
X111938000Y-81562000D01*
G75*
G02*
X111738000Y-81362000I0J200000D01*
G01*
X111738000Y-79838000D01*
G75*
G02*
X111938000Y-79638000I200000J0D01*
G01*
G37*
D16*
X107420000Y-41230000D03*
X107420000Y-43770000D03*
X107420000Y-46310000D03*
X107420000Y-48850000D03*
X107420000Y-51390000D03*
X107420000Y-53930000D03*
X107420000Y-56470000D03*
X107420000Y-59010000D03*
X107420000Y-61550000D03*
X107420000Y-64090000D03*
X107420000Y-66630000D03*
X107420000Y-69170000D03*
X92180000Y-69170000D03*
X92180000Y-66630000D03*
X92180000Y-64090000D03*
X92180000Y-61550000D03*
X92180000Y-59010000D03*
X92180000Y-56470000D03*
X92180000Y-53930000D03*
X92180000Y-51390000D03*
X92180000Y-48850000D03*
X92180000Y-46310000D03*
X92180000Y-43770000D03*
X92180000Y-41230000D03*
X108718815Y-52585745D03*
X108718815Y-57665745D03*
X93478815Y-42425745D03*
X108718815Y-44965745D03*
X108718815Y-67825745D03*
X93478815Y-70365745D03*
X108718815Y-60205745D03*
X108718815Y-62745745D03*
X93478815Y-60205745D03*
X93478815Y-65285745D03*
X93478815Y-52585745D03*
X93478815Y-50045745D03*
X93478815Y-44965745D03*
X93478815Y-55125745D03*
X108718815Y-70365745D03*
X93478815Y-62745745D03*
X108718815Y-42425745D03*
X108718815Y-47505745D03*
X93478815Y-67825745D03*
X108718815Y-50045745D03*
X108718815Y-55125745D03*
X93478815Y-57665745D03*
X108718815Y-65285745D03*
X93478815Y-47505745D03*
D17*
X129600000Y-59600000D03*
X205800000Y-61800000D03*
X129600000Y-97600000D03*
X205800000Y-100000000D03*
X105000000Y-114800000D03*
D18*
X84700000Y-60700000D03*
X86900000Y-60700000D03*
X86938035Y-58579272D03*
X86938035Y-53499272D03*
X84688035Y-53499272D03*
X84688035Y-58579272D03*
G36*
G01*
X104871500Y-69317120D02*
X103728500Y-69317120D01*
G75*
G02*
X103528500Y-69117120I0J200000D01*
G01*
X103528500Y-68482120D01*
G75*
G02*
X103728500Y-68282120I200000J0D01*
G01*
X104871500Y-68282120D01*
G75*
G02*
X105071500Y-68482120I0J-200000D01*
G01*
X105071500Y-69117120D01*
G75*
G02*
X104871500Y-69317120I-200000J0D01*
G01*
G37*
G36*
G01*
X104871500Y-70317880D02*
X103728500Y-70317880D01*
G75*
G02*
X103528500Y-70117880I0J200000D01*
G01*
X103528500Y-69482880D01*
G75*
G02*
X103728500Y-69282880I200000J0D01*
G01*
X104871500Y-69282880D01*
G75*
G02*
X105071500Y-69482880I0J-200000D01*
G01*
X105071500Y-70117880D01*
G75*
G02*
X104871500Y-70317880I-200000J0D01*
G01*
G37*
G36*
G01*
X102271500Y-70317880D02*
X101128500Y-70317880D01*
G75*
G02*
X100928500Y-70117880I0J200000D01*
G01*
X100928500Y-69482880D01*
G75*
G02*
X101128500Y-69282880I200000J0D01*
G01*
X102271500Y-69282880D01*
G75*
G02*
X102471500Y-69482880I0J-200000D01*
G01*
X102471500Y-70117880D01*
G75*
G02*
X102271500Y-70317880I-200000J0D01*
G01*
G37*
G36*
G01*
X102271500Y-69317120D02*
X101128500Y-69317120D01*
G75*
G02*
X100928500Y-69117120I0J200000D01*
G01*
X100928500Y-68482120D01*
G75*
G02*
X101128500Y-68282120I200000J0D01*
G01*
X102271500Y-68282120D01*
G75*
G02*
X102471500Y-68482120I0J-200000D01*
G01*
X102471500Y-69117120D01*
G75*
G02*
X102271500Y-69317120I-200000J0D01*
G01*
G37*
G36*
G01*
X99771500Y-69317120D02*
X98628500Y-69317120D01*
G75*
G02*
X98428500Y-69117120I0J200000D01*
G01*
X98428500Y-68482120D01*
G75*
G02*
X98628500Y-68282120I200000J0D01*
G01*
X99771500Y-68282120D01*
G75*
G02*
X99971500Y-68482120I0J-200000D01*
G01*
X99971500Y-69117120D01*
G75*
G02*
X99771500Y-69317120I-200000J0D01*
G01*
G37*
G36*
G01*
X99771500Y-70317880D02*
X98628500Y-70317880D01*
G75*
G02*
X98428500Y-70117880I0J200000D01*
G01*
X98428500Y-69482880D01*
G75*
G02*
X98628500Y-69282880I200000J0D01*
G01*
X99771500Y-69282880D01*
G75*
G02*
X99971500Y-69482880I0J-200000D01*
G01*
X99971500Y-70117880D01*
G75*
G02*
X99771500Y-70317880I-200000J0D01*
G01*
G37*
G36*
G01*
X97271500Y-70317880D02*
X96128500Y-70317880D01*
G75*
G02*
X95928500Y-70117880I0J200000D01*
G01*
X95928500Y-69482880D01*
G75*
G02*
X96128500Y-69282880I200000J0D01*
G01*
X97271500Y-69282880D01*
G75*
G02*
X97471500Y-69482880I0J-200000D01*
G01*
X97471500Y-70117880D01*
G75*
G02*
X97271500Y-70317880I-200000J0D01*
G01*
G37*
G36*
G01*
X97271500Y-69317120D02*
X96128500Y-69317120D01*
G75*
G02*
X95928500Y-69117120I0J200000D01*
G01*
X95928500Y-68482120D01*
G75*
G02*
X96128500Y-68282120I200000J0D01*
G01*
X97271500Y-68282120D01*
G75*
G02*
X97471500Y-68482120I0J-200000D01*
G01*
X97471500Y-69117120D01*
G75*
G02*
X97271500Y-69317120I-200000J0D01*
G01*
G37*
D19*
X85000000Y-70950000D03*
X85000000Y-64450000D03*
G36*
G01*
X89571500Y-61717880D02*
X88428500Y-61717880D01*
G75*
G02*
X88228500Y-61517880I0J200000D01*
G01*
X88228500Y-60882880D01*
G75*
G02*
X88428500Y-60682880I200000J0D01*
G01*
X89571500Y-60682880D01*
G75*
G02*
X89771500Y-60882880I0J-200000D01*
G01*
X89771500Y-61517880D01*
G75*
G02*
X89571500Y-61717880I-200000J0D01*
G01*
G37*
G36*
G01*
X89571500Y-60717120D02*
X88428500Y-60717120D01*
G75*
G02*
X88228500Y-60517120I0J200000D01*
G01*
X88228500Y-59882120D01*
G75*
G02*
X88428500Y-59682120I200000J0D01*
G01*
X89571500Y-59682120D01*
G75*
G02*
X89771500Y-59882120I0J-200000D01*
G01*
X89771500Y-60517120D01*
G75*
G02*
X89571500Y-60717120I-200000J0D01*
G01*
G37*
G36*
G01*
X89390500Y-60509500D02*
X89390500Y-60890500D01*
G75*
G02*
X89190500Y-61090500I-200000J0D01*
G01*
X88809500Y-61090500D01*
G75*
G02*
X88609500Y-60890500I0J200000D01*
G01*
X88609500Y-60509500D01*
G75*
G02*
X88809500Y-60309500I200000J0D01*
G01*
X89190500Y-60309500D01*
G75*
G02*
X89390500Y-60509500I0J-200000D01*
G01*
G37*
G36*
G01*
X111600000Y-58750000D02*
X111600000Y-57250000D01*
G75*
G02*
X111800000Y-57050000I200000J0D01*
G01*
X113600000Y-57050000D01*
G75*
G02*
X113800000Y-57250000I0J-200000D01*
G01*
X113800000Y-58750000D01*
G75*
G02*
X113600000Y-58950000I-200000J0D01*
G01*
X111800000Y-58950000D01*
G75*
G02*
X111600000Y-58750000I0J200000D01*
G01*
G37*
G36*
G01*
X115000000Y-58750000D02*
X115000000Y-57250000D01*
G75*
G02*
X115200000Y-57050000I200000J0D01*
G01*
X117000000Y-57050000D01*
G75*
G02*
X117200000Y-57250000I0J-200000D01*
G01*
X117200000Y-58750000D01*
G75*
G02*
X117000000Y-58950000I-200000J0D01*
G01*
X115200000Y-58950000D01*
G75*
G02*
X115000000Y-58750000I0J200000D01*
G01*
G37*
G36*
G01*
X131500000Y-56450000D02*
X131500000Y-54950000D01*
G75*
G02*
X131700000Y-54750000I200000J0D01*
G01*
X133500000Y-54750000D01*
G75*
G02*
X133700000Y-54950000I0J-200000D01*
G01*
X133700000Y-56450000D01*
G75*
G02*
X133500000Y-56650000I-200000J0D01*
G01*
X131700000Y-56650000D01*
G75*
G02*
X131500000Y-56450000I0J200000D01*
G01*
G37*
G36*
G01*
X134900000Y-56450000D02*
X134900000Y-54950000D01*
G75*
G02*
X135100000Y-54750000I200000J0D01*
G01*
X136900000Y-54750000D01*
G75*
G02*
X137100000Y-54950000I0J-200000D01*
G01*
X137100000Y-56450000D01*
G75*
G02*
X136900000Y-56650000I-200000J0D01*
G01*
X135100000Y-56650000D01*
G75*
G02*
X134900000Y-56450000I0J200000D01*
G01*
G37*
G36*
G01*
X149700000Y-54950000D02*
X149700000Y-53450000D01*
G75*
G02*
X149900000Y-53250000I200000J0D01*
G01*
X151700000Y-53250000D01*
G75*
G02*
X151900000Y-53450000I0J-200000D01*
G01*
X151900000Y-54950000D01*
G75*
G02*
X151700000Y-55150000I-200000J0D01*
G01*
X149900000Y-55150000D01*
G75*
G02*
X149700000Y-54950000I0J200000D01*
G01*
G37*
G36*
G01*
X153100000Y-54950000D02*
X153100000Y-53450000D01*
G75*
G02*
X153300000Y-53250000I200000J0D01*
G01*
X155100000Y-53250000D01*
G75*
G02*
X155300000Y-53450000I0J-200000D01*
G01*
X155300000Y-54950000D01*
G75*
G02*
X155100000Y-55150000I-200000J0D01*
G01*
X153300000Y-55150000D01*
G75*
G02*
X153100000Y-54950000I0J200000D01*
G01*
G37*
G36*
G01*
X168700000Y-56350000D02*
X168700000Y-54850000D01*
G75*
G02*
X168900000Y-54650000I200000J0D01*
G01*
X170700000Y-54650000D01*
G75*
G02*
X170900000Y-54850000I0J-200000D01*
G01*
X170900000Y-56350000D01*
G75*
G02*
X170700000Y-56550000I-200000J0D01*
G01*
X168900000Y-56550000D01*
G75*
G02*
X168700000Y-56350000I0J200000D01*
G01*
G37*
G36*
G01*
X172100000Y-56350000D02*
X172100000Y-54850000D01*
G75*
G02*
X172300000Y-54650000I200000J0D01*
G01*
X174100000Y-54650000D01*
G75*
G02*
X174300000Y-54850000I0J-200000D01*
G01*
X174300000Y-56350000D01*
G75*
G02*
X174100000Y-56550000I-200000J0D01*
G01*
X172300000Y-56550000D01*
G75*
G02*
X172100000Y-56350000I0J200000D01*
G01*
G37*
G36*
G01*
X191200000Y-61150000D02*
X191200000Y-59650000D01*
G75*
G02*
X191400000Y-59450000I200000J0D01*
G01*
X193200000Y-59450000D01*
G75*
G02*
X193400000Y-59650000I0J-200000D01*
G01*
X193400000Y-61150000D01*
G75*
G02*
X193200000Y-61350000I-200000J0D01*
G01*
X191400000Y-61350000D01*
G75*
G02*
X191200000Y-61150000I0J200000D01*
G01*
G37*
G36*
G01*
X187800000Y-61150000D02*
X187800000Y-59650000D01*
G75*
G02*
X188000000Y-59450000I200000J0D01*
G01*
X189800000Y-59450000D01*
G75*
G02*
X190000000Y-59650000I0J-200000D01*
G01*
X190000000Y-61150000D01*
G75*
G02*
X189800000Y-61350000I-200000J0D01*
G01*
X188000000Y-61350000D01*
G75*
G02*
X187800000Y-61150000I0J200000D01*
G01*
G37*
G36*
G01*
X219000000Y-62550000D02*
X219000000Y-61050000D01*
G75*
G02*
X219200000Y-60850000I200000J0D01*
G01*
X221000000Y-60850000D01*
G75*
G02*
X221200000Y-61050000I0J-200000D01*
G01*
X221200000Y-62550000D01*
G75*
G02*
X221000000Y-62750000I-200000J0D01*
G01*
X219200000Y-62750000D01*
G75*
G02*
X219000000Y-62550000I0J200000D01*
G01*
G37*
G36*
G01*
X222400000Y-62550000D02*
X222400000Y-61050000D01*
G75*
G02*
X222600000Y-60850000I200000J0D01*
G01*
X224400000Y-60850000D01*
G75*
G02*
X224600000Y-61050000I0J-200000D01*
G01*
X224600000Y-62550000D01*
G75*
G02*
X224400000Y-62750000I-200000J0D01*
G01*
X222600000Y-62750000D01*
G75*
G02*
X222400000Y-62550000I0J200000D01*
G01*
G37*
G36*
G01*
X115000000Y-61850000D02*
X115000000Y-60350000D01*
G75*
G02*
X115200000Y-60150000I200000J0D01*
G01*
X117000000Y-60150000D01*
G75*
G02*
X117200000Y-60350000I0J-200000D01*
G01*
X117200000Y-61850000D01*
G75*
G02*
X117000000Y-62050000I-200000J0D01*
G01*
X115200000Y-62050000D01*
G75*
G02*
X115000000Y-61850000I0J200000D01*
G01*
G37*
G36*
G01*
X111600000Y-61850000D02*
X111600000Y-60350000D01*
G75*
G02*
X111800000Y-60150000I200000J0D01*
G01*
X113600000Y-60150000D01*
G75*
G02*
X113800000Y-60350000I0J-200000D01*
G01*
X113800000Y-61850000D01*
G75*
G02*
X113600000Y-62050000I-200000J0D01*
G01*
X111800000Y-62050000D01*
G75*
G02*
X111600000Y-61850000I0J200000D01*
G01*
G37*
G36*
G01*
X135900000Y-59450000D02*
X135900000Y-57950000D01*
G75*
G02*
X136100000Y-57750000I200000J0D01*
G01*
X137900000Y-57750000D01*
G75*
G02*
X138100000Y-57950000I0J-200000D01*
G01*
X138100000Y-59450000D01*
G75*
G02*
X137900000Y-59650000I-200000J0D01*
G01*
X136100000Y-59650000D01*
G75*
G02*
X135900000Y-59450000I0J200000D01*
G01*
G37*
G36*
G01*
X132500000Y-59450000D02*
X132500000Y-57950000D01*
G75*
G02*
X132700000Y-57750000I200000J0D01*
G01*
X134500000Y-57750000D01*
G75*
G02*
X134700000Y-57950000I0J-200000D01*
G01*
X134700000Y-59450000D01*
G75*
G02*
X134500000Y-59650000I-200000J0D01*
G01*
X132700000Y-59650000D01*
G75*
G02*
X132500000Y-59450000I0J200000D01*
G01*
G37*
G36*
G01*
X153200000Y-58150000D02*
X153200000Y-56650000D01*
G75*
G02*
X153400000Y-56450000I200000J0D01*
G01*
X155200000Y-56450000D01*
G75*
G02*
X155400000Y-56650000I0J-200000D01*
G01*
X155400000Y-58150000D01*
G75*
G02*
X155200000Y-58350000I-200000J0D01*
G01*
X153400000Y-58350000D01*
G75*
G02*
X153200000Y-58150000I0J200000D01*
G01*
G37*
G36*
G01*
X149800000Y-58150000D02*
X149800000Y-56650000D01*
G75*
G02*
X150000000Y-56450000I200000J0D01*
G01*
X151800000Y-56450000D01*
G75*
G02*
X152000000Y-56650000I0J-200000D01*
G01*
X152000000Y-58150000D01*
G75*
G02*
X151800000Y-58350000I-200000J0D01*
G01*
X150000000Y-58350000D01*
G75*
G02*
X149800000Y-58150000I0J200000D01*
G01*
G37*
G36*
G01*
X168700000Y-59450000D02*
X168700000Y-57950000D01*
G75*
G02*
X168900000Y-57750000I200000J0D01*
G01*
X170700000Y-57750000D01*
G75*
G02*
X170900000Y-57950000I0J-200000D01*
G01*
X170900000Y-59450000D01*
G75*
G02*
X170700000Y-59650000I-200000J0D01*
G01*
X168900000Y-59650000D01*
G75*
G02*
X168700000Y-59450000I0J200000D01*
G01*
G37*
G36*
G01*
X172100000Y-59450000D02*
X172100000Y-57950000D01*
G75*
G02*
X172300000Y-57750000I200000J0D01*
G01*
X174100000Y-57750000D01*
G75*
G02*
X174300000Y-57950000I0J-200000D01*
G01*
X174300000Y-59450000D01*
G75*
G02*
X174100000Y-59650000I-200000J0D01*
G01*
X172300000Y-59650000D01*
G75*
G02*
X172100000Y-59450000I0J200000D01*
G01*
G37*
G36*
G01*
X191200000Y-64050000D02*
X191200000Y-62550000D01*
G75*
G02*
X191400000Y-62350000I200000J0D01*
G01*
X193200000Y-62350000D01*
G75*
G02*
X193400000Y-62550000I0J-200000D01*
G01*
X193400000Y-64050000D01*
G75*
G02*
X193200000Y-64250000I-200000J0D01*
G01*
X191400000Y-64250000D01*
G75*
G02*
X191200000Y-64050000I0J200000D01*
G01*
G37*
G36*
G01*
X187800000Y-64050000D02*
X187800000Y-62550000D01*
G75*
G02*
X188000000Y-62350000I200000J0D01*
G01*
X189800000Y-62350000D01*
G75*
G02*
X190000000Y-62550000I0J-200000D01*
G01*
X190000000Y-64050000D01*
G75*
G02*
X189800000Y-64250000I-200000J0D01*
G01*
X188000000Y-64250000D01*
G75*
G02*
X187800000Y-64050000I0J200000D01*
G01*
G37*
G36*
G01*
X222400000Y-65650000D02*
X222400000Y-64150000D01*
G75*
G02*
X222600000Y-63950000I200000J0D01*
G01*
X224400000Y-63950000D01*
G75*
G02*
X224600000Y-64150000I0J-200000D01*
G01*
X224600000Y-65650000D01*
G75*
G02*
X224400000Y-65850000I-200000J0D01*
G01*
X222600000Y-65850000D01*
G75*
G02*
X222400000Y-65650000I0J200000D01*
G01*
G37*
G36*
G01*
X219000000Y-65650000D02*
X219000000Y-64150000D01*
G75*
G02*
X219200000Y-63950000I200000J0D01*
G01*
X221000000Y-63950000D01*
G75*
G02*
X221200000Y-64150000I0J-200000D01*
G01*
X221200000Y-65650000D01*
G75*
G02*
X221000000Y-65850000I-200000J0D01*
G01*
X219200000Y-65850000D01*
G75*
G02*
X219000000Y-65650000I0J200000D01*
G01*
G37*
G36*
G01*
X111600000Y-96750000D02*
X111600000Y-95250000D01*
G75*
G02*
X111800000Y-95050000I200000J0D01*
G01*
X113600000Y-95050000D01*
G75*
G02*
X113800000Y-95250000I0J-200000D01*
G01*
X113800000Y-96750000D01*
G75*
G02*
X113600000Y-96950000I-200000J0D01*
G01*
X111800000Y-96950000D01*
G75*
G02*
X111600000Y-96750000I0J200000D01*
G01*
G37*
G36*
G01*
X115000000Y-96750000D02*
X115000000Y-95250000D01*
G75*
G02*
X115200000Y-95050000I200000J0D01*
G01*
X117000000Y-95050000D01*
G75*
G02*
X117200000Y-95250000I0J-200000D01*
G01*
X117200000Y-96750000D01*
G75*
G02*
X117000000Y-96950000I-200000J0D01*
G01*
X115200000Y-96950000D01*
G75*
G02*
X115000000Y-96750000I0J200000D01*
G01*
G37*
G36*
G01*
X134900000Y-94550000D02*
X134900000Y-93050000D01*
G75*
G02*
X135100000Y-92850000I200000J0D01*
G01*
X136900000Y-92850000D01*
G75*
G02*
X137100000Y-93050000I0J-200000D01*
G01*
X137100000Y-94550000D01*
G75*
G02*
X136900000Y-94750000I-200000J0D01*
G01*
X135100000Y-94750000D01*
G75*
G02*
X134900000Y-94550000I0J200000D01*
G01*
G37*
G36*
G01*
X131500000Y-94550000D02*
X131500000Y-93050000D01*
G75*
G02*
X131700000Y-92850000I200000J0D01*
G01*
X133500000Y-92850000D01*
G75*
G02*
X133700000Y-93050000I0J-200000D01*
G01*
X133700000Y-94550000D01*
G75*
G02*
X133500000Y-94750000I-200000J0D01*
G01*
X131700000Y-94750000D01*
G75*
G02*
X131500000Y-94550000I0J200000D01*
G01*
G37*
G36*
G01*
X153100000Y-93050000D02*
X153100000Y-91550000D01*
G75*
G02*
X153300000Y-91350000I200000J0D01*
G01*
X155100000Y-91350000D01*
G75*
G02*
X155300000Y-91550000I0J-200000D01*
G01*
X155300000Y-93050000D01*
G75*
G02*
X155100000Y-93250000I-200000J0D01*
G01*
X153300000Y-93250000D01*
G75*
G02*
X153100000Y-93050000I0J200000D01*
G01*
G37*
G36*
G01*
X149700000Y-93050000D02*
X149700000Y-91550000D01*
G75*
G02*
X149900000Y-91350000I200000J0D01*
G01*
X151700000Y-91350000D01*
G75*
G02*
X151900000Y-91550000I0J-200000D01*
G01*
X151900000Y-93050000D01*
G75*
G02*
X151700000Y-93250000I-200000J0D01*
G01*
X149900000Y-93250000D01*
G75*
G02*
X149700000Y-93050000I0J200000D01*
G01*
G37*
G36*
G01*
X168700000Y-94350000D02*
X168700000Y-92850000D01*
G75*
G02*
X168900000Y-92650000I200000J0D01*
G01*
X170700000Y-92650000D01*
G75*
G02*
X170900000Y-92850000I0J-200000D01*
G01*
X170900000Y-94350000D01*
G75*
G02*
X170700000Y-94550000I-200000J0D01*
G01*
X168900000Y-94550000D01*
G75*
G02*
X168700000Y-94350000I0J200000D01*
G01*
G37*
G36*
G01*
X172100000Y-94350000D02*
X172100000Y-92850000D01*
G75*
G02*
X172300000Y-92650000I200000J0D01*
G01*
X174100000Y-92650000D01*
G75*
G02*
X174300000Y-92850000I0J-200000D01*
G01*
X174300000Y-94350000D01*
G75*
G02*
X174100000Y-94550000I-200000J0D01*
G01*
X172300000Y-94550000D01*
G75*
G02*
X172100000Y-94350000I0J200000D01*
G01*
G37*
G36*
G01*
X187800000Y-99050000D02*
X187800000Y-97550000D01*
G75*
G02*
X188000000Y-97350000I200000J0D01*
G01*
X189800000Y-97350000D01*
G75*
G02*
X190000000Y-97550000I0J-200000D01*
G01*
X190000000Y-99050000D01*
G75*
G02*
X189800000Y-99250000I-200000J0D01*
G01*
X188000000Y-99250000D01*
G75*
G02*
X187800000Y-99050000I0J200000D01*
G01*
G37*
G36*
G01*
X191200000Y-99050000D02*
X191200000Y-97550000D01*
G75*
G02*
X191400000Y-97350000I200000J0D01*
G01*
X193200000Y-97350000D01*
G75*
G02*
X193400000Y-97550000I0J-200000D01*
G01*
X193400000Y-99050000D01*
G75*
G02*
X193200000Y-99250000I-200000J0D01*
G01*
X191400000Y-99250000D01*
G75*
G02*
X191200000Y-99050000I0J200000D01*
G01*
G37*
G36*
G01*
X222400000Y-100650000D02*
X222400000Y-99150000D01*
G75*
G02*
X222600000Y-98950000I200000J0D01*
G01*
X224400000Y-98950000D01*
G75*
G02*
X224600000Y-99150000I0J-200000D01*
G01*
X224600000Y-100650000D01*
G75*
G02*
X224400000Y-100850000I-200000J0D01*
G01*
X222600000Y-100850000D01*
G75*
G02*
X222400000Y-100650000I0J200000D01*
G01*
G37*
G36*
G01*
X219000000Y-100650000D02*
X219000000Y-99150000D01*
G75*
G02*
X219200000Y-98950000I200000J0D01*
G01*
X221000000Y-98950000D01*
G75*
G02*
X221200000Y-99150000I0J-200000D01*
G01*
X221200000Y-100650000D01*
G75*
G02*
X221000000Y-100850000I-200000J0D01*
G01*
X219200000Y-100850000D01*
G75*
G02*
X219000000Y-100650000I0J200000D01*
G01*
G37*
G36*
G01*
X115000000Y-99850000D02*
X115000000Y-98350000D01*
G75*
G02*
X115200000Y-98150000I200000J0D01*
G01*
X117000000Y-98150000D01*
G75*
G02*
X117200000Y-98350000I0J-200000D01*
G01*
X117200000Y-99850000D01*
G75*
G02*
X117000000Y-100050000I-200000J0D01*
G01*
X115200000Y-100050000D01*
G75*
G02*
X115000000Y-99850000I0J200000D01*
G01*
G37*
G36*
G01*
X111600000Y-99850000D02*
X111600000Y-98350000D01*
G75*
G02*
X111800000Y-98150000I200000J0D01*
G01*
X113600000Y-98150000D01*
G75*
G02*
X113800000Y-98350000I0J-200000D01*
G01*
X113800000Y-99850000D01*
G75*
G02*
X113600000Y-100050000I-200000J0D01*
G01*
X111800000Y-100050000D01*
G75*
G02*
X111600000Y-99850000I0J200000D01*
G01*
G37*
G36*
G01*
X132500000Y-97550000D02*
X132500000Y-96050000D01*
G75*
G02*
X132700000Y-95850000I200000J0D01*
G01*
X134500000Y-95850000D01*
G75*
G02*
X134700000Y-96050000I0J-200000D01*
G01*
X134700000Y-97550000D01*
G75*
G02*
X134500000Y-97750000I-200000J0D01*
G01*
X132700000Y-97750000D01*
G75*
G02*
X132500000Y-97550000I0J200000D01*
G01*
G37*
G36*
G01*
X135900000Y-97550000D02*
X135900000Y-96050000D01*
G75*
G02*
X136100000Y-95850000I200000J0D01*
G01*
X137900000Y-95850000D01*
G75*
G02*
X138100000Y-96050000I0J-200000D01*
G01*
X138100000Y-97550000D01*
G75*
G02*
X137900000Y-97750000I-200000J0D01*
G01*
X136100000Y-97750000D01*
G75*
G02*
X135900000Y-97550000I0J200000D01*
G01*
G37*
G36*
G01*
X153100000Y-96150000D02*
X153100000Y-94650000D01*
G75*
G02*
X153300000Y-94450000I200000J0D01*
G01*
X155100000Y-94450000D01*
G75*
G02*
X155300000Y-94650000I0J-200000D01*
G01*
X155300000Y-96150000D01*
G75*
G02*
X155100000Y-96350000I-200000J0D01*
G01*
X153300000Y-96350000D01*
G75*
G02*
X153100000Y-96150000I0J200000D01*
G01*
G37*
G36*
G01*
X149700000Y-96150000D02*
X149700000Y-94650000D01*
G75*
G02*
X149900000Y-94450000I200000J0D01*
G01*
X151700000Y-94450000D01*
G75*
G02*
X151900000Y-94650000I0J-200000D01*
G01*
X151900000Y-96150000D01*
G75*
G02*
X151700000Y-96350000I-200000J0D01*
G01*
X149900000Y-96350000D01*
G75*
G02*
X149700000Y-96150000I0J200000D01*
G01*
G37*
G36*
G01*
X168700000Y-97550000D02*
X168700000Y-96050000D01*
G75*
G02*
X168900000Y-95850000I200000J0D01*
G01*
X170700000Y-95850000D01*
G75*
G02*
X170900000Y-96050000I0J-200000D01*
G01*
X170900000Y-97550000D01*
G75*
G02*
X170700000Y-97750000I-200000J0D01*
G01*
X168900000Y-97750000D01*
G75*
G02*
X168700000Y-97550000I0J200000D01*
G01*
G37*
G36*
G01*
X172100000Y-97550000D02*
X172100000Y-96050000D01*
G75*
G02*
X172300000Y-95850000I200000J0D01*
G01*
X174100000Y-95850000D01*
G75*
G02*
X174300000Y-96050000I0J-200000D01*
G01*
X174300000Y-97550000D01*
G75*
G02*
X174100000Y-97750000I-200000J0D01*
G01*
X172300000Y-97750000D01*
G75*
G02*
X172100000Y-97550000I0J200000D01*
G01*
G37*
G36*
G01*
X191200000Y-102250000D02*
X191200000Y-100750000D01*
G75*
G02*
X191400000Y-100550000I200000J0D01*
G01*
X193200000Y-100550000D01*
G75*
G02*
X193400000Y-100750000I0J-200000D01*
G01*
X193400000Y-102250000D01*
G75*
G02*
X193200000Y-102450000I-200000J0D01*
G01*
X191400000Y-102450000D01*
G75*
G02*
X191200000Y-102250000I0J200000D01*
G01*
G37*
G36*
G01*
X187800000Y-102250000D02*
X187800000Y-100750000D01*
G75*
G02*
X188000000Y-100550000I200000J0D01*
G01*
X189800000Y-100550000D01*
G75*
G02*
X190000000Y-100750000I0J-200000D01*
G01*
X190000000Y-102250000D01*
G75*
G02*
X189800000Y-102450000I-200000J0D01*
G01*
X188000000Y-102450000D01*
G75*
G02*
X187800000Y-102250000I0J200000D01*
G01*
G37*
G36*
G01*
X219100000Y-103850000D02*
X219100000Y-102350000D01*
G75*
G02*
X219300000Y-102150000I200000J0D01*
G01*
X221100000Y-102150000D01*
G75*
G02*
X221300000Y-102350000I0J-200000D01*
G01*
X221300000Y-103850000D01*
G75*
G02*
X221100000Y-104050000I-200000J0D01*
G01*
X219300000Y-104050000D01*
G75*
G02*
X219100000Y-103850000I0J200000D01*
G01*
G37*
G36*
G01*
X222500000Y-103850000D02*
X222500000Y-102350000D01*
G75*
G02*
X222700000Y-102150000I200000J0D01*
G01*
X224500000Y-102150000D01*
G75*
G02*
X224700000Y-102350000I0J-200000D01*
G01*
X224700000Y-103850000D01*
G75*
G02*
X224500000Y-104050000I-200000J0D01*
G01*
X222700000Y-104050000D01*
G75*
G02*
X222500000Y-103850000I0J200000D01*
G01*
G37*
G36*
G01*
X102800000Y-90250000D02*
X102800000Y-88750000D01*
G75*
G02*
X103000000Y-88550000I200000J0D01*
G01*
X104800000Y-88550000D01*
G75*
G02*
X105000000Y-88750000I0J-200000D01*
G01*
X105000000Y-90250000D01*
G75*
G02*
X104800000Y-90450000I-200000J0D01*
G01*
X103000000Y-90450000D01*
G75*
G02*
X102800000Y-90250000I0J200000D01*
G01*
G37*
G36*
G01*
X106200000Y-90250000D02*
X106200000Y-88750000D01*
G75*
G02*
X106400000Y-88550000I200000J0D01*
G01*
X108200000Y-88550000D01*
G75*
G02*
X108400000Y-88750000I0J-200000D01*
G01*
X108400000Y-90250000D01*
G75*
G02*
X108200000Y-90450000I-200000J0D01*
G01*
X106400000Y-90450000D01*
G75*
G02*
X106200000Y-90250000I0J200000D01*
G01*
G37*
G36*
G01*
X109450481Y-120194615D02*
X110749519Y-119444615D01*
G75*
G02*
X111022724Y-119517820I100000J-173205D01*
G01*
X111922724Y-121076666D01*
G75*
G02*
X111849519Y-121349871I-173205J-100000D01*
G01*
X110550481Y-122099871D01*
G75*
G02*
X110277276Y-122026666I-100000J173205D01*
G01*
X109377276Y-120467820D01*
G75*
G02*
X109450481Y-120194615I173205J100000D01*
G01*
G37*
G36*
G01*
X107750481Y-117250129D02*
X109049519Y-116500129D01*
G75*
G02*
X109322724Y-116573334I100000J-173205D01*
G01*
X110222724Y-118132180D01*
G75*
G02*
X110149519Y-118405385I-173205J-100000D01*
G01*
X108850481Y-119155385D01*
G75*
G02*
X108577276Y-119082180I-100000J173205D01*
G01*
X107677276Y-117523334D01*
G75*
G02*
X107750481Y-117250129I173205J100000D01*
G01*
G37*
G36*
G01*
X121100000Y-118750000D02*
X121100000Y-117250000D01*
G75*
G02*
X121300000Y-117050000I200000J0D01*
G01*
X123100000Y-117050000D01*
G75*
G02*
X123300000Y-117250000I0J-200000D01*
G01*
X123300000Y-118750000D01*
G75*
G02*
X123100000Y-118950000I-200000J0D01*
G01*
X121300000Y-118950000D01*
G75*
G02*
X121100000Y-118750000I0J200000D01*
G01*
G37*
G36*
G01*
X124500000Y-118750000D02*
X124500000Y-117250000D01*
G75*
G02*
X124700000Y-117050000I200000J0D01*
G01*
X126500000Y-117050000D01*
G75*
G02*
X126700000Y-117250000I0J-200000D01*
G01*
X126700000Y-118750000D01*
G75*
G02*
X126500000Y-118950000I-200000J0D01*
G01*
X124700000Y-118950000D01*
G75*
G02*
X124500000Y-118750000I0J200000D01*
G01*
G37*
G36*
G01*
X143500000Y-116550000D02*
X143500000Y-115050000D01*
G75*
G02*
X143700000Y-114850000I200000J0D01*
G01*
X145500000Y-114850000D01*
G75*
G02*
X145700000Y-115050000I0J-200000D01*
G01*
X145700000Y-116550000D01*
G75*
G02*
X145500000Y-116750000I-200000J0D01*
G01*
X143700000Y-116750000D01*
G75*
G02*
X143500000Y-116550000I0J200000D01*
G01*
G37*
G36*
G01*
X140100000Y-116550000D02*
X140100000Y-115050000D01*
G75*
G02*
X140300000Y-114850000I200000J0D01*
G01*
X142100000Y-114850000D01*
G75*
G02*
X142300000Y-115050000I0J-200000D01*
G01*
X142300000Y-116550000D01*
G75*
G02*
X142100000Y-116750000I-200000J0D01*
G01*
X140300000Y-116750000D01*
G75*
G02*
X140100000Y-116550000I0J200000D01*
G01*
G37*
G36*
G01*
X159200000Y-116550000D02*
X159200000Y-115050000D01*
G75*
G02*
X159400000Y-114850000I200000J0D01*
G01*
X161200000Y-114850000D01*
G75*
G02*
X161400000Y-115050000I0J-200000D01*
G01*
X161400000Y-116550000D01*
G75*
G02*
X161200000Y-116750000I-200000J0D01*
G01*
X159400000Y-116750000D01*
G75*
G02*
X159200000Y-116550000I0J200000D01*
G01*
G37*
G36*
G01*
X162600000Y-116550000D02*
X162600000Y-115050000D01*
G75*
G02*
X162800000Y-114850000I200000J0D01*
G01*
X164600000Y-114850000D01*
G75*
G02*
X164800000Y-115050000I0J-200000D01*
G01*
X164800000Y-116550000D01*
G75*
G02*
X164600000Y-116750000I-200000J0D01*
G01*
X162800000Y-116750000D01*
G75*
G02*
X162600000Y-116550000I0J200000D01*
G01*
G37*
D11*
X86000000Y-85000000D03*
X108000000Y-85000000D03*
D18*
X96700000Y-74600000D03*
X99240000Y-74600000D03*
X101780000Y-74600000D03*
X104320000Y-74600000D03*
M02*
