G04 #@! TF.GenerationSoftware,KiCad,Pcbnew,(5.1.12)-1*
G04 #@! TF.CreationDate,2021-12-11T09:13:36+00:00*
G04 #@! TF.ProjectId,Lily58_Pro,4c696c79-3538-45f5-9072-6f2e6b696361,rev?*
G04 #@! TF.SameCoordinates,Original*
G04 #@! TF.FileFunction,Legend,Bot*
G04 #@! TF.FilePolarity,Positive*
%FSLAX46Y46*%
G04 Gerber Fmt 4.6, Leading zero omitted, Abs format (unit mm)*
G04 Created by KiCad (PCBNEW (5.1.12)-1) date 2021-12-11 09:13:36*
%MOMM*%
%LPD*%
G01*
G04 APERTURE LIST*
%ADD10C,0.010000*%
%ADD11C,0.150000*%
%ADD12C,0.120000*%
%ADD13C,0.250000*%
%ADD14C,0.100000*%
G04 APERTURE END LIST*
D10*
G36*
X99583169Y-55216808D02*
G01*
X99593613Y-55280472D01*
X99604881Y-55307707D01*
X99650414Y-55337493D01*
X99723177Y-55341405D01*
X99821245Y-55319583D01*
X99913766Y-55284918D01*
X99989549Y-55252899D01*
X100088564Y-55211526D01*
X100197856Y-55166193D01*
X100302308Y-55123180D01*
X100410743Y-55078673D01*
X100523193Y-55032441D01*
X100626061Y-54990079D01*
X100702847Y-54958382D01*
X100769578Y-54930879D01*
X100864104Y-54892060D01*
X100978034Y-54845364D01*
X101102978Y-54794227D01*
X101230546Y-54742090D01*
X101249924Y-54734178D01*
X101428316Y-54661320D01*
X101574478Y-54601569D01*
X101692372Y-54553292D01*
X101785957Y-54514856D01*
X101859195Y-54484630D01*
X101916046Y-54460981D01*
X101960472Y-54442276D01*
X101996434Y-54426885D01*
X102011924Y-54420163D01*
X102067794Y-54396544D01*
X102145176Y-54364759D01*
X102229199Y-54330901D01*
X102246385Y-54324063D01*
X102445617Y-54244114D01*
X102611967Y-54175185D01*
X102749400Y-54115288D01*
X102861884Y-54062432D01*
X102953383Y-54014628D01*
X103027863Y-53969887D01*
X103089291Y-53926220D01*
X103141632Y-53881637D01*
X103156295Y-53867650D01*
X103265621Y-53736070D01*
X103345052Y-53587389D01*
X103392457Y-53428350D01*
X103405708Y-53265696D01*
X103388858Y-53131077D01*
X103349328Y-52996925D01*
X103300423Y-52900222D01*
X103242279Y-52841157D01*
X103175029Y-52819919D01*
X103167527Y-52819889D01*
X103084894Y-52838401D01*
X103009303Y-52883883D01*
X102959540Y-52941923D01*
X102945007Y-52973205D01*
X102941691Y-53004623D01*
X102950568Y-53048056D01*
X102972618Y-53115379D01*
X102974194Y-53119902D01*
X103004155Y-53217949D01*
X103015315Y-53294259D01*
X103007945Y-53361203D01*
X102982312Y-53431152D01*
X102981034Y-53433923D01*
X102936268Y-53509116D01*
X102872576Y-53578410D01*
X102785714Y-53644781D01*
X102671438Y-53711206D01*
X102525505Y-53780661D01*
X102426887Y-53822601D01*
X102341227Y-53857541D01*
X102282708Y-53879115D01*
X102242291Y-53888726D01*
X102210939Y-53887779D01*
X102179615Y-53877679D01*
X102151646Y-53865365D01*
X102109135Y-53846720D01*
X102040518Y-53817162D01*
X101955703Y-53780940D01*
X101875154Y-53746768D01*
X101783385Y-53707932D01*
X101698159Y-53671813D01*
X101629736Y-53642763D01*
X101591847Y-53626620D01*
X101558729Y-53612460D01*
X101528378Y-53599539D01*
X101494836Y-53585355D01*
X101452145Y-53567405D01*
X101394346Y-53543187D01*
X101315482Y-53510198D01*
X101209593Y-53465937D01*
X101142462Y-53437881D01*
X101015175Y-53384639D01*
X100878098Y-53327221D01*
X100736313Y-53267764D01*
X100594902Y-53208404D01*
X100458945Y-53151278D01*
X100333525Y-53098521D01*
X100223722Y-53052270D01*
X100134619Y-53014661D01*
X100071296Y-52987830D01*
X100038836Y-52973914D01*
X100038539Y-52973783D01*
X99927230Y-52925567D01*
X99844561Y-52892112D01*
X99784007Y-52871143D01*
X99739043Y-52860381D01*
X99705349Y-52857538D01*
X99649064Y-52864034D01*
X99611865Y-52887500D01*
X99590256Y-52933902D01*
X99580743Y-53009206D01*
X99579385Y-53072526D01*
X99580264Y-53150362D01*
X99584807Y-53199262D01*
X99595874Y-53229361D01*
X99616326Y-53250793D01*
X99633116Y-53262904D01*
X99676339Y-53287516D01*
X99743393Y-53320192D01*
X99821671Y-53354874D01*
X99843154Y-53363820D01*
X99928271Y-53398774D01*
X100011734Y-53433111D01*
X100077829Y-53460364D01*
X100087385Y-53464315D01*
X100148521Y-53489174D01*
X100230197Y-53521814D01*
X100316518Y-53555892D01*
X100331616Y-53561803D01*
X100408219Y-53591891D01*
X100474563Y-53618193D01*
X100519315Y-53636211D01*
X100527000Y-53639398D01*
X100592135Y-53666492D01*
X100682811Y-53703705D01*
X100788285Y-53746655D01*
X100897811Y-53790959D01*
X100956847Y-53814702D01*
X101056382Y-53854898D01*
X101168074Y-53900400D01*
X101268013Y-53941465D01*
X101269462Y-53942064D01*
X101360280Y-53979158D01*
X101455081Y-54017128D01*
X101535031Y-54048439D01*
X101543000Y-54051493D01*
X101626133Y-54085311D01*
X101673536Y-54109505D01*
X101684566Y-54123675D01*
X101664802Y-54127538D01*
X101625154Y-54134899D01*
X101572560Y-54152806D01*
X101568086Y-54154665D01*
X101469930Y-54195229D01*
X101357955Y-54240105D01*
X101254064Y-54280548D01*
X101230385Y-54289519D01*
X101163480Y-54315217D01*
X101075652Y-54349694D01*
X100979349Y-54387986D01*
X100887022Y-54425123D01*
X100811117Y-54456141D01*
X100778280Y-54469899D01*
X100742841Y-54484450D01*
X100677071Y-54510911D01*
X100586997Y-54546880D01*
X100478650Y-54589951D01*
X100358059Y-54637721D01*
X100289819Y-54664684D01*
X100122091Y-54730923D01*
X99986903Y-54784454D01*
X99880446Y-54826911D01*
X99798908Y-54859928D01*
X99738480Y-54885138D01*
X99695352Y-54904174D01*
X99665714Y-54918671D01*
X99645755Y-54930261D01*
X99631665Y-54940579D01*
X99619635Y-54951256D01*
X99618147Y-54952641D01*
X99597050Y-54979579D01*
X99585115Y-55018121D01*
X99580063Y-55078754D01*
X99579385Y-55130796D01*
X99583169Y-55216808D01*
G37*
X99583169Y-55216808D02*
X99593613Y-55280472D01*
X99604881Y-55307707D01*
X99650414Y-55337493D01*
X99723177Y-55341405D01*
X99821245Y-55319583D01*
X99913766Y-55284918D01*
X99989549Y-55252899D01*
X100088564Y-55211526D01*
X100197856Y-55166193D01*
X100302308Y-55123180D01*
X100410743Y-55078673D01*
X100523193Y-55032441D01*
X100626061Y-54990079D01*
X100702847Y-54958382D01*
X100769578Y-54930879D01*
X100864104Y-54892060D01*
X100978034Y-54845364D01*
X101102978Y-54794227D01*
X101230546Y-54742090D01*
X101249924Y-54734178D01*
X101428316Y-54661320D01*
X101574478Y-54601569D01*
X101692372Y-54553292D01*
X101785957Y-54514856D01*
X101859195Y-54484630D01*
X101916046Y-54460981D01*
X101960472Y-54442276D01*
X101996434Y-54426885D01*
X102011924Y-54420163D01*
X102067794Y-54396544D01*
X102145176Y-54364759D01*
X102229199Y-54330901D01*
X102246385Y-54324063D01*
X102445617Y-54244114D01*
X102611967Y-54175185D01*
X102749400Y-54115288D01*
X102861884Y-54062432D01*
X102953383Y-54014628D01*
X103027863Y-53969887D01*
X103089291Y-53926220D01*
X103141632Y-53881637D01*
X103156295Y-53867650D01*
X103265621Y-53736070D01*
X103345052Y-53587389D01*
X103392457Y-53428350D01*
X103405708Y-53265696D01*
X103388858Y-53131077D01*
X103349328Y-52996925D01*
X103300423Y-52900222D01*
X103242279Y-52841157D01*
X103175029Y-52819919D01*
X103167527Y-52819889D01*
X103084894Y-52838401D01*
X103009303Y-52883883D01*
X102959540Y-52941923D01*
X102945007Y-52973205D01*
X102941691Y-53004623D01*
X102950568Y-53048056D01*
X102972618Y-53115379D01*
X102974194Y-53119902D01*
X103004155Y-53217949D01*
X103015315Y-53294259D01*
X103007945Y-53361203D01*
X102982312Y-53431152D01*
X102981034Y-53433923D01*
X102936268Y-53509116D01*
X102872576Y-53578410D01*
X102785714Y-53644781D01*
X102671438Y-53711206D01*
X102525505Y-53780661D01*
X102426887Y-53822601D01*
X102341227Y-53857541D01*
X102282708Y-53879115D01*
X102242291Y-53888726D01*
X102210939Y-53887779D01*
X102179615Y-53877679D01*
X102151646Y-53865365D01*
X102109135Y-53846720D01*
X102040518Y-53817162D01*
X101955703Y-53780940D01*
X101875154Y-53746768D01*
X101783385Y-53707932D01*
X101698159Y-53671813D01*
X101629736Y-53642763D01*
X101591847Y-53626620D01*
X101558729Y-53612460D01*
X101528378Y-53599539D01*
X101494836Y-53585355D01*
X101452145Y-53567405D01*
X101394346Y-53543187D01*
X101315482Y-53510198D01*
X101209593Y-53465937D01*
X101142462Y-53437881D01*
X101015175Y-53384639D01*
X100878098Y-53327221D01*
X100736313Y-53267764D01*
X100594902Y-53208404D01*
X100458945Y-53151278D01*
X100333525Y-53098521D01*
X100223722Y-53052270D01*
X100134619Y-53014661D01*
X100071296Y-52987830D01*
X100038836Y-52973914D01*
X100038539Y-52973783D01*
X99927230Y-52925567D01*
X99844561Y-52892112D01*
X99784007Y-52871143D01*
X99739043Y-52860381D01*
X99705349Y-52857538D01*
X99649064Y-52864034D01*
X99611865Y-52887500D01*
X99590256Y-52933902D01*
X99580743Y-53009206D01*
X99579385Y-53072526D01*
X99580264Y-53150362D01*
X99584807Y-53199262D01*
X99595874Y-53229361D01*
X99616326Y-53250793D01*
X99633116Y-53262904D01*
X99676339Y-53287516D01*
X99743393Y-53320192D01*
X99821671Y-53354874D01*
X99843154Y-53363820D01*
X99928271Y-53398774D01*
X100011734Y-53433111D01*
X100077829Y-53460364D01*
X100087385Y-53464315D01*
X100148521Y-53489174D01*
X100230197Y-53521814D01*
X100316518Y-53555892D01*
X100331616Y-53561803D01*
X100408219Y-53591891D01*
X100474563Y-53618193D01*
X100519315Y-53636211D01*
X100527000Y-53639398D01*
X100592135Y-53666492D01*
X100682811Y-53703705D01*
X100788285Y-53746655D01*
X100897811Y-53790959D01*
X100956847Y-53814702D01*
X101056382Y-53854898D01*
X101168074Y-53900400D01*
X101268013Y-53941465D01*
X101269462Y-53942064D01*
X101360280Y-53979158D01*
X101455081Y-54017128D01*
X101535031Y-54048439D01*
X101543000Y-54051493D01*
X101626133Y-54085311D01*
X101673536Y-54109505D01*
X101684566Y-54123675D01*
X101664802Y-54127538D01*
X101625154Y-54134899D01*
X101572560Y-54152806D01*
X101568086Y-54154665D01*
X101469930Y-54195229D01*
X101357955Y-54240105D01*
X101254064Y-54280548D01*
X101230385Y-54289519D01*
X101163480Y-54315217D01*
X101075652Y-54349694D01*
X100979349Y-54387986D01*
X100887022Y-54425123D01*
X100811117Y-54456141D01*
X100778280Y-54469899D01*
X100742841Y-54484450D01*
X100677071Y-54510911D01*
X100586997Y-54546880D01*
X100478650Y-54589951D01*
X100358059Y-54637721D01*
X100289819Y-54664684D01*
X100122091Y-54730923D01*
X99986903Y-54784454D01*
X99880446Y-54826911D01*
X99798908Y-54859928D01*
X99738480Y-54885138D01*
X99695352Y-54904174D01*
X99665714Y-54918671D01*
X99645755Y-54930261D01*
X99631665Y-54940579D01*
X99619635Y-54951256D01*
X99618147Y-54952641D01*
X99597050Y-54979579D01*
X99585115Y-55018121D01*
X99580063Y-55078754D01*
X99579385Y-55130796D01*
X99583169Y-55216808D01*
G36*
X97346259Y-43743774D02*
G01*
X97383468Y-43786951D01*
X97437819Y-43841802D01*
X97481457Y-43882344D01*
X97547746Y-43942228D01*
X97605808Y-43995130D01*
X97647699Y-44033788D01*
X97662187Y-44047538D01*
X97691096Y-44072370D01*
X97742836Y-44113631D01*
X97808806Y-44164536D01*
X97850231Y-44195832D01*
X98118961Y-44385457D01*
X98378003Y-44543108D01*
X98634256Y-44672196D01*
X98894620Y-44776128D01*
X99165995Y-44858313D01*
X99217555Y-44871307D01*
X99337167Y-44893242D01*
X99481645Y-44908284D01*
X99640364Y-44916355D01*
X99802697Y-44917376D01*
X99958018Y-44911270D01*
X100095701Y-44897958D01*
X100200656Y-44878523D01*
X100269797Y-44861974D01*
X100322557Y-44851434D01*
X100349128Y-44848817D01*
X100350359Y-44849322D01*
X100349979Y-44870311D01*
X100343288Y-44921202D01*
X100331512Y-44993555D01*
X100320996Y-45051923D01*
X100286242Y-45343642D01*
X100289280Y-45641257D01*
X100329775Y-45942094D01*
X100407391Y-46243481D01*
X100502162Y-46497769D01*
X100540859Y-46582100D01*
X100592929Y-46687016D01*
X100651832Y-46800096D01*
X100711024Y-46908920D01*
X100763964Y-47001068D01*
X100786866Y-47038295D01*
X100830194Y-47104792D01*
X100878344Y-47176486D01*
X100925217Y-47244557D01*
X100964717Y-47300185D01*
X100990746Y-47334551D01*
X100994992Y-47339369D01*
X101019672Y-47367742D01*
X101055195Y-47411773D01*
X101064308Y-47423457D01*
X101115065Y-47485932D01*
X101184867Y-47567615D01*
X101265778Y-47659444D01*
X101349862Y-47752361D01*
X101396462Y-47802651D01*
X101484385Y-47896572D01*
X101558673Y-47826367D01*
X101676690Y-47706939D01*
X101804411Y-47564209D01*
X101932840Y-47409186D01*
X102052979Y-47252881D01*
X102155832Y-47106301D01*
X102187770Y-47056630D01*
X102209856Y-47021420D01*
X102242519Y-46969556D01*
X102256654Y-46947154D01*
X102312950Y-46849640D01*
X102375826Y-46727173D01*
X102439661Y-46591919D01*
X102498834Y-46456048D01*
X102547723Y-46331729D01*
X102568065Y-46273077D01*
X102647752Y-45984137D01*
X102693671Y-45708321D01*
X102705816Y-45439080D01*
X102684180Y-45169860D01*
X102628755Y-44894110D01*
X102566466Y-44683449D01*
X102529204Y-44581587D01*
X102480555Y-44463474D01*
X102425109Y-44338950D01*
X102367453Y-44217851D01*
X102312178Y-44110016D01*
X102263872Y-44025282D01*
X102248077Y-44000863D01*
X102217893Y-43954399D01*
X102199824Y-43922366D01*
X102197539Y-43915760D01*
X102188018Y-43897112D01*
X102157991Y-43855981D01*
X102105261Y-43789424D01*
X102080014Y-43758324D01*
X102067843Y-43741739D01*
X102064363Y-43725089D01*
X102072584Y-43700967D01*
X102095519Y-43661964D01*
X102136179Y-43600674D01*
X102156078Y-43571220D01*
X102331013Y-43284980D01*
X102473772Y-42992616D01*
X102583171Y-42697678D01*
X102658024Y-42403720D01*
X102697146Y-42114293D01*
X102702878Y-41932469D01*
X102701173Y-41834720D01*
X102698502Y-41747370D01*
X102695234Y-41680013D01*
X102691773Y-41642461D01*
X102654157Y-41463515D01*
X102602328Y-41271859D01*
X102540813Y-41081976D01*
X102474134Y-40908347D01*
X102435381Y-40821846D01*
X102376177Y-40704774D01*
X102307033Y-40578607D01*
X102232948Y-40451575D01*
X102158921Y-40331913D01*
X102089950Y-40227852D01*
X102031035Y-40147625D01*
X102012265Y-40125033D01*
X101987203Y-40094441D01*
X101953044Y-40050679D01*
X101950142Y-40046880D01*
X101875807Y-39952466D01*
X101797072Y-39857789D01*
X101718500Y-39767778D01*
X101644653Y-39687361D01*
X101580091Y-39621470D01*
X101529378Y-39575033D01*
X101497074Y-39552980D01*
X101494022Y-39552293D01*
X101494022Y-40089154D01*
X101592905Y-40196615D01*
X101649544Y-40262614D01*
X101720153Y-40351410D01*
X101797352Y-40453070D01*
X101873764Y-40557659D01*
X101942010Y-40655245D01*
X101994714Y-40735895D01*
X102000486Y-40745359D01*
X102052315Y-40838032D01*
X102110843Y-40953364D01*
X102170803Y-41079905D01*
X102226928Y-41206204D01*
X102273952Y-41320813D01*
X102305261Y-41408000D01*
X102342918Y-41547372D01*
X102374763Y-41705022D01*
X102397858Y-41863638D01*
X102409263Y-42005911D01*
X102409758Y-42023461D01*
X102407746Y-42086546D01*
X102400692Y-42173677D01*
X102389887Y-42270343D01*
X102383652Y-42316538D01*
X102341455Y-42534542D01*
X102276721Y-42750617D01*
X102186767Y-42971856D01*
X102068909Y-43205348D01*
X102003649Y-43320423D01*
X101919191Y-43452761D01*
X101837891Y-43551826D01*
X101835231Y-43554053D01*
X101835231Y-43889384D01*
X101860029Y-43905885D01*
X101898648Y-43951576D01*
X101947349Y-44020737D01*
X102002392Y-44107650D01*
X102060035Y-44206597D01*
X102116539Y-44311859D01*
X102133537Y-44345476D01*
X102229189Y-44553534D01*
X102300818Y-44748044D01*
X102352802Y-44942301D01*
X102382306Y-45100769D01*
X102399989Y-45230760D01*
X102408175Y-45342770D01*
X102406899Y-45451998D01*
X102396192Y-45573642D01*
X102383562Y-45671072D01*
X102333944Y-45913780D01*
X102253054Y-46166620D01*
X102143964Y-46421074D01*
X102046982Y-46605231D01*
X101989634Y-46700130D01*
X101922045Y-46803116D01*
X101848112Y-46909157D01*
X101771730Y-47013222D01*
X101696796Y-47110279D01*
X101627205Y-47195296D01*
X101566853Y-47263244D01*
X101519636Y-47309090D01*
X101489451Y-47327803D01*
X101487319Y-47327989D01*
X101462930Y-47312502D01*
X101420834Y-47269746D01*
X101365000Y-47204969D01*
X101299395Y-47123417D01*
X101227987Y-47030337D01*
X101154745Y-46930976D01*
X101083635Y-46830581D01*
X101018625Y-46734399D01*
X100963684Y-46647676D01*
X100933369Y-46595461D01*
X100840275Y-46418011D01*
X100766613Y-46256845D01*
X100706801Y-46098228D01*
X100655257Y-45928422D01*
X100641759Y-45877818D01*
X100601751Y-45666823D01*
X100585011Y-45440105D01*
X100591640Y-45211882D01*
X100621737Y-44996376D01*
X100635166Y-44937094D01*
X100683308Y-44744111D01*
X100868924Y-44651956D01*
X101074511Y-44545393D01*
X101245530Y-44446406D01*
X101385174Y-44352507D01*
X101496634Y-44261210D01*
X101583102Y-44170027D01*
X101647769Y-44076471D01*
X101674822Y-44023927D01*
X101725049Y-43944677D01*
X101786079Y-43899399D01*
X101835231Y-43889384D01*
X101835231Y-43554053D01*
X101753705Y-43622327D01*
X101660589Y-43668971D01*
X101552500Y-43696462D01*
X101513693Y-43701992D01*
X101387725Y-43723810D01*
X101289435Y-43756961D01*
X101208185Y-43805086D01*
X101204672Y-43807728D01*
X101158596Y-43849458D01*
X101109610Y-43904366D01*
X101063634Y-43964155D01*
X101026591Y-44020531D01*
X101004398Y-44065198D01*
X101002978Y-44089861D01*
X101003172Y-44090064D01*
X101030230Y-44097910D01*
X101084791Y-44101934D01*
X101155397Y-44101332D01*
X101160266Y-44101113D01*
X101231071Y-44098641D01*
X101268476Y-44100334D01*
X101278030Y-44107219D01*
X101265284Y-44120321D01*
X101265060Y-44120488D01*
X101227427Y-44145983D01*
X101170203Y-44181751D01*
X101102011Y-44222761D01*
X101031476Y-44263982D01*
X100967221Y-44300384D01*
X100917869Y-44326936D01*
X100892044Y-44338607D01*
X100890891Y-44338769D01*
X100861617Y-44355758D01*
X100824604Y-44400834D01*
X100784912Y-44465165D01*
X100747600Y-44539916D01*
X100717727Y-44616254D01*
X100704203Y-44664748D01*
X100693772Y-44695505D01*
X100672897Y-44718656D01*
X100633189Y-44739870D01*
X100566259Y-44764814D01*
X100545754Y-44771803D01*
X100470383Y-44796518D01*
X100425029Y-44805360D01*
X100405411Y-44793444D01*
X100407249Y-44755881D01*
X100426264Y-44687784D01*
X100438288Y-44649079D01*
X100456897Y-44585805D01*
X100468513Y-44539365D01*
X100470643Y-44520130D01*
X100450459Y-44522432D01*
X100406362Y-44535127D01*
X100382349Y-44543257D01*
X100288601Y-44569954D01*
X100170301Y-44594440D01*
X100041975Y-44614415D01*
X99918148Y-44627579D01*
X99823616Y-44631705D01*
X99663009Y-44622541D01*
X99483200Y-44596794D01*
X99299050Y-44557029D01*
X99159308Y-44517077D01*
X98935109Y-44433756D01*
X98712816Y-44328037D01*
X98488045Y-44197240D01*
X98256412Y-44038684D01*
X98013535Y-43849689D01*
X97869933Y-43728653D01*
X97863154Y-43706842D01*
X97872658Y-43698071D01*
X97897418Y-43679190D01*
X97942490Y-43642051D01*
X97998801Y-43594151D01*
X98007613Y-43586538D01*
X98213679Y-43422761D01*
X98443991Y-43265222D01*
X98683872Y-43123654D01*
X98786481Y-43070027D01*
X98880861Y-43023897D01*
X98963253Y-42985824D01*
X99027286Y-42958578D01*
X99066589Y-42944932D01*
X99075465Y-42944290D01*
X99095313Y-42965984D01*
X99126158Y-43008941D01*
X99142435Y-43033914D01*
X99229418Y-43152383D01*
X99343551Y-43279092D01*
X99476302Y-43406341D01*
X99619144Y-43526431D01*
X99763545Y-43631664D01*
X99889502Y-43708232D01*
X100089004Y-43809137D01*
X100285217Y-43895623D01*
X100468313Y-43963580D01*
X100580840Y-43997251D01*
X100650758Y-44014912D01*
X100693829Y-44022080D01*
X100720858Y-44018722D01*
X100742648Y-44004808D01*
X100751802Y-43996747D01*
X100780904Y-43964242D01*
X100790770Y-43943169D01*
X100801862Y-43916280D01*
X100828643Y-43876713D01*
X100829580Y-43875516D01*
X100853853Y-43837466D01*
X100859817Y-43812442D01*
X100859418Y-43811657D01*
X100837264Y-43799333D01*
X100788199Y-43781388D01*
X100727800Y-43763133D01*
X100484011Y-43682510D01*
X100243171Y-43578371D01*
X100019733Y-43457302D01*
X99928548Y-43398940D01*
X99872474Y-43356357D01*
X99800217Y-43295029D01*
X99720433Y-43223036D01*
X99641777Y-43148460D01*
X99572907Y-43079383D01*
X99522479Y-43023885D01*
X99510192Y-43008363D01*
X99349352Y-42760780D01*
X99211613Y-42486614D01*
X99099200Y-42192313D01*
X99014335Y-41884325D01*
X98959241Y-41569099D01*
X98939936Y-41354269D01*
X98929004Y-41154000D01*
X99053925Y-41154004D01*
X99187522Y-41161109D01*
X99347428Y-41181064D01*
X99523820Y-41211835D01*
X99706875Y-41251388D01*
X99886771Y-41297691D01*
X100053684Y-41348711D01*
X100136407Y-41378051D01*
X100224142Y-41411147D01*
X100281183Y-41435852D01*
X100312939Y-41458723D01*
X100324821Y-41486321D01*
X100322239Y-41525203D01*
X100310602Y-41581928D01*
X100309375Y-41587754D01*
X100287175Y-41752246D01*
X100282369Y-41941725D01*
X100294115Y-42146619D01*
X100321567Y-42357354D01*
X100363883Y-42564359D01*
X100409805Y-42726846D01*
X100449255Y-42833770D01*
X100504322Y-42963040D01*
X100569778Y-43103948D01*
X100640394Y-43245787D01*
X100710943Y-43377850D01*
X100776195Y-43489430D01*
X100800973Y-43527923D01*
X100856008Y-43609843D01*
X100894801Y-43663167D01*
X100923379Y-43691410D01*
X100947766Y-43698088D01*
X100973991Y-43686716D01*
X101008078Y-43660809D01*
X101016824Y-43653832D01*
X101066849Y-43615241D01*
X101107127Y-43586199D01*
X101119633Y-43578229D01*
X101127630Y-43562127D01*
X101116220Y-43529251D01*
X101083095Y-43474305D01*
X101058662Y-43438331D01*
X101008880Y-43360755D01*
X100949299Y-43258997D01*
X100886157Y-43144509D01*
X100825696Y-43028742D01*
X100774155Y-42923147D01*
X100755687Y-42882347D01*
X100720225Y-42788300D01*
X100683371Y-42668565D01*
X100648484Y-42536239D01*
X100618925Y-42404420D01*
X100598055Y-42286205D01*
X100593308Y-42249433D01*
X100581343Y-42020036D01*
X100598588Y-41791777D01*
X100646016Y-41553257D01*
X100655909Y-41515461D01*
X100683760Y-41420937D01*
X100718640Y-41315625D01*
X100757180Y-41208418D01*
X100796010Y-41108209D01*
X100831757Y-41023891D01*
X100861053Y-40964359D01*
X100870651Y-40948846D01*
X100887114Y-40921814D01*
X100915036Y-40872803D01*
X100937837Y-40831615D01*
X100990021Y-40744074D01*
X101060262Y-40637052D01*
X101141227Y-40520775D01*
X101225582Y-40405466D01*
X101305997Y-40301351D01*
X101375137Y-40218654D01*
X101386230Y-40206384D01*
X101494022Y-40089154D01*
X101494022Y-39552293D01*
X101492040Y-39551846D01*
X101464331Y-39566720D01*
X101417169Y-39608281D01*
X101354521Y-39671936D01*
X101280355Y-39753093D01*
X101198641Y-39847158D01*
X101113346Y-39949540D01*
X101028440Y-40055646D01*
X100947889Y-40160884D01*
X100875664Y-40260660D01*
X100860031Y-40283253D01*
X100799146Y-40377104D01*
X100732986Y-40487418D01*
X100665617Y-40606524D01*
X100601108Y-40726749D01*
X100543525Y-40840423D01*
X100496935Y-40939874D01*
X100465406Y-41017430D01*
X100457264Y-41042963D01*
X100441779Y-41090471D01*
X100422835Y-41108843D01*
X100388309Y-41107045D01*
X100374472Y-41104207D01*
X100325078Y-41091020D01*
X100292843Y-41077791D01*
X100292539Y-41077588D01*
X100255224Y-41058582D01*
X100190885Y-41031844D01*
X100109813Y-41001243D01*
X100022298Y-40970650D01*
X99938632Y-40943933D01*
X99931077Y-40941683D01*
X99703405Y-40880500D01*
X99481165Y-40834206D01*
X99252265Y-40800898D01*
X99004612Y-40778673D01*
X98838612Y-40769721D01*
X98537455Y-40756853D01*
X98550375Y-41087311D01*
X98572486Y-41399629D01*
X98613167Y-41702577D01*
X98662479Y-41948522D01*
X98682839Y-42024602D01*
X98711923Y-42120561D01*
X98746235Y-42226109D01*
X98782279Y-42330959D01*
X98816559Y-42424821D01*
X98845577Y-42497408D01*
X98858666Y-42525798D01*
X98882050Y-42578096D01*
X98894767Y-42618841D01*
X98895539Y-42625993D01*
X98878050Y-42647454D01*
X98830896Y-42674686D01*
X98773424Y-42698828D01*
X98704991Y-42726754D01*
X98619865Y-42765329D01*
X98526775Y-42810143D01*
X98434448Y-42856787D01*
X98351615Y-42900848D01*
X98287003Y-42937918D01*
X98249342Y-42963586D01*
X98249231Y-42963683D01*
X98217338Y-42985735D01*
X98202866Y-42990615D01*
X98177764Y-43002196D01*
X98127555Y-43034354D01*
X98057613Y-43083211D01*
X97973311Y-43144891D01*
X97880022Y-43215514D01*
X97783118Y-43291204D01*
X97752539Y-43315608D01*
X97642370Y-43406361D01*
X97542924Y-43492776D01*
X97458208Y-43571003D01*
X97392229Y-43637194D01*
X97348995Y-43687498D01*
X97332513Y-43718067D01*
X97332462Y-43719142D01*
X97346259Y-43743774D01*
G37*
X97346259Y-43743774D02*
X97383468Y-43786951D01*
X97437819Y-43841802D01*
X97481457Y-43882344D01*
X97547746Y-43942228D01*
X97605808Y-43995130D01*
X97647699Y-44033788D01*
X97662187Y-44047538D01*
X97691096Y-44072370D01*
X97742836Y-44113631D01*
X97808806Y-44164536D01*
X97850231Y-44195832D01*
X98118961Y-44385457D01*
X98378003Y-44543108D01*
X98634256Y-44672196D01*
X98894620Y-44776128D01*
X99165995Y-44858313D01*
X99217555Y-44871307D01*
X99337167Y-44893242D01*
X99481645Y-44908284D01*
X99640364Y-44916355D01*
X99802697Y-44917376D01*
X99958018Y-44911270D01*
X100095701Y-44897958D01*
X100200656Y-44878523D01*
X100269797Y-44861974D01*
X100322557Y-44851434D01*
X100349128Y-44848817D01*
X100350359Y-44849322D01*
X100349979Y-44870311D01*
X100343288Y-44921202D01*
X100331512Y-44993555D01*
X100320996Y-45051923D01*
X100286242Y-45343642D01*
X100289280Y-45641257D01*
X100329775Y-45942094D01*
X100407391Y-46243481D01*
X100502162Y-46497769D01*
X100540859Y-46582100D01*
X100592929Y-46687016D01*
X100651832Y-46800096D01*
X100711024Y-46908920D01*
X100763964Y-47001068D01*
X100786866Y-47038295D01*
X100830194Y-47104792D01*
X100878344Y-47176486D01*
X100925217Y-47244557D01*
X100964717Y-47300185D01*
X100990746Y-47334551D01*
X100994992Y-47339369D01*
X101019672Y-47367742D01*
X101055195Y-47411773D01*
X101064308Y-47423457D01*
X101115065Y-47485932D01*
X101184867Y-47567615D01*
X101265778Y-47659444D01*
X101349862Y-47752361D01*
X101396462Y-47802651D01*
X101484385Y-47896572D01*
X101558673Y-47826367D01*
X101676690Y-47706939D01*
X101804411Y-47564209D01*
X101932840Y-47409186D01*
X102052979Y-47252881D01*
X102155832Y-47106301D01*
X102187770Y-47056630D01*
X102209856Y-47021420D01*
X102242519Y-46969556D01*
X102256654Y-46947154D01*
X102312950Y-46849640D01*
X102375826Y-46727173D01*
X102439661Y-46591919D01*
X102498834Y-46456048D01*
X102547723Y-46331729D01*
X102568065Y-46273077D01*
X102647752Y-45984137D01*
X102693671Y-45708321D01*
X102705816Y-45439080D01*
X102684180Y-45169860D01*
X102628755Y-44894110D01*
X102566466Y-44683449D01*
X102529204Y-44581587D01*
X102480555Y-44463474D01*
X102425109Y-44338950D01*
X102367453Y-44217851D01*
X102312178Y-44110016D01*
X102263872Y-44025282D01*
X102248077Y-44000863D01*
X102217893Y-43954399D01*
X102199824Y-43922366D01*
X102197539Y-43915760D01*
X102188018Y-43897112D01*
X102157991Y-43855981D01*
X102105261Y-43789424D01*
X102080014Y-43758324D01*
X102067843Y-43741739D01*
X102064363Y-43725089D01*
X102072584Y-43700967D01*
X102095519Y-43661964D01*
X102136179Y-43600674D01*
X102156078Y-43571220D01*
X102331013Y-43284980D01*
X102473772Y-42992616D01*
X102583171Y-42697678D01*
X102658024Y-42403720D01*
X102697146Y-42114293D01*
X102702878Y-41932469D01*
X102701173Y-41834720D01*
X102698502Y-41747370D01*
X102695234Y-41680013D01*
X102691773Y-41642461D01*
X102654157Y-41463515D01*
X102602328Y-41271859D01*
X102540813Y-41081976D01*
X102474134Y-40908347D01*
X102435381Y-40821846D01*
X102376177Y-40704774D01*
X102307033Y-40578607D01*
X102232948Y-40451575D01*
X102158921Y-40331913D01*
X102089950Y-40227852D01*
X102031035Y-40147625D01*
X102012265Y-40125033D01*
X101987203Y-40094441D01*
X101953044Y-40050679D01*
X101950142Y-40046880D01*
X101875807Y-39952466D01*
X101797072Y-39857789D01*
X101718500Y-39767778D01*
X101644653Y-39687361D01*
X101580091Y-39621470D01*
X101529378Y-39575033D01*
X101497074Y-39552980D01*
X101494022Y-39552293D01*
X101494022Y-40089154D01*
X101592905Y-40196615D01*
X101649544Y-40262614D01*
X101720153Y-40351410D01*
X101797352Y-40453070D01*
X101873764Y-40557659D01*
X101942010Y-40655245D01*
X101994714Y-40735895D01*
X102000486Y-40745359D01*
X102052315Y-40838032D01*
X102110843Y-40953364D01*
X102170803Y-41079905D01*
X102226928Y-41206204D01*
X102273952Y-41320813D01*
X102305261Y-41408000D01*
X102342918Y-41547372D01*
X102374763Y-41705022D01*
X102397858Y-41863638D01*
X102409263Y-42005911D01*
X102409758Y-42023461D01*
X102407746Y-42086546D01*
X102400692Y-42173677D01*
X102389887Y-42270343D01*
X102383652Y-42316538D01*
X102341455Y-42534542D01*
X102276721Y-42750617D01*
X102186767Y-42971856D01*
X102068909Y-43205348D01*
X102003649Y-43320423D01*
X101919191Y-43452761D01*
X101837891Y-43551826D01*
X101835231Y-43554053D01*
X101835231Y-43889384D01*
X101860029Y-43905885D01*
X101898648Y-43951576D01*
X101947349Y-44020737D01*
X102002392Y-44107650D01*
X102060035Y-44206597D01*
X102116539Y-44311859D01*
X102133537Y-44345476D01*
X102229189Y-44553534D01*
X102300818Y-44748044D01*
X102352802Y-44942301D01*
X102382306Y-45100769D01*
X102399989Y-45230760D01*
X102408175Y-45342770D01*
X102406899Y-45451998D01*
X102396192Y-45573642D01*
X102383562Y-45671072D01*
X102333944Y-45913780D01*
X102253054Y-46166620D01*
X102143964Y-46421074D01*
X102046982Y-46605231D01*
X101989634Y-46700130D01*
X101922045Y-46803116D01*
X101848112Y-46909157D01*
X101771730Y-47013222D01*
X101696796Y-47110279D01*
X101627205Y-47195296D01*
X101566853Y-47263244D01*
X101519636Y-47309090D01*
X101489451Y-47327803D01*
X101487319Y-47327989D01*
X101462930Y-47312502D01*
X101420834Y-47269746D01*
X101365000Y-47204969D01*
X101299395Y-47123417D01*
X101227987Y-47030337D01*
X101154745Y-46930976D01*
X101083635Y-46830581D01*
X101018625Y-46734399D01*
X100963684Y-46647676D01*
X100933369Y-46595461D01*
X100840275Y-46418011D01*
X100766613Y-46256845D01*
X100706801Y-46098228D01*
X100655257Y-45928422D01*
X100641759Y-45877818D01*
X100601751Y-45666823D01*
X100585011Y-45440105D01*
X100591640Y-45211882D01*
X100621737Y-44996376D01*
X100635166Y-44937094D01*
X100683308Y-44744111D01*
X100868924Y-44651956D01*
X101074511Y-44545393D01*
X101245530Y-44446406D01*
X101385174Y-44352507D01*
X101496634Y-44261210D01*
X101583102Y-44170027D01*
X101647769Y-44076471D01*
X101674822Y-44023927D01*
X101725049Y-43944677D01*
X101786079Y-43899399D01*
X101835231Y-43889384D01*
X101835231Y-43554053D01*
X101753705Y-43622327D01*
X101660589Y-43668971D01*
X101552500Y-43696462D01*
X101513693Y-43701992D01*
X101387725Y-43723810D01*
X101289435Y-43756961D01*
X101208185Y-43805086D01*
X101204672Y-43807728D01*
X101158596Y-43849458D01*
X101109610Y-43904366D01*
X101063634Y-43964155D01*
X101026591Y-44020531D01*
X101004398Y-44065198D01*
X101002978Y-44089861D01*
X101003172Y-44090064D01*
X101030230Y-44097910D01*
X101084791Y-44101934D01*
X101155397Y-44101332D01*
X101160266Y-44101113D01*
X101231071Y-44098641D01*
X101268476Y-44100334D01*
X101278030Y-44107219D01*
X101265284Y-44120321D01*
X101265060Y-44120488D01*
X101227427Y-44145983D01*
X101170203Y-44181751D01*
X101102011Y-44222761D01*
X101031476Y-44263982D01*
X100967221Y-44300384D01*
X100917869Y-44326936D01*
X100892044Y-44338607D01*
X100890891Y-44338769D01*
X100861617Y-44355758D01*
X100824604Y-44400834D01*
X100784912Y-44465165D01*
X100747600Y-44539916D01*
X100717727Y-44616254D01*
X100704203Y-44664748D01*
X100693772Y-44695505D01*
X100672897Y-44718656D01*
X100633189Y-44739870D01*
X100566259Y-44764814D01*
X100545754Y-44771803D01*
X100470383Y-44796518D01*
X100425029Y-44805360D01*
X100405411Y-44793444D01*
X100407249Y-44755881D01*
X100426264Y-44687784D01*
X100438288Y-44649079D01*
X100456897Y-44585805D01*
X100468513Y-44539365D01*
X100470643Y-44520130D01*
X100450459Y-44522432D01*
X100406362Y-44535127D01*
X100382349Y-44543257D01*
X100288601Y-44569954D01*
X100170301Y-44594440D01*
X100041975Y-44614415D01*
X99918148Y-44627579D01*
X99823616Y-44631705D01*
X99663009Y-44622541D01*
X99483200Y-44596794D01*
X99299050Y-44557029D01*
X99159308Y-44517077D01*
X98935109Y-44433756D01*
X98712816Y-44328037D01*
X98488045Y-44197240D01*
X98256412Y-44038684D01*
X98013535Y-43849689D01*
X97869933Y-43728653D01*
X97863154Y-43706842D01*
X97872658Y-43698071D01*
X97897418Y-43679190D01*
X97942490Y-43642051D01*
X97998801Y-43594151D01*
X98007613Y-43586538D01*
X98213679Y-43422761D01*
X98443991Y-43265222D01*
X98683872Y-43123654D01*
X98786481Y-43070027D01*
X98880861Y-43023897D01*
X98963253Y-42985824D01*
X99027286Y-42958578D01*
X99066589Y-42944932D01*
X99075465Y-42944290D01*
X99095313Y-42965984D01*
X99126158Y-43008941D01*
X99142435Y-43033914D01*
X99229418Y-43152383D01*
X99343551Y-43279092D01*
X99476302Y-43406341D01*
X99619144Y-43526431D01*
X99763545Y-43631664D01*
X99889502Y-43708232D01*
X100089004Y-43809137D01*
X100285217Y-43895623D01*
X100468313Y-43963580D01*
X100580840Y-43997251D01*
X100650758Y-44014912D01*
X100693829Y-44022080D01*
X100720858Y-44018722D01*
X100742648Y-44004808D01*
X100751802Y-43996747D01*
X100780904Y-43964242D01*
X100790770Y-43943169D01*
X100801862Y-43916280D01*
X100828643Y-43876713D01*
X100829580Y-43875516D01*
X100853853Y-43837466D01*
X100859817Y-43812442D01*
X100859418Y-43811657D01*
X100837264Y-43799333D01*
X100788199Y-43781388D01*
X100727800Y-43763133D01*
X100484011Y-43682510D01*
X100243171Y-43578371D01*
X100019733Y-43457302D01*
X99928548Y-43398940D01*
X99872474Y-43356357D01*
X99800217Y-43295029D01*
X99720433Y-43223036D01*
X99641777Y-43148460D01*
X99572907Y-43079383D01*
X99522479Y-43023885D01*
X99510192Y-43008363D01*
X99349352Y-42760780D01*
X99211613Y-42486614D01*
X99099200Y-42192313D01*
X99014335Y-41884325D01*
X98959241Y-41569099D01*
X98939936Y-41354269D01*
X98929004Y-41154000D01*
X99053925Y-41154004D01*
X99187522Y-41161109D01*
X99347428Y-41181064D01*
X99523820Y-41211835D01*
X99706875Y-41251388D01*
X99886771Y-41297691D01*
X100053684Y-41348711D01*
X100136407Y-41378051D01*
X100224142Y-41411147D01*
X100281183Y-41435852D01*
X100312939Y-41458723D01*
X100324821Y-41486321D01*
X100322239Y-41525203D01*
X100310602Y-41581928D01*
X100309375Y-41587754D01*
X100287175Y-41752246D01*
X100282369Y-41941725D01*
X100294115Y-42146619D01*
X100321567Y-42357354D01*
X100363883Y-42564359D01*
X100409805Y-42726846D01*
X100449255Y-42833770D01*
X100504322Y-42963040D01*
X100569778Y-43103948D01*
X100640394Y-43245787D01*
X100710943Y-43377850D01*
X100776195Y-43489430D01*
X100800973Y-43527923D01*
X100856008Y-43609843D01*
X100894801Y-43663167D01*
X100923379Y-43691410D01*
X100947766Y-43698088D01*
X100973991Y-43686716D01*
X101008078Y-43660809D01*
X101016824Y-43653832D01*
X101066849Y-43615241D01*
X101107127Y-43586199D01*
X101119633Y-43578229D01*
X101127630Y-43562127D01*
X101116220Y-43529251D01*
X101083095Y-43474305D01*
X101058662Y-43438331D01*
X101008880Y-43360755D01*
X100949299Y-43258997D01*
X100886157Y-43144509D01*
X100825696Y-43028742D01*
X100774155Y-42923147D01*
X100755687Y-42882347D01*
X100720225Y-42788300D01*
X100683371Y-42668565D01*
X100648484Y-42536239D01*
X100618925Y-42404420D01*
X100598055Y-42286205D01*
X100593308Y-42249433D01*
X100581343Y-42020036D01*
X100598588Y-41791777D01*
X100646016Y-41553257D01*
X100655909Y-41515461D01*
X100683760Y-41420937D01*
X100718640Y-41315625D01*
X100757180Y-41208418D01*
X100796010Y-41108209D01*
X100831757Y-41023891D01*
X100861053Y-40964359D01*
X100870651Y-40948846D01*
X100887114Y-40921814D01*
X100915036Y-40872803D01*
X100937837Y-40831615D01*
X100990021Y-40744074D01*
X101060262Y-40637052D01*
X101141227Y-40520775D01*
X101225582Y-40405466D01*
X101305997Y-40301351D01*
X101375137Y-40218654D01*
X101386230Y-40206384D01*
X101494022Y-40089154D01*
X101494022Y-39552293D01*
X101492040Y-39551846D01*
X101464331Y-39566720D01*
X101417169Y-39608281D01*
X101354521Y-39671936D01*
X101280355Y-39753093D01*
X101198641Y-39847158D01*
X101113346Y-39949540D01*
X101028440Y-40055646D01*
X100947889Y-40160884D01*
X100875664Y-40260660D01*
X100860031Y-40283253D01*
X100799146Y-40377104D01*
X100732986Y-40487418D01*
X100665617Y-40606524D01*
X100601108Y-40726749D01*
X100543525Y-40840423D01*
X100496935Y-40939874D01*
X100465406Y-41017430D01*
X100457264Y-41042963D01*
X100441779Y-41090471D01*
X100422835Y-41108843D01*
X100388309Y-41107045D01*
X100374472Y-41104207D01*
X100325078Y-41091020D01*
X100292843Y-41077791D01*
X100292539Y-41077588D01*
X100255224Y-41058582D01*
X100190885Y-41031844D01*
X100109813Y-41001243D01*
X100022298Y-40970650D01*
X99938632Y-40943933D01*
X99931077Y-40941683D01*
X99703405Y-40880500D01*
X99481165Y-40834206D01*
X99252265Y-40800898D01*
X99004612Y-40778673D01*
X98838612Y-40769721D01*
X98537455Y-40756853D01*
X98550375Y-41087311D01*
X98572486Y-41399629D01*
X98613167Y-41702577D01*
X98662479Y-41948522D01*
X98682839Y-42024602D01*
X98711923Y-42120561D01*
X98746235Y-42226109D01*
X98782279Y-42330959D01*
X98816559Y-42424821D01*
X98845577Y-42497408D01*
X98858666Y-42525798D01*
X98882050Y-42578096D01*
X98894767Y-42618841D01*
X98895539Y-42625993D01*
X98878050Y-42647454D01*
X98830896Y-42674686D01*
X98773424Y-42698828D01*
X98704991Y-42726754D01*
X98619865Y-42765329D01*
X98526775Y-42810143D01*
X98434448Y-42856787D01*
X98351615Y-42900848D01*
X98287003Y-42937918D01*
X98249342Y-42963586D01*
X98249231Y-42963683D01*
X98217338Y-42985735D01*
X98202866Y-42990615D01*
X98177764Y-43002196D01*
X98127555Y-43034354D01*
X98057613Y-43083211D01*
X97973311Y-43144891D01*
X97880022Y-43215514D01*
X97783118Y-43291204D01*
X97752539Y-43315608D01*
X97642370Y-43406361D01*
X97542924Y-43492776D01*
X97458208Y-43571003D01*
X97392229Y-43637194D01*
X97348995Y-43687498D01*
X97332513Y-43718067D01*
X97332462Y-43719142D01*
X97346259Y-43743774D01*
G36*
X98544540Y-57503821D02*
G01*
X98547028Y-57622140D01*
X98551863Y-57714316D01*
X98559776Y-57783582D01*
X98571498Y-57833170D01*
X98587760Y-57866313D01*
X98609292Y-57886243D01*
X98636826Y-57896192D01*
X98671093Y-57899393D01*
X98712824Y-57899079D01*
X98756135Y-57898461D01*
X98837547Y-57895557D01*
X98892498Y-57885062D01*
X98933295Y-57864301D01*
X98941495Y-57858167D01*
X98992721Y-57817873D01*
X98997861Y-57150379D01*
X99003000Y-56482886D01*
X99198385Y-56459554D01*
X99401964Y-56435416D01*
X99569164Y-56415993D01*
X99702370Y-56401036D01*
X99803963Y-56390297D01*
X99876326Y-56383526D01*
X99921841Y-56380476D01*
X99942892Y-56380897D01*
X99944800Y-56381672D01*
X99943160Y-56402832D01*
X99931037Y-56450474D01*
X99911143Y-56514015D01*
X99868561Y-56697580D01*
X99857074Y-56895213D01*
X99875674Y-57098701D01*
X99923352Y-57299832D01*
X99999101Y-57490392D01*
X100040475Y-57567764D01*
X100156145Y-57729217D01*
X100301879Y-57872093D01*
X100471007Y-57991149D01*
X100656859Y-58081138D01*
X100722385Y-58104089D01*
X100831539Y-58127897D01*
X100964982Y-58140700D01*
X101109540Y-58142605D01*
X101252039Y-58133722D01*
X101379303Y-58114159D01*
X101440229Y-58098190D01*
X101646000Y-58013124D01*
X101828966Y-57896412D01*
X101989610Y-57747690D01*
X102106853Y-57598933D01*
X102198548Y-57433987D01*
X102266763Y-57244538D01*
X102309787Y-57038538D01*
X102325908Y-56823936D01*
X102315822Y-56628461D01*
X102272391Y-56410339D01*
X102192425Y-56198821D01*
X102089045Y-56012555D01*
X102026819Y-55924755D01*
X101959671Y-55845879D01*
X101894886Y-55783482D01*
X101839751Y-55745119D01*
X101825376Y-55739166D01*
X101782900Y-55742109D01*
X101721529Y-55766350D01*
X101651075Y-55806669D01*
X101581346Y-55857849D01*
X101550082Y-55885629D01*
X101509115Y-55943488D01*
X101493425Y-56007396D01*
X101504959Y-56064678D01*
X101519507Y-56084873D01*
X101581869Y-56158279D01*
X101648899Y-56252882D01*
X101710733Y-56353606D01*
X101757507Y-56445374D01*
X101761484Y-56454693D01*
X101785417Y-56517136D01*
X101800757Y-56573756D01*
X101809358Y-56636605D01*
X101813073Y-56717735D01*
X101813764Y-56794538D01*
X101812512Y-56899292D01*
X101807347Y-56976415D01*
X101796722Y-57037282D01*
X101779092Y-57093268D01*
X101770041Y-57116095D01*
X101688275Y-57270082D01*
X101581896Y-57399570D01*
X101470832Y-57489067D01*
X101324069Y-57562241D01*
X101170383Y-57599855D01*
X101015133Y-57603445D01*
X100863679Y-57574548D01*
X100721379Y-57514701D01*
X100593591Y-57425441D01*
X100485676Y-57308304D01*
X100412434Y-57185570D01*
X100361692Y-57058452D01*
X100333064Y-56932217D01*
X100324111Y-56792823D01*
X100327271Y-56695314D01*
X100336839Y-56588684D01*
X100353702Y-56502423D01*
X100382109Y-56417944D01*
X100401075Y-56372611D01*
X100445714Y-56243572D01*
X100464417Y-56124254D01*
X100457514Y-56019835D01*
X100425337Y-55935494D01*
X100369404Y-55877183D01*
X100342258Y-55863048D01*
X100307858Y-55853756D01*
X100261066Y-55849379D01*
X100196741Y-55849990D01*
X100109744Y-55855660D01*
X99994937Y-55866461D01*
X99847179Y-55882466D01*
X99826617Y-55884782D01*
X99694457Y-55899472D01*
X99555158Y-55914552D01*
X99422025Y-55928606D01*
X99308363Y-55940220D01*
X99266770Y-55944307D01*
X99094412Y-55961057D01*
X98956631Y-55974927D01*
X98849093Y-55986620D01*
X98767463Y-55996842D01*
X98707407Y-56006299D01*
X98664589Y-56015695D01*
X98634675Y-56025736D01*
X98613331Y-56037127D01*
X98596222Y-56050574D01*
X98592447Y-56054016D01*
X98543847Y-56099057D01*
X98543847Y-56959682D01*
X98543680Y-57175825D01*
X98543667Y-57356127D01*
X98544540Y-57503821D01*
G37*
X98544540Y-57503821D02*
X98547028Y-57622140D01*
X98551863Y-57714316D01*
X98559776Y-57783582D01*
X98571498Y-57833170D01*
X98587760Y-57866313D01*
X98609292Y-57886243D01*
X98636826Y-57896192D01*
X98671093Y-57899393D01*
X98712824Y-57899079D01*
X98756135Y-57898461D01*
X98837547Y-57895557D01*
X98892498Y-57885062D01*
X98933295Y-57864301D01*
X98941495Y-57858167D01*
X98992721Y-57817873D01*
X98997861Y-57150379D01*
X99003000Y-56482886D01*
X99198385Y-56459554D01*
X99401964Y-56435416D01*
X99569164Y-56415993D01*
X99702370Y-56401036D01*
X99803963Y-56390297D01*
X99876326Y-56383526D01*
X99921841Y-56380476D01*
X99942892Y-56380897D01*
X99944800Y-56381672D01*
X99943160Y-56402832D01*
X99931037Y-56450474D01*
X99911143Y-56514015D01*
X99868561Y-56697580D01*
X99857074Y-56895213D01*
X99875674Y-57098701D01*
X99923352Y-57299832D01*
X99999101Y-57490392D01*
X100040475Y-57567764D01*
X100156145Y-57729217D01*
X100301879Y-57872093D01*
X100471007Y-57991149D01*
X100656859Y-58081138D01*
X100722385Y-58104089D01*
X100831539Y-58127897D01*
X100964982Y-58140700D01*
X101109540Y-58142605D01*
X101252039Y-58133722D01*
X101379303Y-58114159D01*
X101440229Y-58098190D01*
X101646000Y-58013124D01*
X101828966Y-57896412D01*
X101989610Y-57747690D01*
X102106853Y-57598933D01*
X102198548Y-57433987D01*
X102266763Y-57244538D01*
X102309787Y-57038538D01*
X102325908Y-56823936D01*
X102315822Y-56628461D01*
X102272391Y-56410339D01*
X102192425Y-56198821D01*
X102089045Y-56012555D01*
X102026819Y-55924755D01*
X101959671Y-55845879D01*
X101894886Y-55783482D01*
X101839751Y-55745119D01*
X101825376Y-55739166D01*
X101782900Y-55742109D01*
X101721529Y-55766350D01*
X101651075Y-55806669D01*
X101581346Y-55857849D01*
X101550082Y-55885629D01*
X101509115Y-55943488D01*
X101493425Y-56007396D01*
X101504959Y-56064678D01*
X101519507Y-56084873D01*
X101581869Y-56158279D01*
X101648899Y-56252882D01*
X101710733Y-56353606D01*
X101757507Y-56445374D01*
X101761484Y-56454693D01*
X101785417Y-56517136D01*
X101800757Y-56573756D01*
X101809358Y-56636605D01*
X101813073Y-56717735D01*
X101813764Y-56794538D01*
X101812512Y-56899292D01*
X101807347Y-56976415D01*
X101796722Y-57037282D01*
X101779092Y-57093268D01*
X101770041Y-57116095D01*
X101688275Y-57270082D01*
X101581896Y-57399570D01*
X101470832Y-57489067D01*
X101324069Y-57562241D01*
X101170383Y-57599855D01*
X101015133Y-57603445D01*
X100863679Y-57574548D01*
X100721379Y-57514701D01*
X100593591Y-57425441D01*
X100485676Y-57308304D01*
X100412434Y-57185570D01*
X100361692Y-57058452D01*
X100333064Y-56932217D01*
X100324111Y-56792823D01*
X100327271Y-56695314D01*
X100336839Y-56588684D01*
X100353702Y-56502423D01*
X100382109Y-56417944D01*
X100401075Y-56372611D01*
X100445714Y-56243572D01*
X100464417Y-56124254D01*
X100457514Y-56019835D01*
X100425337Y-55935494D01*
X100369404Y-55877183D01*
X100342258Y-55863048D01*
X100307858Y-55853756D01*
X100261066Y-55849379D01*
X100196741Y-55849990D01*
X100109744Y-55855660D01*
X99994937Y-55866461D01*
X99847179Y-55882466D01*
X99826617Y-55884782D01*
X99694457Y-55899472D01*
X99555158Y-55914552D01*
X99422025Y-55928606D01*
X99308363Y-55940220D01*
X99266770Y-55944307D01*
X99094412Y-55961057D01*
X98956631Y-55974927D01*
X98849093Y-55986620D01*
X98767463Y-55996842D01*
X98707407Y-56006299D01*
X98664589Y-56015695D01*
X98634675Y-56025736D01*
X98613331Y-56037127D01*
X98596222Y-56050574D01*
X98592447Y-56054016D01*
X98543847Y-56099057D01*
X98543847Y-56959682D01*
X98543680Y-57175825D01*
X98543667Y-57356127D01*
X98544540Y-57503821D01*
G36*
X98485266Y-60149716D02*
G01*
X98516068Y-60358419D01*
X98571139Y-60551879D01*
X98636254Y-60697235D01*
X98695167Y-60786191D01*
X98774739Y-60880436D01*
X98863982Y-60968642D01*
X98951904Y-61039476D01*
X98993807Y-61065879D01*
X99163433Y-61137476D01*
X99347330Y-61173834D01*
X99542212Y-61174623D01*
X99740462Y-61140628D01*
X99889076Y-61093846D01*
X100031106Y-61029291D01*
X100177240Y-60941564D01*
X100284576Y-60865795D01*
X100436124Y-60753429D01*
X100468341Y-60802598D01*
X100584126Y-60951309D01*
X100721055Y-61080278D01*
X100868968Y-61179978D01*
X100873316Y-61182334D01*
X100930883Y-61211888D01*
X100979717Y-61231441D01*
X101031168Y-61243455D01*
X101096588Y-61250392D01*
X101187331Y-61254713D01*
X101210847Y-61255525D01*
X101310820Y-61257882D01*
X101383921Y-61256091D01*
X101442268Y-61248654D01*
X101497975Y-61234072D01*
X101558808Y-61212493D01*
X101749705Y-61120628D01*
X101915716Y-60999615D01*
X102055398Y-60851571D01*
X102167308Y-60678612D01*
X102250002Y-60482856D01*
X102302036Y-60266419D01*
X102319834Y-60096538D01*
X102322846Y-59994951D01*
X102322209Y-59891053D01*
X102318149Y-59802008D01*
X102315590Y-59774154D01*
X102274698Y-59559884D01*
X102204340Y-59363372D01*
X102107488Y-59187095D01*
X101987116Y-59033530D01*
X101846198Y-58905151D01*
X101687705Y-58804436D01*
X101514611Y-58733862D01*
X101329890Y-58695904D01*
X101155025Y-58693314D01*
X101155025Y-59227268D01*
X101251019Y-59229603D01*
X101322111Y-59237963D01*
X101382306Y-59254752D01*
X101428496Y-59274215D01*
X101566450Y-59359095D01*
X101681067Y-59471475D01*
X101769870Y-59605811D01*
X101830381Y-59756559D01*
X101860122Y-59918174D01*
X101856614Y-60085112D01*
X101836887Y-60187971D01*
X101777977Y-60349709D01*
X101693360Y-60486839D01*
X101585969Y-60596434D01*
X101458740Y-60675567D01*
X101314606Y-60721313D01*
X101299510Y-60723917D01*
X101222789Y-60724488D01*
X101128731Y-60707449D01*
X101110735Y-60702511D01*
X101018499Y-60665398D01*
X100935383Y-60608016D01*
X100857599Y-60526154D01*
X100781360Y-60415597D01*
X100702876Y-60272132D01*
X100677833Y-60221015D01*
X100633861Y-60128070D01*
X100595188Y-60044029D01*
X100565495Y-59977053D01*
X100548463Y-59935306D01*
X100546824Y-59930461D01*
X100529293Y-59884758D01*
X100501348Y-59822384D01*
X100483868Y-59786446D01*
X100456466Y-59719770D01*
X100445368Y-59665468D01*
X100446663Y-59648897D01*
X100467111Y-59613116D01*
X100513724Y-59556808D01*
X100582529Y-59484321D01*
X100669551Y-59400002D01*
X100699852Y-59371914D01*
X100728191Y-59353365D01*
X100781017Y-59324512D01*
X100847302Y-59291357D01*
X100852484Y-59288876D01*
X100921934Y-59257878D01*
X100980051Y-59239353D01*
X101042019Y-59230210D01*
X101123018Y-59227358D01*
X101155025Y-59227268D01*
X101155025Y-58693314D01*
X101136514Y-58693039D01*
X101033504Y-58706244D01*
X100834952Y-58760678D01*
X100647803Y-58851676D01*
X100471230Y-58979732D01*
X100307521Y-59141812D01*
X100196702Y-59267257D01*
X100147488Y-59203205D01*
X100015213Y-59059297D01*
X99867435Y-58950156D01*
X99706596Y-58876633D01*
X99535142Y-58839576D01*
X99516050Y-58839603D01*
X99516050Y-59356197D01*
X99637631Y-59389737D01*
X99720338Y-59435586D01*
X99803549Y-59508921D01*
X99888392Y-59616211D01*
X99975541Y-59758588D01*
X100065666Y-59937185D01*
X100159439Y-60153134D01*
X100187661Y-60223538D01*
X100212184Y-60290098D01*
X100219111Y-60333179D01*
X100206031Y-60365309D01*
X100170535Y-60399013D01*
X100150885Y-60414669D01*
X99990992Y-60523366D01*
X99830491Y-60600296D01*
X99672778Y-60645716D01*
X99521251Y-60659885D01*
X99379307Y-60643061D01*
X99250344Y-60595503D01*
X99137760Y-60517470D01*
X99044951Y-60409218D01*
X98998841Y-60327062D01*
X98974754Y-60272121D01*
X98959225Y-60222849D01*
X98950438Y-60168013D01*
X98946580Y-60096383D01*
X98945834Y-59998846D01*
X98947060Y-59898475D01*
X98951528Y-59825934D01*
X98960995Y-59770005D01*
X98977218Y-59719468D01*
X98996585Y-59674635D01*
X99071062Y-59551950D01*
X99165534Y-59457017D01*
X99274715Y-59391583D01*
X99393316Y-59357394D01*
X99516050Y-59356197D01*
X99516050Y-58839603D01*
X99355516Y-58839837D01*
X99193626Y-58871328D01*
X99019507Y-58940289D01*
X98864786Y-59041562D01*
X98732744Y-59171862D01*
X98626662Y-59327900D01*
X98549822Y-59506392D01*
X98545317Y-59520633D01*
X98499207Y-59721974D01*
X98479418Y-59934618D01*
X98485266Y-60149716D01*
G37*
X98485266Y-60149716D02*
X98516068Y-60358419D01*
X98571139Y-60551879D01*
X98636254Y-60697235D01*
X98695167Y-60786191D01*
X98774739Y-60880436D01*
X98863982Y-60968642D01*
X98951904Y-61039476D01*
X98993807Y-61065879D01*
X99163433Y-61137476D01*
X99347330Y-61173834D01*
X99542212Y-61174623D01*
X99740462Y-61140628D01*
X99889076Y-61093846D01*
X100031106Y-61029291D01*
X100177240Y-60941564D01*
X100284576Y-60865795D01*
X100436124Y-60753429D01*
X100468341Y-60802598D01*
X100584126Y-60951309D01*
X100721055Y-61080278D01*
X100868968Y-61179978D01*
X100873316Y-61182334D01*
X100930883Y-61211888D01*
X100979717Y-61231441D01*
X101031168Y-61243455D01*
X101096588Y-61250392D01*
X101187331Y-61254713D01*
X101210847Y-61255525D01*
X101310820Y-61257882D01*
X101383921Y-61256091D01*
X101442268Y-61248654D01*
X101497975Y-61234072D01*
X101558808Y-61212493D01*
X101749705Y-61120628D01*
X101915716Y-60999615D01*
X102055398Y-60851571D01*
X102167308Y-60678612D01*
X102250002Y-60482856D01*
X102302036Y-60266419D01*
X102319834Y-60096538D01*
X102322846Y-59994951D01*
X102322209Y-59891053D01*
X102318149Y-59802008D01*
X102315590Y-59774154D01*
X102274698Y-59559884D01*
X102204340Y-59363372D01*
X102107488Y-59187095D01*
X101987116Y-59033530D01*
X101846198Y-58905151D01*
X101687705Y-58804436D01*
X101514611Y-58733862D01*
X101329890Y-58695904D01*
X101155025Y-58693314D01*
X101155025Y-59227268D01*
X101251019Y-59229603D01*
X101322111Y-59237963D01*
X101382306Y-59254752D01*
X101428496Y-59274215D01*
X101566450Y-59359095D01*
X101681067Y-59471475D01*
X101769870Y-59605811D01*
X101830381Y-59756559D01*
X101860122Y-59918174D01*
X101856614Y-60085112D01*
X101836887Y-60187971D01*
X101777977Y-60349709D01*
X101693360Y-60486839D01*
X101585969Y-60596434D01*
X101458740Y-60675567D01*
X101314606Y-60721313D01*
X101299510Y-60723917D01*
X101222789Y-60724488D01*
X101128731Y-60707449D01*
X101110735Y-60702511D01*
X101018499Y-60665398D01*
X100935383Y-60608016D01*
X100857599Y-60526154D01*
X100781360Y-60415597D01*
X100702876Y-60272132D01*
X100677833Y-60221015D01*
X100633861Y-60128070D01*
X100595188Y-60044029D01*
X100565495Y-59977053D01*
X100548463Y-59935306D01*
X100546824Y-59930461D01*
X100529293Y-59884758D01*
X100501348Y-59822384D01*
X100483868Y-59786446D01*
X100456466Y-59719770D01*
X100445368Y-59665468D01*
X100446663Y-59648897D01*
X100467111Y-59613116D01*
X100513724Y-59556808D01*
X100582529Y-59484321D01*
X100669551Y-59400002D01*
X100699852Y-59371914D01*
X100728191Y-59353365D01*
X100781017Y-59324512D01*
X100847302Y-59291357D01*
X100852484Y-59288876D01*
X100921934Y-59257878D01*
X100980051Y-59239353D01*
X101042019Y-59230210D01*
X101123018Y-59227358D01*
X101155025Y-59227268D01*
X101155025Y-58693314D01*
X101136514Y-58693039D01*
X101033504Y-58706244D01*
X100834952Y-58760678D01*
X100647803Y-58851676D01*
X100471230Y-58979732D01*
X100307521Y-59141812D01*
X100196702Y-59267257D01*
X100147488Y-59203205D01*
X100015213Y-59059297D01*
X99867435Y-58950156D01*
X99706596Y-58876633D01*
X99535142Y-58839576D01*
X99516050Y-58839603D01*
X99516050Y-59356197D01*
X99637631Y-59389737D01*
X99720338Y-59435586D01*
X99803549Y-59508921D01*
X99888392Y-59616211D01*
X99975541Y-59758588D01*
X100065666Y-59937185D01*
X100159439Y-60153134D01*
X100187661Y-60223538D01*
X100212184Y-60290098D01*
X100219111Y-60333179D01*
X100206031Y-60365309D01*
X100170535Y-60399013D01*
X100150885Y-60414669D01*
X99990992Y-60523366D01*
X99830491Y-60600296D01*
X99672778Y-60645716D01*
X99521251Y-60659885D01*
X99379307Y-60643061D01*
X99250344Y-60595503D01*
X99137760Y-60517470D01*
X99044951Y-60409218D01*
X98998841Y-60327062D01*
X98974754Y-60272121D01*
X98959225Y-60222849D01*
X98950438Y-60168013D01*
X98946580Y-60096383D01*
X98945834Y-59998846D01*
X98947060Y-59898475D01*
X98951528Y-59825934D01*
X98960995Y-59770005D01*
X98977218Y-59719468D01*
X98996585Y-59674635D01*
X99071062Y-59551950D01*
X99165534Y-59457017D01*
X99274715Y-59391583D01*
X99393316Y-59357394D01*
X99516050Y-59356197D01*
X99516050Y-58839603D01*
X99355516Y-58839837D01*
X99193626Y-58871328D01*
X99019507Y-58940289D01*
X98864786Y-59041562D01*
X98732744Y-59171862D01*
X98626662Y-59327900D01*
X98549822Y-59506392D01*
X98545317Y-59520633D01*
X98499207Y-59721974D01*
X98479418Y-59934618D01*
X98485266Y-60149716D01*
G36*
X98523569Y-52151891D02*
G01*
X98537813Y-52226575D01*
X98561648Y-52274104D01*
X98598988Y-52320231D01*
X100168687Y-52330000D01*
X100453375Y-52331800D01*
X100701605Y-52333472D01*
X100915995Y-52335091D01*
X101099164Y-52336734D01*
X101253728Y-52338478D01*
X101382307Y-52340400D01*
X101487518Y-52342576D01*
X101571980Y-52345083D01*
X101638311Y-52347998D01*
X101689129Y-52351398D01*
X101727051Y-52355358D01*
X101754697Y-52359957D01*
X101774685Y-52365271D01*
X101789632Y-52371376D01*
X101801314Y-52377837D01*
X101852658Y-52425810D01*
X101895964Y-52494952D01*
X101921201Y-52567507D01*
X101924000Y-52595053D01*
X101936966Y-52628343D01*
X101968523Y-52669300D01*
X101971958Y-52672811D01*
X102033027Y-52709124D01*
X102111507Y-52722967D01*
X102192577Y-52713960D01*
X102261415Y-52681723D01*
X102263289Y-52680274D01*
X102290298Y-52655612D01*
X102305650Y-52627483D01*
X102312460Y-52584727D01*
X102313843Y-52516186D01*
X102313752Y-52499543D01*
X102302916Y-52368790D01*
X102274928Y-52261070D01*
X102207711Y-52139648D01*
X102108833Y-52037898D01*
X101985781Y-51961786D01*
X101875154Y-51909923D01*
X100239971Y-51904607D01*
X98604788Y-51899290D01*
X98564548Y-51942483D01*
X98537065Y-51995199D01*
X98523363Y-52069884D01*
X98523569Y-52151891D01*
G37*
X98523569Y-52151891D02*
X98537813Y-52226575D01*
X98561648Y-52274104D01*
X98598988Y-52320231D01*
X100168687Y-52330000D01*
X100453375Y-52331800D01*
X100701605Y-52333472D01*
X100915995Y-52335091D01*
X101099164Y-52336734D01*
X101253728Y-52338478D01*
X101382307Y-52340400D01*
X101487518Y-52342576D01*
X101571980Y-52345083D01*
X101638311Y-52347998D01*
X101689129Y-52351398D01*
X101727051Y-52355358D01*
X101754697Y-52359957D01*
X101774685Y-52365271D01*
X101789632Y-52371376D01*
X101801314Y-52377837D01*
X101852658Y-52425810D01*
X101895964Y-52494952D01*
X101921201Y-52567507D01*
X101924000Y-52595053D01*
X101936966Y-52628343D01*
X101968523Y-52669300D01*
X101971958Y-52672811D01*
X102033027Y-52709124D01*
X102111507Y-52722967D01*
X102192577Y-52713960D01*
X102261415Y-52681723D01*
X102263289Y-52680274D01*
X102290298Y-52655612D01*
X102305650Y-52627483D01*
X102312460Y-52584727D01*
X102313843Y-52516186D01*
X102313752Y-52499543D01*
X102302916Y-52368790D01*
X102274928Y-52261070D01*
X102207711Y-52139648D01*
X102108833Y-52037898D01*
X101985781Y-51961786D01*
X101875154Y-51909923D01*
X100239971Y-51904607D01*
X98604788Y-51899290D01*
X98564548Y-51942483D01*
X98537065Y-51995199D01*
X98523363Y-52069884D01*
X98523569Y-52151891D01*
G36*
X98522506Y-48501678D02*
G01*
X98530817Y-48521544D01*
X98547451Y-48538230D01*
X98574786Y-48552033D01*
X98615199Y-48563248D01*
X98671069Y-48572172D01*
X98744774Y-48579101D01*
X98838691Y-48584332D01*
X98955199Y-48588161D01*
X99096675Y-48590885D01*
X99265498Y-48592798D01*
X99464045Y-48594199D01*
X99694695Y-48595383D01*
X99959825Y-48596646D01*
X100239645Y-48598154D01*
X101894693Y-48607923D01*
X101904462Y-49423036D01*
X101906884Y-49633364D01*
X101909134Y-49807943D01*
X101911935Y-49950093D01*
X101916006Y-50063132D01*
X101922069Y-50150378D01*
X101930846Y-50215150D01*
X101943059Y-50260767D01*
X101959427Y-50290547D01*
X101980674Y-50307808D01*
X102007519Y-50315869D01*
X102040684Y-50318049D01*
X102080892Y-50317666D01*
X102098894Y-50317538D01*
X102170960Y-50314593D01*
X102216996Y-50303434D01*
X102249760Y-50280575D01*
X102255393Y-50274777D01*
X102264330Y-50264228D01*
X102271821Y-50251205D01*
X102277991Y-50232399D01*
X102282970Y-50204499D01*
X102286885Y-50164196D01*
X102289864Y-50108180D01*
X102292034Y-50033141D01*
X102293524Y-49935769D01*
X102294461Y-49812754D01*
X102294972Y-49660787D01*
X102295187Y-49476557D01*
X102295231Y-49256754D01*
X102295231Y-48253273D01*
X102250010Y-48210790D01*
X102204790Y-48168308D01*
X98609274Y-48168308D01*
X98566791Y-48213528D01*
X98542291Y-48247441D01*
X98529400Y-48290878D01*
X98525031Y-48356450D01*
X98524930Y-48384490D01*
X98523729Y-48420038D01*
X98521340Y-48451222D01*
X98520139Y-48478336D01*
X98522506Y-48501678D01*
G37*
X98522506Y-48501678D02*
X98530817Y-48521544D01*
X98547451Y-48538230D01*
X98574786Y-48552033D01*
X98615199Y-48563248D01*
X98671069Y-48572172D01*
X98744774Y-48579101D01*
X98838691Y-48584332D01*
X98955199Y-48588161D01*
X99096675Y-48590885D01*
X99265498Y-48592798D01*
X99464045Y-48594199D01*
X99694695Y-48595383D01*
X99959825Y-48596646D01*
X100239645Y-48598154D01*
X101894693Y-48607923D01*
X101904462Y-49423036D01*
X101906884Y-49633364D01*
X101909134Y-49807943D01*
X101911935Y-49950093D01*
X101916006Y-50063132D01*
X101922069Y-50150378D01*
X101930846Y-50215150D01*
X101943059Y-50260767D01*
X101959427Y-50290547D01*
X101980674Y-50307808D01*
X102007519Y-50315869D01*
X102040684Y-50318049D01*
X102080892Y-50317666D01*
X102098894Y-50317538D01*
X102170960Y-50314593D01*
X102216996Y-50303434D01*
X102249760Y-50280575D01*
X102255393Y-50274777D01*
X102264330Y-50264228D01*
X102271821Y-50251205D01*
X102277991Y-50232399D01*
X102282970Y-50204499D01*
X102286885Y-50164196D01*
X102289864Y-50108180D01*
X102292034Y-50033141D01*
X102293524Y-49935769D01*
X102294461Y-49812754D01*
X102294972Y-49660787D01*
X102295187Y-49476557D01*
X102295231Y-49256754D01*
X102295231Y-48253273D01*
X102250010Y-48210790D01*
X102204790Y-48168308D01*
X98609274Y-48168308D01*
X98566791Y-48213528D01*
X98542291Y-48247441D01*
X98529400Y-48290878D01*
X98525031Y-48356450D01*
X98524930Y-48384490D01*
X98523729Y-48420038D01*
X98521340Y-48451222D01*
X98520139Y-48478336D01*
X98522506Y-48501678D01*
G36*
X99580616Y-50989770D02*
G01*
X99586370Y-51037207D01*
X99599737Y-51067613D01*
X99623808Y-51091995D01*
X99630866Y-51097659D01*
X99641921Y-51105798D01*
X99654780Y-51112766D01*
X99672377Y-51118654D01*
X99697643Y-51123554D01*
X99733510Y-51127555D01*
X99782910Y-51130749D01*
X99848776Y-51133228D01*
X99934040Y-51135080D01*
X100041633Y-51136399D01*
X100174488Y-51137273D01*
X100335536Y-51137795D01*
X100527711Y-51138055D01*
X100753944Y-51138144D01*
X100937308Y-51138154D01*
X101189565Y-51138131D01*
X101405678Y-51138002D01*
X101588577Y-51137675D01*
X101741197Y-51137061D01*
X101866467Y-51136068D01*
X101967321Y-51134605D01*
X102046691Y-51132581D01*
X102107509Y-51129906D01*
X102152707Y-51126488D01*
X102185216Y-51122237D01*
X102207970Y-51117062D01*
X102223900Y-51110871D01*
X102235939Y-51103575D01*
X102243750Y-51097659D01*
X102271250Y-51072286D01*
X102286753Y-51042970D01*
X102293624Y-50998211D01*
X102295229Y-50926512D01*
X102295231Y-50921812D01*
X102292887Y-50843484D01*
X102284199Y-50792969D01*
X102266689Y-50759194D01*
X102256154Y-50747384D01*
X102247459Y-50739574D01*
X102236247Y-50732880D01*
X102219631Y-50727216D01*
X102194729Y-50722497D01*
X102158655Y-50718636D01*
X102108525Y-50715547D01*
X102041454Y-50713144D01*
X101954559Y-50711342D01*
X101844953Y-50710053D01*
X101709754Y-50709192D01*
X101546076Y-50708674D01*
X101351034Y-50708411D01*
X101121745Y-50708318D01*
X100946390Y-50708308D01*
X100689930Y-50708384D01*
X100469692Y-50708659D01*
X100282825Y-50709201D01*
X100126473Y-50710077D01*
X99997783Y-50711357D01*
X99893901Y-50713109D01*
X99811975Y-50715400D01*
X99749149Y-50718300D01*
X99702571Y-50721876D01*
X99669387Y-50726196D01*
X99646743Y-50731330D01*
X99631785Y-50737345D01*
X99627544Y-50739862D01*
X99602454Y-50759855D01*
X99587980Y-50785667D01*
X99581256Y-50827674D01*
X99579418Y-50896254D01*
X99579385Y-50914290D01*
X99580616Y-50989770D01*
G37*
X99580616Y-50989770D02*
X99586370Y-51037207D01*
X99599737Y-51067613D01*
X99623808Y-51091995D01*
X99630866Y-51097659D01*
X99641921Y-51105798D01*
X99654780Y-51112766D01*
X99672377Y-51118654D01*
X99697643Y-51123554D01*
X99733510Y-51127555D01*
X99782910Y-51130749D01*
X99848776Y-51133228D01*
X99934040Y-51135080D01*
X100041633Y-51136399D01*
X100174488Y-51137273D01*
X100335536Y-51137795D01*
X100527711Y-51138055D01*
X100753944Y-51138144D01*
X100937308Y-51138154D01*
X101189565Y-51138131D01*
X101405678Y-51138002D01*
X101588577Y-51137675D01*
X101741197Y-51137061D01*
X101866467Y-51136068D01*
X101967321Y-51134605D01*
X102046691Y-51132581D01*
X102107509Y-51129906D01*
X102152707Y-51126488D01*
X102185216Y-51122237D01*
X102207970Y-51117062D01*
X102223900Y-51110871D01*
X102235939Y-51103575D01*
X102243750Y-51097659D01*
X102271250Y-51072286D01*
X102286753Y-51042970D01*
X102293624Y-50998211D01*
X102295229Y-50926512D01*
X102295231Y-50921812D01*
X102292887Y-50843484D01*
X102284199Y-50792969D01*
X102266689Y-50759194D01*
X102256154Y-50747384D01*
X102247459Y-50739574D01*
X102236247Y-50732880D01*
X102219631Y-50727216D01*
X102194729Y-50722497D01*
X102158655Y-50718636D01*
X102108525Y-50715547D01*
X102041454Y-50713144D01*
X101954559Y-50711342D01*
X101844953Y-50710053D01*
X101709754Y-50709192D01*
X101546076Y-50708674D01*
X101351034Y-50708411D01*
X101121745Y-50708318D01*
X100946390Y-50708308D01*
X100689930Y-50708384D01*
X100469692Y-50708659D01*
X100282825Y-50709201D01*
X100126473Y-50710077D01*
X99997783Y-50711357D01*
X99893901Y-50713109D01*
X99811975Y-50715400D01*
X99749149Y-50718300D01*
X99702571Y-50721876D01*
X99669387Y-50726196D01*
X99646743Y-50731330D01*
X99631785Y-50737345D01*
X99627544Y-50739862D01*
X99602454Y-50759855D01*
X99587980Y-50785667D01*
X99581256Y-50827674D01*
X99579418Y-50896254D01*
X99579385Y-50914290D01*
X99580616Y-50989770D01*
G36*
X100231875Y-66905656D02*
G01*
X100276012Y-67038936D01*
X100346438Y-67156604D01*
X100427598Y-67249018D01*
X100560075Y-67360302D01*
X100705554Y-67440754D01*
X100869023Y-67492210D01*
X101055471Y-67516504D01*
X101162000Y-67519019D01*
X101372761Y-67502775D01*
X101560273Y-67457377D01*
X101695976Y-67398335D01*
X101794217Y-67330337D01*
X101890321Y-67238179D01*
X101973617Y-67133871D01*
X102033438Y-67029422D01*
X102041886Y-67008945D01*
X102072773Y-66895681D01*
X102090379Y-66762114D01*
X102093935Y-66623986D01*
X102082673Y-66497036D01*
X102069763Y-66437243D01*
X102006072Y-66279886D01*
X101910085Y-66142493D01*
X101784358Y-66027358D01*
X101631448Y-65936773D01*
X101453911Y-65873032D01*
X101435539Y-65868378D01*
X101334480Y-65851907D01*
X101211057Y-65843914D01*
X101152231Y-65844127D01*
X101152231Y-66202308D01*
X101330447Y-66214438D01*
X101483759Y-66250141D01*
X101609902Y-66308382D01*
X101706612Y-66388128D01*
X101769787Y-66484233D01*
X101796515Y-66576603D01*
X101805481Y-66685248D01*
X101796365Y-66791975D01*
X101776425Y-66862358D01*
X101712815Y-66969361D01*
X101621079Y-67052063D01*
X101500399Y-67110810D01*
X101349954Y-67145947D01*
X101168925Y-67157821D01*
X101081005Y-67155839D01*
X100927193Y-67141377D01*
X100803489Y-67111985D01*
X100703038Y-67065420D01*
X100627114Y-67007221D01*
X100553616Y-66913107D01*
X100509887Y-66802103D01*
X100495942Y-66682650D01*
X100511794Y-66563187D01*
X100557459Y-66452157D01*
X100626031Y-66364502D01*
X100727221Y-66289476D01*
X100851892Y-66238183D01*
X101003440Y-66209575D01*
X101152231Y-66202308D01*
X101152231Y-65844127D01*
X101080753Y-65844388D01*
X100959050Y-65853319D01*
X100868924Y-65868762D01*
X100687679Y-65931247D01*
X100532528Y-66020952D01*
X100405348Y-66135378D01*
X100308012Y-66272025D01*
X100242396Y-66428393D01*
X100210376Y-66601983D01*
X100209893Y-66747233D01*
X100231875Y-66905656D01*
G37*
X100231875Y-66905656D02*
X100276012Y-67038936D01*
X100346438Y-67156604D01*
X100427598Y-67249018D01*
X100560075Y-67360302D01*
X100705554Y-67440754D01*
X100869023Y-67492210D01*
X101055471Y-67516504D01*
X101162000Y-67519019D01*
X101372761Y-67502775D01*
X101560273Y-67457377D01*
X101695976Y-67398335D01*
X101794217Y-67330337D01*
X101890321Y-67238179D01*
X101973617Y-67133871D01*
X102033438Y-67029422D01*
X102041886Y-67008945D01*
X102072773Y-66895681D01*
X102090379Y-66762114D01*
X102093935Y-66623986D01*
X102082673Y-66497036D01*
X102069763Y-66437243D01*
X102006072Y-66279886D01*
X101910085Y-66142493D01*
X101784358Y-66027358D01*
X101631448Y-65936773D01*
X101453911Y-65873032D01*
X101435539Y-65868378D01*
X101334480Y-65851907D01*
X101211057Y-65843914D01*
X101152231Y-65844127D01*
X101152231Y-66202308D01*
X101330447Y-66214438D01*
X101483759Y-66250141D01*
X101609902Y-66308382D01*
X101706612Y-66388128D01*
X101769787Y-66484233D01*
X101796515Y-66576603D01*
X101805481Y-66685248D01*
X101796365Y-66791975D01*
X101776425Y-66862358D01*
X101712815Y-66969361D01*
X101621079Y-67052063D01*
X101500399Y-67110810D01*
X101349954Y-67145947D01*
X101168925Y-67157821D01*
X101081005Y-67155839D01*
X100927193Y-67141377D01*
X100803489Y-67111985D01*
X100703038Y-67065420D01*
X100627114Y-67007221D01*
X100553616Y-66913107D01*
X100509887Y-66802103D01*
X100495942Y-66682650D01*
X100511794Y-66563187D01*
X100557459Y-66452157D01*
X100626031Y-66364502D01*
X100727221Y-66289476D01*
X100851892Y-66238183D01*
X101003440Y-66209575D01*
X101152231Y-66202308D01*
X101152231Y-65844127D01*
X101080753Y-65844388D01*
X100959050Y-65853319D01*
X100868924Y-65868762D01*
X100687679Y-65931247D01*
X100532528Y-66020952D01*
X100405348Y-66135378D01*
X100308012Y-66272025D01*
X100242396Y-66428393D01*
X100210376Y-66601983D01*
X100209893Y-66747233D01*
X100231875Y-66905656D01*
G36*
X99335136Y-63024125D02*
G01*
X99337570Y-63164985D01*
X99341262Y-63296700D01*
X99346145Y-63412459D01*
X99352155Y-63505448D01*
X99359224Y-63568854D01*
X99362270Y-63584154D01*
X99415154Y-63737943D01*
X99489907Y-63874804D01*
X99580977Y-63984719D01*
X99587923Y-63991240D01*
X99714685Y-64082698D01*
X99859972Y-64144850D01*
X100016901Y-64177944D01*
X100178590Y-64182224D01*
X100338154Y-64157936D01*
X100488712Y-64105327D01*
X100623379Y-64024642D01*
X100704722Y-63951358D01*
X100765130Y-63881121D01*
X100813912Y-63809457D01*
X100852224Y-63731305D01*
X100881225Y-63641606D01*
X100902071Y-63535303D01*
X100915920Y-63407335D01*
X100923930Y-63252643D01*
X100927259Y-63066169D01*
X100927539Y-62977500D01*
X100927539Y-62509538D01*
X101984392Y-62509538D01*
X102032350Y-62461580D01*
X102071126Y-62397421D01*
X102082529Y-62318855D01*
X102066521Y-62239400D01*
X102033162Y-62183359D01*
X101986016Y-62128538D01*
X100846660Y-62123187D01*
X100570100Y-62122204D01*
X100331116Y-62122046D01*
X100155044Y-62122643D01*
X100155044Y-62509538D01*
X100595385Y-62509538D01*
X100595385Y-62961541D01*
X100594145Y-63146846D01*
X100590438Y-63294521D01*
X100584281Y-63404162D01*
X100575692Y-63475367D01*
X100571496Y-63493276D01*
X100532289Y-63574442D01*
X100469275Y-63652994D01*
X100393668Y-63717498D01*
X100316677Y-63756519D01*
X100312077Y-63757850D01*
X100185195Y-63779337D01*
X100057989Y-63777034D01*
X99939806Y-63752668D01*
X99839996Y-63707964D01*
X99780587Y-63659734D01*
X99746695Y-63619734D01*
X99720250Y-63578650D01*
X99700237Y-63530996D01*
X99685640Y-63471286D01*
X99675442Y-63394035D01*
X99668627Y-63293757D01*
X99664181Y-63164965D01*
X99661292Y-63015615D01*
X99659319Y-62871157D01*
X99658667Y-62760748D01*
X99659604Y-62679375D01*
X99662398Y-62622024D01*
X99667320Y-62583681D01*
X99674636Y-62559334D01*
X99684615Y-62543968D01*
X99686677Y-62541807D01*
X99701534Y-62531195D01*
X99725412Y-62523155D01*
X99763309Y-62517344D01*
X99820222Y-62513420D01*
X99901151Y-62511039D01*
X100011092Y-62509860D01*
X100155044Y-62509538D01*
X100155044Y-62122643D01*
X100128217Y-62122734D01*
X99959910Y-62124289D01*
X99824702Y-62126731D01*
X99721102Y-62130080D01*
X99647617Y-62134357D01*
X99602755Y-62139582D01*
X99599437Y-62140229D01*
X99496253Y-62178410D01*
X99415389Y-62242616D01*
X99362894Y-62327302D01*
X99350588Y-62368449D01*
X99344106Y-62421108D01*
X99339275Y-62505498D01*
X99336027Y-62614808D01*
X99334298Y-62742224D01*
X99334023Y-62880934D01*
X99335136Y-63024125D01*
G37*
X99335136Y-63024125D02*
X99337570Y-63164985D01*
X99341262Y-63296700D01*
X99346145Y-63412459D01*
X99352155Y-63505448D01*
X99359224Y-63568854D01*
X99362270Y-63584154D01*
X99415154Y-63737943D01*
X99489907Y-63874804D01*
X99580977Y-63984719D01*
X99587923Y-63991240D01*
X99714685Y-64082698D01*
X99859972Y-64144850D01*
X100016901Y-64177944D01*
X100178590Y-64182224D01*
X100338154Y-64157936D01*
X100488712Y-64105327D01*
X100623379Y-64024642D01*
X100704722Y-63951358D01*
X100765130Y-63881121D01*
X100813912Y-63809457D01*
X100852224Y-63731305D01*
X100881225Y-63641606D01*
X100902071Y-63535303D01*
X100915920Y-63407335D01*
X100923930Y-63252643D01*
X100927259Y-63066169D01*
X100927539Y-62977500D01*
X100927539Y-62509538D01*
X101984392Y-62509538D01*
X102032350Y-62461580D01*
X102071126Y-62397421D01*
X102082529Y-62318855D01*
X102066521Y-62239400D01*
X102033162Y-62183359D01*
X101986016Y-62128538D01*
X100846660Y-62123187D01*
X100570100Y-62122204D01*
X100331116Y-62122046D01*
X100155044Y-62122643D01*
X100155044Y-62509538D01*
X100595385Y-62509538D01*
X100595385Y-62961541D01*
X100594145Y-63146846D01*
X100590438Y-63294521D01*
X100584281Y-63404162D01*
X100575692Y-63475367D01*
X100571496Y-63493276D01*
X100532289Y-63574442D01*
X100469275Y-63652994D01*
X100393668Y-63717498D01*
X100316677Y-63756519D01*
X100312077Y-63757850D01*
X100185195Y-63779337D01*
X100057989Y-63777034D01*
X99939806Y-63752668D01*
X99839996Y-63707964D01*
X99780587Y-63659734D01*
X99746695Y-63619734D01*
X99720250Y-63578650D01*
X99700237Y-63530996D01*
X99685640Y-63471286D01*
X99675442Y-63394035D01*
X99668627Y-63293757D01*
X99664181Y-63164965D01*
X99661292Y-63015615D01*
X99659319Y-62871157D01*
X99658667Y-62760748D01*
X99659604Y-62679375D01*
X99662398Y-62622024D01*
X99667320Y-62583681D01*
X99674636Y-62559334D01*
X99684615Y-62543968D01*
X99686677Y-62541807D01*
X99701534Y-62531195D01*
X99725412Y-62523155D01*
X99763309Y-62517344D01*
X99820222Y-62513420D01*
X99901151Y-62511039D01*
X100011092Y-62509860D01*
X100155044Y-62509538D01*
X100155044Y-62122643D01*
X100128217Y-62122734D01*
X99959910Y-62124289D01*
X99824702Y-62126731D01*
X99721102Y-62130080D01*
X99647617Y-62134357D01*
X99602755Y-62139582D01*
X99599437Y-62140229D01*
X99496253Y-62178410D01*
X99415389Y-62242616D01*
X99362894Y-62327302D01*
X99350588Y-62368449D01*
X99344106Y-62421108D01*
X99339275Y-62505498D01*
X99336027Y-62614808D01*
X99334298Y-62742224D01*
X99334023Y-62880934D01*
X99335136Y-63024125D01*
G36*
X100208473Y-65504373D02*
G01*
X100223267Y-65550577D01*
X100252574Y-65587734D01*
X100316986Y-65627938D01*
X100392151Y-65630620D01*
X100459303Y-65606029D01*
X100489624Y-65587475D01*
X100510439Y-65563673D01*
X100524682Y-65526486D01*
X100535291Y-65467774D01*
X100545201Y-65379398D01*
X100546759Y-65363594D01*
X100570422Y-65236109D01*
X100615790Y-65136298D01*
X100686541Y-65057164D01*
X100722044Y-65030234D01*
X100773841Y-64995977D01*
X100821785Y-64969100D01*
X100871461Y-64948711D01*
X100928453Y-64933922D01*
X100998348Y-64923841D01*
X101086729Y-64917578D01*
X101199182Y-64914242D01*
X101341293Y-64912943D01*
X101458818Y-64912769D01*
X101619231Y-64912398D01*
X101745353Y-64910875D01*
X101841967Y-64907589D01*
X101913853Y-64901925D01*
X101965796Y-64893271D01*
X102002576Y-64881013D01*
X102028977Y-64864539D01*
X102049780Y-64843236D01*
X102055264Y-64836308D01*
X102069793Y-64796891D01*
X102077297Y-64736582D01*
X102076775Y-64673099D01*
X102067231Y-64624166D01*
X102043955Y-64598298D01*
X102001864Y-64570697D01*
X102001359Y-64570435D01*
X101981608Y-64563055D01*
X101951232Y-64557002D01*
X101906652Y-64552153D01*
X101844288Y-64548387D01*
X101760561Y-64545582D01*
X101651891Y-64543617D01*
X101514700Y-64542369D01*
X101345408Y-64541717D01*
X101151917Y-64541538D01*
X100947912Y-64541665D01*
X100779305Y-64542252D01*
X100642419Y-64543612D01*
X100533575Y-64546056D01*
X100449096Y-64549896D01*
X100385304Y-64555442D01*
X100338520Y-64563008D01*
X100305067Y-64572903D01*
X100281266Y-64585440D01*
X100263440Y-64600930D01*
X100249199Y-64617999D01*
X100232704Y-64660900D01*
X100225182Y-64723673D01*
X100227787Y-64787904D01*
X100236291Y-64823971D01*
X100267443Y-64860642D01*
X100322646Y-64891995D01*
X100386931Y-64910568D01*
X100414408Y-64912769D01*
X100441346Y-64913815D01*
X100451152Y-64920893D01*
X100441245Y-64939912D01*
X100409046Y-64976780D01*
X100366866Y-65021655D01*
X100280356Y-65132925D01*
X100227972Y-65251469D01*
X100205901Y-65387008D01*
X100204616Y-65434973D01*
X100208473Y-65504373D01*
G37*
X100208473Y-65504373D02*
X100223267Y-65550577D01*
X100252574Y-65587734D01*
X100316986Y-65627938D01*
X100392151Y-65630620D01*
X100459303Y-65606029D01*
X100489624Y-65587475D01*
X100510439Y-65563673D01*
X100524682Y-65526486D01*
X100535291Y-65467774D01*
X100545201Y-65379398D01*
X100546759Y-65363594D01*
X100570422Y-65236109D01*
X100615790Y-65136298D01*
X100686541Y-65057164D01*
X100722044Y-65030234D01*
X100773841Y-64995977D01*
X100821785Y-64969100D01*
X100871461Y-64948711D01*
X100928453Y-64933922D01*
X100998348Y-64923841D01*
X101086729Y-64917578D01*
X101199182Y-64914242D01*
X101341293Y-64912943D01*
X101458818Y-64912769D01*
X101619231Y-64912398D01*
X101745353Y-64910875D01*
X101841967Y-64907589D01*
X101913853Y-64901925D01*
X101965796Y-64893271D01*
X102002576Y-64881013D01*
X102028977Y-64864539D01*
X102049780Y-64843236D01*
X102055264Y-64836308D01*
X102069793Y-64796891D01*
X102077297Y-64736582D01*
X102076775Y-64673099D01*
X102067231Y-64624166D01*
X102043955Y-64598298D01*
X102001864Y-64570697D01*
X102001359Y-64570435D01*
X101981608Y-64563055D01*
X101951232Y-64557002D01*
X101906652Y-64552153D01*
X101844288Y-64548387D01*
X101760561Y-64545582D01*
X101651891Y-64543617D01*
X101514700Y-64542369D01*
X101345408Y-64541717D01*
X101151917Y-64541538D01*
X100947912Y-64541665D01*
X100779305Y-64542252D01*
X100642419Y-64543612D01*
X100533575Y-64546056D01*
X100449096Y-64549896D01*
X100385304Y-64555442D01*
X100338520Y-64563008D01*
X100305067Y-64572903D01*
X100281266Y-64585440D01*
X100263440Y-64600930D01*
X100249199Y-64617999D01*
X100232704Y-64660900D01*
X100225182Y-64723673D01*
X100227787Y-64787904D01*
X100236291Y-64823971D01*
X100267443Y-64860642D01*
X100322646Y-64891995D01*
X100386931Y-64910568D01*
X100414408Y-64912769D01*
X100441346Y-64913815D01*
X100451152Y-64920893D01*
X100441245Y-64939912D01*
X100409046Y-64976780D01*
X100366866Y-65021655D01*
X100280356Y-65132925D01*
X100227972Y-65251469D01*
X100205901Y-65387008D01*
X100204616Y-65434973D01*
X100208473Y-65504373D01*
G36*
X99534848Y-45413585D02*
G01*
X99571774Y-45457592D01*
X99623587Y-45510797D01*
X99682323Y-45565780D01*
X99740021Y-45615124D01*
X99788717Y-45651408D01*
X99820451Y-45667214D01*
X99822552Y-45667384D01*
X99855704Y-45653521D01*
X99904952Y-45617303D01*
X99962102Y-45566787D01*
X100018960Y-45510029D01*
X100067333Y-45455085D01*
X100099026Y-45410013D01*
X100106924Y-45387771D01*
X100093969Y-45359034D01*
X100059343Y-45311425D01*
X100009401Y-45253304D01*
X99984808Y-45227171D01*
X99921537Y-45166279D01*
X99867342Y-45122634D01*
X99829372Y-45101818D01*
X99823092Y-45100835D01*
X99794503Y-45113994D01*
X99747962Y-45148581D01*
X99691333Y-45197172D01*
X99632478Y-45252346D01*
X99579262Y-45306680D01*
X99539548Y-45352753D01*
X99521199Y-45383142D01*
X99520770Y-45386195D01*
X99534848Y-45413585D01*
G37*
X99534848Y-45413585D02*
X99571774Y-45457592D01*
X99623587Y-45510797D01*
X99682323Y-45565780D01*
X99740021Y-45615124D01*
X99788717Y-45651408D01*
X99820451Y-45667214D01*
X99822552Y-45667384D01*
X99855704Y-45653521D01*
X99904952Y-45617303D01*
X99962102Y-45566787D01*
X100018960Y-45510029D01*
X100067333Y-45455085D01*
X100099026Y-45410013D01*
X100106924Y-45387771D01*
X100093969Y-45359034D01*
X100059343Y-45311425D01*
X100009401Y-45253304D01*
X99984808Y-45227171D01*
X99921537Y-45166279D01*
X99867342Y-45122634D01*
X99829372Y-45101818D01*
X99823092Y-45100835D01*
X99794503Y-45113994D01*
X99747962Y-45148581D01*
X99691333Y-45197172D01*
X99632478Y-45252346D01*
X99579262Y-45306680D01*
X99539548Y-45352753D01*
X99521199Y-45383142D01*
X99520770Y-45386195D01*
X99534848Y-45413585D01*
G36*
X99592244Y-45982702D02*
G01*
X99625549Y-46025704D01*
X99671395Y-46078143D01*
X99721874Y-46131558D01*
X99769081Y-46177491D01*
X99805108Y-46207483D01*
X99819462Y-46214461D01*
X99843712Y-46200895D01*
X99884931Y-46165731D01*
X99935107Y-46117268D01*
X99986227Y-46063806D01*
X100030279Y-46013645D01*
X100059251Y-45975084D01*
X100066265Y-45958805D01*
X100052218Y-45931653D01*
X100017131Y-45888123D01*
X99973457Y-45842505D01*
X99906025Y-45777023D01*
X99859094Y-45736623D01*
X99823945Y-45720442D01*
X99791862Y-45727615D01*
X99754126Y-45757276D01*
X99702019Y-45808562D01*
X99695582Y-45814946D01*
X99642060Y-45871040D01*
X99601563Y-45919441D01*
X99580780Y-45951940D01*
X99579385Y-45957595D01*
X99592244Y-45982702D01*
G37*
X99592244Y-45982702D02*
X99625549Y-46025704D01*
X99671395Y-46078143D01*
X99721874Y-46131558D01*
X99769081Y-46177491D01*
X99805108Y-46207483D01*
X99819462Y-46214461D01*
X99843712Y-46200895D01*
X99884931Y-46165731D01*
X99935107Y-46117268D01*
X99986227Y-46063806D01*
X100030279Y-46013645D01*
X100059251Y-45975084D01*
X100066265Y-45958805D01*
X100052218Y-45931653D01*
X100017131Y-45888123D01*
X99973457Y-45842505D01*
X99906025Y-45777023D01*
X99859094Y-45736623D01*
X99823945Y-45720442D01*
X99791862Y-45727615D01*
X99754126Y-45757276D01*
X99702019Y-45808562D01*
X99695582Y-45814946D01*
X99642060Y-45871040D01*
X99601563Y-45919441D01*
X99580780Y-45951940D01*
X99579385Y-45957595D01*
X99592244Y-45982702D01*
G36*
X99652093Y-46466022D02*
G01*
X99687572Y-46512554D01*
X99734237Y-46561175D01*
X99781889Y-46601561D01*
X99820328Y-46623385D01*
X99828516Y-46624769D01*
X99861273Y-46611025D01*
X99907253Y-46576289D01*
X99956461Y-46530309D01*
X99998905Y-46482830D01*
X100024589Y-46443599D01*
X100028026Y-46430201D01*
X100014313Y-46401407D01*
X99979480Y-46357303D01*
X99940779Y-46317038D01*
X99891222Y-46273041D01*
X99850186Y-46242936D01*
X99829917Y-46234000D01*
X99799847Y-46248047D01*
X99756290Y-46283503D01*
X99708968Y-46330343D01*
X99667606Y-46378537D01*
X99641928Y-46418061D01*
X99638000Y-46431905D01*
X99652093Y-46466022D01*
G37*
X99652093Y-46466022D02*
X99687572Y-46512554D01*
X99734237Y-46561175D01*
X99781889Y-46601561D01*
X99820328Y-46623385D01*
X99828516Y-46624769D01*
X99861273Y-46611025D01*
X99907253Y-46576289D01*
X99956461Y-46530309D01*
X99998905Y-46482830D01*
X100024589Y-46443599D01*
X100028026Y-46430201D01*
X100014313Y-46401407D01*
X99979480Y-46357303D01*
X99940779Y-46317038D01*
X99891222Y-46273041D01*
X99850186Y-46242936D01*
X99829917Y-46234000D01*
X99799847Y-46248047D01*
X99756290Y-46283503D01*
X99708968Y-46330343D01*
X99667606Y-46378537D01*
X99641928Y-46418061D01*
X99638000Y-46431905D01*
X99652093Y-46466022D01*
G36*
X99123655Y-46455677D02*
G01*
X99157818Y-46499243D01*
X99204824Y-46551652D01*
X99256547Y-46604476D01*
X99304860Y-46649286D01*
X99341638Y-46677655D01*
X99355259Y-46683291D01*
X99376923Y-46669890D01*
X99416278Y-46635266D01*
X99465321Y-46587638D01*
X99516048Y-46535226D01*
X99560456Y-46486250D01*
X99590543Y-46448928D01*
X99598924Y-46433043D01*
X99586064Y-46412472D01*
X99551744Y-46371867D01*
X99502347Y-46318609D01*
X99480268Y-46295894D01*
X99425433Y-46241590D01*
X99380827Y-46199994D01*
X99353476Y-46177553D01*
X99348950Y-46175384D01*
X99325749Y-46189091D01*
X99285744Y-46224566D01*
X99236885Y-46273343D01*
X99187122Y-46326953D01*
X99144406Y-46376929D01*
X99116688Y-46414804D01*
X99110462Y-46429384D01*
X99123655Y-46455677D01*
G37*
X99123655Y-46455677D02*
X99157818Y-46499243D01*
X99204824Y-46551652D01*
X99256547Y-46604476D01*
X99304860Y-46649286D01*
X99341638Y-46677655D01*
X99355259Y-46683291D01*
X99376923Y-46669890D01*
X99416278Y-46635266D01*
X99465321Y-46587638D01*
X99516048Y-46535226D01*
X99560456Y-46486250D01*
X99590543Y-46448928D01*
X99598924Y-46433043D01*
X99586064Y-46412472D01*
X99551744Y-46371867D01*
X99502347Y-46318609D01*
X99480268Y-46295894D01*
X99425433Y-46241590D01*
X99380827Y-46199994D01*
X99353476Y-46177553D01*
X99348950Y-46175384D01*
X99325749Y-46189091D01*
X99285744Y-46224566D01*
X99236885Y-46273343D01*
X99187122Y-46326953D01*
X99144406Y-46376929D01*
X99116688Y-46414804D01*
X99110462Y-46429384D01*
X99123655Y-46455677D01*
G36*
X99026382Y-45415220D02*
G01*
X99061467Y-45463061D01*
X99109402Y-45517219D01*
X99161560Y-45568709D01*
X99209316Y-45608543D01*
X99244045Y-45627736D01*
X99248516Y-45628308D01*
X99274214Y-45615202D01*
X99317133Y-45581269D01*
X99368935Y-45534581D01*
X99421281Y-45483212D01*
X99465834Y-45435237D01*
X99494253Y-45398729D01*
X99500117Y-45384688D01*
X99486401Y-45362595D01*
X99450903Y-45321558D01*
X99400424Y-45269275D01*
X99383010Y-45252192D01*
X99327235Y-45200323D01*
X99280857Y-45161130D01*
X99251739Y-45141130D01*
X99247464Y-45139846D01*
X99218189Y-45153826D01*
X99173602Y-45189844D01*
X99122286Y-45239021D01*
X99072824Y-45292474D01*
X99033800Y-45341323D01*
X99013796Y-45376687D01*
X99012770Y-45382684D01*
X99026382Y-45415220D01*
G37*
X99026382Y-45415220D02*
X99061467Y-45463061D01*
X99109402Y-45517219D01*
X99161560Y-45568709D01*
X99209316Y-45608543D01*
X99244045Y-45627736D01*
X99248516Y-45628308D01*
X99274214Y-45615202D01*
X99317133Y-45581269D01*
X99368935Y-45534581D01*
X99421281Y-45483212D01*
X99465834Y-45435237D01*
X99494253Y-45398729D01*
X99500117Y-45384688D01*
X99486401Y-45362595D01*
X99450903Y-45321558D01*
X99400424Y-45269275D01*
X99383010Y-45252192D01*
X99327235Y-45200323D01*
X99280857Y-45161130D01*
X99251739Y-45141130D01*
X99247464Y-45139846D01*
X99218189Y-45153826D01*
X99173602Y-45189844D01*
X99122286Y-45239021D01*
X99072824Y-45292474D01*
X99033800Y-45341323D01*
X99013796Y-45376687D01*
X99012770Y-45382684D01*
X99026382Y-45415220D01*
G36*
X98498942Y-46459428D02*
G01*
X98534882Y-46505959D01*
X98585267Y-46561833D01*
X98642310Y-46619232D01*
X98698226Y-46670342D01*
X98745230Y-46707344D01*
X98775534Y-46722423D01*
X98776480Y-46722461D01*
X98803082Y-46709136D01*
X98847726Y-46674184D01*
X98902676Y-46625139D01*
X98960194Y-46569537D01*
X99012543Y-46514912D01*
X99051985Y-46468799D01*
X99070783Y-46438733D01*
X99071385Y-46435275D01*
X99058397Y-46412613D01*
X99023428Y-46369710D01*
X98972469Y-46313613D01*
X98934755Y-46274573D01*
X98874758Y-46215932D01*
X98823486Y-46169630D01*
X98787865Y-46141721D01*
X98776548Y-46136308D01*
X98750303Y-46149892D01*
X98706294Y-46185534D01*
X98652125Y-46235568D01*
X98595397Y-46292327D01*
X98543713Y-46348144D01*
X98504677Y-46395354D01*
X98485892Y-46426290D01*
X98485231Y-46430057D01*
X98498942Y-46459428D01*
G37*
X98498942Y-46459428D02*
X98534882Y-46505959D01*
X98585267Y-46561833D01*
X98642310Y-46619232D01*
X98698226Y-46670342D01*
X98745230Y-46707344D01*
X98775534Y-46722423D01*
X98776480Y-46722461D01*
X98803082Y-46709136D01*
X98847726Y-46674184D01*
X98902676Y-46625139D01*
X98960194Y-46569537D01*
X99012543Y-46514912D01*
X99051985Y-46468799D01*
X99070783Y-46438733D01*
X99071385Y-46435275D01*
X99058397Y-46412613D01*
X99023428Y-46369710D01*
X98972469Y-46313613D01*
X98934755Y-46274573D01*
X98874758Y-46215932D01*
X98823486Y-46169630D01*
X98787865Y-46141721D01*
X98776548Y-46136308D01*
X98750303Y-46149892D01*
X98706294Y-46185534D01*
X98652125Y-46235568D01*
X98595397Y-46292327D01*
X98543713Y-46348144D01*
X98504677Y-46395354D01*
X98485892Y-46426290D01*
X98485231Y-46430057D01*
X98498942Y-46459428D01*
G36*
X98528387Y-51010807D02*
G01*
X98544482Y-51075708D01*
X98578376Y-51116026D01*
X98635857Y-51138757D01*
X98719693Y-51150627D01*
X98809396Y-51153425D01*
X98892986Y-51146971D01*
X98928964Y-51139831D01*
X98983472Y-51120569D01*
X99013044Y-51093037D01*
X99031432Y-51044800D01*
X99049875Y-50923749D01*
X99037192Y-50812860D01*
X99023202Y-50772961D01*
X98994843Y-50730947D01*
X98949375Y-50704159D01*
X98880738Y-50690930D01*
X98782869Y-50689588D01*
X98730163Y-50692259D01*
X98638171Y-50702725D01*
X98578047Y-50724746D01*
X98543341Y-50765281D01*
X98527598Y-50831291D01*
X98524308Y-50914325D01*
X98528387Y-51010807D01*
G37*
X98528387Y-51010807D02*
X98544482Y-51075708D01*
X98578376Y-51116026D01*
X98635857Y-51138757D01*
X98719693Y-51150627D01*
X98809396Y-51153425D01*
X98892986Y-51146971D01*
X98928964Y-51139831D01*
X98983472Y-51120569D01*
X99013044Y-51093037D01*
X99031432Y-51044800D01*
X99049875Y-50923749D01*
X99037192Y-50812860D01*
X99023202Y-50772961D01*
X98994843Y-50730947D01*
X98949375Y-50704159D01*
X98880738Y-50690930D01*
X98782869Y-50689588D01*
X98730163Y-50692259D01*
X98638171Y-50702725D01*
X98578047Y-50724746D01*
X98543341Y-50765281D01*
X98527598Y-50831291D01*
X98524308Y-50914325D01*
X98528387Y-51010807D01*
G36*
X98539806Y-45882373D02*
G01*
X98581446Y-45931594D01*
X98646611Y-45998875D01*
X98707163Y-46057320D01*
X98778758Y-46124870D01*
X98895764Y-46009085D01*
X98954939Y-45945648D01*
X98995350Y-45892268D01*
X99011668Y-45856084D01*
X99011768Y-45853611D01*
X98997338Y-45820896D01*
X98960046Y-45772788D01*
X98907229Y-45718694D01*
X98904707Y-45716364D01*
X98850200Y-45667810D01*
X98805304Y-45630688D01*
X98778929Y-45612329D01*
X98777586Y-45611785D01*
X98755808Y-45621646D01*
X98715855Y-45652742D01*
X98665773Y-45697337D01*
X98613610Y-45747693D01*
X98567410Y-45796074D01*
X98535223Y-45834743D01*
X98524881Y-45854758D01*
X98539806Y-45882373D01*
G37*
X98539806Y-45882373D02*
X98581446Y-45931594D01*
X98646611Y-45998875D01*
X98707163Y-46057320D01*
X98778758Y-46124870D01*
X98895764Y-46009085D01*
X98954939Y-45945648D01*
X98995350Y-45892268D01*
X99011668Y-45856084D01*
X99011768Y-45853611D01*
X98997338Y-45820896D01*
X98960046Y-45772788D01*
X98907229Y-45718694D01*
X98904707Y-45716364D01*
X98850200Y-45667810D01*
X98805304Y-45630688D01*
X98778929Y-45612329D01*
X98777586Y-45611785D01*
X98755808Y-45621646D01*
X98715855Y-45652742D01*
X98665773Y-45697337D01*
X98613610Y-45747693D01*
X98567410Y-45796074D01*
X98535223Y-45834743D01*
X98524881Y-45854758D01*
X98539806Y-45882373D01*
G36*
X98576767Y-45408607D02*
G01*
X98610791Y-45448838D01*
X98656274Y-45496116D01*
X98704034Y-45541340D01*
X98744886Y-45575409D01*
X98769648Y-45589223D01*
X98769945Y-45589231D01*
X98792385Y-45576144D01*
X98831598Y-45542897D01*
X98878455Y-45498511D01*
X98923829Y-45452007D01*
X98958592Y-45412404D01*
X98973616Y-45388725D01*
X98973693Y-45387872D01*
X98960902Y-45367838D01*
X98927251Y-45328685D01*
X98879818Y-45278613D01*
X98876184Y-45274930D01*
X98816411Y-45220015D01*
X98773382Y-45192230D01*
X98754069Y-45190808D01*
X98719442Y-45216772D01*
X98674205Y-45257699D01*
X98627444Y-45304354D01*
X98588248Y-45347507D01*
X98565705Y-45377925D01*
X98563385Y-45384523D01*
X98576767Y-45408607D01*
G37*
X98576767Y-45408607D02*
X98610791Y-45448838D01*
X98656274Y-45496116D01*
X98704034Y-45541340D01*
X98744886Y-45575409D01*
X98769648Y-45589223D01*
X98769945Y-45589231D01*
X98792385Y-45576144D01*
X98831598Y-45542897D01*
X98878455Y-45498511D01*
X98923829Y-45452007D01*
X98958592Y-45412404D01*
X98973616Y-45388725D01*
X98973693Y-45387872D01*
X98960902Y-45367838D01*
X98927251Y-45328685D01*
X98879818Y-45278613D01*
X98876184Y-45274930D01*
X98816411Y-45220015D01*
X98773382Y-45192230D01*
X98754069Y-45190808D01*
X98719442Y-45216772D01*
X98674205Y-45257699D01*
X98627444Y-45304354D01*
X98588248Y-45347507D01*
X98565705Y-45377925D01*
X98563385Y-45384523D01*
X98576767Y-45408607D01*
D11*
X165820000Y-131250000D02*
X165820000Y-131950000D01*
X160825000Y-125150000D02*
X160800000Y-129750000D01*
X170400000Y-127350000D02*
X170400000Y-131950000D01*
X164600000Y-129775000D02*
X160825000Y-129775000D01*
X165525000Y-125125000D02*
X160825000Y-125125000D01*
X170375000Y-127325000D02*
X167825000Y-127325000D01*
X170375000Y-131975000D02*
X165825000Y-131975000D01*
X172900000Y-120900000D02*
X167850000Y-120946000D01*
X172900000Y-120854000D02*
X172900000Y-116946000D01*
X172900000Y-116946000D02*
X164275000Y-116946000D01*
X162000000Y-118900000D02*
X162000000Y-122845000D01*
X162000000Y-122854000D02*
X165610000Y-122854000D01*
X165820000Y-131200000D02*
G75*
G03*
X164600000Y-129780000I-1320000J100000D01*
G01*
X165530000Y-125150000D02*
G75*
G03*
X167900000Y-127320000I2270000J100000D01*
G01*
X165615000Y-122830000D02*
G75*
G02*
X167875000Y-120950000I2070000J-190000D01*
G01*
X162011000Y-118830000D02*
G75*
G02*
X164275000Y-116946000I2074000J-190000D01*
G01*
X146720000Y-131250000D02*
X146720000Y-131950000D01*
X141725000Y-125150000D02*
X141700000Y-129750000D01*
X151300000Y-127350000D02*
X151300000Y-131950000D01*
X145500000Y-129775000D02*
X141725000Y-129775000D01*
X146425000Y-125125000D02*
X141725000Y-125125000D01*
X151275000Y-127325000D02*
X148725000Y-127325000D01*
X151275000Y-131975000D02*
X146725000Y-131975000D01*
X153800000Y-120900000D02*
X148750000Y-120946000D01*
X153800000Y-120854000D02*
X153800000Y-116946000D01*
X153800000Y-116946000D02*
X145175000Y-116946000D01*
X142900000Y-118900000D02*
X142900000Y-122845000D01*
X142900000Y-122854000D02*
X146510000Y-122854000D01*
X146720000Y-131200000D02*
G75*
G03*
X145500000Y-129780000I-1320000J100000D01*
G01*
X146430000Y-125150000D02*
G75*
G03*
X148800000Y-127320000I2270000J100000D01*
G01*
X146515000Y-122830000D02*
G75*
G02*
X148775000Y-120950000I2070000J-190000D01*
G01*
X142911000Y-118830000D02*
G75*
G02*
X145175000Y-116946000I2074000J-190000D01*
G01*
X127720000Y-133500000D02*
X127720000Y-134200000D01*
X122725000Y-127400000D02*
X122700000Y-132000000D01*
X132300000Y-129600000D02*
X132300000Y-134200000D01*
X126500000Y-132025000D02*
X122725000Y-132025000D01*
X127425000Y-127375000D02*
X122725000Y-127375000D01*
X132275000Y-129575000D02*
X129725000Y-129575000D01*
X132275000Y-134225000D02*
X127725000Y-134225000D01*
X134800000Y-123150000D02*
X129750000Y-123196000D01*
X134800000Y-123104000D02*
X134800000Y-119196000D01*
X134800000Y-119196000D02*
X126175000Y-119196000D01*
X123900000Y-121150000D02*
X123900000Y-125095000D01*
X123900000Y-125104000D02*
X127510000Y-125104000D01*
X127720000Y-133450000D02*
G75*
G03*
X126500000Y-132030000I-1320000J100000D01*
G01*
X127430000Y-127400000D02*
G75*
G03*
X129800000Y-129570000I2270000J100000D01*
G01*
X127515000Y-125080000D02*
G75*
G02*
X129775000Y-123200000I2070000J-190000D01*
G01*
X123911000Y-121080000D02*
G75*
G02*
X126175000Y-119196000I2074000J-190000D01*
G01*
X97364809Y-128775462D02*
X96758592Y-129125462D01*
X100150064Y-121399665D02*
X96153848Y-123678015D01*
X103032309Y-130791858D02*
X99048592Y-133091858D01*
X98032197Y-126981411D02*
X96144697Y-123712165D01*
X102521715Y-125457485D02*
X100171715Y-121387165D01*
X103041459Y-130757708D02*
X101766459Y-128549343D01*
X99014441Y-133082708D02*
X96739441Y-129142292D01*
X109868172Y-129731922D02*
X107303335Y-125381494D01*
X109908010Y-129708922D02*
X113292437Y-127754922D01*
X113292437Y-127754922D02*
X108979937Y-120285453D01*
X106150223Y-119292245D02*
X102733753Y-121264745D01*
X102725959Y-121269245D02*
X104530959Y-124395597D01*
X97408111Y-128750463D02*
G75*
G03*
X98027867Y-126983911I-573398J1193154D01*
G01*
X102502564Y-125474314D02*
G75*
G03*
X101808289Y-128611795I1221603J-1915878D01*
G01*
X104554244Y-124387927D02*
G75*
G02*
X107312371Y-125405144I870455J-1887672D01*
G01*
X106216345Y-119266771D02*
G75*
G02*
X108979937Y-120285453I872455J-1891137D01*
G01*
X213470000Y-118500000D02*
X213470000Y-119200000D01*
X208475000Y-112400000D02*
X208450000Y-117000000D01*
X218050000Y-114600000D02*
X218050000Y-119200000D01*
X212250000Y-117025000D02*
X208475000Y-117025000D01*
X213175000Y-112375000D02*
X208475000Y-112375000D01*
X218025000Y-114575000D02*
X215475000Y-114575000D01*
X218025000Y-119225000D02*
X213475000Y-119225000D01*
X220550000Y-108150000D02*
X215500000Y-108196000D01*
X220550000Y-108104000D02*
X220550000Y-104196000D01*
X220550000Y-104196000D02*
X211925000Y-104196000D01*
X209650000Y-106150000D02*
X209650000Y-110095000D01*
X209650000Y-110104000D02*
X213260000Y-110104000D01*
X213470000Y-118450000D02*
G75*
G03*
X212250000Y-117030000I-1320000J100000D01*
G01*
X213180000Y-112400000D02*
G75*
G03*
X215550000Y-114570000I2270000J100000D01*
G01*
X213265000Y-110080000D02*
G75*
G02*
X215525000Y-108200000I2070000J-190000D01*
G01*
X209661000Y-106080000D02*
G75*
G02*
X211925000Y-104196000I2074000J-190000D01*
G01*
X194420000Y-117000000D02*
X194420000Y-117700000D01*
X189425000Y-110900000D02*
X189400000Y-115500000D01*
X199000000Y-113100000D02*
X199000000Y-117700000D01*
X193200000Y-115525000D02*
X189425000Y-115525000D01*
X194125000Y-110875000D02*
X189425000Y-110875000D01*
X198975000Y-113075000D02*
X196425000Y-113075000D01*
X198975000Y-117725000D02*
X194425000Y-117725000D01*
X201500000Y-106650000D02*
X196450000Y-106696000D01*
X201500000Y-106604000D02*
X201500000Y-102696000D01*
X201500000Y-102696000D02*
X192875000Y-102696000D01*
X190600000Y-104650000D02*
X190600000Y-108595000D01*
X190600000Y-108604000D02*
X194210000Y-108604000D01*
X194420000Y-116950000D02*
G75*
G03*
X193200000Y-115530000I-1320000J100000D01*
G01*
X194130000Y-110900000D02*
G75*
G03*
X196500000Y-113070000I2270000J100000D01*
G01*
X194215000Y-108580000D02*
G75*
G02*
X196475000Y-106700000I2070000J-190000D01*
G01*
X190611000Y-104580000D02*
G75*
G02*
X192875000Y-102696000I2074000J-190000D01*
G01*
X175320000Y-112300000D02*
X175320000Y-113000000D01*
X170325000Y-106200000D02*
X170300000Y-110800000D01*
X179900000Y-108400000D02*
X179900000Y-113000000D01*
X174100000Y-110825000D02*
X170325000Y-110825000D01*
X175025000Y-106175000D02*
X170325000Y-106175000D01*
X179875000Y-108375000D02*
X177325000Y-108375000D01*
X179875000Y-113025000D02*
X175325000Y-113025000D01*
X182400000Y-101950000D02*
X177350000Y-101996000D01*
X182400000Y-101904000D02*
X182400000Y-97996000D01*
X182400000Y-97996000D02*
X173775000Y-97996000D01*
X171500000Y-99950000D02*
X171500000Y-103895000D01*
X171500000Y-103904000D02*
X175110000Y-103904000D01*
X175320000Y-112250000D02*
G75*
G03*
X174100000Y-110830000I-1320000J100000D01*
G01*
X175030000Y-106200000D02*
G75*
G03*
X177400000Y-108370000I2270000J100000D01*
G01*
X175115000Y-103880000D02*
G75*
G02*
X177375000Y-102000000I2070000J-190000D01*
G01*
X171511000Y-99880000D02*
G75*
G02*
X173775000Y-97996000I2074000J-190000D01*
G01*
X156320000Y-110900000D02*
X156320000Y-111600000D01*
X151325000Y-104800000D02*
X151300000Y-109400000D01*
X160900000Y-107000000D02*
X160900000Y-111600000D01*
X155100000Y-109425000D02*
X151325000Y-109425000D01*
X156025000Y-104775000D02*
X151325000Y-104775000D01*
X160875000Y-106975000D02*
X158325000Y-106975000D01*
X160875000Y-111625000D02*
X156325000Y-111625000D01*
X163400000Y-100550000D02*
X158350000Y-100596000D01*
X163400000Y-100504000D02*
X163400000Y-96596000D01*
X163400000Y-96596000D02*
X154775000Y-96596000D01*
X152500000Y-98550000D02*
X152500000Y-102495000D01*
X152500000Y-102504000D02*
X156110000Y-102504000D01*
X156320000Y-110850000D02*
G75*
G03*
X155100000Y-109430000I-1320000J100000D01*
G01*
X156030000Y-104800000D02*
G75*
G03*
X158400000Y-106970000I2270000J100000D01*
G01*
X156115000Y-102480000D02*
G75*
G02*
X158375000Y-100600000I2070000J-190000D01*
G01*
X152511000Y-98480000D02*
G75*
G02*
X154775000Y-96596000I2074000J-190000D01*
G01*
X137220000Y-112300000D02*
X137220000Y-113000000D01*
X132225000Y-106200000D02*
X132200000Y-110800000D01*
X141800000Y-108400000D02*
X141800000Y-113000000D01*
X136000000Y-110825000D02*
X132225000Y-110825000D01*
X136925000Y-106175000D02*
X132225000Y-106175000D01*
X141775000Y-108375000D02*
X139225000Y-108375000D01*
X141775000Y-113025000D02*
X137225000Y-113025000D01*
X144300000Y-101950000D02*
X139250000Y-101996000D01*
X144300000Y-101904000D02*
X144300000Y-97996000D01*
X144300000Y-97996000D02*
X135675000Y-97996000D01*
X133400000Y-99950000D02*
X133400000Y-103895000D01*
X133400000Y-103904000D02*
X137010000Y-103904000D01*
X137220000Y-112250000D02*
G75*
G03*
X136000000Y-110830000I-1320000J100000D01*
G01*
X136930000Y-106200000D02*
G75*
G03*
X139300000Y-108370000I2270000J100000D01*
G01*
X137015000Y-103880000D02*
G75*
G02*
X139275000Y-102000000I2070000J-190000D01*
G01*
X133411000Y-99880000D02*
G75*
G02*
X135675000Y-97996000I2074000J-190000D01*
G01*
X118220000Y-114600000D02*
X118220000Y-115300000D01*
X113225000Y-108500000D02*
X113200000Y-113100000D01*
X122800000Y-110700000D02*
X122800000Y-115300000D01*
X117000000Y-113125000D02*
X113225000Y-113125000D01*
X117925000Y-108475000D02*
X113225000Y-108475000D01*
X122775000Y-110675000D02*
X120225000Y-110675000D01*
X122775000Y-115325000D02*
X118225000Y-115325000D01*
X125300000Y-104250000D02*
X120250000Y-104296000D01*
X125300000Y-104204000D02*
X125300000Y-100296000D01*
X125300000Y-100296000D02*
X116675000Y-100296000D01*
X114400000Y-102250000D02*
X114400000Y-106195000D01*
X114400000Y-106204000D02*
X118010000Y-106204000D01*
X118220000Y-114550000D02*
G75*
G03*
X117000000Y-113130000I-1320000J100000D01*
G01*
X117930000Y-108500000D02*
G75*
G03*
X120300000Y-110670000I2270000J100000D01*
G01*
X118015000Y-106180000D02*
G75*
G02*
X120275000Y-104300000I2070000J-190000D01*
G01*
X114411000Y-102180000D02*
G75*
G02*
X116675000Y-100296000I2074000J-190000D01*
G01*
X213420000Y-99500000D02*
X213420000Y-100200000D01*
X208425000Y-93400000D02*
X208400000Y-98000000D01*
X218000000Y-95600000D02*
X218000000Y-100200000D01*
X212200000Y-98025000D02*
X208425000Y-98025000D01*
X213125000Y-93375000D02*
X208425000Y-93375000D01*
X217975000Y-95575000D02*
X215425000Y-95575000D01*
X217975000Y-100225000D02*
X213425000Y-100225000D01*
X220500000Y-89150000D02*
X215450000Y-89196000D01*
X220500000Y-89104000D02*
X220500000Y-85196000D01*
X220500000Y-85196000D02*
X211875000Y-85196000D01*
X209600000Y-87150000D02*
X209600000Y-91095000D01*
X209600000Y-91104000D02*
X213210000Y-91104000D01*
X213420000Y-99450000D02*
G75*
G03*
X212200000Y-98030000I-1320000J100000D01*
G01*
X213130000Y-93400000D02*
G75*
G03*
X215500000Y-95570000I2270000J100000D01*
G01*
X213215000Y-91080000D02*
G75*
G02*
X215475000Y-89200000I2070000J-190000D01*
G01*
X209611000Y-87080000D02*
G75*
G02*
X211875000Y-85196000I2074000J-190000D01*
G01*
X194420000Y-98000000D02*
X194420000Y-98700000D01*
X189425000Y-91900000D02*
X189400000Y-96500000D01*
X199000000Y-94100000D02*
X199000000Y-98700000D01*
X193200000Y-96525000D02*
X189425000Y-96525000D01*
X194125000Y-91875000D02*
X189425000Y-91875000D01*
X198975000Y-94075000D02*
X196425000Y-94075000D01*
X198975000Y-98725000D02*
X194425000Y-98725000D01*
X201500000Y-87650000D02*
X196450000Y-87696000D01*
X201500000Y-87604000D02*
X201500000Y-83696000D01*
X201500000Y-83696000D02*
X192875000Y-83696000D01*
X190600000Y-85650000D02*
X190600000Y-89595000D01*
X190600000Y-89604000D02*
X194210000Y-89604000D01*
X194420000Y-97950000D02*
G75*
G03*
X193200000Y-96530000I-1320000J100000D01*
G01*
X194130000Y-91900000D02*
G75*
G03*
X196500000Y-94070000I2270000J100000D01*
G01*
X194215000Y-89580000D02*
G75*
G02*
X196475000Y-87700000I2070000J-190000D01*
G01*
X190611000Y-85580000D02*
G75*
G02*
X192875000Y-83696000I2074000J-190000D01*
G01*
X175320000Y-93200000D02*
X175320000Y-93900000D01*
X170325000Y-87100000D02*
X170300000Y-91700000D01*
X179900000Y-89300000D02*
X179900000Y-93900000D01*
X174100000Y-91725000D02*
X170325000Y-91725000D01*
X175025000Y-87075000D02*
X170325000Y-87075000D01*
X179875000Y-89275000D02*
X177325000Y-89275000D01*
X179875000Y-93925000D02*
X175325000Y-93925000D01*
X182400000Y-82850000D02*
X177350000Y-82896000D01*
X182400000Y-82804000D02*
X182400000Y-78896000D01*
X182400000Y-78896000D02*
X173775000Y-78896000D01*
X171500000Y-80850000D02*
X171500000Y-84795000D01*
X171500000Y-84804000D02*
X175110000Y-84804000D01*
X175320000Y-93150000D02*
G75*
G03*
X174100000Y-91730000I-1320000J100000D01*
G01*
X175030000Y-87100000D02*
G75*
G03*
X177400000Y-89270000I2270000J100000D01*
G01*
X175115000Y-84780000D02*
G75*
G02*
X177375000Y-82900000I2070000J-190000D01*
G01*
X171511000Y-80780000D02*
G75*
G02*
X173775000Y-78896000I2074000J-190000D01*
G01*
X156320000Y-91900000D02*
X156320000Y-92600000D01*
X151325000Y-85800000D02*
X151300000Y-90400000D01*
X160900000Y-88000000D02*
X160900000Y-92600000D01*
X155100000Y-90425000D02*
X151325000Y-90425000D01*
X156025000Y-85775000D02*
X151325000Y-85775000D01*
X160875000Y-87975000D02*
X158325000Y-87975000D01*
X160875000Y-92625000D02*
X156325000Y-92625000D01*
X163400000Y-81550000D02*
X158350000Y-81596000D01*
X163400000Y-81504000D02*
X163400000Y-77596000D01*
X163400000Y-77596000D02*
X154775000Y-77596000D01*
X152500000Y-79550000D02*
X152500000Y-83495000D01*
X152500000Y-83504000D02*
X156110000Y-83504000D01*
X156320000Y-91850000D02*
G75*
G03*
X155100000Y-90430000I-1320000J100000D01*
G01*
X156030000Y-85800000D02*
G75*
G03*
X158400000Y-87970000I2270000J100000D01*
G01*
X156115000Y-83480000D02*
G75*
G02*
X158375000Y-81600000I2070000J-190000D01*
G01*
X152511000Y-79480000D02*
G75*
G02*
X154775000Y-77596000I2074000J-190000D01*
G01*
X137220000Y-93200000D02*
X137220000Y-93900000D01*
X132225000Y-87100000D02*
X132200000Y-91700000D01*
X141800000Y-89300000D02*
X141800000Y-93900000D01*
X136000000Y-91725000D02*
X132225000Y-91725000D01*
X136925000Y-87075000D02*
X132225000Y-87075000D01*
X141775000Y-89275000D02*
X139225000Y-89275000D01*
X141775000Y-93925000D02*
X137225000Y-93925000D01*
X144300000Y-82850000D02*
X139250000Y-82896000D01*
X144300000Y-82804000D02*
X144300000Y-78896000D01*
X144300000Y-78896000D02*
X135675000Y-78896000D01*
X133400000Y-80850000D02*
X133400000Y-84795000D01*
X133400000Y-84804000D02*
X137010000Y-84804000D01*
X137220000Y-93150000D02*
G75*
G03*
X136000000Y-91730000I-1320000J100000D01*
G01*
X136930000Y-87100000D02*
G75*
G03*
X139300000Y-89270000I2270000J100000D01*
G01*
X137015000Y-84780000D02*
G75*
G02*
X139275000Y-82900000I2070000J-190000D01*
G01*
X133411000Y-80780000D02*
G75*
G02*
X135675000Y-78896000I2074000J-190000D01*
G01*
X118220000Y-95600000D02*
X118220000Y-96300000D01*
X113225000Y-89500000D02*
X113200000Y-94100000D01*
X122800000Y-91700000D02*
X122800000Y-96300000D01*
X117000000Y-94125000D02*
X113225000Y-94125000D01*
X117925000Y-89475000D02*
X113225000Y-89475000D01*
X122775000Y-91675000D02*
X120225000Y-91675000D01*
X122775000Y-96325000D02*
X118225000Y-96325000D01*
X125300000Y-85250000D02*
X120250000Y-85296000D01*
X125300000Y-85204000D02*
X125300000Y-81296000D01*
X125300000Y-81296000D02*
X116675000Y-81296000D01*
X114400000Y-83250000D02*
X114400000Y-87195000D01*
X114400000Y-87204000D02*
X118010000Y-87204000D01*
X118220000Y-95550000D02*
G75*
G03*
X117000000Y-94130000I-1320000J100000D01*
G01*
X117930000Y-89500000D02*
G75*
G03*
X120300000Y-91670000I2270000J100000D01*
G01*
X118015000Y-87180000D02*
G75*
G02*
X120275000Y-85300000I2070000J-190000D01*
G01*
X114411000Y-83180000D02*
G75*
G02*
X116675000Y-81296000I2074000J-190000D01*
G01*
X213420000Y-80300000D02*
X213420000Y-81000000D01*
X208425000Y-74200000D02*
X208400000Y-78800000D01*
X218000000Y-76400000D02*
X218000000Y-81000000D01*
X212200000Y-78825000D02*
X208425000Y-78825000D01*
X213125000Y-74175000D02*
X208425000Y-74175000D01*
X217975000Y-76375000D02*
X215425000Y-76375000D01*
X217975000Y-81025000D02*
X213425000Y-81025000D01*
X220500000Y-69950000D02*
X215450000Y-69996000D01*
X220500000Y-69904000D02*
X220500000Y-65996000D01*
X220500000Y-65996000D02*
X211875000Y-65996000D01*
X209600000Y-67950000D02*
X209600000Y-71895000D01*
X209600000Y-71904000D02*
X213210000Y-71904000D01*
X213420000Y-80250000D02*
G75*
G03*
X212200000Y-78830000I-1320000J100000D01*
G01*
X213130000Y-74200000D02*
G75*
G03*
X215500000Y-76370000I2270000J100000D01*
G01*
X213215000Y-71880000D02*
G75*
G02*
X215475000Y-70000000I2070000J-190000D01*
G01*
X209611000Y-67880000D02*
G75*
G02*
X211875000Y-65996000I2074000J-190000D01*
G01*
X194420000Y-78800000D02*
X194420000Y-79500000D01*
X189425000Y-72700000D02*
X189400000Y-77300000D01*
X199000000Y-74900000D02*
X199000000Y-79500000D01*
X193200000Y-77325000D02*
X189425000Y-77325000D01*
X194125000Y-72675000D02*
X189425000Y-72675000D01*
X198975000Y-74875000D02*
X196425000Y-74875000D01*
X198975000Y-79525000D02*
X194425000Y-79525000D01*
X201500000Y-68450000D02*
X196450000Y-68496000D01*
X201500000Y-68404000D02*
X201500000Y-64496000D01*
X201500000Y-64496000D02*
X192875000Y-64496000D01*
X190600000Y-66450000D02*
X190600000Y-70395000D01*
X190600000Y-70404000D02*
X194210000Y-70404000D01*
X194420000Y-78750000D02*
G75*
G03*
X193200000Y-77330000I-1320000J100000D01*
G01*
X194130000Y-72700000D02*
G75*
G03*
X196500000Y-74870000I2270000J100000D01*
G01*
X194215000Y-70380000D02*
G75*
G02*
X196475000Y-68500000I2070000J-190000D01*
G01*
X190611000Y-66380000D02*
G75*
G02*
X192875000Y-64496000I2074000J-190000D01*
G01*
X175320000Y-74100000D02*
X175320000Y-74800000D01*
X170325000Y-68000000D02*
X170300000Y-72600000D01*
X179900000Y-70200000D02*
X179900000Y-74800000D01*
X174100000Y-72625000D02*
X170325000Y-72625000D01*
X175025000Y-67975000D02*
X170325000Y-67975000D01*
X179875000Y-70175000D02*
X177325000Y-70175000D01*
X179875000Y-74825000D02*
X175325000Y-74825000D01*
X182400000Y-63750000D02*
X177350000Y-63796000D01*
X182400000Y-63704000D02*
X182400000Y-59796000D01*
X182400000Y-59796000D02*
X173775000Y-59796000D01*
X171500000Y-61750000D02*
X171500000Y-65695000D01*
X171500000Y-65704000D02*
X175110000Y-65704000D01*
X175320000Y-74050000D02*
G75*
G03*
X174100000Y-72630000I-1320000J100000D01*
G01*
X175030000Y-68000000D02*
G75*
G03*
X177400000Y-70170000I2270000J100000D01*
G01*
X175115000Y-65680000D02*
G75*
G02*
X177375000Y-63800000I2070000J-190000D01*
G01*
X171511000Y-61680000D02*
G75*
G02*
X173775000Y-59796000I2074000J-190000D01*
G01*
X156320000Y-72800000D02*
X156320000Y-73500000D01*
X151325000Y-66700000D02*
X151300000Y-71300000D01*
X160900000Y-68900000D02*
X160900000Y-73500000D01*
X155100000Y-71325000D02*
X151325000Y-71325000D01*
X156025000Y-66675000D02*
X151325000Y-66675000D01*
X160875000Y-68875000D02*
X158325000Y-68875000D01*
X160875000Y-73525000D02*
X156325000Y-73525000D01*
X163400000Y-62450000D02*
X158350000Y-62496000D01*
X163400000Y-62404000D02*
X163400000Y-58496000D01*
X163400000Y-58496000D02*
X154775000Y-58496000D01*
X152500000Y-60450000D02*
X152500000Y-64395000D01*
X152500000Y-64404000D02*
X156110000Y-64404000D01*
X156320000Y-72750000D02*
G75*
G03*
X155100000Y-71330000I-1320000J100000D01*
G01*
X156030000Y-66700000D02*
G75*
G03*
X158400000Y-68870000I2270000J100000D01*
G01*
X156115000Y-64380000D02*
G75*
G02*
X158375000Y-62500000I2070000J-190000D01*
G01*
X152511000Y-60380000D02*
G75*
G02*
X154775000Y-58496000I2074000J-190000D01*
G01*
X137220000Y-74200000D02*
X137220000Y-74900000D01*
X132225000Y-68100000D02*
X132200000Y-72700000D01*
X141800000Y-70300000D02*
X141800000Y-74900000D01*
X136000000Y-72725000D02*
X132225000Y-72725000D01*
X136925000Y-68075000D02*
X132225000Y-68075000D01*
X141775000Y-70275000D02*
X139225000Y-70275000D01*
X141775000Y-74925000D02*
X137225000Y-74925000D01*
X144300000Y-63850000D02*
X139250000Y-63896000D01*
X144300000Y-63804000D02*
X144300000Y-59896000D01*
X144300000Y-59896000D02*
X135675000Y-59896000D01*
X133400000Y-61850000D02*
X133400000Y-65795000D01*
X133400000Y-65804000D02*
X137010000Y-65804000D01*
X137220000Y-74150000D02*
G75*
G03*
X136000000Y-72730000I-1320000J100000D01*
G01*
X136930000Y-68100000D02*
G75*
G03*
X139300000Y-70270000I2270000J100000D01*
G01*
X137015000Y-65780000D02*
G75*
G02*
X139275000Y-63900000I2070000J-190000D01*
G01*
X133411000Y-61780000D02*
G75*
G02*
X135675000Y-59896000I2074000J-190000D01*
G01*
X118220000Y-76600000D02*
X118220000Y-77300000D01*
X113225000Y-70500000D02*
X113200000Y-75100000D01*
X122800000Y-72700000D02*
X122800000Y-77300000D01*
X117000000Y-75125000D02*
X113225000Y-75125000D01*
X117925000Y-70475000D02*
X113225000Y-70475000D01*
X122775000Y-72675000D02*
X120225000Y-72675000D01*
X122775000Y-77325000D02*
X118225000Y-77325000D01*
X125300000Y-66250000D02*
X120250000Y-66296000D01*
X125300000Y-66204000D02*
X125300000Y-62296000D01*
X125300000Y-62296000D02*
X116675000Y-62296000D01*
X114400000Y-64250000D02*
X114400000Y-68195000D01*
X114400000Y-68204000D02*
X118010000Y-68204000D01*
X118220000Y-76550000D02*
G75*
G03*
X117000000Y-75130000I-1320000J100000D01*
G01*
X117930000Y-70500000D02*
G75*
G03*
X120300000Y-72670000I2270000J100000D01*
G01*
X118015000Y-68180000D02*
G75*
G02*
X120275000Y-66300000I2070000J-190000D01*
G01*
X114411000Y-64180000D02*
G75*
G02*
X116675000Y-62296000I2074000J-190000D01*
G01*
X213420000Y-61400000D02*
X213420000Y-62100000D01*
X208425000Y-55300000D02*
X208400000Y-59900000D01*
X218000000Y-57500000D02*
X218000000Y-62100000D01*
X212200000Y-59925000D02*
X208425000Y-59925000D01*
X213125000Y-55275000D02*
X208425000Y-55275000D01*
X217975000Y-57475000D02*
X215425000Y-57475000D01*
X217975000Y-62125000D02*
X213425000Y-62125000D01*
X220500000Y-51050000D02*
X215450000Y-51096000D01*
X220500000Y-51004000D02*
X220500000Y-47096000D01*
X220500000Y-47096000D02*
X211875000Y-47096000D01*
X209600000Y-49050000D02*
X209600000Y-52995000D01*
X209600000Y-53004000D02*
X213210000Y-53004000D01*
X213420000Y-61350000D02*
G75*
G03*
X212200000Y-59930000I-1320000J100000D01*
G01*
X213130000Y-55300000D02*
G75*
G03*
X215500000Y-57470000I2270000J100000D01*
G01*
X213215000Y-52980000D02*
G75*
G02*
X215475000Y-51100000I2070000J-190000D01*
G01*
X209611000Y-48980000D02*
G75*
G02*
X211875000Y-47096000I2074000J-190000D01*
G01*
X194420000Y-59900000D02*
X194420000Y-60600000D01*
X189425000Y-53800000D02*
X189400000Y-58400000D01*
X199000000Y-56000000D02*
X199000000Y-60600000D01*
X193200000Y-58425000D02*
X189425000Y-58425000D01*
X194125000Y-53775000D02*
X189425000Y-53775000D01*
X198975000Y-55975000D02*
X196425000Y-55975000D01*
X198975000Y-60625000D02*
X194425000Y-60625000D01*
X201500000Y-49550000D02*
X196450000Y-49596000D01*
X201500000Y-49504000D02*
X201500000Y-45596000D01*
X201500000Y-45596000D02*
X192875000Y-45596000D01*
X190600000Y-47550000D02*
X190600000Y-51495000D01*
X190600000Y-51504000D02*
X194210000Y-51504000D01*
X194420000Y-59850000D02*
G75*
G03*
X193200000Y-58430000I-1320000J100000D01*
G01*
X194130000Y-53800000D02*
G75*
G03*
X196500000Y-55970000I2270000J100000D01*
G01*
X194215000Y-51480000D02*
G75*
G02*
X196475000Y-49600000I2070000J-190000D01*
G01*
X190611000Y-47480000D02*
G75*
G02*
X192875000Y-45596000I2074000J-190000D01*
G01*
X175320000Y-55100000D02*
X175320000Y-55800000D01*
X170325000Y-49000000D02*
X170300000Y-53600000D01*
X179900000Y-51200000D02*
X179900000Y-55800000D01*
X174100000Y-53625000D02*
X170325000Y-53625000D01*
X175025000Y-48975000D02*
X170325000Y-48975000D01*
X179875000Y-51175000D02*
X177325000Y-51175000D01*
X179875000Y-55825000D02*
X175325000Y-55825000D01*
X182400000Y-44750000D02*
X177350000Y-44796000D01*
X182400000Y-44704000D02*
X182400000Y-40796000D01*
X182400000Y-40796000D02*
X173775000Y-40796000D01*
X171500000Y-42750000D02*
X171500000Y-46695000D01*
X171500000Y-46704000D02*
X175110000Y-46704000D01*
X175320000Y-55050000D02*
G75*
G03*
X174100000Y-53630000I-1320000J100000D01*
G01*
X175030000Y-49000000D02*
G75*
G03*
X177400000Y-51170000I2270000J100000D01*
G01*
X175115000Y-46680000D02*
G75*
G02*
X177375000Y-44800000I2070000J-190000D01*
G01*
X171511000Y-42680000D02*
G75*
G02*
X173775000Y-40796000I2074000J-190000D01*
G01*
X156320000Y-53710000D02*
X156320000Y-54410000D01*
X151325000Y-47610000D02*
X151300000Y-52210000D01*
X160900000Y-49810000D02*
X160900000Y-54410000D01*
X155100000Y-52235000D02*
X151325000Y-52235000D01*
X156025000Y-47585000D02*
X151325000Y-47585000D01*
X160875000Y-49785000D02*
X158325000Y-49785000D01*
X160875000Y-54435000D02*
X156325000Y-54435000D01*
X163400000Y-43360000D02*
X158350000Y-43406000D01*
X163400000Y-43314000D02*
X163400000Y-39406000D01*
X163400000Y-39406000D02*
X154775000Y-39406000D01*
X152500000Y-41360000D02*
X152500000Y-45305000D01*
X152500000Y-45314000D02*
X156110000Y-45314000D01*
X156320000Y-53660000D02*
G75*
G03*
X155100000Y-52240000I-1320000J100000D01*
G01*
X156030000Y-47610000D02*
G75*
G03*
X158400000Y-49780000I2270000J100000D01*
G01*
X156115000Y-45290000D02*
G75*
G02*
X158375000Y-43410000I2070000J-190000D01*
G01*
X152511000Y-41290000D02*
G75*
G02*
X154775000Y-39406000I2074000J-190000D01*
G01*
X137220000Y-55100000D02*
X137220000Y-55800000D01*
X132225000Y-49000000D02*
X132200000Y-53600000D01*
X141800000Y-51200000D02*
X141800000Y-55800000D01*
X136000000Y-53625000D02*
X132225000Y-53625000D01*
X136925000Y-48975000D02*
X132225000Y-48975000D01*
X141775000Y-51175000D02*
X139225000Y-51175000D01*
X141775000Y-55825000D02*
X137225000Y-55825000D01*
X144300000Y-44750000D02*
X139250000Y-44796000D01*
X144300000Y-44704000D02*
X144300000Y-40796000D01*
X144300000Y-40796000D02*
X135675000Y-40796000D01*
X133400000Y-42750000D02*
X133400000Y-46695000D01*
X133400000Y-46704000D02*
X137010000Y-46704000D01*
X137220000Y-55050000D02*
G75*
G03*
X136000000Y-53630000I-1320000J100000D01*
G01*
X136930000Y-49000000D02*
G75*
G03*
X139300000Y-51170000I2270000J100000D01*
G01*
X137015000Y-46680000D02*
G75*
G02*
X139275000Y-44800000I2070000J-190000D01*
G01*
X133411000Y-42680000D02*
G75*
G02*
X135675000Y-40796000I2074000J-190000D01*
G01*
X118220000Y-57500000D02*
X118220000Y-58200000D01*
X113225000Y-51400000D02*
X113200000Y-56000000D01*
X122800000Y-53600000D02*
X122800000Y-58200000D01*
X117000000Y-56025000D02*
X113225000Y-56025000D01*
X117925000Y-51375000D02*
X113225000Y-51375000D01*
X122775000Y-53575000D02*
X120225000Y-53575000D01*
X122775000Y-58225000D02*
X118225000Y-58225000D01*
X125300000Y-47150000D02*
X120250000Y-47196000D01*
X125300000Y-47104000D02*
X125300000Y-43196000D01*
X125300000Y-43196000D02*
X116675000Y-43196000D01*
X114400000Y-45150000D02*
X114400000Y-49095000D01*
X114400000Y-49104000D02*
X118010000Y-49104000D01*
X118220000Y-57450000D02*
G75*
G03*
X117000000Y-56030000I-1320000J100000D01*
G01*
X117930000Y-51400000D02*
G75*
G03*
X120300000Y-53570000I2270000J100000D01*
G01*
X118015000Y-49080000D02*
G75*
G02*
X120275000Y-47200000I2070000J-190000D01*
G01*
X114411000Y-45080000D02*
G75*
G02*
X116675000Y-43196000I2074000J-190000D01*
G01*
D12*
X99400000Y-91600000D02*
X95300000Y-91600000D01*
X95300000Y-91600000D02*
X95300000Y-103400000D01*
X99400000Y-103400000D02*
X95300000Y-103400000D01*
X107500000Y-103400000D02*
X103400000Y-103400000D01*
X107500000Y-101000000D02*
X107500000Y-103400000D01*
X107500000Y-96200000D02*
X107500000Y-98800000D01*
X107500000Y-91600000D02*
X107500000Y-94000000D01*
X103400000Y-91600000D02*
X107500000Y-91600000D01*
X104400000Y-97500000D02*
G75*
G03*
X104400000Y-97500000I-3000000J0D01*
G01*
X101400000Y-97000000D02*
X101400000Y-98000000D01*
X100900000Y-97500000D02*
X101900000Y-97500000D01*
D11*
X88650000Y-39300000D02*
X88650000Y-37400000D01*
X89150000Y-39300000D02*
X88650000Y-39300000D01*
X83700000Y-37400000D02*
X88650000Y-37400000D01*
X83650000Y-39300000D02*
X83650000Y-37400000D01*
X83150000Y-51300000D02*
X83150000Y-39300000D01*
X89150000Y-51300000D02*
X83150000Y-51300000D01*
X89150000Y-39300000D02*
X89150000Y-51300000D01*
X83150000Y-39300000D02*
X83650000Y-39300000D01*
X113600000Y-79500000D02*
X111800000Y-79500000D01*
X111800000Y-79500000D02*
X111800000Y-77700000D01*
X111800000Y-77700000D02*
X113600000Y-77700000D01*
X113600000Y-77700000D02*
X113600000Y-79500000D01*
X113600000Y-81500000D02*
X111800000Y-81500000D01*
X111800000Y-81500000D02*
X111800000Y-79700000D01*
X111800000Y-79700000D02*
X113600000Y-79700000D01*
X113600000Y-79700000D02*
X113600000Y-81500000D01*
X113600000Y-77400000D02*
X111800000Y-77400000D01*
X111800000Y-77400000D02*
X111800000Y-75600000D01*
X111800000Y-75600000D02*
X113600000Y-75600000D01*
X113600000Y-75600000D02*
X113600000Y-77400000D01*
D13*
X90910000Y-37420000D02*
X108690000Y-37420000D01*
X108690000Y-37420000D02*
X108690000Y-70440000D01*
X90910000Y-70440000D02*
X90910000Y-37420000D01*
X106150000Y-39960000D02*
X108690000Y-39960000D01*
D11*
X108690000Y-39960000D02*
X108690000Y-70440000D01*
D13*
X108690000Y-70440000D02*
X106150000Y-70440000D01*
X106150000Y-70440000D02*
X106150000Y-39960000D01*
X90910000Y-39960000D02*
X93450000Y-39960000D01*
X93450000Y-39960000D02*
X93450000Y-70440000D01*
X93450000Y-70440000D02*
X90910000Y-70440000D01*
D11*
X90910000Y-70440000D02*
X90910000Y-39960000D01*
X85700000Y-59700000D02*
X85700000Y-61700000D01*
X83700000Y-59700000D02*
X85700000Y-59700000D01*
X83700000Y-61700000D02*
X83700000Y-59700000D01*
X85700000Y-61700000D02*
X83700000Y-61700000D01*
X87900000Y-61700000D02*
X85900000Y-61700000D01*
X85900000Y-61700000D02*
X85900000Y-59700000D01*
X85900000Y-59700000D02*
X87900000Y-59700000D01*
X87900000Y-59700000D02*
X87900000Y-61700000D01*
X87938035Y-54539272D02*
X87938035Y-57539272D01*
X87938035Y-57539272D02*
X85938035Y-57539272D01*
X85938035Y-57539272D02*
X85938035Y-54539272D01*
X85938035Y-54539272D02*
X87938035Y-54539272D01*
X83688035Y-54539272D02*
X85688035Y-54539272D01*
X83688035Y-57539272D02*
X83688035Y-54539272D01*
X85688035Y-57539272D02*
X83688035Y-57539272D01*
X85688035Y-54539272D02*
X85688035Y-57539272D01*
X105189000Y-70443000D02*
X105189000Y-68157000D01*
X105189000Y-68157000D02*
X103411000Y-68157000D01*
X103411000Y-68157000D02*
X103411000Y-70443000D01*
X103411000Y-70443000D02*
X105189000Y-70443000D01*
X100811000Y-70443000D02*
X102589000Y-70443000D01*
X100811000Y-68157000D02*
X100811000Y-70443000D01*
X102589000Y-68157000D02*
X100811000Y-68157000D01*
X102589000Y-70443000D02*
X102589000Y-68157000D01*
X100089000Y-70443000D02*
X100089000Y-68157000D01*
X100089000Y-68157000D02*
X98311000Y-68157000D01*
X98311000Y-68157000D02*
X98311000Y-70443000D01*
X98311000Y-70443000D02*
X100089000Y-70443000D01*
X95811000Y-70443000D02*
X97589000Y-70443000D01*
X95811000Y-68157000D02*
X95811000Y-70443000D01*
X97589000Y-68157000D02*
X95811000Y-68157000D01*
X97589000Y-70443000D02*
X97589000Y-68157000D01*
X83200000Y-70700000D02*
X83700000Y-70700000D01*
X86700000Y-70700000D02*
X86300000Y-70700000D01*
X86700000Y-64700000D02*
X86300000Y-64700000D01*
X83200000Y-64700000D02*
X83700000Y-64700000D01*
X86700000Y-64700000D02*
X86700000Y-70700000D01*
X83200000Y-70700000D02*
X83200000Y-64700000D01*
X83200000Y-70700000D02*
X83200000Y-64800000D01*
X113900000Y-57300000D02*
X113900000Y-58700000D01*
X114800000Y-58700000D02*
X113900000Y-58000000D01*
X114800000Y-57300000D02*
X114800000Y-58700000D01*
X113900000Y-58000000D02*
X114800000Y-57300000D01*
X133800000Y-55000000D02*
X133800000Y-56400000D01*
X134700000Y-56400000D02*
X133800000Y-55700000D01*
X134700000Y-55000000D02*
X134700000Y-56400000D01*
X133800000Y-55700000D02*
X134700000Y-55000000D01*
X152000000Y-53500000D02*
X152000000Y-54900000D01*
X152900000Y-54900000D02*
X152000000Y-54200000D01*
X152900000Y-53500000D02*
X152900000Y-54900000D01*
X152000000Y-54200000D02*
X152900000Y-53500000D01*
X171000000Y-54900000D02*
X171000000Y-56300000D01*
X171900000Y-56300000D02*
X171000000Y-55600000D01*
X171900000Y-54900000D02*
X171900000Y-56300000D01*
X171000000Y-55600000D02*
X171900000Y-54900000D01*
X190100000Y-60400000D02*
X191000000Y-59700000D01*
X191000000Y-59700000D02*
X191000000Y-61100000D01*
X191000000Y-61100000D02*
X190100000Y-60400000D01*
X190100000Y-59700000D02*
X190100000Y-61100000D01*
X221300000Y-61100000D02*
X221300000Y-62500000D01*
X222200000Y-62500000D02*
X221300000Y-61800000D01*
X222200000Y-61100000D02*
X222200000Y-62500000D01*
X221300000Y-61800000D02*
X222200000Y-61100000D01*
X113900000Y-61100000D02*
X114800000Y-60400000D01*
X114800000Y-60400000D02*
X114800000Y-61800000D01*
X114800000Y-61800000D02*
X113900000Y-61100000D01*
X113900000Y-60400000D02*
X113900000Y-61800000D01*
X134800000Y-58700000D02*
X135700000Y-58000000D01*
X135700000Y-58000000D02*
X135700000Y-59400000D01*
X135700000Y-59400000D02*
X134800000Y-58700000D01*
X134800000Y-58000000D02*
X134800000Y-59400000D01*
X152100000Y-57400000D02*
X153000000Y-56700000D01*
X153000000Y-56700000D02*
X153000000Y-58100000D01*
X153000000Y-58100000D02*
X152100000Y-57400000D01*
X152100000Y-56700000D02*
X152100000Y-58100000D01*
X171000000Y-58000000D02*
X171000000Y-59400000D01*
X171900000Y-59400000D02*
X171000000Y-58700000D01*
X171900000Y-58000000D02*
X171900000Y-59400000D01*
X171000000Y-58700000D02*
X171900000Y-58000000D01*
X190100000Y-63300000D02*
X191000000Y-62600000D01*
X191000000Y-62600000D02*
X191000000Y-64000000D01*
X191000000Y-64000000D02*
X190100000Y-63300000D01*
X190100000Y-62600000D02*
X190100000Y-64000000D01*
X221300000Y-64900000D02*
X222200000Y-64200000D01*
X222200000Y-64200000D02*
X222200000Y-65600000D01*
X222200000Y-65600000D02*
X221300000Y-64900000D01*
X221300000Y-64200000D02*
X221300000Y-65600000D01*
X113900000Y-95300000D02*
X113900000Y-96700000D01*
X114800000Y-96700000D02*
X113900000Y-96000000D01*
X114800000Y-95300000D02*
X114800000Y-96700000D01*
X113900000Y-96000000D02*
X114800000Y-95300000D01*
X133800000Y-93800000D02*
X134700000Y-93100000D01*
X134700000Y-93100000D02*
X134700000Y-94500000D01*
X134700000Y-94500000D02*
X133800000Y-93800000D01*
X133800000Y-93100000D02*
X133800000Y-94500000D01*
X152000000Y-92300000D02*
X152900000Y-91600000D01*
X152900000Y-91600000D02*
X152900000Y-93000000D01*
X152900000Y-93000000D02*
X152000000Y-92300000D01*
X152000000Y-91600000D02*
X152000000Y-93000000D01*
X171000000Y-92900000D02*
X171000000Y-94300000D01*
X171900000Y-94300000D02*
X171000000Y-93600000D01*
X171900000Y-92900000D02*
X171900000Y-94300000D01*
X171000000Y-93600000D02*
X171900000Y-92900000D01*
X190100000Y-97600000D02*
X190100000Y-99000000D01*
X191000000Y-99000000D02*
X190100000Y-98300000D01*
X191000000Y-97600000D02*
X191000000Y-99000000D01*
X190100000Y-98300000D02*
X191000000Y-97600000D01*
X221300000Y-99900000D02*
X222200000Y-99200000D01*
X222200000Y-99200000D02*
X222200000Y-100600000D01*
X222200000Y-100600000D02*
X221300000Y-99900000D01*
X221300000Y-99200000D02*
X221300000Y-100600000D01*
X113900000Y-99100000D02*
X114800000Y-98400000D01*
X114800000Y-98400000D02*
X114800000Y-99800000D01*
X114800000Y-99800000D02*
X113900000Y-99100000D01*
X113900000Y-98400000D02*
X113900000Y-99800000D01*
X134800000Y-96100000D02*
X134800000Y-97500000D01*
X135700000Y-97500000D02*
X134800000Y-96800000D01*
X135700000Y-96100000D02*
X135700000Y-97500000D01*
X134800000Y-96800000D02*
X135700000Y-96100000D01*
X152000000Y-95400000D02*
X152900000Y-94700000D01*
X152900000Y-94700000D02*
X152900000Y-96100000D01*
X152900000Y-96100000D02*
X152000000Y-95400000D01*
X152000000Y-94700000D02*
X152000000Y-96100000D01*
X171000000Y-96100000D02*
X171000000Y-97500000D01*
X171900000Y-97500000D02*
X171000000Y-96800000D01*
X171900000Y-96100000D02*
X171900000Y-97500000D01*
X171000000Y-96800000D02*
X171900000Y-96100000D01*
X190100000Y-101500000D02*
X191000000Y-100800000D01*
X191000000Y-100800000D02*
X191000000Y-102200000D01*
X191000000Y-102200000D02*
X190100000Y-101500000D01*
X190100000Y-100800000D02*
X190100000Y-102200000D01*
X221400000Y-102400000D02*
X221400000Y-103800000D01*
X222300000Y-103800000D02*
X221400000Y-103100000D01*
X222300000Y-102400000D02*
X222300000Y-103800000D01*
X221400000Y-103100000D02*
X222300000Y-102400000D01*
X105100000Y-88800000D02*
X105100000Y-90200000D01*
X106000000Y-90200000D02*
X105100000Y-89500000D01*
X106000000Y-88800000D02*
X106000000Y-90200000D01*
X105100000Y-89500000D02*
X106000000Y-88800000D01*
X109550000Y-118866987D02*
X110606218Y-119296410D01*
X110606218Y-119296410D02*
X109393782Y-119996410D01*
X109393782Y-119996410D02*
X109550000Y-118866987D01*
X110156218Y-118516987D02*
X108943782Y-119216987D01*
X123400000Y-117300000D02*
X123400000Y-118700000D01*
X124300000Y-118700000D02*
X123400000Y-118000000D01*
X124300000Y-117300000D02*
X124300000Y-118700000D01*
X123400000Y-118000000D02*
X124300000Y-117300000D01*
X142400000Y-115800000D02*
X143300000Y-115100000D01*
X143300000Y-115100000D02*
X143300000Y-116500000D01*
X143300000Y-116500000D02*
X142400000Y-115800000D01*
X142400000Y-115100000D02*
X142400000Y-116500000D01*
X161500000Y-115100000D02*
X161500000Y-116500000D01*
X162400000Y-116500000D02*
X161500000Y-115800000D01*
X162400000Y-115100000D02*
X162400000Y-116500000D01*
X161500000Y-115800000D02*
X162400000Y-115100000D01*
X95430000Y-75870000D02*
X95430000Y-73330000D01*
X105590000Y-75870000D02*
X95430000Y-75870000D01*
X105590000Y-73330000D02*
X105590000Y-75870000D01*
X95430000Y-73330000D02*
X105590000Y-73330000D01*
D14*
X109430815Y-52585745D02*
G75*
G03*
X109430815Y-52585745I-712000J0D01*
G01*
X109430815Y-57665745D02*
G75*
G03*
X109430815Y-57665745I-712000J0D01*
G01*
X94190815Y-42425745D02*
G75*
G03*
X94190815Y-42425745I-712000J0D01*
G01*
X109430815Y-44965745D02*
G75*
G03*
X109430815Y-44965745I-712000J0D01*
G01*
X109430815Y-67825745D02*
G75*
G03*
X109430815Y-67825745I-712000J0D01*
G01*
X94190815Y-70365745D02*
G75*
G03*
X94190815Y-70365745I-712000J0D01*
G01*
X109430815Y-60205745D02*
G75*
G03*
X109430815Y-60205745I-712000J0D01*
G01*
X109430815Y-62745745D02*
G75*
G03*
X109430815Y-62745745I-712000J0D01*
G01*
X94190815Y-60205745D02*
G75*
G03*
X94190815Y-60205745I-712000J0D01*
G01*
X94190815Y-65285745D02*
G75*
G03*
X94190815Y-65285745I-712000J0D01*
G01*
X94190815Y-52585745D02*
G75*
G03*
X94190815Y-52585745I-712000J0D01*
G01*
X94190815Y-50045745D02*
G75*
G03*
X94190815Y-50045745I-712000J0D01*
G01*
X94190815Y-44965745D02*
G75*
G03*
X94190815Y-44965745I-712000J0D01*
G01*
X94190815Y-55125745D02*
G75*
G03*
X94190815Y-55125745I-712000J0D01*
G01*
X109430815Y-70365745D02*
G75*
G03*
X109430815Y-70365745I-712000J0D01*
G01*
X94190815Y-62745745D02*
G75*
G03*
X94190815Y-62745745I-712000J0D01*
G01*
X109430815Y-42425745D02*
G75*
G03*
X109430815Y-42425745I-712000J0D01*
G01*
X109430815Y-47505745D02*
G75*
G03*
X109430815Y-47505745I-712000J0D01*
G01*
X94190815Y-67825745D02*
G75*
G03*
X94190815Y-67825745I-712000J0D01*
G01*
X109430815Y-50045745D02*
G75*
G03*
X109430815Y-50045745I-712000J0D01*
G01*
X109430815Y-55125745D02*
G75*
G03*
X109430815Y-55125745I-712000J0D01*
G01*
X94190815Y-57665745D02*
G75*
G03*
X94190815Y-57665745I-712000J0D01*
G01*
X109430815Y-65285745D02*
G75*
G03*
X109430815Y-65285745I-712000J0D01*
G01*
X94190815Y-47505745D02*
G75*
G03*
X94190815Y-47505745I-712000J0D01*
G01*
D11*
X115966666Y-80261904D02*
X115700000Y-81061904D01*
X115433333Y-80261904D01*
X114709523Y-80985714D02*
X114747619Y-81023809D01*
X114861904Y-81061904D01*
X114938095Y-81061904D01*
X115052380Y-81023809D01*
X115128571Y-80947619D01*
X115166666Y-80871428D01*
X115204761Y-80719047D01*
X115204761Y-80604761D01*
X115166666Y-80452380D01*
X115128571Y-80376190D01*
X115052380Y-80300000D01*
X114938095Y-80261904D01*
X114861904Y-80261904D01*
X114747619Y-80300000D01*
X114709523Y-80338095D01*
X113909523Y-80985714D02*
X113947619Y-81023809D01*
X114061904Y-81061904D01*
X114138095Y-81061904D01*
X114252380Y-81023809D01*
X114328571Y-80947619D01*
X114366666Y-80871428D01*
X114404761Y-80719047D01*
X114404761Y-80604761D01*
X114366666Y-80452380D01*
X114328571Y-80376190D01*
X114252380Y-80300000D01*
X114138095Y-80261904D01*
X114061904Y-80261904D01*
X113947619Y-80300000D01*
X113909523Y-80338095D01*
X115414285Y-78961904D02*
X115795238Y-78961904D01*
X115795238Y-78161904D01*
X115147619Y-78542857D02*
X114880952Y-78542857D01*
X114766666Y-78961904D02*
X115147619Y-78961904D01*
X115147619Y-78161904D01*
X114766666Y-78161904D01*
X114423809Y-78961904D02*
X114423809Y-78161904D01*
X114233333Y-78161904D01*
X114119047Y-78200000D01*
X114042857Y-78276190D01*
X114004761Y-78352380D01*
X113966666Y-78504761D01*
X113966666Y-78619047D01*
X114004761Y-78771428D01*
X114042857Y-78847619D01*
X114119047Y-78923809D01*
X114233333Y-78961904D01*
X114423809Y-78961904D01*
X115509523Y-76200000D02*
X115585714Y-76161904D01*
X115700000Y-76161904D01*
X115814285Y-76200000D01*
X115890476Y-76276190D01*
X115928571Y-76352380D01*
X115966666Y-76504761D01*
X115966666Y-76619047D01*
X115928571Y-76771428D01*
X115890476Y-76847619D01*
X115814285Y-76923809D01*
X115700000Y-76961904D01*
X115623809Y-76961904D01*
X115509523Y-76923809D01*
X115471428Y-76885714D01*
X115471428Y-76619047D01*
X115623809Y-76619047D01*
X115128571Y-76961904D02*
X115128571Y-76161904D01*
X114671428Y-76961904D01*
X114671428Y-76161904D01*
X114290476Y-76961904D02*
X114290476Y-76161904D01*
X114100000Y-76161904D01*
X113985714Y-76200000D01*
X113909523Y-76276190D01*
X113871428Y-76352380D01*
X113833333Y-76504761D01*
X113833333Y-76619047D01*
X113871428Y-76771428D01*
X113909523Y-76847619D01*
X113985714Y-76923809D01*
X114100000Y-76961904D01*
X114290476Y-76961904D01*
X85090476Y-62761904D02*
X85090476Y-61961904D01*
X84785714Y-61961904D01*
X84709523Y-62000000D01*
X84671428Y-62038095D01*
X84633333Y-62114285D01*
X84633333Y-62228571D01*
X84671428Y-62304761D01*
X84709523Y-62342857D01*
X84785714Y-62380952D01*
X85090476Y-62380952D01*
X83871428Y-62761904D02*
X84328571Y-62761904D01*
X84100000Y-62761904D02*
X84100000Y-61961904D01*
X84176190Y-62076190D01*
X84252380Y-62152380D01*
X84328571Y-62190476D01*
X87490476Y-62761904D02*
X87490476Y-61961904D01*
X87185714Y-61961904D01*
X87109523Y-62000000D01*
X87071428Y-62038095D01*
X87033333Y-62114285D01*
X87033333Y-62228571D01*
X87071428Y-62304761D01*
X87109523Y-62342857D01*
X87185714Y-62380952D01*
X87490476Y-62380952D01*
X86728571Y-62038095D02*
X86690476Y-62000000D01*
X86614285Y-61961904D01*
X86423809Y-61961904D01*
X86347619Y-62000000D01*
X86309523Y-62038095D01*
X86271428Y-62114285D01*
X86271428Y-62190476D01*
X86309523Y-62304761D01*
X86766666Y-62761904D01*
X86271428Y-62761904D01*
X87299939Y-55905938D02*
X86918987Y-55639272D01*
X87299939Y-55448795D02*
X86499939Y-55448795D01*
X86499939Y-55753557D01*
X86538035Y-55829748D01*
X86576130Y-55867843D01*
X86652320Y-55905938D01*
X86766606Y-55905938D01*
X86842796Y-55867843D01*
X86880892Y-55829748D01*
X86918987Y-55753557D01*
X86918987Y-55448795D01*
X86576130Y-56210700D02*
X86538035Y-56248795D01*
X86499939Y-56324986D01*
X86499939Y-56515462D01*
X86538035Y-56591652D01*
X86576130Y-56629748D01*
X86652320Y-56667843D01*
X86728511Y-56667843D01*
X86842796Y-56629748D01*
X87299939Y-56172605D01*
X87299939Y-56667843D01*
X85061904Y-55905938D02*
X84680952Y-55639272D01*
X85061904Y-55448795D02*
X84261904Y-55448795D01*
X84261904Y-55753557D01*
X84300000Y-55829748D01*
X84338095Y-55867843D01*
X84414285Y-55905938D01*
X84528571Y-55905938D01*
X84604761Y-55867843D01*
X84642857Y-55829748D01*
X84680952Y-55753557D01*
X84680952Y-55448795D01*
X85061904Y-56667843D02*
X85061904Y-56210700D01*
X85061904Y-56439272D02*
X84261904Y-56439272D01*
X84376190Y-56363081D01*
X84452380Y-56286891D01*
X84490476Y-56210700D01*
X85361904Y-66538095D02*
X84980952Y-66271428D01*
X85361904Y-66080952D02*
X84561904Y-66080952D01*
X84561904Y-66385714D01*
X84600000Y-66461904D01*
X84638095Y-66500000D01*
X84714285Y-66538095D01*
X84828571Y-66538095D01*
X84904761Y-66500000D01*
X84942857Y-66461904D01*
X84980952Y-66385714D01*
X84980952Y-66080952D01*
X84942857Y-66880952D02*
X84942857Y-67147619D01*
X85361904Y-67261904D02*
X85361904Y-66880952D01*
X84561904Y-66880952D01*
X84561904Y-67261904D01*
X85323809Y-67566666D02*
X85361904Y-67680952D01*
X85361904Y-67871428D01*
X85323809Y-67947619D01*
X85285714Y-67985714D01*
X85209523Y-68023809D01*
X85133333Y-68023809D01*
X85057142Y-67985714D01*
X85019047Y-67947619D01*
X84980952Y-67871428D01*
X84942857Y-67719047D01*
X84904761Y-67642857D01*
X84866666Y-67604761D01*
X84790476Y-67566666D01*
X84714285Y-67566666D01*
X84638095Y-67604761D01*
X84600000Y-67642857D01*
X84561904Y-67719047D01*
X84561904Y-67909523D01*
X84600000Y-68023809D01*
X84942857Y-68366666D02*
X84942857Y-68633333D01*
X85361904Y-68747619D02*
X85361904Y-68366666D01*
X84561904Y-68366666D01*
X84561904Y-68747619D01*
X84561904Y-68976190D02*
X84561904Y-69433333D01*
X85361904Y-69204761D02*
X84561904Y-69204761D01*
M02*
