%FSLAX45Y45*%
G04 Gerber Fmt 4.5, Leading zero omitted, Abs format (unit mm)*
G04 Created by KiCad (PCBNEW (5.1.12)-1) date 2021-12-11 09:13:44*
%MOMM*%
%LPD*%
G01*
G04 APERTURE LIST*
%TA.AperFunction,Profile*%
%ADD10C,0.200000*%
%TD*%
%ADD11C,0.200000*%
%ADD12C,0.300000*%
G04 APERTURE END LIST*
D10*
X11618662Y-13648078D02*
X11786231Y-13551064D01*
X11451092Y-13745092D02*
X11618662Y-13648078D01*
X8293753Y-5075063D02*
X8293753Y-4444370D01*
X8293753Y-5705756D02*
X8293753Y-5075063D01*
X11521171Y-3708676D02*
X10480388Y-3708676D01*
X21869242Y-12078973D02*
X22396000Y-12078973D01*
X21342484Y-12078973D02*
X21869242Y-12078973D01*
X20815726Y-12078973D02*
X21342484Y-12078973D01*
X20288967Y-12078973D02*
X20815726Y-12078973D01*
X19762209Y-12078973D02*
X20288967Y-12078973D01*
X19235451Y-12078973D02*
X19762209Y-12078973D01*
X18708693Y-12078973D02*
X19235451Y-12078973D01*
X18181935Y-12078973D02*
X18708693Y-12078973D01*
X18111352Y-12086078D02*
X18181935Y-12078973D01*
X18045633Y-12106456D02*
X18111352Y-12086078D01*
X17986177Y-12138706D02*
X18045633Y-12106456D01*
X17934388Y-12181427D02*
X17986177Y-12138706D01*
X17891668Y-12233216D02*
X17934388Y-12181427D01*
X17859417Y-12292671D02*
X17891668Y-12233216D01*
X17839039Y-12358391D02*
X17859417Y-12292671D01*
X17831935Y-12428973D02*
X17839039Y-12358391D01*
X19980765Y-3817049D02*
X18991954Y-3758537D01*
X20842076Y-3894556D02*
X19980765Y-3817049D01*
X21552570Y-3988516D02*
X20842076Y-3894556D01*
X22088932Y-4096385D02*
X21552570Y-3988516D01*
X17898956Y-3721565D02*
X16725088Y-3708676D01*
X18991954Y-3758537D02*
X17898956Y-3721565D01*
X17765831Y-13525566D02*
X17740350Y-13539388D01*
X17788026Y-13507257D02*
X17765831Y-13525566D01*
X17806335Y-13485062D02*
X17788026Y-13507257D01*
X17820157Y-13459581D02*
X17806335Y-13485062D01*
X17828890Y-13431415D02*
X17820157Y-13459581D01*
X17831935Y-13401166D02*
X17828890Y-13431415D01*
X22546000Y-5291838D02*
X22546000Y-6240000D01*
X22546000Y-4343676D02*
X22546000Y-5291838D01*
X8293753Y-6967143D02*
X8293753Y-6336449D01*
X8293753Y-7597836D02*
X8293753Y-6967143D01*
X8293753Y-8228530D02*
X8293753Y-7597836D01*
X8293753Y-8859223D02*
X8293753Y-8228530D01*
X10480388Y-3708676D02*
X9439604Y-3708676D01*
X12561954Y-3708676D02*
X11521171Y-3708676D01*
X13602738Y-3708676D02*
X12561954Y-3708676D01*
X14643521Y-3708676D02*
X13602738Y-3708676D01*
X15684305Y-3708676D02*
X14643521Y-3708676D01*
X16725088Y-3708676D02*
X15684305Y-3708676D01*
X8340094Y-3726596D02*
X8357930Y-3716921D01*
X8324557Y-3739412D02*
X8340094Y-3726596D01*
X8311741Y-3754949D02*
X8324557Y-3739412D01*
X8302066Y-3772785D02*
X8311741Y-3754949D01*
X8295952Y-3792501D02*
X8302066Y-3772785D01*
X8293821Y-3813676D02*
X8295952Y-3792501D01*
X8377646Y-3710807D02*
X8398821Y-3708676D01*
X8357930Y-3716921D02*
X8377646Y-3710807D01*
X9439604Y-3708676D02*
X8398821Y-3708676D01*
X8293753Y-6336449D02*
X8293753Y-5705756D01*
X8293753Y-4444370D02*
X8293753Y-3813676D01*
X8829176Y-11631807D02*
X8999333Y-11998954D01*
X8686311Y-11253067D02*
X8829176Y-11631807D01*
X8568800Y-10864913D02*
X8686311Y-11253067D01*
X8474708Y-10469525D02*
X8568800Y-10864913D01*
X8402097Y-10069083D02*
X8474708Y-10469525D01*
X8349030Y-9665766D02*
X8402097Y-10069083D01*
X8313569Y-9261756D02*
X8349030Y-9665766D01*
X8293778Y-8859232D02*
X8313569Y-9261756D01*
X10428886Y-14335728D02*
X10445676Y-14327176D01*
X10413021Y-14340447D02*
X10428886Y-14335728D01*
X10398125Y-14341397D02*
X10413021Y-14340447D01*
X10384247Y-14338644D02*
X10398125Y-14341397D01*
X10371433Y-14332253D02*
X10384247Y-14338644D01*
X10359730Y-14322288D02*
X10371433Y-14332253D01*
X10349184Y-14308815D02*
X10359730Y-14322288D01*
X10339843Y-14291898D02*
X10349184Y-14308815D01*
X11283523Y-13842106D02*
X11451092Y-13745092D01*
X11115954Y-13939120D02*
X11283523Y-13842106D01*
X10948384Y-14036134D02*
X11115954Y-13939120D01*
X10780815Y-14133148D02*
X10948384Y-14036134D01*
X10613245Y-14230162D02*
X10780815Y-14133148D01*
X10445676Y-14327176D02*
X10613245Y-14230162D01*
X10172273Y-14005266D02*
X10339843Y-14291898D01*
X10004704Y-13718634D02*
X10172273Y-14005266D01*
X9837134Y-13432002D02*
X10004704Y-13718634D01*
X9669565Y-13145370D02*
X9837134Y-13432002D01*
X9501995Y-12858738D02*
X9669565Y-13145370D01*
X9334426Y-12572106D02*
X9501995Y-12858738D01*
X9166856Y-12285474D02*
X9334426Y-12572106D01*
X8999287Y-11998842D02*
X9166856Y-12285474D01*
X16944983Y-13551166D02*
X17681935Y-13551166D01*
X16208030Y-13551166D02*
X16944983Y-13551166D01*
X15471078Y-13551166D02*
X16208030Y-13551166D01*
X14734126Y-13551166D02*
X15471078Y-13551166D01*
X13997174Y-13551166D02*
X14734126Y-13551166D01*
X13260222Y-13551166D02*
X13997174Y-13551166D01*
X12523269Y-13551166D02*
X13260222Y-13551166D01*
X11786317Y-13551166D02*
X12523269Y-13551166D01*
X17831935Y-13281601D02*
X17831935Y-13401166D01*
X17831935Y-13159797D02*
X17831935Y-13281601D01*
X17831935Y-13037993D02*
X17831935Y-13159797D01*
X17831935Y-12916189D02*
X17831935Y-13037993D01*
X17831935Y-12794385D02*
X17831935Y-12916189D01*
X17831935Y-12672581D02*
X17831935Y-12794385D01*
X17831935Y-12550777D02*
X17831935Y-12672581D01*
X17831935Y-12428973D02*
X17831935Y-12550777D01*
X17712184Y-13548121D02*
X17681935Y-13551166D01*
X17740350Y-13539388D02*
X17712184Y-13548121D01*
X22427847Y-4215619D02*
X22088932Y-4096385D01*
X22546000Y-4343676D02*
X22427847Y-4215619D01*
X22426249Y-12075929D02*
X22396000Y-12078973D01*
X22454415Y-12067195D02*
X22426249Y-12075929D01*
X22479896Y-12053374D02*
X22454415Y-12067195D01*
X22502091Y-12035065D02*
X22479896Y-12053374D01*
X22520400Y-12012870D02*
X22502091Y-12035065D01*
X22534222Y-11987389D02*
X22520400Y-12012870D01*
X22542955Y-11959223D02*
X22534222Y-11987389D01*
X22546000Y-11928973D02*
X22542955Y-11959223D01*
X22546000Y-10980811D02*
X22546000Y-11928973D01*
X22546000Y-10032649D02*
X22546000Y-10980811D01*
X22546000Y-9084487D02*
X22546000Y-10032649D01*
X22546000Y-8136324D02*
X22546000Y-9084487D01*
X22546000Y-7188162D02*
X22546000Y-8136324D01*
X22546000Y-6240000D02*
X22546000Y-7188162D01*
D11*
X8985000Y-4755000D02*
X9015000Y-4785000D01*
X9015000Y-4755000D02*
X8985000Y-4785000D01*
X9012499Y-5813486D02*
X9042499Y-5843486D01*
X9042499Y-5813486D02*
X9012499Y-5843486D01*
X9015000Y-5895000D02*
X9045000Y-5925000D01*
X9045000Y-5895000D02*
X9015000Y-5925000D01*
X9035000Y-6225000D02*
X9065000Y-6255000D01*
X9065000Y-6225000D02*
X9035000Y-6255000D01*
X9495000Y-4405000D02*
X9525000Y-4435000D01*
X9525000Y-4405000D02*
X9495000Y-4435000D01*
X9590000Y-6765585D02*
X9620000Y-6795585D01*
X9620000Y-6765585D02*
X9590000Y-6795585D01*
X9595000Y-5124000D02*
X9625000Y-5154000D01*
X9625000Y-5124000D02*
X9595000Y-5154000D01*
X9655000Y-6765000D02*
X9685000Y-6795000D01*
X9685000Y-6765000D02*
X9655000Y-6795000D01*
X9675000Y-4481575D02*
X9705000Y-4511575D01*
X9705000Y-4481575D02*
X9675000Y-4511575D01*
X9675000Y-4865000D02*
X9705000Y-4895000D01*
X9705000Y-4865000D02*
X9675000Y-4895000D01*
X10025000Y-4989575D02*
X10055000Y-5019575D01*
X10055000Y-4989575D02*
X10025000Y-5019575D01*
X10025001Y-6865000D02*
X10055001Y-6895000D01*
X10055001Y-6865000D02*
X10025001Y-6895000D01*
X10155000Y-5378000D02*
X10185000Y-5408000D01*
X10185000Y-5378000D02*
X10155000Y-5408000D01*
X10205000Y-13055000D02*
X10235000Y-13085000D01*
X10235000Y-13055000D02*
X10205000Y-13085000D01*
X10252500Y-5751574D02*
X10282500Y-5781574D01*
X10282500Y-5751574D02*
X10252500Y-5781574D01*
X10285000Y-6865000D02*
X10315000Y-6895000D01*
X10315000Y-6865000D02*
X10285000Y-6895000D01*
X10295000Y-6775000D02*
X10325000Y-6805000D01*
X10325000Y-6775000D02*
X10295000Y-6805000D01*
X10302500Y-6005574D02*
X10332500Y-6035574D01*
X10332500Y-6005574D02*
X10302500Y-6035574D01*
X10355000Y-6259574D02*
X10385000Y-6289574D01*
X10385000Y-6259574D02*
X10355000Y-6289574D01*
X10375000Y-13675000D02*
X10405000Y-13705000D01*
X10405000Y-13675000D02*
X10375000Y-13705000D01*
X10415000Y-6442500D02*
X10445000Y-6472500D01*
X10445000Y-6442500D02*
X10415000Y-6472500D01*
X10485000Y-6585000D02*
X10515000Y-6615000D01*
X10515000Y-6585000D02*
X10485000Y-6615000D01*
X10517783Y-6692217D02*
X10547783Y-6722217D01*
X10547783Y-6692217D02*
X10517783Y-6722217D01*
X10545000Y-5125000D02*
X10575000Y-5155000D01*
X10575000Y-5125000D02*
X10545000Y-5155000D01*
X10545000Y-6505000D02*
X10575000Y-6535000D01*
X10575000Y-6505000D02*
X10545000Y-6535000D01*
X10554999Y-5655000D02*
X10584999Y-5685000D01*
X10584999Y-5655000D02*
X10554999Y-5685000D01*
X10555000Y-4385000D02*
X10585000Y-4415000D01*
X10585000Y-4385000D02*
X10555000Y-4415000D01*
X10555000Y-5885000D02*
X10585000Y-5915000D01*
X10585000Y-5885000D02*
X10555000Y-5915000D01*
X10555000Y-6175000D02*
X10585000Y-6205000D01*
X10585000Y-6175000D02*
X10555000Y-6205000D01*
X10555000Y-6385000D02*
X10585000Y-6415000D01*
X10585000Y-6385000D02*
X10555000Y-6415000D01*
X10555001Y-4145000D02*
X10585001Y-4175000D01*
X10585001Y-4145000D02*
X10555001Y-4175000D01*
X10555002Y-5405000D02*
X10585002Y-5435000D01*
X10585002Y-5405000D02*
X10555002Y-5435000D01*
X10705000Y-11695000D02*
X10735000Y-11725000D01*
X10735000Y-11695000D02*
X10705000Y-11725000D01*
X10965000Y-7605000D02*
X10995000Y-7635000D01*
X10995000Y-7605000D02*
X10965000Y-7635000D01*
X10975000Y-8045000D02*
X11005000Y-8075000D01*
X11005000Y-8045000D02*
X10975000Y-8075000D01*
X11015000Y-6395000D02*
X11045000Y-6425000D01*
X11045000Y-6395000D02*
X11015000Y-6425000D01*
X11215000Y-6395000D02*
X11245000Y-6425000D01*
X11245000Y-6395000D02*
X11215000Y-6425000D01*
X11215000Y-8285000D02*
X11245000Y-8315000D01*
X11245000Y-8285000D02*
X11215000Y-8315000D01*
X11224999Y-4475000D02*
X11254999Y-4505000D01*
X11254999Y-4475000D02*
X11224999Y-4505000D01*
X11225000Y-10184999D02*
X11255000Y-10214999D01*
X11255000Y-10184999D02*
X11225000Y-10214999D01*
X11305000Y-13155000D02*
X11335000Y-13185000D01*
X11335000Y-13155000D02*
X11305000Y-13185000D01*
X12175000Y-12075000D02*
X12205000Y-12105000D01*
X12205000Y-12075000D02*
X12175000Y-12105000D01*
X12314999Y-5335000D02*
X12344999Y-5365000D01*
X12344999Y-5335000D02*
X12314999Y-5365000D01*
X12315000Y-9135001D02*
X12345000Y-9165001D01*
X12345000Y-9135001D02*
X12315000Y-9165001D01*
X12315000Y-11034999D02*
X12345000Y-11064999D01*
X12345000Y-11034999D02*
X12315000Y-11064999D01*
X12315001Y-7245000D02*
X12345001Y-7275000D01*
X12345001Y-7245000D02*
X12315001Y-7275000D01*
X12725000Y-5215000D02*
X12755000Y-5245000D01*
X12755000Y-5215000D02*
X12725000Y-5245000D01*
X12725000Y-7125000D02*
X12755000Y-7155000D01*
X12755000Y-7125000D02*
X12725000Y-7155000D01*
X12725000Y-9025000D02*
X12755000Y-9055000D01*
X12755000Y-9025000D02*
X12725000Y-9055000D01*
X12725000Y-10925000D02*
X12755000Y-10955000D01*
X12755000Y-10925000D02*
X12725000Y-10955000D01*
X12835000Y-4475000D02*
X12865000Y-4505000D01*
X12865000Y-4475000D02*
X12835000Y-4505000D01*
X12845000Y-10185000D02*
X12875000Y-10215000D01*
X12875000Y-10185000D02*
X12845000Y-10215000D01*
X12855000Y-6385000D02*
X12885000Y-6415000D01*
X12885000Y-6385000D02*
X12855000Y-6415000D01*
X12855000Y-8285000D02*
X12885000Y-8315000D01*
X12885000Y-8285000D02*
X12855000Y-8315000D01*
X13115000Y-8045000D02*
X13145000Y-8075000D01*
X13145000Y-8045000D02*
X13115000Y-8075000D01*
X13115000Y-10025000D02*
X13145000Y-10055000D01*
X13145000Y-10025000D02*
X13115000Y-10055000D01*
X13125000Y-4235000D02*
X13155000Y-4265000D01*
X13155000Y-4235000D02*
X13125000Y-4265000D01*
X13125000Y-6205000D02*
X13155000Y-6235000D01*
X13155000Y-6205000D02*
X13125000Y-6235000D01*
X13265001Y-12925000D02*
X13295001Y-12955000D01*
X13295001Y-12925000D02*
X13265001Y-12955000D01*
X13675000Y-12815000D02*
X13705000Y-12845000D01*
X13705000Y-12815000D02*
X13675000Y-12845000D01*
X13785000Y-12075000D02*
X13815000Y-12105000D01*
X13815000Y-12075000D02*
X13785000Y-12105000D01*
X14065000Y-11855000D02*
X14095000Y-11885000D01*
X14095000Y-11855000D02*
X14065000Y-11885000D01*
X14214999Y-8915000D02*
X14244999Y-8945000D01*
X14244999Y-8915000D02*
X14214999Y-8945000D01*
X14215000Y-5084999D02*
X14245000Y-5114999D01*
X14245000Y-5084999D02*
X14215000Y-5114999D01*
X14215000Y-10815001D02*
X14245000Y-10845001D01*
X14245000Y-10815001D02*
X14215000Y-10845001D01*
X14215001Y-7005000D02*
X14245001Y-7035000D01*
X14245001Y-7005000D02*
X14215001Y-7035000D01*
X14625000Y-4975000D02*
X14655000Y-5005000D01*
X14655000Y-4975000D02*
X14625000Y-5005000D01*
X14625000Y-6885000D02*
X14655000Y-6915000D01*
X14655000Y-6885000D02*
X14625000Y-6915000D01*
X14625000Y-8785000D02*
X14655000Y-8815000D01*
X14655000Y-8785000D02*
X14625000Y-8815000D01*
X14625000Y-10695000D02*
X14655000Y-10725000D01*
X14655000Y-10695000D02*
X14625000Y-10725000D01*
X14735000Y-6145000D02*
X14765000Y-6175000D01*
X14765000Y-6145000D02*
X14735000Y-6175000D01*
X14745000Y-4235000D02*
X14775000Y-4265000D01*
X14775000Y-4235000D02*
X14745000Y-4265000D01*
X14745000Y-9955000D02*
X14775000Y-9985000D01*
X14775000Y-9955000D02*
X14745000Y-9985000D01*
X14765000Y-8045000D02*
X14795000Y-8075000D01*
X14795000Y-8045000D02*
X14765000Y-8075000D01*
X15015000Y-9815000D02*
X15045000Y-9845000D01*
X15045000Y-9815000D02*
X15015000Y-9845000D01*
X15025000Y-7915000D02*
X15055000Y-7945000D01*
X15055000Y-7915000D02*
X15025000Y-7945000D01*
X15035000Y-4095000D02*
X15065000Y-4125000D01*
X15065000Y-4095000D02*
X15035000Y-4125000D01*
X15045000Y-6005000D02*
X15075000Y-6035000D01*
X15075000Y-6005000D02*
X15045000Y-6035000D01*
X15165000Y-12695000D02*
X15195000Y-12725000D01*
X15195000Y-12695000D02*
X15165000Y-12725000D01*
X15575000Y-12595000D02*
X15605000Y-12625000D01*
X15605000Y-12595000D02*
X15575000Y-12625000D01*
X15695000Y-11855000D02*
X15725000Y-11885000D01*
X15725000Y-11855000D02*
X15695000Y-11885000D01*
X15975000Y-11855000D02*
X16005000Y-11885000D01*
X16005000Y-11855000D02*
X15975000Y-11885000D01*
X16124999Y-6855000D02*
X16154999Y-6885000D01*
X16154999Y-6855000D02*
X16124999Y-6885000D01*
X16125000Y-4945000D02*
X16155000Y-4975000D01*
X16155000Y-4945000D02*
X16125000Y-4975000D01*
X16125000Y-8764999D02*
X16155000Y-8794999D01*
X16155000Y-8764999D02*
X16125000Y-8794999D01*
X16125000Y-10675000D02*
X16155000Y-10705000D01*
X16155000Y-10675000D02*
X16125000Y-10705000D01*
X16535000Y-4835000D02*
X16565000Y-4865000D01*
X16565000Y-4835000D02*
X16535000Y-4865000D01*
X16535000Y-6745000D02*
X16565000Y-6775000D01*
X16565000Y-6745000D02*
X16535000Y-6775000D01*
X16535000Y-8655000D02*
X16565000Y-8685000D01*
X16565000Y-8655000D02*
X16535000Y-8685000D01*
X16535000Y-10555000D02*
X16565000Y-10585000D01*
X16565000Y-10555000D02*
X16535000Y-10585000D01*
X16645000Y-6005000D02*
X16675000Y-6035000D01*
X16675000Y-6005000D02*
X16645000Y-6035000D01*
X16655000Y-4095000D02*
X16685000Y-4125000D01*
X16685000Y-4095000D02*
X16655000Y-4125000D01*
X16665000Y-7915000D02*
X16695000Y-7945000D01*
X16695000Y-7915000D02*
X16665000Y-7945000D01*
X16665000Y-9815000D02*
X16695000Y-9845000D01*
X16695000Y-9815000D02*
X16665000Y-9845000D01*
X16925000Y-4235000D02*
X16955000Y-4265000D01*
X16955000Y-4235000D02*
X16925000Y-4265000D01*
X16925000Y-9955000D02*
X16955000Y-9985000D01*
X16955000Y-9955000D02*
X16925000Y-9985000D01*
X16935000Y-6135000D02*
X16965000Y-6165000D01*
X16965000Y-6135000D02*
X16935000Y-6165000D01*
X16935000Y-8045000D02*
X16965000Y-8075000D01*
X16965000Y-8045000D02*
X16935000Y-8075000D01*
X17075001Y-12715000D02*
X17105001Y-12745000D01*
X17105001Y-12715000D02*
X17075001Y-12745000D01*
X17485000Y-12585000D02*
X17515000Y-12615000D01*
X17515000Y-12585000D02*
X17485000Y-12615000D01*
X17605000Y-11855000D02*
X17635000Y-11885000D01*
X17635000Y-11855000D02*
X17605000Y-11885000D01*
X18024999Y-10805000D02*
X18054999Y-10835000D01*
X18054999Y-10805000D02*
X18024999Y-10835000D01*
X18025000Y-5085000D02*
X18055000Y-5115000D01*
X18055000Y-5085000D02*
X18025000Y-5115000D01*
X18025000Y-6985001D02*
X18055000Y-7015001D01*
X18055000Y-6985001D02*
X18025000Y-7015001D01*
X18025000Y-8895000D02*
X18055000Y-8925000D01*
X18055000Y-8895000D02*
X18025000Y-8925000D01*
X18435000Y-4975000D02*
X18465000Y-5005000D01*
X18465000Y-4975000D02*
X18435000Y-5005000D01*
X18435000Y-6875000D02*
X18465000Y-6905000D01*
X18465000Y-6875000D02*
X18435000Y-6905000D01*
X18435000Y-8785000D02*
X18465000Y-8815000D01*
X18465000Y-8785000D02*
X18435000Y-8815000D01*
X18435000Y-10695000D02*
X18465000Y-10725000D01*
X18465000Y-10695000D02*
X18435000Y-10725000D01*
X18545000Y-6135000D02*
X18575000Y-6165000D01*
X18575000Y-6135000D02*
X18545000Y-6165000D01*
X18545000Y-9955000D02*
X18575000Y-9985000D01*
X18575000Y-9955000D02*
X18545000Y-9985000D01*
X18555000Y-4235000D02*
X18585000Y-4265000D01*
X18585000Y-4235000D02*
X18555000Y-4265000D01*
X18575000Y-8045000D02*
X18605000Y-8075000D01*
X18605000Y-8045000D02*
X18575000Y-8075000D01*
X18835000Y-8525000D02*
X18865000Y-8555000D01*
X18865000Y-8525000D02*
X18835000Y-8555000D01*
X18835000Y-10425000D02*
X18865000Y-10455000D01*
X18865000Y-10425000D02*
X18835000Y-10455000D01*
X18845000Y-4715000D02*
X18875000Y-4745000D01*
X18875000Y-4715000D02*
X18845000Y-4745000D01*
X18845000Y-6605000D02*
X18875000Y-6635000D01*
X18875000Y-6605000D02*
X18845000Y-6635000D01*
X19934999Y-5565000D02*
X19964999Y-5595000D01*
X19964999Y-5565000D02*
X19934999Y-5595000D01*
X19935000Y-9375000D02*
X19965000Y-9405000D01*
X19965000Y-9375000D02*
X19935000Y-9405000D01*
X19935000Y-7455000D02*
X19965000Y-7485000D01*
X19965000Y-7455000D02*
X19935000Y-7485000D01*
X19935001Y-11295000D02*
X19965001Y-11325000D01*
X19965001Y-11295000D02*
X19935001Y-11325000D01*
X20345000Y-5455000D02*
X20375000Y-5485000D01*
X20375000Y-5455000D02*
X20345000Y-5485000D01*
X20345000Y-7345000D02*
X20375000Y-7375000D01*
X20375000Y-7345000D02*
X20345000Y-7375000D01*
X20345000Y-9265000D02*
X20375000Y-9295000D01*
X20375000Y-9265000D02*
X20345000Y-9295000D01*
X20345000Y-11165000D02*
X20375000Y-11195000D01*
X20375000Y-11165000D02*
X20345000Y-11195000D01*
X20455000Y-4715000D02*
X20485000Y-4745000D01*
X20485000Y-4715000D02*
X20455000Y-4745000D01*
X20455000Y-6605000D02*
X20485000Y-6635000D01*
X20485000Y-6605000D02*
X20455000Y-6635000D01*
X20475000Y-8525000D02*
X20505000Y-8555000D01*
X20505000Y-8525000D02*
X20475000Y-8555000D01*
X20475000Y-10425000D02*
X20505000Y-10455000D01*
X20505000Y-10425000D02*
X20475000Y-10455000D01*
X20705000Y-4865000D02*
X20735000Y-4895000D01*
X20735000Y-4865000D02*
X20705000Y-4895000D01*
X20735000Y-10575000D02*
X20765000Y-10605000D01*
X20765000Y-10575000D02*
X20735000Y-10605000D01*
X20745000Y-6755000D02*
X20775000Y-6785000D01*
X20775000Y-6755000D02*
X20745000Y-6785000D01*
X20745001Y-8675000D02*
X20775001Y-8705000D01*
X20775001Y-8675000D02*
X20745001Y-8705000D01*
X21835000Y-5704999D02*
X21865000Y-5734999D01*
X21865000Y-5704999D02*
X21835000Y-5734999D01*
X21835000Y-7605000D02*
X21865000Y-7635000D01*
X21865000Y-7605000D02*
X21835000Y-7635000D01*
X21835000Y-9515000D02*
X21865000Y-9545000D01*
X21865000Y-9515000D02*
X21835000Y-9545000D01*
X21835000Y-11444999D02*
X21865000Y-11474999D01*
X21865000Y-11444999D02*
X21835000Y-11474999D01*
X22245000Y-5605000D02*
X22275000Y-5635000D01*
X22275000Y-5605000D02*
X22245000Y-5635000D01*
X22245000Y-7495000D02*
X22275000Y-7525000D01*
X22275000Y-7495000D02*
X22245000Y-7525000D01*
X22245000Y-9415000D02*
X22275000Y-9445000D01*
X22275000Y-9415000D02*
X22245000Y-9445000D01*
X22245000Y-11315000D02*
X22275000Y-11345000D01*
X22275000Y-11315000D02*
X22245000Y-11345000D01*
X22355000Y-4865000D02*
X22385000Y-4895000D01*
X22385000Y-4865000D02*
X22355000Y-4895000D01*
X22355000Y-6755000D02*
X22385000Y-6785000D01*
X22385000Y-6755000D02*
X22355000Y-6785000D01*
X22375000Y-8675000D02*
X22405000Y-8705000D01*
X22405000Y-8675000D02*
X22375000Y-8705000D01*
X22375000Y-10575000D02*
X22405000Y-10605000D01*
X22405000Y-10575000D02*
X22375000Y-10605000D01*
X10410000Y-8950000D02*
G75*
G03*
X10410000Y-8950000I-20000J0D01*
G01*
X10750000Y-8950000D02*
G75*
G03*
X10750000Y-8950000I-20000J0D01*
G01*
X10915000Y-11782776D02*
G75*
G03*
X10915000Y-11782776I-20000J0D01*
G01*
X11085000Y-12077224D02*
G75*
G03*
X11085000Y-12077224I-20000J0D01*
G01*
X11290000Y-5800000D02*
G75*
G03*
X11290000Y-5800000I-20000J0D01*
G01*
X11290000Y-6110000D02*
G75*
G03*
X11290000Y-6110000I-20000J0D01*
G01*
X11290000Y-9600000D02*
G75*
G03*
X11290000Y-9600000I-20000J0D01*
G01*
X11290000Y-9910000D02*
G75*
G03*
X11290000Y-9910000I-20000J0D01*
G01*
X11630000Y-5800000D02*
G75*
G03*
X11630000Y-5800000I-20000J0D01*
G01*
X11630000Y-6110000D02*
G75*
G03*
X11630000Y-6110000I-20000J0D01*
G01*
X11630000Y-9600000D02*
G75*
G03*
X11630000Y-9600000I-20000J0D01*
G01*
X11630000Y-9910000D02*
G75*
G03*
X11630000Y-9910000I-20000J0D01*
G01*
X12240000Y-11800000D02*
G75*
G03*
X12240000Y-11800000I-20000J0D01*
G01*
X12580000Y-11800000D02*
G75*
G03*
X12580000Y-11800000I-20000J0D01*
G01*
X13280000Y-5570000D02*
G75*
G03*
X13280000Y-5570000I-20000J0D01*
G01*
X13280000Y-9380000D02*
G75*
G03*
X13280000Y-9380000I-20000J0D01*
G01*
X13380000Y-5870000D02*
G75*
G03*
X13380000Y-5870000I-20000J0D01*
G01*
X13380000Y-9680000D02*
G75*
G03*
X13380000Y-9680000I-20000J0D01*
G01*
X13620000Y-5570000D02*
G75*
G03*
X13620000Y-5570000I-20000J0D01*
G01*
X13620000Y-9380000D02*
G75*
G03*
X13620000Y-9380000I-20000J0D01*
G01*
X13720000Y-5870000D02*
G75*
G03*
X13720000Y-5870000I-20000J0D01*
G01*
X13720000Y-9680000D02*
G75*
G03*
X13720000Y-9680000I-20000J0D01*
G01*
X14140000Y-11580000D02*
G75*
G03*
X14140000Y-11580000I-20000J0D01*
G01*
X14480000Y-11580000D02*
G75*
G03*
X14480000Y-11580000I-20000J0D01*
G01*
X15100000Y-5420000D02*
G75*
G03*
X15100000Y-5420000I-20000J0D01*
G01*
X15100000Y-9230000D02*
G75*
G03*
X15100000Y-9230000I-20000J0D01*
G01*
X15100000Y-9540000D02*
G75*
G03*
X15100000Y-9540000I-20000J0D01*
G01*
X15110000Y-5740000D02*
G75*
G03*
X15110000Y-5740000I-20000J0D01*
G01*
X15440000Y-5420000D02*
G75*
G03*
X15440000Y-5420000I-20000J0D01*
G01*
X15440000Y-9230000D02*
G75*
G03*
X15440000Y-9230000I-20000J0D01*
G01*
X15440000Y-9540000D02*
G75*
G03*
X15440000Y-9540000I-20000J0D01*
G01*
X15450000Y-5740000D02*
G75*
G03*
X15450000Y-5740000I-20000J0D01*
G01*
X16050000Y-11580000D02*
G75*
G03*
X16050000Y-11580000I-20000J0D01*
G01*
X16390000Y-11580000D02*
G75*
G03*
X16390000Y-11580000I-20000J0D01*
G01*
X17000000Y-5560000D02*
G75*
G03*
X17000000Y-5560000I-20000J0D01*
G01*
X17000000Y-5870000D02*
G75*
G03*
X17000000Y-5870000I-20000J0D01*
G01*
X17000000Y-9360000D02*
G75*
G03*
X17000000Y-9360000I-20000J0D01*
G01*
X17000000Y-9680000D02*
G75*
G03*
X17000000Y-9680000I-20000J0D01*
G01*
X17340000Y-5560000D02*
G75*
G03*
X17340000Y-5560000I-20000J0D01*
G01*
X17340000Y-5870000D02*
G75*
G03*
X17340000Y-5870000I-20000J0D01*
G01*
X17340000Y-9360000D02*
G75*
G03*
X17340000Y-9360000I-20000J0D01*
G01*
X17340000Y-9680000D02*
G75*
G03*
X17340000Y-9680000I-20000J0D01*
G01*
X18910000Y-6040000D02*
G75*
G03*
X18910000Y-6040000I-20000J0D01*
G01*
X18910000Y-6330000D02*
G75*
G03*
X18910000Y-6330000I-20000J0D01*
G01*
X18910000Y-9830000D02*
G75*
G03*
X18910000Y-9830000I-20000J0D01*
G01*
X18910000Y-10150000D02*
G75*
G03*
X18910000Y-10150000I-20000J0D01*
G01*
X19250000Y-6040000D02*
G75*
G03*
X19250000Y-6040000I-20000J0D01*
G01*
X19250000Y-6330000D02*
G75*
G03*
X19250000Y-6330000I-20000J0D01*
G01*
X19250000Y-9830000D02*
G75*
G03*
X19250000Y-9830000I-20000J0D01*
G01*
X19250000Y-10150000D02*
G75*
G03*
X19250000Y-10150000I-20000J0D01*
G01*
X22030000Y-6180000D02*
G75*
G03*
X22030000Y-6180000I-20000J0D01*
G01*
X22030000Y-6490000D02*
G75*
G03*
X22030000Y-6490000I-20000J0D01*
G01*
X22030000Y-9990000D02*
G75*
G03*
X22030000Y-9990000I-20000J0D01*
G01*
X22040000Y-10310000D02*
G75*
G03*
X22040000Y-10310000I-20000J0D01*
G01*
X22370000Y-6180000D02*
G75*
G03*
X22370000Y-6180000I-20000J0D01*
G01*
X22370000Y-6490000D02*
G75*
G03*
X22370000Y-6490000I-20000J0D01*
G01*
X22370000Y-9990000D02*
G75*
G03*
X22370000Y-9990000I-20000J0D01*
G01*
X22380000Y-10310000D02*
G75*
G03*
X22380000Y-10310000I-20000J0D01*
G01*
X8405000Y-4235000D02*
X8405000Y-4285000D01*
X8380000Y-4260000D02*
X8430000Y-4260000D01*
X8390000Y-4205000D02*
X8390000Y-4315000D01*
X8420000Y-4205000D02*
X8420000Y-4315000D01*
X8390000Y-4315000D02*
G75*
G03*
X8420000Y-4315000I15000J0D01*
G01*
X8420000Y-4205000D02*
G75*
G03*
X8390000Y-4205000I-15000J0D01*
G01*
X8405000Y-4535000D02*
X8405000Y-4585000D01*
X8380000Y-4560000D02*
X8430000Y-4560000D01*
X8390000Y-4505000D02*
X8390000Y-4615000D01*
X8420000Y-4505000D02*
X8420000Y-4615000D01*
X8390000Y-4615000D02*
G75*
G03*
X8420000Y-4615000I15000J0D01*
G01*
X8420000Y-4505000D02*
G75*
G03*
X8390000Y-4505000I-15000J0D01*
G01*
X8405000Y-4935000D02*
X8405000Y-4985000D01*
X8380000Y-4960000D02*
X8430000Y-4960000D01*
X8390000Y-4905000D02*
X8390000Y-5015000D01*
X8420000Y-4905000D02*
X8420000Y-5015000D01*
X8390000Y-5015000D02*
G75*
G03*
X8420000Y-5015000I15000J0D01*
G01*
X8420000Y-4905000D02*
G75*
G03*
X8390000Y-4905000I-15000J0D01*
G01*
X8580000Y-5085000D02*
X8580000Y-5135000D01*
X8555000Y-5110000D02*
X8605000Y-5110000D01*
X8565000Y-5055000D02*
X8565000Y-5165000D01*
X8595000Y-5055000D02*
X8595000Y-5165000D01*
X8565000Y-5165000D02*
G75*
G03*
X8595000Y-5165000I15000J0D01*
G01*
X8595000Y-5055000D02*
G75*
G03*
X8565000Y-5055000I-15000J0D01*
G01*
X8825000Y-5085000D02*
X8825000Y-5135000D01*
X8800000Y-5110000D02*
X8850000Y-5110000D01*
X8810000Y-5055000D02*
X8810000Y-5165000D01*
X8840000Y-5055000D02*
X8840000Y-5165000D01*
X8810000Y-5165000D02*
G75*
G03*
X8840000Y-5165000I15000J0D01*
G01*
X8840000Y-5055000D02*
G75*
G03*
X8810000Y-5055000I-15000J0D01*
G01*
X9000000Y-4235000D02*
X9000000Y-4285000D01*
X8975000Y-4260000D02*
X9025000Y-4260000D01*
X8985000Y-4205000D02*
X8985000Y-4315000D01*
X9015000Y-4205000D02*
X9015000Y-4315000D01*
X8985000Y-4315000D02*
G75*
G03*
X9015000Y-4315000I15000J0D01*
G01*
X9015000Y-4205000D02*
G75*
G03*
X8985000Y-4205000I-15000J0D01*
G01*
X9000000Y-4535000D02*
X9000000Y-4585000D01*
X8975000Y-4560000D02*
X9025000Y-4560000D01*
X8985000Y-4505000D02*
X8985000Y-4615000D01*
X9015000Y-4505000D02*
X9015000Y-4615000D01*
X8985000Y-4615000D02*
G75*
G03*
X9015000Y-4615000I15000J0D01*
G01*
X9015000Y-4505000D02*
G75*
G03*
X8985000Y-4505000I-15000J0D01*
G01*
X9000000Y-4935000D02*
X9000000Y-4985000D01*
X8975000Y-4960000D02*
X9025000Y-4960000D01*
X8985000Y-4905000D02*
X8985000Y-5015000D01*
X9015000Y-4905000D02*
X9015000Y-5015000D01*
X8985000Y-5015000D02*
G75*
G03*
X9015000Y-5015000I15000J0D01*
G01*
X9015000Y-4905000D02*
G75*
G03*
X8985000Y-4905000I-15000J0D01*
G01*
X8497541Y-5378664D02*
X8497541Y-5321190D01*
X8440066Y-5321190D01*
X8440066Y-5378664D01*
X8497541Y-5378664D01*
X8497541Y-5886664D02*
X8497541Y-5829190D01*
X8440066Y-5829190D01*
X8440066Y-5886664D01*
X8497541Y-5886664D01*
X8498737Y-6098737D02*
X8498737Y-6041263D01*
X8441263Y-6041263D01*
X8441263Y-6098737D01*
X8498737Y-6098737D01*
X8718737Y-6098737D02*
X8718737Y-6041263D01*
X8661263Y-6041263D01*
X8661263Y-6098737D01*
X8718737Y-6098737D01*
X8722541Y-5378664D02*
X8722541Y-5321190D01*
X8665066Y-5321190D01*
X8665066Y-5378664D01*
X8722541Y-5378664D01*
X8722541Y-5886664D02*
X8722541Y-5829190D01*
X8665066Y-5829190D01*
X8665066Y-5886664D01*
X8722541Y-5886664D01*
X9246737Y-4151737D02*
X9246737Y-4094263D01*
X9189263Y-4094263D01*
X9189263Y-4151737D01*
X9246737Y-4151737D01*
X9246737Y-4405737D02*
X9246737Y-4348263D01*
X9189263Y-4348263D01*
X9189263Y-4405737D01*
X9246737Y-4405737D01*
X9246737Y-4659737D02*
X9246737Y-4602263D01*
X9189263Y-4602263D01*
X9189263Y-4659737D01*
X9246737Y-4659737D01*
X9246737Y-4913737D02*
X9246737Y-4856263D01*
X9189263Y-4856263D01*
X9189263Y-4913737D01*
X9246737Y-4913737D01*
X9246737Y-5167737D02*
X9246737Y-5110263D01*
X9189263Y-5110263D01*
X9189263Y-5167737D01*
X9246737Y-5167737D01*
X9246737Y-5421737D02*
X9246737Y-5364263D01*
X9189263Y-5364263D01*
X9189263Y-5421737D01*
X9246737Y-5421737D01*
X9246737Y-5675737D02*
X9246737Y-5618263D01*
X9189263Y-5618263D01*
X9189263Y-5675737D01*
X9246737Y-5675737D01*
X9246737Y-5929737D02*
X9246737Y-5872263D01*
X9189263Y-5872263D01*
X9189263Y-5929737D01*
X9246737Y-5929737D01*
X9246737Y-6183737D02*
X9246737Y-6126263D01*
X9189263Y-6126263D01*
X9189263Y-6183737D01*
X9246737Y-6183737D01*
X9246737Y-6437737D02*
X9246737Y-6380263D01*
X9189263Y-6380263D01*
X9189263Y-6437737D01*
X9246737Y-6437737D01*
X9246737Y-6691737D02*
X9246737Y-6634263D01*
X9189263Y-6634263D01*
X9189263Y-6691737D01*
X9246737Y-6691737D01*
X9246737Y-6945737D02*
X9246737Y-6888263D01*
X9189263Y-6888263D01*
X9189263Y-6945737D01*
X9246737Y-6945737D01*
X9376619Y-4271312D02*
X9376619Y-4213837D01*
X9319144Y-4213837D01*
X9319144Y-4271312D01*
X9376619Y-4271312D01*
X9376619Y-4525312D02*
X9376619Y-4467837D01*
X9319144Y-4467837D01*
X9319144Y-4525312D01*
X9376619Y-4525312D01*
X9376619Y-4779312D02*
X9376619Y-4721837D01*
X9319144Y-4721837D01*
X9319144Y-4779312D01*
X9376619Y-4779312D01*
X9376619Y-5033312D02*
X9376619Y-4975837D01*
X9319144Y-4975837D01*
X9319144Y-5033312D01*
X9376619Y-5033312D01*
X9376619Y-5287312D02*
X9376619Y-5229837D01*
X9319144Y-5229837D01*
X9319144Y-5287312D01*
X9376619Y-5287312D01*
X9376619Y-5541312D02*
X9376619Y-5483837D01*
X9319144Y-5483837D01*
X9319144Y-5541312D01*
X9376619Y-5541312D01*
X9376619Y-5795312D02*
X9376619Y-5737837D01*
X9319144Y-5737837D01*
X9319144Y-5795312D01*
X9376619Y-5795312D01*
X9376619Y-6049312D02*
X9376619Y-5991837D01*
X9319144Y-5991837D01*
X9319144Y-6049312D01*
X9376619Y-6049312D01*
X9376619Y-6303312D02*
X9376619Y-6245837D01*
X9319144Y-6245837D01*
X9319144Y-6303312D01*
X9376619Y-6303312D01*
X9376619Y-6557312D02*
X9376619Y-6499837D01*
X9319144Y-6499837D01*
X9319144Y-6557312D01*
X9376619Y-6557312D01*
X9376619Y-6811312D02*
X9376619Y-6753837D01*
X9319144Y-6753837D01*
X9319144Y-6811312D01*
X9376619Y-6811312D01*
X9376619Y-7065312D02*
X9376619Y-7007837D01*
X9319144Y-7007837D01*
X9319144Y-7065312D01*
X9376619Y-7065312D01*
X9698737Y-7488737D02*
X9698737Y-7431263D01*
X9641263Y-7431263D01*
X9641263Y-7488737D01*
X9698737Y-7488737D01*
X9952737Y-7488737D02*
X9952737Y-7431263D01*
X9895263Y-7431263D01*
X9895263Y-7488737D01*
X9952737Y-7488737D01*
X10206737Y-7488737D02*
X10206737Y-7431263D01*
X10149263Y-7431263D01*
X10149263Y-7488737D01*
X10206737Y-7488737D01*
X10460737Y-7488737D02*
X10460737Y-7431263D01*
X10403263Y-7431263D01*
X10403263Y-7488737D01*
X10460737Y-7488737D01*
X10770737Y-4151737D02*
X10770737Y-4094263D01*
X10713263Y-4094263D01*
X10713263Y-4151737D01*
X10770737Y-4151737D01*
X10770737Y-4405737D02*
X10770737Y-4348263D01*
X10713263Y-4348263D01*
X10713263Y-4405737D01*
X10770737Y-4405737D01*
X10770737Y-4659737D02*
X10770737Y-4602263D01*
X10713263Y-4602263D01*
X10713263Y-4659737D01*
X10770737Y-4659737D01*
X10770737Y-4913737D02*
X10770737Y-4856263D01*
X10713263Y-4856263D01*
X10713263Y-4913737D01*
X10770737Y-4913737D01*
X10770737Y-5167737D02*
X10770737Y-5110263D01*
X10713263Y-5110263D01*
X10713263Y-5167737D01*
X10770737Y-5167737D01*
X10770737Y-5421737D02*
X10770737Y-5364263D01*
X10713263Y-5364263D01*
X10713263Y-5421737D01*
X10770737Y-5421737D01*
X10770737Y-5675737D02*
X10770737Y-5618263D01*
X10713263Y-5618263D01*
X10713263Y-5675737D01*
X10770737Y-5675737D01*
X10770737Y-5929737D02*
X10770737Y-5872263D01*
X10713263Y-5872263D01*
X10713263Y-5929737D01*
X10770737Y-5929737D01*
X10770737Y-6183737D02*
X10770737Y-6126263D01*
X10713263Y-6126263D01*
X10713263Y-6183737D01*
X10770737Y-6183737D01*
X10770737Y-6437737D02*
X10770737Y-6380263D01*
X10713263Y-6380263D01*
X10713263Y-6437737D01*
X10770737Y-6437737D01*
X10770737Y-6691737D02*
X10770737Y-6634263D01*
X10713263Y-6634263D01*
X10713263Y-6691737D01*
X10770737Y-6691737D01*
X10770737Y-6945737D02*
X10770737Y-6888263D01*
X10713263Y-6888263D01*
X10713263Y-6945737D01*
X10770737Y-6945737D01*
X10900619Y-4271312D02*
X10900619Y-4213837D01*
X10843144Y-4213837D01*
X10843144Y-4271312D01*
X10900619Y-4271312D01*
X10900619Y-4525312D02*
X10900619Y-4467837D01*
X10843144Y-4467837D01*
X10843144Y-4525312D01*
X10900619Y-4525312D01*
X10900619Y-4779312D02*
X10900619Y-4721837D01*
X10843144Y-4721837D01*
X10843144Y-4779312D01*
X10900619Y-4779312D01*
X10900619Y-5033312D02*
X10900619Y-4975837D01*
X10843144Y-4975837D01*
X10843144Y-5033312D01*
X10900619Y-5033312D01*
X10900619Y-5287312D02*
X10900619Y-5229837D01*
X10843144Y-5229837D01*
X10843144Y-5287312D01*
X10900619Y-5287312D01*
X10900619Y-5541312D02*
X10900619Y-5483837D01*
X10843144Y-5483837D01*
X10843144Y-5541312D01*
X10900619Y-5541312D01*
X10900619Y-5795312D02*
X10900619Y-5737837D01*
X10843144Y-5737837D01*
X10843144Y-5795312D01*
X10900619Y-5795312D01*
X10900619Y-6049312D02*
X10900619Y-5991837D01*
X10843144Y-5991837D01*
X10843144Y-6049312D01*
X10900619Y-6049312D01*
X10900619Y-6303312D02*
X10900619Y-6245837D01*
X10843144Y-6245837D01*
X10843144Y-6303312D01*
X10900619Y-6303312D01*
X10900619Y-6557312D02*
X10900619Y-6499837D01*
X10843144Y-6499837D01*
X10843144Y-6557312D01*
X10900619Y-6557312D01*
X10900619Y-6811312D02*
X10900619Y-6753837D01*
X10843144Y-6753837D01*
X10843144Y-6811312D01*
X10900619Y-6811312D01*
X10900619Y-7065312D02*
X10900619Y-7007837D01*
X10843144Y-7007837D01*
X10843144Y-7065312D01*
X10900619Y-7065312D01*
X9390000Y-9550000D02*
X9440000Y-9500000D01*
X9390000Y-9450000D01*
X9340000Y-9500000D01*
X9390000Y-9550000D01*
X9390000Y-9800000D02*
X9440000Y-9750000D01*
X9390000Y-9700000D01*
X9340000Y-9750000D01*
X9390000Y-9800000D01*
X9390000Y-10050000D02*
X9440000Y-10000000D01*
X9390000Y-9950000D01*
X9340000Y-10000000D01*
X9390000Y-10050000D01*
X10840000Y-9550000D02*
X10890000Y-9500000D01*
X10840000Y-9450000D01*
X10790000Y-9500000D01*
X10840000Y-9550000D01*
X10840000Y-10050000D02*
X10890000Y-10000000D01*
X10840000Y-9950000D01*
X10790000Y-10000000D01*
X10840000Y-10050000D01*
X11270000Y-7700000D02*
X11320000Y-7650000D01*
X11270000Y-7600000D01*
X11220000Y-7650000D01*
X11270000Y-7700000D01*
X11270000Y-7910000D02*
X11320000Y-7860000D01*
X11270000Y-7810000D01*
X11220000Y-7860000D01*
X11270000Y-7910000D01*
X11270000Y-8110000D02*
X11320000Y-8060000D01*
X11270000Y-8010000D01*
X11220000Y-8060000D01*
X11270000Y-8110000D01*
X8435000Y-6380000D02*
X8565000Y-6510000D01*
X8565000Y-6380000D02*
X8435000Y-6510000D01*
X8565000Y-6445000D02*
G75*
G03*
X8565000Y-6445000I-65000J0D01*
G01*
X8435000Y-7030000D02*
X8565000Y-7160000D01*
X8565000Y-7030000D02*
X8435000Y-7160000D01*
X8565000Y-7095000D02*
G75*
G03*
X8565000Y-7095000I-65000J0D01*
G01*
X10065000Y-9115000D02*
X10215000Y-9265000D01*
X10215000Y-9115000D02*
X10065000Y-9265000D01*
X10140000Y-9115000D02*
X10140000Y-9265000D01*
X10065000Y-9190000D02*
X10215000Y-9190000D01*
X10075000Y-9255000D02*
X10205000Y-9255000D01*
X10075000Y-9125000D02*
X10205000Y-9125000D01*
X10205000Y-9255000D02*
G75*
G03*
X10205000Y-9125000I0J65000D01*
G01*
X10075000Y-9125000D02*
G75*
G03*
X10075000Y-9255000I0J-65000D01*
G01*
X10065000Y-10235000D02*
X10215000Y-10385000D01*
X10215000Y-10235000D02*
X10065000Y-10385000D01*
X10140000Y-10235000D02*
X10140000Y-10385000D01*
X10065000Y-10310000D02*
X10215000Y-10310000D01*
X10075000Y-10375000D02*
X10205000Y-10375000D01*
X10075000Y-10245000D02*
X10205000Y-10245000D01*
X10205000Y-10375000D02*
G75*
G03*
X10205000Y-10245000I0J65000D01*
G01*
X10075000Y-10245000D02*
G75*
G03*
X10075000Y-10375000I0J-65000D01*
G01*
X8480000Y-8380000D02*
X8720000Y-8620000D01*
X8720000Y-8380000D02*
X8480000Y-8620000D01*
X8684854Y-8584854D02*
X8684854Y-8415146D01*
X8515146Y-8415146D01*
X8515146Y-8584854D01*
X8684854Y-8584854D01*
X10680000Y-8380000D02*
X10920000Y-8620000D01*
X10920000Y-8380000D02*
X10680000Y-8620000D01*
X10884854Y-8584854D02*
X10884854Y-8415146D01*
X10715146Y-8415146D01*
X10715146Y-8584854D01*
X10884854Y-8584854D01*
X10265000Y-11245000D02*
X10735000Y-11715000D01*
X10735000Y-11245000D02*
X10265000Y-11715000D01*
X10500000Y-11715000D02*
X10735000Y-11480000D01*
X10500000Y-11245000D01*
X10265000Y-11480000D01*
X10500000Y-11715000D01*
X12725000Y-5725000D02*
X13195000Y-6195000D01*
X13195000Y-5725000D02*
X12725000Y-6195000D01*
X12960000Y-6195000D02*
X13195000Y-5960000D01*
X12960000Y-5725000D01*
X12725000Y-5960000D01*
X12960000Y-6195000D01*
X12725000Y-9525000D02*
X13195000Y-9995000D01*
X13195000Y-9525000D02*
X12725000Y-9995000D01*
X12960000Y-9995000D02*
X13195000Y-9760000D01*
X12960000Y-9525000D01*
X12725000Y-9760000D01*
X12960000Y-9995000D01*
X20345000Y-5945000D02*
X20815000Y-6415000D01*
X20815000Y-5945000D02*
X20345000Y-6415000D01*
X20580000Y-6415000D02*
X20815000Y-6180000D01*
X20580000Y-5945000D01*
X20345000Y-6180000D01*
X20580000Y-6415000D01*
X20345000Y-9765000D02*
X20815000Y-10235000D01*
X20815000Y-9765000D02*
X20345000Y-10235000D01*
X20580000Y-10235000D02*
X20815000Y-10000000D01*
X20580000Y-9765000D01*
X20345000Y-10000000D01*
X20580000Y-10235000D01*
D12*
X8570181Y-14817112D02*
X8570181Y-14517112D01*
X8641610Y-14517112D01*
X8684467Y-14531397D01*
X8713038Y-14559969D01*
X8727324Y-14588540D01*
X8741610Y-14645683D01*
X8741610Y-14688540D01*
X8727324Y-14745683D01*
X8713038Y-14774255D01*
X8684467Y-14802826D01*
X8641610Y-14817112D01*
X8570181Y-14817112D01*
X8870181Y-14817112D02*
X8870181Y-14617112D01*
X8870181Y-14674255D02*
X8884467Y-14645683D01*
X8898753Y-14631397D01*
X8927324Y-14617112D01*
X8955896Y-14617112D01*
X9055896Y-14817112D02*
X9055896Y-14617112D01*
X9055896Y-14517112D02*
X9041610Y-14531397D01*
X9055896Y-14545683D01*
X9070181Y-14531397D01*
X9055896Y-14517112D01*
X9055896Y-14545683D01*
X9241610Y-14817112D02*
X9213038Y-14802826D01*
X9198753Y-14774255D01*
X9198753Y-14517112D01*
X9398753Y-14817112D02*
X9370181Y-14802826D01*
X9355896Y-14774255D01*
X9355896Y-14517112D01*
X9741610Y-14817112D02*
X9741610Y-14517112D01*
X9841610Y-14731397D01*
X9941610Y-14517112D01*
X9941610Y-14817112D01*
X10213038Y-14817112D02*
X10213038Y-14659969D01*
X10198753Y-14631397D01*
X10170181Y-14617112D01*
X10113038Y-14617112D01*
X10084467Y-14631397D01*
X10213038Y-14802826D02*
X10184467Y-14817112D01*
X10113038Y-14817112D01*
X10084467Y-14802826D01*
X10070181Y-14774255D01*
X10070181Y-14745683D01*
X10084467Y-14717112D01*
X10113038Y-14702826D01*
X10184467Y-14702826D01*
X10213038Y-14688540D01*
X10355896Y-14617112D02*
X10355896Y-14917112D01*
X10355896Y-14631397D02*
X10384467Y-14617112D01*
X10441610Y-14617112D01*
X10470181Y-14631397D01*
X10484467Y-14645683D01*
X10498753Y-14674255D01*
X10498753Y-14759969D01*
X10484467Y-14788540D01*
X10470181Y-14802826D01*
X10441610Y-14817112D01*
X10384467Y-14817112D01*
X10355896Y-14802826D01*
X10627324Y-14788540D02*
X10641610Y-14802826D01*
X10627324Y-14817112D01*
X10613038Y-14802826D01*
X10627324Y-14788540D01*
X10627324Y-14817112D01*
X10627324Y-14631397D02*
X10641610Y-14645683D01*
X10627324Y-14659969D01*
X10613038Y-14645683D01*
X10627324Y-14631397D01*
X10627324Y-14659969D01*
X8253753Y-15296397D02*
X8283753Y-15326397D01*
X8283753Y-15296397D02*
X8253753Y-15326397D01*
X8627324Y-15147112D02*
X8655896Y-15147112D01*
X8684467Y-15161397D01*
X8698753Y-15175683D01*
X8713038Y-15204255D01*
X8727324Y-15261397D01*
X8727324Y-15332826D01*
X8713038Y-15389969D01*
X8698753Y-15418540D01*
X8684467Y-15432826D01*
X8655896Y-15447112D01*
X8627324Y-15447112D01*
X8598753Y-15432826D01*
X8584467Y-15418540D01*
X8570181Y-15389969D01*
X8555896Y-15332826D01*
X8555896Y-15261397D01*
X8570181Y-15204255D01*
X8584467Y-15175683D01*
X8598753Y-15161397D01*
X8627324Y-15147112D01*
X8855896Y-15418540D02*
X8870181Y-15432826D01*
X8855896Y-15447112D01*
X8841610Y-15432826D01*
X8855896Y-15418540D01*
X8855896Y-15447112D01*
X8970181Y-15147112D02*
X9155896Y-15147112D01*
X9055896Y-15261397D01*
X9098753Y-15261397D01*
X9127324Y-15275683D01*
X9141610Y-15289969D01*
X9155896Y-15318540D01*
X9155896Y-15389969D01*
X9141610Y-15418540D01*
X9127324Y-15432826D01*
X9098753Y-15447112D01*
X9013038Y-15447112D01*
X8984467Y-15432826D01*
X8970181Y-15418540D01*
X9341610Y-15147112D02*
X9370181Y-15147112D01*
X9398753Y-15161397D01*
X9413038Y-15175683D01*
X9427324Y-15204255D01*
X9441610Y-15261397D01*
X9441610Y-15332826D01*
X9427324Y-15389969D01*
X9413038Y-15418540D01*
X9398753Y-15432826D01*
X9370181Y-15447112D01*
X9341610Y-15447112D01*
X9313038Y-15432826D01*
X9298753Y-15418540D01*
X9284467Y-15389969D01*
X9270181Y-15332826D01*
X9270181Y-15261397D01*
X9284467Y-15204255D01*
X9298753Y-15175683D01*
X9313038Y-15161397D01*
X9341610Y-15147112D01*
X9627324Y-15147112D02*
X9655896Y-15147112D01*
X9684467Y-15161397D01*
X9698753Y-15175683D01*
X9713038Y-15204255D01*
X9727324Y-15261397D01*
X9727324Y-15332826D01*
X9713038Y-15389969D01*
X9698753Y-15418540D01*
X9684467Y-15432826D01*
X9655896Y-15447112D01*
X9627324Y-15447112D01*
X9598753Y-15432826D01*
X9584467Y-15418540D01*
X9570181Y-15389969D01*
X9555896Y-15332826D01*
X9555896Y-15261397D01*
X9570181Y-15204255D01*
X9584467Y-15175683D01*
X9598753Y-15161397D01*
X9627324Y-15147112D01*
X9855896Y-15447112D02*
X9855896Y-15247112D01*
X9855896Y-15275683D02*
X9870181Y-15261397D01*
X9898753Y-15247112D01*
X9941610Y-15247112D01*
X9970181Y-15261397D01*
X9984467Y-15289969D01*
X9984467Y-15447112D01*
X9984467Y-15289969D02*
X9998753Y-15261397D01*
X10027324Y-15247112D01*
X10070181Y-15247112D01*
X10098753Y-15261397D01*
X10113038Y-15289969D01*
X10113038Y-15447112D01*
X10255896Y-15447112D02*
X10255896Y-15247112D01*
X10255896Y-15275683D02*
X10270181Y-15261397D01*
X10298753Y-15247112D01*
X10341610Y-15247112D01*
X10370181Y-15261397D01*
X10384467Y-15289969D01*
X10384467Y-15447112D01*
X10384467Y-15289969D02*
X10398753Y-15261397D01*
X10427324Y-15247112D01*
X10470181Y-15247112D01*
X10498753Y-15261397D01*
X10513038Y-15289969D01*
X10513038Y-15447112D01*
X11098753Y-15132826D02*
X10841610Y-15518540D01*
X11484467Y-15147112D02*
X11513038Y-15147112D01*
X11541610Y-15161397D01*
X11555895Y-15175683D01*
X11570181Y-15204255D01*
X11584467Y-15261397D01*
X11584467Y-15332826D01*
X11570181Y-15389969D01*
X11555895Y-15418540D01*
X11541610Y-15432826D01*
X11513038Y-15447112D01*
X11484467Y-15447112D01*
X11455895Y-15432826D01*
X11441610Y-15418540D01*
X11427324Y-15389969D01*
X11413038Y-15332826D01*
X11413038Y-15261397D01*
X11427324Y-15204255D01*
X11441610Y-15175683D01*
X11455895Y-15161397D01*
X11484467Y-15147112D01*
X11713038Y-15418540D02*
X11727324Y-15432826D01*
X11713038Y-15447112D01*
X11698753Y-15432826D01*
X11713038Y-15418540D01*
X11713038Y-15447112D01*
X11913038Y-15147112D02*
X11941610Y-15147112D01*
X11970181Y-15161397D01*
X11984467Y-15175683D01*
X11998753Y-15204255D01*
X12013038Y-15261397D01*
X12013038Y-15332826D01*
X11998753Y-15389969D01*
X11984467Y-15418540D01*
X11970181Y-15432826D01*
X11941610Y-15447112D01*
X11913038Y-15447112D01*
X11884467Y-15432826D01*
X11870181Y-15418540D01*
X11855895Y-15389969D01*
X11841610Y-15332826D01*
X11841610Y-15261397D01*
X11855895Y-15204255D01*
X11870181Y-15175683D01*
X11884467Y-15161397D01*
X11913038Y-15147112D01*
X12298753Y-15447112D02*
X12127324Y-15447112D01*
X12213038Y-15447112D02*
X12213038Y-15147112D01*
X12184467Y-15189969D01*
X12155895Y-15218540D01*
X12127324Y-15232826D01*
X12584467Y-15447112D02*
X12413038Y-15447112D01*
X12498753Y-15447112D02*
X12498753Y-15147112D01*
X12470181Y-15189969D01*
X12441610Y-15218540D01*
X12413038Y-15232826D01*
X12755895Y-15275683D02*
X12727324Y-15261397D01*
X12713038Y-15247112D01*
X12698753Y-15218540D01*
X12698753Y-15204255D01*
X12713038Y-15175683D01*
X12727324Y-15161397D01*
X12755895Y-15147112D01*
X12813038Y-15147112D01*
X12841610Y-15161397D01*
X12855895Y-15175683D01*
X12870181Y-15204255D01*
X12870181Y-15218540D01*
X12855895Y-15247112D01*
X12841610Y-15261397D01*
X12813038Y-15275683D01*
X12755895Y-15275683D01*
X12727324Y-15289969D01*
X12713038Y-15304255D01*
X12698753Y-15332826D01*
X12698753Y-15389969D01*
X12713038Y-15418540D01*
X12727324Y-15432826D01*
X12755895Y-15447112D01*
X12813038Y-15447112D01*
X12841610Y-15432826D01*
X12855895Y-15418540D01*
X12870181Y-15389969D01*
X12870181Y-15332826D01*
X12855895Y-15304255D01*
X12841610Y-15289969D01*
X12813038Y-15275683D01*
X12984467Y-15147112D02*
X12984467Y-15204255D01*
X13098753Y-15147112D02*
X13098753Y-15204255D01*
X13541610Y-15561397D02*
X13527324Y-15547112D01*
X13498753Y-15504255D01*
X13484467Y-15475683D01*
X13470181Y-15432826D01*
X13455895Y-15361397D01*
X13455895Y-15304255D01*
X13470181Y-15232826D01*
X13484467Y-15189969D01*
X13498753Y-15161397D01*
X13527324Y-15118540D01*
X13541610Y-15104255D01*
X13813038Y-15447112D02*
X13641610Y-15447112D01*
X13727324Y-15447112D02*
X13727324Y-15147112D01*
X13698753Y-15189969D01*
X13670181Y-15218540D01*
X13641610Y-15232826D01*
X14070181Y-15247112D02*
X14070181Y-15447112D01*
X13998753Y-15132826D02*
X13927324Y-15347112D01*
X14113038Y-15347112D01*
X14370181Y-15147112D02*
X14227324Y-15147112D01*
X14213038Y-15289969D01*
X14227324Y-15275683D01*
X14255895Y-15261397D01*
X14327324Y-15261397D01*
X14355895Y-15275683D01*
X14370181Y-15289969D01*
X14384467Y-15318540D01*
X14384467Y-15389969D01*
X14370181Y-15418540D01*
X14355895Y-15432826D01*
X14327324Y-15447112D01*
X14255895Y-15447112D01*
X14227324Y-15432826D01*
X14213038Y-15418540D01*
X14741610Y-15447112D02*
X14741610Y-15147112D01*
X14870181Y-15447112D02*
X14870181Y-15289969D01*
X14855895Y-15261397D01*
X14827324Y-15247112D01*
X14784467Y-15247112D01*
X14755895Y-15261397D01*
X14741610Y-15275683D01*
X15055895Y-15447112D02*
X15027324Y-15432826D01*
X15013038Y-15418540D01*
X14998753Y-15389969D01*
X14998753Y-15304255D01*
X15013038Y-15275683D01*
X15027324Y-15261397D01*
X15055895Y-15247112D01*
X15098753Y-15247112D01*
X15127324Y-15261397D01*
X15141610Y-15275683D01*
X15155895Y-15304255D01*
X15155895Y-15389969D01*
X15141610Y-15418540D01*
X15127324Y-15432826D01*
X15098753Y-15447112D01*
X15055895Y-15447112D01*
X15327324Y-15447112D02*
X15298753Y-15432826D01*
X15284467Y-15404255D01*
X15284467Y-15147112D01*
X15555895Y-15432826D02*
X15527324Y-15447112D01*
X15470181Y-15447112D01*
X15441610Y-15432826D01*
X15427324Y-15404255D01*
X15427324Y-15289969D01*
X15441610Y-15261397D01*
X15470181Y-15247112D01*
X15527324Y-15247112D01*
X15555895Y-15261397D01*
X15570181Y-15289969D01*
X15570181Y-15318540D01*
X15427324Y-15347112D01*
X15684467Y-15432826D02*
X15713038Y-15447112D01*
X15770181Y-15447112D01*
X15798753Y-15432826D01*
X15813038Y-15404255D01*
X15813038Y-15389969D01*
X15798753Y-15361397D01*
X15770181Y-15347112D01*
X15727324Y-15347112D01*
X15698753Y-15332826D01*
X15684467Y-15304255D01*
X15684467Y-15289969D01*
X15698753Y-15261397D01*
X15727324Y-15247112D01*
X15770181Y-15247112D01*
X15798753Y-15261397D01*
X15913038Y-15561397D02*
X15927324Y-15547112D01*
X15955895Y-15504255D01*
X15970181Y-15475683D01*
X15984467Y-15432826D01*
X15998753Y-15361397D01*
X15998753Y-15304255D01*
X15984467Y-15232826D01*
X15970181Y-15189969D01*
X15955895Y-15161397D01*
X15927324Y-15118540D01*
X15913038Y-15104255D01*
X8283753Y-15707397D02*
G75*
G03*
X8283753Y-15707397I-20000J0D01*
G01*
X8627324Y-15543112D02*
X8655896Y-15543112D01*
X8684467Y-15557397D01*
X8698753Y-15571683D01*
X8713038Y-15600255D01*
X8727324Y-15657397D01*
X8727324Y-15728826D01*
X8713038Y-15785969D01*
X8698753Y-15814540D01*
X8684467Y-15828826D01*
X8655896Y-15843112D01*
X8627324Y-15843112D01*
X8598753Y-15828826D01*
X8584467Y-15814540D01*
X8570181Y-15785969D01*
X8555896Y-15728826D01*
X8555896Y-15657397D01*
X8570181Y-15600255D01*
X8584467Y-15571683D01*
X8598753Y-15557397D01*
X8627324Y-15543112D01*
X8855896Y-15814540D02*
X8870181Y-15828826D01*
X8855896Y-15843112D01*
X8841610Y-15828826D01*
X8855896Y-15814540D01*
X8855896Y-15843112D01*
X9127324Y-15643112D02*
X9127324Y-15843112D01*
X9055896Y-15528826D02*
X8984467Y-15743112D01*
X9170181Y-15743112D01*
X9341610Y-15543112D02*
X9370181Y-15543112D01*
X9398753Y-15557397D01*
X9413038Y-15571683D01*
X9427324Y-15600255D01*
X9441610Y-15657397D01*
X9441610Y-15728826D01*
X9427324Y-15785969D01*
X9413038Y-15814540D01*
X9398753Y-15828826D01*
X9370181Y-15843112D01*
X9341610Y-15843112D01*
X9313038Y-15828826D01*
X9298753Y-15814540D01*
X9284467Y-15785969D01*
X9270181Y-15728826D01*
X9270181Y-15657397D01*
X9284467Y-15600255D01*
X9298753Y-15571683D01*
X9313038Y-15557397D01*
X9341610Y-15543112D01*
X9627324Y-15543112D02*
X9655896Y-15543112D01*
X9684467Y-15557397D01*
X9698753Y-15571683D01*
X9713038Y-15600255D01*
X9727324Y-15657397D01*
X9727324Y-15728826D01*
X9713038Y-15785969D01*
X9698753Y-15814540D01*
X9684467Y-15828826D01*
X9655896Y-15843112D01*
X9627324Y-15843112D01*
X9598753Y-15828826D01*
X9584467Y-15814540D01*
X9570181Y-15785969D01*
X9555896Y-15728826D01*
X9555896Y-15657397D01*
X9570181Y-15600255D01*
X9584467Y-15571683D01*
X9598753Y-15557397D01*
X9627324Y-15543112D01*
X9855896Y-15843112D02*
X9855896Y-15643112D01*
X9855896Y-15671683D02*
X9870181Y-15657397D01*
X9898753Y-15643112D01*
X9941610Y-15643112D01*
X9970181Y-15657397D01*
X9984467Y-15685969D01*
X9984467Y-15843112D01*
X9984467Y-15685969D02*
X9998753Y-15657397D01*
X10027324Y-15643112D01*
X10070181Y-15643112D01*
X10098753Y-15657397D01*
X10113038Y-15685969D01*
X10113038Y-15843112D01*
X10255896Y-15843112D02*
X10255896Y-15643112D01*
X10255896Y-15671683D02*
X10270181Y-15657397D01*
X10298753Y-15643112D01*
X10341610Y-15643112D01*
X10370181Y-15657397D01*
X10384467Y-15685969D01*
X10384467Y-15843112D01*
X10384467Y-15685969D02*
X10398753Y-15657397D01*
X10427324Y-15643112D01*
X10470181Y-15643112D01*
X10498753Y-15657397D01*
X10513038Y-15685969D01*
X10513038Y-15843112D01*
X11098753Y-15528826D02*
X10841610Y-15914540D01*
X11484467Y-15543112D02*
X11513038Y-15543112D01*
X11541610Y-15557397D01*
X11555895Y-15571683D01*
X11570181Y-15600255D01*
X11584467Y-15657397D01*
X11584467Y-15728826D01*
X11570181Y-15785969D01*
X11555895Y-15814540D01*
X11541610Y-15828826D01*
X11513038Y-15843112D01*
X11484467Y-15843112D01*
X11455895Y-15828826D01*
X11441610Y-15814540D01*
X11427324Y-15785969D01*
X11413038Y-15728826D01*
X11413038Y-15657397D01*
X11427324Y-15600255D01*
X11441610Y-15571683D01*
X11455895Y-15557397D01*
X11484467Y-15543112D01*
X11713038Y-15814540D02*
X11727324Y-15828826D01*
X11713038Y-15843112D01*
X11698753Y-15828826D01*
X11713038Y-15814540D01*
X11713038Y-15843112D01*
X11913038Y-15543112D02*
X11941610Y-15543112D01*
X11970181Y-15557397D01*
X11984467Y-15571683D01*
X11998753Y-15600255D01*
X12013038Y-15657397D01*
X12013038Y-15728826D01*
X11998753Y-15785969D01*
X11984467Y-15814540D01*
X11970181Y-15828826D01*
X11941610Y-15843112D01*
X11913038Y-15843112D01*
X11884467Y-15828826D01*
X11870181Y-15814540D01*
X11855895Y-15785969D01*
X11841610Y-15728826D01*
X11841610Y-15657397D01*
X11855895Y-15600255D01*
X11870181Y-15571683D01*
X11884467Y-15557397D01*
X11913038Y-15543112D01*
X12298753Y-15843112D02*
X12127324Y-15843112D01*
X12213038Y-15843112D02*
X12213038Y-15543112D01*
X12184467Y-15585969D01*
X12155895Y-15614540D01*
X12127324Y-15628826D01*
X12570181Y-15543112D02*
X12427324Y-15543112D01*
X12413038Y-15685969D01*
X12427324Y-15671683D01*
X12455895Y-15657397D01*
X12527324Y-15657397D01*
X12555895Y-15671683D01*
X12570181Y-15685969D01*
X12584467Y-15714540D01*
X12584467Y-15785969D01*
X12570181Y-15814540D01*
X12555895Y-15828826D01*
X12527324Y-15843112D01*
X12455895Y-15843112D01*
X12427324Y-15828826D01*
X12413038Y-15814540D01*
X12684467Y-15543112D02*
X12884467Y-15543112D01*
X12755895Y-15843112D01*
X12984467Y-15543112D02*
X12984467Y-15600255D01*
X13098753Y-15543112D02*
X13098753Y-15600255D01*
X13541610Y-15957397D02*
X13527324Y-15943112D01*
X13498753Y-15900255D01*
X13484467Y-15871683D01*
X13470181Y-15828826D01*
X13455895Y-15757397D01*
X13455895Y-15700255D01*
X13470181Y-15628826D01*
X13484467Y-15585969D01*
X13498753Y-15557397D01*
X13527324Y-15514540D01*
X13541610Y-15500255D01*
X13798753Y-15543112D02*
X13655895Y-15543112D01*
X13641610Y-15685969D01*
X13655895Y-15671683D01*
X13684467Y-15657397D01*
X13755895Y-15657397D01*
X13784467Y-15671683D01*
X13798753Y-15685969D01*
X13813038Y-15714540D01*
X13813038Y-15785969D01*
X13798753Y-15814540D01*
X13784467Y-15828826D01*
X13755895Y-15843112D01*
X13684467Y-15843112D01*
X13655895Y-15828826D01*
X13641610Y-15814540D01*
X13984467Y-15671683D02*
X13955895Y-15657397D01*
X13941610Y-15643112D01*
X13927324Y-15614540D01*
X13927324Y-15600255D01*
X13941610Y-15571683D01*
X13955895Y-15557397D01*
X13984467Y-15543112D01*
X14041610Y-15543112D01*
X14070181Y-15557397D01*
X14084467Y-15571683D01*
X14098753Y-15600255D01*
X14098753Y-15614540D01*
X14084467Y-15643112D01*
X14070181Y-15657397D01*
X14041610Y-15671683D01*
X13984467Y-15671683D01*
X13955895Y-15685969D01*
X13941610Y-15700255D01*
X13927324Y-15728826D01*
X13927324Y-15785969D01*
X13941610Y-15814540D01*
X13955895Y-15828826D01*
X13984467Y-15843112D01*
X14041610Y-15843112D01*
X14070181Y-15828826D01*
X14084467Y-15814540D01*
X14098753Y-15785969D01*
X14098753Y-15728826D01*
X14084467Y-15700255D01*
X14070181Y-15685969D01*
X14041610Y-15671683D01*
X14455895Y-15843112D02*
X14455895Y-15543112D01*
X14584467Y-15843112D02*
X14584467Y-15685969D01*
X14570181Y-15657397D01*
X14541610Y-15643112D01*
X14498753Y-15643112D01*
X14470181Y-15657397D01*
X14455895Y-15671683D01*
X14770181Y-15843112D02*
X14741610Y-15828826D01*
X14727324Y-15814540D01*
X14713038Y-15785969D01*
X14713038Y-15700255D01*
X14727324Y-15671683D01*
X14741610Y-15657397D01*
X14770181Y-15643112D01*
X14813038Y-15643112D01*
X14841610Y-15657397D01*
X14855895Y-15671683D01*
X14870181Y-15700255D01*
X14870181Y-15785969D01*
X14855895Y-15814540D01*
X14841610Y-15828826D01*
X14813038Y-15843112D01*
X14770181Y-15843112D01*
X15041610Y-15843112D02*
X15013038Y-15828826D01*
X14998753Y-15800255D01*
X14998753Y-15543112D01*
X15270181Y-15828826D02*
X15241610Y-15843112D01*
X15184467Y-15843112D01*
X15155895Y-15828826D01*
X15141610Y-15800255D01*
X15141610Y-15685969D01*
X15155895Y-15657397D01*
X15184467Y-15643112D01*
X15241610Y-15643112D01*
X15270181Y-15657397D01*
X15284467Y-15685969D01*
X15284467Y-15714540D01*
X15141610Y-15743112D01*
X15398753Y-15828826D02*
X15427324Y-15843112D01*
X15484467Y-15843112D01*
X15513038Y-15828826D01*
X15527324Y-15800255D01*
X15527324Y-15785969D01*
X15513038Y-15757397D01*
X15484467Y-15743112D01*
X15441610Y-15743112D01*
X15413038Y-15728826D01*
X15398753Y-15700255D01*
X15398753Y-15685969D01*
X15413038Y-15657397D01*
X15441610Y-15643112D01*
X15484467Y-15643112D01*
X15513038Y-15657397D01*
X15627324Y-15957397D02*
X15641610Y-15943112D01*
X15670181Y-15900255D01*
X15684467Y-15871683D01*
X15698753Y-15828826D01*
X15713038Y-15757397D01*
X15713038Y-15700255D01*
X15698753Y-15628826D01*
X15684467Y-15585969D01*
X15670181Y-15557397D01*
X15641610Y-15514540D01*
X15627324Y-15500255D01*
X8258753Y-16078397D02*
X8258753Y-16128397D01*
X8233753Y-16103397D02*
X8283753Y-16103397D01*
X8627324Y-15939112D02*
X8655896Y-15939112D01*
X8684467Y-15953397D01*
X8698753Y-15967683D01*
X8713038Y-15996255D01*
X8727324Y-16053397D01*
X8727324Y-16124826D01*
X8713038Y-16181969D01*
X8698753Y-16210540D01*
X8684467Y-16224826D01*
X8655896Y-16239112D01*
X8627324Y-16239112D01*
X8598753Y-16224826D01*
X8584467Y-16210540D01*
X8570181Y-16181969D01*
X8555896Y-16124826D01*
X8555896Y-16053397D01*
X8570181Y-15996255D01*
X8584467Y-15967683D01*
X8598753Y-15953397D01*
X8627324Y-15939112D01*
X8855896Y-16210540D02*
X8870181Y-16224826D01*
X8855896Y-16239112D01*
X8841610Y-16224826D01*
X8855896Y-16210540D01*
X8855896Y-16239112D01*
X9141610Y-15939112D02*
X8998753Y-15939112D01*
X8984467Y-16081969D01*
X8998753Y-16067683D01*
X9027324Y-16053397D01*
X9098753Y-16053397D01*
X9127324Y-16067683D01*
X9141610Y-16081969D01*
X9155896Y-16110540D01*
X9155896Y-16181969D01*
X9141610Y-16210540D01*
X9127324Y-16224826D01*
X9098753Y-16239112D01*
X9027324Y-16239112D01*
X8998753Y-16224826D01*
X8984467Y-16210540D01*
X9341610Y-15939112D02*
X9370181Y-15939112D01*
X9398753Y-15953397D01*
X9413038Y-15967683D01*
X9427324Y-15996255D01*
X9441610Y-16053397D01*
X9441610Y-16124826D01*
X9427324Y-16181969D01*
X9413038Y-16210540D01*
X9398753Y-16224826D01*
X9370181Y-16239112D01*
X9341610Y-16239112D01*
X9313038Y-16224826D01*
X9298753Y-16210540D01*
X9284467Y-16181969D01*
X9270181Y-16124826D01*
X9270181Y-16053397D01*
X9284467Y-15996255D01*
X9298753Y-15967683D01*
X9313038Y-15953397D01*
X9341610Y-15939112D01*
X9627324Y-15939112D02*
X9655896Y-15939112D01*
X9684467Y-15953397D01*
X9698753Y-15967683D01*
X9713038Y-15996255D01*
X9727324Y-16053397D01*
X9727324Y-16124826D01*
X9713038Y-16181969D01*
X9698753Y-16210540D01*
X9684467Y-16224826D01*
X9655896Y-16239112D01*
X9627324Y-16239112D01*
X9598753Y-16224826D01*
X9584467Y-16210540D01*
X9570181Y-16181969D01*
X9555896Y-16124826D01*
X9555896Y-16053397D01*
X9570181Y-15996255D01*
X9584467Y-15967683D01*
X9598753Y-15953397D01*
X9627324Y-15939112D01*
X9855896Y-16239112D02*
X9855896Y-16039112D01*
X9855896Y-16067683D02*
X9870181Y-16053397D01*
X9898753Y-16039112D01*
X9941610Y-16039112D01*
X9970181Y-16053397D01*
X9984467Y-16081969D01*
X9984467Y-16239112D01*
X9984467Y-16081969D02*
X9998753Y-16053397D01*
X10027324Y-16039112D01*
X10070181Y-16039112D01*
X10098753Y-16053397D01*
X10113038Y-16081969D01*
X10113038Y-16239112D01*
X10255896Y-16239112D02*
X10255896Y-16039112D01*
X10255896Y-16067683D02*
X10270181Y-16053397D01*
X10298753Y-16039112D01*
X10341610Y-16039112D01*
X10370181Y-16053397D01*
X10384467Y-16081969D01*
X10384467Y-16239112D01*
X10384467Y-16081969D02*
X10398753Y-16053397D01*
X10427324Y-16039112D01*
X10470181Y-16039112D01*
X10498753Y-16053397D01*
X10513038Y-16081969D01*
X10513038Y-16239112D01*
X11098753Y-15924826D02*
X10841610Y-16310540D01*
X11484467Y-15939112D02*
X11513038Y-15939112D01*
X11541610Y-15953397D01*
X11555895Y-15967683D01*
X11570181Y-15996255D01*
X11584467Y-16053397D01*
X11584467Y-16124826D01*
X11570181Y-16181969D01*
X11555895Y-16210540D01*
X11541610Y-16224826D01*
X11513038Y-16239112D01*
X11484467Y-16239112D01*
X11455895Y-16224826D01*
X11441610Y-16210540D01*
X11427324Y-16181969D01*
X11413038Y-16124826D01*
X11413038Y-16053397D01*
X11427324Y-15996255D01*
X11441610Y-15967683D01*
X11455895Y-15953397D01*
X11484467Y-15939112D01*
X11713038Y-16210540D02*
X11727324Y-16224826D01*
X11713038Y-16239112D01*
X11698753Y-16224826D01*
X11713038Y-16210540D01*
X11713038Y-16239112D01*
X11913038Y-15939112D02*
X11941610Y-15939112D01*
X11970181Y-15953397D01*
X11984467Y-15967683D01*
X11998753Y-15996255D01*
X12013038Y-16053397D01*
X12013038Y-16124826D01*
X11998753Y-16181969D01*
X11984467Y-16210540D01*
X11970181Y-16224826D01*
X11941610Y-16239112D01*
X11913038Y-16239112D01*
X11884467Y-16224826D01*
X11870181Y-16210540D01*
X11855895Y-16181969D01*
X11841610Y-16124826D01*
X11841610Y-16053397D01*
X11855895Y-15996255D01*
X11870181Y-15967683D01*
X11884467Y-15953397D01*
X11913038Y-15939112D01*
X12298753Y-16239112D02*
X12127324Y-16239112D01*
X12213038Y-16239112D02*
X12213038Y-15939112D01*
X12184467Y-15981969D01*
X12155895Y-16010540D01*
X12127324Y-16024826D01*
X12441610Y-16239112D02*
X12498753Y-16239112D01*
X12527324Y-16224826D01*
X12541610Y-16210540D01*
X12570181Y-16167683D01*
X12584467Y-16110540D01*
X12584467Y-15996255D01*
X12570181Y-15967683D01*
X12555895Y-15953397D01*
X12527324Y-15939112D01*
X12470181Y-15939112D01*
X12441610Y-15953397D01*
X12427324Y-15967683D01*
X12413038Y-15996255D01*
X12413038Y-16067683D01*
X12427324Y-16096255D01*
X12441610Y-16110540D01*
X12470181Y-16124826D01*
X12527324Y-16124826D01*
X12555895Y-16110540D01*
X12570181Y-16096255D01*
X12584467Y-16067683D01*
X12684467Y-15939112D02*
X12884467Y-15939112D01*
X12755895Y-16239112D01*
X12984467Y-15939112D02*
X12984467Y-15996255D01*
X13098753Y-15939112D02*
X13098753Y-15996255D01*
X13541610Y-16353397D02*
X13527324Y-16339112D01*
X13498753Y-16296255D01*
X13484467Y-16267683D01*
X13470181Y-16224826D01*
X13455895Y-16153397D01*
X13455895Y-16096255D01*
X13470181Y-16024826D01*
X13484467Y-15981969D01*
X13498753Y-15953397D01*
X13527324Y-15910540D01*
X13541610Y-15896255D01*
X13713038Y-15939112D02*
X13741610Y-15939112D01*
X13770181Y-15953397D01*
X13784467Y-15967683D01*
X13798753Y-15996255D01*
X13813038Y-16053397D01*
X13813038Y-16124826D01*
X13798753Y-16181969D01*
X13784467Y-16210540D01*
X13770181Y-16224826D01*
X13741610Y-16239112D01*
X13713038Y-16239112D01*
X13684467Y-16224826D01*
X13670181Y-16210540D01*
X13655895Y-16181969D01*
X13641610Y-16124826D01*
X13641610Y-16053397D01*
X13655895Y-15996255D01*
X13670181Y-15967683D01*
X13684467Y-15953397D01*
X13713038Y-15939112D01*
X14170181Y-16239112D02*
X14170181Y-15939112D01*
X14298753Y-16239112D02*
X14298753Y-16081969D01*
X14284467Y-16053397D01*
X14255895Y-16039112D01*
X14213038Y-16039112D01*
X14184467Y-16053397D01*
X14170181Y-16067683D01*
X14484467Y-16239112D02*
X14455895Y-16224826D01*
X14441610Y-16210540D01*
X14427324Y-16181969D01*
X14427324Y-16096255D01*
X14441610Y-16067683D01*
X14455895Y-16053397D01*
X14484467Y-16039112D01*
X14527324Y-16039112D01*
X14555895Y-16053397D01*
X14570181Y-16067683D01*
X14584467Y-16096255D01*
X14584467Y-16181969D01*
X14570181Y-16210540D01*
X14555895Y-16224826D01*
X14527324Y-16239112D01*
X14484467Y-16239112D01*
X14755895Y-16239112D02*
X14727324Y-16224826D01*
X14713038Y-16196255D01*
X14713038Y-15939112D01*
X14984467Y-16224826D02*
X14955895Y-16239112D01*
X14898753Y-16239112D01*
X14870181Y-16224826D01*
X14855895Y-16196255D01*
X14855895Y-16081969D01*
X14870181Y-16053397D01*
X14898753Y-16039112D01*
X14955895Y-16039112D01*
X14984467Y-16053397D01*
X14998753Y-16081969D01*
X14998753Y-16110540D01*
X14855895Y-16139112D01*
X15113038Y-16224826D02*
X15141610Y-16239112D01*
X15198753Y-16239112D01*
X15227324Y-16224826D01*
X15241610Y-16196255D01*
X15241610Y-16181969D01*
X15227324Y-16153397D01*
X15198753Y-16139112D01*
X15155895Y-16139112D01*
X15127324Y-16124826D01*
X15113038Y-16096255D01*
X15113038Y-16081969D01*
X15127324Y-16053397D01*
X15155895Y-16039112D01*
X15198753Y-16039112D01*
X15227324Y-16053397D01*
X15598753Y-16124826D02*
X15827324Y-16124826D01*
X15713038Y-16239112D02*
X15713038Y-16010540D01*
X16241610Y-16067683D02*
X16213038Y-16053397D01*
X16198753Y-16039112D01*
X16184467Y-16010540D01*
X16184467Y-15996255D01*
X16198753Y-15967683D01*
X16213038Y-15953397D01*
X16241610Y-15939112D01*
X16298753Y-15939112D01*
X16327324Y-15953397D01*
X16341610Y-15967683D01*
X16355895Y-15996255D01*
X16355895Y-16010540D01*
X16341610Y-16039112D01*
X16327324Y-16053397D01*
X16298753Y-16067683D01*
X16241610Y-16067683D01*
X16213038Y-16081969D01*
X16198753Y-16096255D01*
X16184467Y-16124826D01*
X16184467Y-16181969D01*
X16198753Y-16210540D01*
X16213038Y-16224826D01*
X16241610Y-16239112D01*
X16298753Y-16239112D01*
X16327324Y-16224826D01*
X16341610Y-16210540D01*
X16355895Y-16181969D01*
X16355895Y-16124826D01*
X16341610Y-16096255D01*
X16327324Y-16081969D01*
X16298753Y-16067683D01*
X16698753Y-16224826D02*
X16727324Y-16239112D01*
X16784467Y-16239112D01*
X16813038Y-16224826D01*
X16827324Y-16196255D01*
X16827324Y-16181969D01*
X16813038Y-16153397D01*
X16784467Y-16139112D01*
X16741610Y-16139112D01*
X16713038Y-16124826D01*
X16698753Y-16096255D01*
X16698753Y-16081969D01*
X16713038Y-16053397D01*
X16741610Y-16039112D01*
X16784467Y-16039112D01*
X16813038Y-16053397D01*
X16998753Y-16239112D02*
X16970181Y-16224826D01*
X16955896Y-16196255D01*
X16955896Y-15939112D01*
X17155896Y-16239112D02*
X17127324Y-16224826D01*
X17113038Y-16210540D01*
X17098753Y-16181969D01*
X17098753Y-16096255D01*
X17113038Y-16067683D01*
X17127324Y-16053397D01*
X17155896Y-16039112D01*
X17198753Y-16039112D01*
X17227324Y-16053397D01*
X17241610Y-16067683D01*
X17255896Y-16096255D01*
X17255896Y-16181969D01*
X17241610Y-16210540D01*
X17227324Y-16224826D01*
X17198753Y-16239112D01*
X17155896Y-16239112D01*
X17341610Y-16039112D02*
X17455896Y-16039112D01*
X17384467Y-15939112D02*
X17384467Y-16196255D01*
X17398753Y-16224826D01*
X17427324Y-16239112D01*
X17455896Y-16239112D01*
X17541610Y-16224826D02*
X17570181Y-16239112D01*
X17627324Y-16239112D01*
X17655896Y-16224826D01*
X17670181Y-16196255D01*
X17670181Y-16181969D01*
X17655896Y-16153397D01*
X17627324Y-16139112D01*
X17584467Y-16139112D01*
X17555896Y-16124826D01*
X17541610Y-16096255D01*
X17541610Y-16081969D01*
X17555896Y-16053397D01*
X17584467Y-16039112D01*
X17627324Y-16039112D01*
X17655896Y-16053397D01*
X17770181Y-16353397D02*
X17784467Y-16339112D01*
X17813038Y-16296255D01*
X17827324Y-16267683D01*
X17841610Y-16224826D01*
X17855896Y-16153397D01*
X17855896Y-16096255D01*
X17841610Y-16024826D01*
X17827324Y-15981969D01*
X17813038Y-15953397D01*
X17784467Y-15910540D01*
X17770181Y-15896255D01*
X8271850Y-16528135D02*
X8271850Y-16470660D01*
X8214376Y-16470660D01*
X8214376Y-16528135D01*
X8271850Y-16528135D01*
X8627324Y-16335112D02*
X8655896Y-16335112D01*
X8684467Y-16349397D01*
X8698753Y-16363683D01*
X8713038Y-16392255D01*
X8727324Y-16449397D01*
X8727324Y-16520826D01*
X8713038Y-16577969D01*
X8698753Y-16606540D01*
X8684467Y-16620826D01*
X8655896Y-16635112D01*
X8627324Y-16635112D01*
X8598753Y-16620826D01*
X8584467Y-16606540D01*
X8570181Y-16577969D01*
X8555896Y-16520826D01*
X8555896Y-16449397D01*
X8570181Y-16392255D01*
X8584467Y-16363683D01*
X8598753Y-16349397D01*
X8627324Y-16335112D01*
X8855896Y-16606540D02*
X8870181Y-16620826D01*
X8855896Y-16635112D01*
X8841610Y-16620826D01*
X8855896Y-16606540D01*
X8855896Y-16635112D01*
X9041610Y-16463683D02*
X9013038Y-16449397D01*
X8998753Y-16435112D01*
X8984467Y-16406540D01*
X8984467Y-16392255D01*
X8998753Y-16363683D01*
X9013038Y-16349397D01*
X9041610Y-16335112D01*
X9098753Y-16335112D01*
X9127324Y-16349397D01*
X9141610Y-16363683D01*
X9155896Y-16392255D01*
X9155896Y-16406540D01*
X9141610Y-16435112D01*
X9127324Y-16449397D01*
X9098753Y-16463683D01*
X9041610Y-16463683D01*
X9013038Y-16477969D01*
X8998753Y-16492255D01*
X8984467Y-16520826D01*
X8984467Y-16577969D01*
X8998753Y-16606540D01*
X9013038Y-16620826D01*
X9041610Y-16635112D01*
X9098753Y-16635112D01*
X9127324Y-16620826D01*
X9141610Y-16606540D01*
X9155896Y-16577969D01*
X9155896Y-16520826D01*
X9141610Y-16492255D01*
X9127324Y-16477969D01*
X9098753Y-16463683D01*
X9441610Y-16635112D02*
X9270181Y-16635112D01*
X9355896Y-16635112D02*
X9355896Y-16335112D01*
X9327324Y-16377969D01*
X9298753Y-16406540D01*
X9270181Y-16420826D01*
X9541610Y-16335112D02*
X9727324Y-16335112D01*
X9627324Y-16449397D01*
X9670181Y-16449397D01*
X9698753Y-16463683D01*
X9713038Y-16477969D01*
X9727324Y-16506540D01*
X9727324Y-16577969D01*
X9713038Y-16606540D01*
X9698753Y-16620826D01*
X9670181Y-16635112D01*
X9584467Y-16635112D01*
X9555896Y-16620826D01*
X9541610Y-16606540D01*
X9855896Y-16635112D02*
X9855896Y-16435112D01*
X9855896Y-16463683D02*
X9870181Y-16449397D01*
X9898753Y-16435112D01*
X9941610Y-16435112D01*
X9970181Y-16449397D01*
X9984467Y-16477969D01*
X9984467Y-16635112D01*
X9984467Y-16477969D02*
X9998753Y-16449397D01*
X10027324Y-16435112D01*
X10070181Y-16435112D01*
X10098753Y-16449397D01*
X10113038Y-16477969D01*
X10113038Y-16635112D01*
X10255896Y-16635112D02*
X10255896Y-16435112D01*
X10255896Y-16463683D02*
X10270181Y-16449397D01*
X10298753Y-16435112D01*
X10341610Y-16435112D01*
X10370181Y-16449397D01*
X10384467Y-16477969D01*
X10384467Y-16635112D01*
X10384467Y-16477969D02*
X10398753Y-16449397D01*
X10427324Y-16435112D01*
X10470181Y-16435112D01*
X10498753Y-16449397D01*
X10513038Y-16477969D01*
X10513038Y-16635112D01*
X11098753Y-16320826D02*
X10841610Y-16706540D01*
X11484467Y-16335112D02*
X11513038Y-16335112D01*
X11541610Y-16349397D01*
X11555895Y-16363683D01*
X11570181Y-16392255D01*
X11584467Y-16449397D01*
X11584467Y-16520826D01*
X11570181Y-16577969D01*
X11555895Y-16606540D01*
X11541610Y-16620826D01*
X11513038Y-16635112D01*
X11484467Y-16635112D01*
X11455895Y-16620826D01*
X11441610Y-16606540D01*
X11427324Y-16577969D01*
X11413038Y-16520826D01*
X11413038Y-16449397D01*
X11427324Y-16392255D01*
X11441610Y-16363683D01*
X11455895Y-16349397D01*
X11484467Y-16335112D01*
X11713038Y-16606540D02*
X11727324Y-16620826D01*
X11713038Y-16635112D01*
X11698753Y-16620826D01*
X11713038Y-16606540D01*
X11713038Y-16635112D01*
X11913038Y-16335112D02*
X11941610Y-16335112D01*
X11970181Y-16349397D01*
X11984467Y-16363683D01*
X11998753Y-16392255D01*
X12013038Y-16449397D01*
X12013038Y-16520826D01*
X11998753Y-16577969D01*
X11984467Y-16606540D01*
X11970181Y-16620826D01*
X11941610Y-16635112D01*
X11913038Y-16635112D01*
X11884467Y-16620826D01*
X11870181Y-16606540D01*
X11855895Y-16577969D01*
X11841610Y-16520826D01*
X11841610Y-16449397D01*
X11855895Y-16392255D01*
X11870181Y-16363683D01*
X11884467Y-16349397D01*
X11913038Y-16335112D01*
X12113038Y-16335112D02*
X12298753Y-16335112D01*
X12198753Y-16449397D01*
X12241610Y-16449397D01*
X12270181Y-16463683D01*
X12284467Y-16477969D01*
X12298753Y-16506540D01*
X12298753Y-16577969D01*
X12284467Y-16606540D01*
X12270181Y-16620826D01*
X12241610Y-16635112D01*
X12155895Y-16635112D01*
X12127324Y-16620826D01*
X12113038Y-16606540D01*
X12413038Y-16363683D02*
X12427324Y-16349397D01*
X12455895Y-16335112D01*
X12527324Y-16335112D01*
X12555895Y-16349397D01*
X12570181Y-16363683D01*
X12584467Y-16392255D01*
X12584467Y-16420826D01*
X12570181Y-16463683D01*
X12398753Y-16635112D01*
X12584467Y-16635112D01*
X12770181Y-16335112D02*
X12798753Y-16335112D01*
X12827324Y-16349397D01*
X12841610Y-16363683D01*
X12855895Y-16392255D01*
X12870181Y-16449397D01*
X12870181Y-16520826D01*
X12855895Y-16577969D01*
X12841610Y-16606540D01*
X12827324Y-16620826D01*
X12798753Y-16635112D01*
X12770181Y-16635112D01*
X12741610Y-16620826D01*
X12727324Y-16606540D01*
X12713038Y-16577969D01*
X12698753Y-16520826D01*
X12698753Y-16449397D01*
X12713038Y-16392255D01*
X12727324Y-16363683D01*
X12741610Y-16349397D01*
X12770181Y-16335112D01*
X12984467Y-16335112D02*
X12984467Y-16392255D01*
X13098753Y-16335112D02*
X13098753Y-16392255D01*
X13541610Y-16749397D02*
X13527324Y-16735112D01*
X13498753Y-16692255D01*
X13484467Y-16663683D01*
X13470181Y-16620826D01*
X13455895Y-16549397D01*
X13455895Y-16492255D01*
X13470181Y-16420826D01*
X13484467Y-16377969D01*
X13498753Y-16349397D01*
X13527324Y-16306540D01*
X13541610Y-16292255D01*
X13798753Y-16335112D02*
X13655895Y-16335112D01*
X13641610Y-16477969D01*
X13655895Y-16463683D01*
X13684467Y-16449397D01*
X13755895Y-16449397D01*
X13784467Y-16463683D01*
X13798753Y-16477969D01*
X13813038Y-16506540D01*
X13813038Y-16577969D01*
X13798753Y-16606540D01*
X13784467Y-16620826D01*
X13755895Y-16635112D01*
X13684467Y-16635112D01*
X13655895Y-16620826D01*
X13641610Y-16606540D01*
X13984467Y-16463683D02*
X13955895Y-16449397D01*
X13941610Y-16435112D01*
X13927324Y-16406540D01*
X13927324Y-16392255D01*
X13941610Y-16363683D01*
X13955895Y-16349397D01*
X13984467Y-16335112D01*
X14041610Y-16335112D01*
X14070181Y-16349397D01*
X14084467Y-16363683D01*
X14098753Y-16392255D01*
X14098753Y-16406540D01*
X14084467Y-16435112D01*
X14070181Y-16449397D01*
X14041610Y-16463683D01*
X13984467Y-16463683D01*
X13955895Y-16477969D01*
X13941610Y-16492255D01*
X13927324Y-16520826D01*
X13927324Y-16577969D01*
X13941610Y-16606540D01*
X13955895Y-16620826D01*
X13984467Y-16635112D01*
X14041610Y-16635112D01*
X14070181Y-16620826D01*
X14084467Y-16606540D01*
X14098753Y-16577969D01*
X14098753Y-16520826D01*
X14084467Y-16492255D01*
X14070181Y-16477969D01*
X14041610Y-16463683D01*
X14455895Y-16635112D02*
X14455895Y-16335112D01*
X14584467Y-16635112D02*
X14584467Y-16477969D01*
X14570181Y-16449397D01*
X14541610Y-16435112D01*
X14498753Y-16435112D01*
X14470181Y-16449397D01*
X14455895Y-16463683D01*
X14770181Y-16635112D02*
X14741610Y-16620826D01*
X14727324Y-16606540D01*
X14713038Y-16577969D01*
X14713038Y-16492255D01*
X14727324Y-16463683D01*
X14741610Y-16449397D01*
X14770181Y-16435112D01*
X14813038Y-16435112D01*
X14841610Y-16449397D01*
X14855895Y-16463683D01*
X14870181Y-16492255D01*
X14870181Y-16577969D01*
X14855895Y-16606540D01*
X14841610Y-16620826D01*
X14813038Y-16635112D01*
X14770181Y-16635112D01*
X15041610Y-16635112D02*
X15013038Y-16620826D01*
X14998753Y-16592255D01*
X14998753Y-16335112D01*
X15270181Y-16620826D02*
X15241610Y-16635112D01*
X15184467Y-16635112D01*
X15155895Y-16620826D01*
X15141610Y-16592255D01*
X15141610Y-16477969D01*
X15155895Y-16449397D01*
X15184467Y-16435112D01*
X15241610Y-16435112D01*
X15270181Y-16449397D01*
X15284467Y-16477969D01*
X15284467Y-16506540D01*
X15141610Y-16535112D01*
X15398753Y-16620826D02*
X15427324Y-16635112D01*
X15484467Y-16635112D01*
X15513038Y-16620826D01*
X15527324Y-16592255D01*
X15527324Y-16577969D01*
X15513038Y-16549397D01*
X15484467Y-16535112D01*
X15441610Y-16535112D01*
X15413038Y-16520826D01*
X15398753Y-16492255D01*
X15398753Y-16477969D01*
X15413038Y-16449397D01*
X15441610Y-16435112D01*
X15484467Y-16435112D01*
X15513038Y-16449397D01*
X15627324Y-16749397D02*
X15641610Y-16735112D01*
X15670181Y-16692255D01*
X15684467Y-16663683D01*
X15698753Y-16620826D01*
X15713038Y-16549397D01*
X15713038Y-16492255D01*
X15698753Y-16420826D01*
X15684467Y-16377969D01*
X15670181Y-16349397D01*
X15641610Y-16306540D01*
X15627324Y-16292255D01*
X8233753Y-16945398D02*
X8283753Y-16895398D01*
X8233753Y-16845398D01*
X8183753Y-16895398D01*
X8233753Y-16945398D01*
X8727324Y-17031112D02*
X8555896Y-17031112D01*
X8641610Y-17031112D02*
X8641610Y-16731112D01*
X8613038Y-16773969D01*
X8584467Y-16802540D01*
X8555896Y-16816826D01*
X8855896Y-17002540D02*
X8870181Y-17016826D01*
X8855896Y-17031112D01*
X8841610Y-17016826D01*
X8855896Y-17002540D01*
X8855896Y-17031112D01*
X9055896Y-16731112D02*
X9084467Y-16731112D01*
X9113038Y-16745397D01*
X9127324Y-16759683D01*
X9141610Y-16788255D01*
X9155896Y-16845398D01*
X9155896Y-16916826D01*
X9141610Y-16973969D01*
X9127324Y-17002540D01*
X9113038Y-17016826D01*
X9084467Y-17031112D01*
X9055896Y-17031112D01*
X9027324Y-17016826D01*
X9013038Y-17002540D01*
X8998753Y-16973969D01*
X8984467Y-16916826D01*
X8984467Y-16845398D01*
X8998753Y-16788255D01*
X9013038Y-16759683D01*
X9027324Y-16745397D01*
X9055896Y-16731112D01*
X9341610Y-16731112D02*
X9370181Y-16731112D01*
X9398753Y-16745397D01*
X9413038Y-16759683D01*
X9427324Y-16788255D01*
X9441610Y-16845398D01*
X9441610Y-16916826D01*
X9427324Y-16973969D01*
X9413038Y-17002540D01*
X9398753Y-17016826D01*
X9370181Y-17031112D01*
X9341610Y-17031112D01*
X9313038Y-17016826D01*
X9298753Y-17002540D01*
X9284467Y-16973969D01*
X9270181Y-16916826D01*
X9270181Y-16845398D01*
X9284467Y-16788255D01*
X9298753Y-16759683D01*
X9313038Y-16745397D01*
X9341610Y-16731112D01*
X9627324Y-16731112D02*
X9655896Y-16731112D01*
X9684467Y-16745397D01*
X9698753Y-16759683D01*
X9713038Y-16788255D01*
X9727324Y-16845398D01*
X9727324Y-16916826D01*
X9713038Y-16973969D01*
X9698753Y-17002540D01*
X9684467Y-17016826D01*
X9655896Y-17031112D01*
X9627324Y-17031112D01*
X9598753Y-17016826D01*
X9584467Y-17002540D01*
X9570181Y-16973969D01*
X9555896Y-16916826D01*
X9555896Y-16845398D01*
X9570181Y-16788255D01*
X9584467Y-16759683D01*
X9598753Y-16745397D01*
X9627324Y-16731112D01*
X9855896Y-17031112D02*
X9855896Y-16831112D01*
X9855896Y-16859683D02*
X9870181Y-16845398D01*
X9898753Y-16831112D01*
X9941610Y-16831112D01*
X9970181Y-16845398D01*
X9984467Y-16873969D01*
X9984467Y-17031112D01*
X9984467Y-16873969D02*
X9998753Y-16845398D01*
X10027324Y-16831112D01*
X10070181Y-16831112D01*
X10098753Y-16845398D01*
X10113038Y-16873969D01*
X10113038Y-17031112D01*
X10255896Y-17031112D02*
X10255896Y-16831112D01*
X10255896Y-16859683D02*
X10270181Y-16845398D01*
X10298753Y-16831112D01*
X10341610Y-16831112D01*
X10370181Y-16845398D01*
X10384467Y-16873969D01*
X10384467Y-17031112D01*
X10384467Y-16873969D02*
X10398753Y-16845398D01*
X10427324Y-16831112D01*
X10470181Y-16831112D01*
X10498753Y-16845398D01*
X10513038Y-16873969D01*
X10513038Y-17031112D01*
X11098753Y-16716826D02*
X10841610Y-17102540D01*
X11484467Y-16731112D02*
X11513038Y-16731112D01*
X11541610Y-16745397D01*
X11555895Y-16759683D01*
X11570181Y-16788255D01*
X11584467Y-16845398D01*
X11584467Y-16916826D01*
X11570181Y-16973969D01*
X11555895Y-17002540D01*
X11541610Y-17016826D01*
X11513038Y-17031112D01*
X11484467Y-17031112D01*
X11455895Y-17016826D01*
X11441610Y-17002540D01*
X11427324Y-16973969D01*
X11413038Y-16916826D01*
X11413038Y-16845398D01*
X11427324Y-16788255D01*
X11441610Y-16759683D01*
X11455895Y-16745397D01*
X11484467Y-16731112D01*
X11713038Y-17002540D02*
X11727324Y-17016826D01*
X11713038Y-17031112D01*
X11698753Y-17016826D01*
X11713038Y-17002540D01*
X11713038Y-17031112D01*
X11913038Y-16731112D02*
X11941610Y-16731112D01*
X11970181Y-16745397D01*
X11984467Y-16759683D01*
X11998753Y-16788255D01*
X12013038Y-16845398D01*
X12013038Y-16916826D01*
X11998753Y-16973969D01*
X11984467Y-17002540D01*
X11970181Y-17016826D01*
X11941610Y-17031112D01*
X11913038Y-17031112D01*
X11884467Y-17016826D01*
X11870181Y-17002540D01*
X11855895Y-16973969D01*
X11841610Y-16916826D01*
X11841610Y-16845398D01*
X11855895Y-16788255D01*
X11870181Y-16759683D01*
X11884467Y-16745397D01*
X11913038Y-16731112D01*
X12113038Y-16731112D02*
X12298753Y-16731112D01*
X12198753Y-16845398D01*
X12241610Y-16845398D01*
X12270181Y-16859683D01*
X12284467Y-16873969D01*
X12298753Y-16902540D01*
X12298753Y-16973969D01*
X12284467Y-17002540D01*
X12270181Y-17016826D01*
X12241610Y-17031112D01*
X12155895Y-17031112D01*
X12127324Y-17016826D01*
X12113038Y-17002540D01*
X12441610Y-17031112D02*
X12498753Y-17031112D01*
X12527324Y-17016826D01*
X12541610Y-17002540D01*
X12570181Y-16959683D01*
X12584467Y-16902540D01*
X12584467Y-16788255D01*
X12570181Y-16759683D01*
X12555895Y-16745397D01*
X12527324Y-16731112D01*
X12470181Y-16731112D01*
X12441610Y-16745397D01*
X12427324Y-16759683D01*
X12413038Y-16788255D01*
X12413038Y-16859683D01*
X12427324Y-16888255D01*
X12441610Y-16902540D01*
X12470181Y-16916826D01*
X12527324Y-16916826D01*
X12555895Y-16902540D01*
X12570181Y-16888255D01*
X12584467Y-16859683D01*
X12841610Y-16831112D02*
X12841610Y-17031112D01*
X12770181Y-16716826D02*
X12698753Y-16931112D01*
X12884467Y-16931112D01*
X12984467Y-16731112D02*
X12984467Y-16788255D01*
X13098753Y-16731112D02*
X13098753Y-16788255D01*
X13541610Y-17145398D02*
X13527324Y-17131112D01*
X13498753Y-17088255D01*
X13484467Y-17059683D01*
X13470181Y-17016826D01*
X13455895Y-16945398D01*
X13455895Y-16888255D01*
X13470181Y-16816826D01*
X13484467Y-16773969D01*
X13498753Y-16745397D01*
X13527324Y-16702540D01*
X13541610Y-16688255D01*
X13698753Y-16859683D02*
X13670181Y-16845398D01*
X13655895Y-16831112D01*
X13641610Y-16802540D01*
X13641610Y-16788255D01*
X13655895Y-16759683D01*
X13670181Y-16745397D01*
X13698753Y-16731112D01*
X13755895Y-16731112D01*
X13784467Y-16745397D01*
X13798753Y-16759683D01*
X13813038Y-16788255D01*
X13813038Y-16802540D01*
X13798753Y-16831112D01*
X13784467Y-16845398D01*
X13755895Y-16859683D01*
X13698753Y-16859683D01*
X13670181Y-16873969D01*
X13655895Y-16888255D01*
X13641610Y-16916826D01*
X13641610Y-16973969D01*
X13655895Y-17002540D01*
X13670181Y-17016826D01*
X13698753Y-17031112D01*
X13755895Y-17031112D01*
X13784467Y-17016826D01*
X13798753Y-17002540D01*
X13813038Y-16973969D01*
X13813038Y-16916826D01*
X13798753Y-16888255D01*
X13784467Y-16873969D01*
X13755895Y-16859683D01*
X14170181Y-17031112D02*
X14170181Y-16731112D01*
X14298753Y-17031112D02*
X14298753Y-16873969D01*
X14284467Y-16845398D01*
X14255895Y-16831112D01*
X14213038Y-16831112D01*
X14184467Y-16845398D01*
X14170181Y-16859683D01*
X14484467Y-17031112D02*
X14455895Y-17016826D01*
X14441610Y-17002540D01*
X14427324Y-16973969D01*
X14427324Y-16888255D01*
X14441610Y-16859683D01*
X14455895Y-16845398D01*
X14484467Y-16831112D01*
X14527324Y-16831112D01*
X14555895Y-16845398D01*
X14570181Y-16859683D01*
X14584467Y-16888255D01*
X14584467Y-16973969D01*
X14570181Y-17002540D01*
X14555895Y-17016826D01*
X14527324Y-17031112D01*
X14484467Y-17031112D01*
X14755895Y-17031112D02*
X14727324Y-17016826D01*
X14713038Y-16988255D01*
X14713038Y-16731112D01*
X14984467Y-17016826D02*
X14955895Y-17031112D01*
X14898753Y-17031112D01*
X14870181Y-17016826D01*
X14855895Y-16988255D01*
X14855895Y-16873969D01*
X14870181Y-16845398D01*
X14898753Y-16831112D01*
X14955895Y-16831112D01*
X14984467Y-16845398D01*
X14998753Y-16873969D01*
X14998753Y-16902540D01*
X14855895Y-16931112D01*
X15113038Y-17016826D02*
X15141610Y-17031112D01*
X15198753Y-17031112D01*
X15227324Y-17016826D01*
X15241610Y-16988255D01*
X15241610Y-16973969D01*
X15227324Y-16945398D01*
X15198753Y-16931112D01*
X15155895Y-16931112D01*
X15127324Y-16916826D01*
X15113038Y-16888255D01*
X15113038Y-16873969D01*
X15127324Y-16845398D01*
X15155895Y-16831112D01*
X15198753Y-16831112D01*
X15227324Y-16845398D01*
X15341610Y-17145398D02*
X15355895Y-17131112D01*
X15384467Y-17088255D01*
X15398753Y-17059683D01*
X15413038Y-17016826D01*
X15427324Y-16945398D01*
X15427324Y-16888255D01*
X15413038Y-16816826D01*
X15398753Y-16773969D01*
X15384467Y-16745397D01*
X15355895Y-16702540D01*
X15341610Y-16688255D01*
X8153753Y-17226398D02*
X8283753Y-17356398D01*
X8283753Y-17226398D02*
X8153753Y-17356398D01*
X8283753Y-17291398D02*
G75*
G03*
X8283753Y-17291398I-65000J0D01*
G01*
X8727324Y-17427112D02*
X8555896Y-17427112D01*
X8641610Y-17427112D02*
X8641610Y-17127112D01*
X8613038Y-17169969D01*
X8584467Y-17198540D01*
X8555896Y-17212826D01*
X8855896Y-17398540D02*
X8870181Y-17412826D01*
X8855896Y-17427112D01*
X8841610Y-17412826D01*
X8855896Y-17398540D01*
X8855896Y-17427112D01*
X8970181Y-17127112D02*
X9155896Y-17127112D01*
X9055896Y-17241398D01*
X9098753Y-17241398D01*
X9127324Y-17255683D01*
X9141610Y-17269969D01*
X9155896Y-17298540D01*
X9155896Y-17369969D01*
X9141610Y-17398540D01*
X9127324Y-17412826D01*
X9098753Y-17427112D01*
X9013038Y-17427112D01*
X8984467Y-17412826D01*
X8970181Y-17398540D01*
X9341610Y-17127112D02*
X9370181Y-17127112D01*
X9398753Y-17141398D01*
X9413038Y-17155683D01*
X9427324Y-17184255D01*
X9441610Y-17241398D01*
X9441610Y-17312826D01*
X9427324Y-17369969D01*
X9413038Y-17398540D01*
X9398753Y-17412826D01*
X9370181Y-17427112D01*
X9341610Y-17427112D01*
X9313038Y-17412826D01*
X9298753Y-17398540D01*
X9284467Y-17369969D01*
X9270181Y-17312826D01*
X9270181Y-17241398D01*
X9284467Y-17184255D01*
X9298753Y-17155683D01*
X9313038Y-17141398D01*
X9341610Y-17127112D01*
X9627324Y-17127112D02*
X9655896Y-17127112D01*
X9684467Y-17141398D01*
X9698753Y-17155683D01*
X9713038Y-17184255D01*
X9727324Y-17241398D01*
X9727324Y-17312826D01*
X9713038Y-17369969D01*
X9698753Y-17398540D01*
X9684467Y-17412826D01*
X9655896Y-17427112D01*
X9627324Y-17427112D01*
X9598753Y-17412826D01*
X9584467Y-17398540D01*
X9570181Y-17369969D01*
X9555896Y-17312826D01*
X9555896Y-17241398D01*
X9570181Y-17184255D01*
X9584467Y-17155683D01*
X9598753Y-17141398D01*
X9627324Y-17127112D01*
X9855896Y-17427112D02*
X9855896Y-17227112D01*
X9855896Y-17255683D02*
X9870181Y-17241398D01*
X9898753Y-17227112D01*
X9941610Y-17227112D01*
X9970181Y-17241398D01*
X9984467Y-17269969D01*
X9984467Y-17427112D01*
X9984467Y-17269969D02*
X9998753Y-17241398D01*
X10027324Y-17227112D01*
X10070181Y-17227112D01*
X10098753Y-17241398D01*
X10113038Y-17269969D01*
X10113038Y-17427112D01*
X10255896Y-17427112D02*
X10255896Y-17227112D01*
X10255896Y-17255683D02*
X10270181Y-17241398D01*
X10298753Y-17227112D01*
X10341610Y-17227112D01*
X10370181Y-17241398D01*
X10384467Y-17269969D01*
X10384467Y-17427112D01*
X10384467Y-17269969D02*
X10398753Y-17241398D01*
X10427324Y-17227112D01*
X10470181Y-17227112D01*
X10498753Y-17241398D01*
X10513038Y-17269969D01*
X10513038Y-17427112D01*
X11098753Y-17112826D02*
X10841610Y-17498540D01*
X11484467Y-17127112D02*
X11513038Y-17127112D01*
X11541610Y-17141398D01*
X11555895Y-17155683D01*
X11570181Y-17184255D01*
X11584467Y-17241398D01*
X11584467Y-17312826D01*
X11570181Y-17369969D01*
X11555895Y-17398540D01*
X11541610Y-17412826D01*
X11513038Y-17427112D01*
X11484467Y-17427112D01*
X11455895Y-17412826D01*
X11441610Y-17398540D01*
X11427324Y-17369969D01*
X11413038Y-17312826D01*
X11413038Y-17241398D01*
X11427324Y-17184255D01*
X11441610Y-17155683D01*
X11455895Y-17141398D01*
X11484467Y-17127112D01*
X11713038Y-17398540D02*
X11727324Y-17412826D01*
X11713038Y-17427112D01*
X11698753Y-17412826D01*
X11713038Y-17398540D01*
X11713038Y-17427112D01*
X11913038Y-17127112D02*
X11941610Y-17127112D01*
X11970181Y-17141398D01*
X11984467Y-17155683D01*
X11998753Y-17184255D01*
X12013038Y-17241398D01*
X12013038Y-17312826D01*
X11998753Y-17369969D01*
X11984467Y-17398540D01*
X11970181Y-17412826D01*
X11941610Y-17427112D01*
X11913038Y-17427112D01*
X11884467Y-17412826D01*
X11870181Y-17398540D01*
X11855895Y-17369969D01*
X11841610Y-17312826D01*
X11841610Y-17241398D01*
X11855895Y-17184255D01*
X11870181Y-17155683D01*
X11884467Y-17141398D01*
X11913038Y-17127112D01*
X12284467Y-17127112D02*
X12141610Y-17127112D01*
X12127324Y-17269969D01*
X12141610Y-17255683D01*
X12170181Y-17241398D01*
X12241610Y-17241398D01*
X12270181Y-17255683D01*
X12284467Y-17269969D01*
X12298753Y-17298540D01*
X12298753Y-17369969D01*
X12284467Y-17398540D01*
X12270181Y-17412826D01*
X12241610Y-17427112D01*
X12170181Y-17427112D01*
X12141610Y-17412826D01*
X12127324Y-17398540D01*
X12584467Y-17427112D02*
X12413038Y-17427112D01*
X12498753Y-17427112D02*
X12498753Y-17127112D01*
X12470181Y-17169969D01*
X12441610Y-17198540D01*
X12413038Y-17212826D01*
X12698753Y-17155683D02*
X12713038Y-17141398D01*
X12741610Y-17127112D01*
X12813038Y-17127112D01*
X12841610Y-17141398D01*
X12855895Y-17155683D01*
X12870181Y-17184255D01*
X12870181Y-17212826D01*
X12855895Y-17255683D01*
X12684467Y-17427112D01*
X12870181Y-17427112D01*
X12984467Y-17127112D02*
X12984467Y-17184255D01*
X13098753Y-17127112D02*
X13098753Y-17184255D01*
X13541610Y-17541398D02*
X13527324Y-17527112D01*
X13498753Y-17484255D01*
X13484467Y-17455683D01*
X13470181Y-17412826D01*
X13455895Y-17341398D01*
X13455895Y-17284255D01*
X13470181Y-17212826D01*
X13484467Y-17169969D01*
X13498753Y-17141398D01*
X13527324Y-17098540D01*
X13541610Y-17084255D01*
X13641610Y-17155683D02*
X13655895Y-17141398D01*
X13684467Y-17127112D01*
X13755895Y-17127112D01*
X13784467Y-17141398D01*
X13798753Y-17155683D01*
X13813038Y-17184255D01*
X13813038Y-17212826D01*
X13798753Y-17255683D01*
X13627324Y-17427112D01*
X13813038Y-17427112D01*
X14170181Y-17427112D02*
X14170181Y-17127112D01*
X14298753Y-17427112D02*
X14298753Y-17269969D01*
X14284467Y-17241398D01*
X14255895Y-17227112D01*
X14213038Y-17227112D01*
X14184467Y-17241398D01*
X14170181Y-17255683D01*
X14484467Y-17427112D02*
X14455895Y-17412826D01*
X14441610Y-17398540D01*
X14427324Y-17369969D01*
X14427324Y-17284255D01*
X14441610Y-17255683D01*
X14455895Y-17241398D01*
X14484467Y-17227112D01*
X14527324Y-17227112D01*
X14555895Y-17241398D01*
X14570181Y-17255683D01*
X14584467Y-17284255D01*
X14584467Y-17369969D01*
X14570181Y-17398540D01*
X14555895Y-17412826D01*
X14527324Y-17427112D01*
X14484467Y-17427112D01*
X14755895Y-17427112D02*
X14727324Y-17412826D01*
X14713038Y-17384255D01*
X14713038Y-17127112D01*
X14984467Y-17412826D02*
X14955895Y-17427112D01*
X14898753Y-17427112D01*
X14870181Y-17412826D01*
X14855895Y-17384255D01*
X14855895Y-17269969D01*
X14870181Y-17241398D01*
X14898753Y-17227112D01*
X14955895Y-17227112D01*
X14984467Y-17241398D01*
X14998753Y-17269969D01*
X14998753Y-17298540D01*
X14855895Y-17327112D01*
X15113038Y-17412826D02*
X15141610Y-17427112D01*
X15198753Y-17427112D01*
X15227324Y-17412826D01*
X15241610Y-17384255D01*
X15241610Y-17369969D01*
X15227324Y-17341398D01*
X15198753Y-17327112D01*
X15155895Y-17327112D01*
X15127324Y-17312826D01*
X15113038Y-17284255D01*
X15113038Y-17269969D01*
X15127324Y-17241398D01*
X15155895Y-17227112D01*
X15198753Y-17227112D01*
X15227324Y-17241398D01*
X15341610Y-17541398D02*
X15355895Y-17527112D01*
X15384467Y-17484255D01*
X15398753Y-17455683D01*
X15413038Y-17412826D01*
X15427324Y-17341398D01*
X15427324Y-17284255D01*
X15413038Y-17212826D01*
X15398753Y-17169969D01*
X15384467Y-17141398D01*
X15355895Y-17098540D01*
X15341610Y-17084255D01*
X8133753Y-17612398D02*
X8283753Y-17762398D01*
X8283753Y-17612398D02*
X8133753Y-17762398D01*
X8208753Y-17612398D02*
X8208753Y-17762398D01*
X8133753Y-17687398D02*
X8283753Y-17687398D01*
X8727324Y-17823112D02*
X8555896Y-17823112D01*
X8641610Y-17823112D02*
X8641610Y-17523112D01*
X8613038Y-17565969D01*
X8584467Y-17594540D01*
X8555896Y-17608826D01*
X8855896Y-17794540D02*
X8870181Y-17808826D01*
X8855896Y-17823112D01*
X8841610Y-17808826D01*
X8855896Y-17794540D01*
X8855896Y-17823112D01*
X9141610Y-17523112D02*
X8998753Y-17523112D01*
X8984467Y-17665969D01*
X8998753Y-17651683D01*
X9027324Y-17637398D01*
X9098753Y-17637398D01*
X9127324Y-17651683D01*
X9141610Y-17665969D01*
X9155896Y-17694540D01*
X9155896Y-17765969D01*
X9141610Y-17794540D01*
X9127324Y-17808826D01*
X9098753Y-17823112D01*
X9027324Y-17823112D01*
X8998753Y-17808826D01*
X8984467Y-17794540D01*
X9341610Y-17523112D02*
X9370181Y-17523112D01*
X9398753Y-17537398D01*
X9413038Y-17551683D01*
X9427324Y-17580255D01*
X9441610Y-17637398D01*
X9441610Y-17708826D01*
X9427324Y-17765969D01*
X9413038Y-17794540D01*
X9398753Y-17808826D01*
X9370181Y-17823112D01*
X9341610Y-17823112D01*
X9313038Y-17808826D01*
X9298753Y-17794540D01*
X9284467Y-17765969D01*
X9270181Y-17708826D01*
X9270181Y-17637398D01*
X9284467Y-17580255D01*
X9298753Y-17551683D01*
X9313038Y-17537398D01*
X9341610Y-17523112D01*
X9627324Y-17523112D02*
X9655896Y-17523112D01*
X9684467Y-17537398D01*
X9698753Y-17551683D01*
X9713038Y-17580255D01*
X9727324Y-17637398D01*
X9727324Y-17708826D01*
X9713038Y-17765969D01*
X9698753Y-17794540D01*
X9684467Y-17808826D01*
X9655896Y-17823112D01*
X9627324Y-17823112D01*
X9598753Y-17808826D01*
X9584467Y-17794540D01*
X9570181Y-17765969D01*
X9555896Y-17708826D01*
X9555896Y-17637398D01*
X9570181Y-17580255D01*
X9584467Y-17551683D01*
X9598753Y-17537398D01*
X9627324Y-17523112D01*
X9855896Y-17823112D02*
X9855896Y-17623112D01*
X9855896Y-17651683D02*
X9870181Y-17637398D01*
X9898753Y-17623112D01*
X9941610Y-17623112D01*
X9970181Y-17637398D01*
X9984467Y-17665969D01*
X9984467Y-17823112D01*
X9984467Y-17665969D02*
X9998753Y-17637398D01*
X10027324Y-17623112D01*
X10070181Y-17623112D01*
X10098753Y-17637398D01*
X10113038Y-17665969D01*
X10113038Y-17823112D01*
X10255896Y-17823112D02*
X10255896Y-17623112D01*
X10255896Y-17651683D02*
X10270181Y-17637398D01*
X10298753Y-17623112D01*
X10341610Y-17623112D01*
X10370181Y-17637398D01*
X10384467Y-17665969D01*
X10384467Y-17823112D01*
X10384467Y-17665969D02*
X10398753Y-17637398D01*
X10427324Y-17623112D01*
X10470181Y-17623112D01*
X10498753Y-17637398D01*
X10513038Y-17665969D01*
X10513038Y-17823112D01*
X11098753Y-17508826D02*
X10841610Y-17894540D01*
X11484467Y-17523112D02*
X11513038Y-17523112D01*
X11541610Y-17537398D01*
X11555895Y-17551683D01*
X11570181Y-17580255D01*
X11584467Y-17637398D01*
X11584467Y-17708826D01*
X11570181Y-17765969D01*
X11555895Y-17794540D01*
X11541610Y-17808826D01*
X11513038Y-17823112D01*
X11484467Y-17823112D01*
X11455895Y-17808826D01*
X11441610Y-17794540D01*
X11427324Y-17765969D01*
X11413038Y-17708826D01*
X11413038Y-17637398D01*
X11427324Y-17580255D01*
X11441610Y-17551683D01*
X11455895Y-17537398D01*
X11484467Y-17523112D01*
X11713038Y-17794540D02*
X11727324Y-17808826D01*
X11713038Y-17823112D01*
X11698753Y-17808826D01*
X11713038Y-17794540D01*
X11713038Y-17823112D01*
X11913038Y-17523112D02*
X11941610Y-17523112D01*
X11970181Y-17537398D01*
X11984467Y-17551683D01*
X11998753Y-17580255D01*
X12013038Y-17637398D01*
X12013038Y-17708826D01*
X11998753Y-17765969D01*
X11984467Y-17794540D01*
X11970181Y-17808826D01*
X11941610Y-17823112D01*
X11913038Y-17823112D01*
X11884467Y-17808826D01*
X11870181Y-17794540D01*
X11855895Y-17765969D01*
X11841610Y-17708826D01*
X11841610Y-17637398D01*
X11855895Y-17580255D01*
X11870181Y-17551683D01*
X11884467Y-17537398D01*
X11913038Y-17523112D01*
X12284467Y-17523112D02*
X12141610Y-17523112D01*
X12127324Y-17665969D01*
X12141610Y-17651683D01*
X12170181Y-17637398D01*
X12241610Y-17637398D01*
X12270181Y-17651683D01*
X12284467Y-17665969D01*
X12298753Y-17694540D01*
X12298753Y-17765969D01*
X12284467Y-17794540D01*
X12270181Y-17808826D01*
X12241610Y-17823112D01*
X12170181Y-17823112D01*
X12141610Y-17808826D01*
X12127324Y-17794540D01*
X12441610Y-17823112D02*
X12498753Y-17823112D01*
X12527324Y-17808826D01*
X12541610Y-17794540D01*
X12570181Y-17751683D01*
X12584467Y-17694540D01*
X12584467Y-17580255D01*
X12570181Y-17551683D01*
X12555895Y-17537398D01*
X12527324Y-17523112D01*
X12470181Y-17523112D01*
X12441610Y-17537398D01*
X12427324Y-17551683D01*
X12413038Y-17580255D01*
X12413038Y-17651683D01*
X12427324Y-17680255D01*
X12441610Y-17694540D01*
X12470181Y-17708826D01*
X12527324Y-17708826D01*
X12555895Y-17694540D01*
X12570181Y-17680255D01*
X12584467Y-17651683D01*
X12870181Y-17823112D02*
X12698753Y-17823112D01*
X12784467Y-17823112D02*
X12784467Y-17523112D01*
X12755895Y-17565969D01*
X12727324Y-17594540D01*
X12698753Y-17608826D01*
X12984467Y-17523112D02*
X12984467Y-17580255D01*
X13098753Y-17523112D02*
X13098753Y-17580255D01*
X13541610Y-17937398D02*
X13527324Y-17923112D01*
X13498753Y-17880255D01*
X13484467Y-17851683D01*
X13470181Y-17808826D01*
X13455895Y-17737398D01*
X13455895Y-17680255D01*
X13470181Y-17608826D01*
X13484467Y-17565969D01*
X13498753Y-17537398D01*
X13527324Y-17494540D01*
X13541610Y-17480255D01*
X13713038Y-17523112D02*
X13741610Y-17523112D01*
X13770181Y-17537398D01*
X13784467Y-17551683D01*
X13798753Y-17580255D01*
X13813038Y-17637398D01*
X13813038Y-17708826D01*
X13798753Y-17765969D01*
X13784467Y-17794540D01*
X13770181Y-17808826D01*
X13741610Y-17823112D01*
X13713038Y-17823112D01*
X13684467Y-17808826D01*
X13670181Y-17794540D01*
X13655895Y-17765969D01*
X13641610Y-17708826D01*
X13641610Y-17637398D01*
X13655895Y-17580255D01*
X13670181Y-17551683D01*
X13684467Y-17537398D01*
X13713038Y-17523112D01*
X14170181Y-17823112D02*
X14170181Y-17523112D01*
X14298753Y-17823112D02*
X14298753Y-17665969D01*
X14284467Y-17637398D01*
X14255895Y-17623112D01*
X14213038Y-17623112D01*
X14184467Y-17637398D01*
X14170181Y-17651683D01*
X14484467Y-17823112D02*
X14455895Y-17808826D01*
X14441610Y-17794540D01*
X14427324Y-17765969D01*
X14427324Y-17680255D01*
X14441610Y-17651683D01*
X14455895Y-17637398D01*
X14484467Y-17623112D01*
X14527324Y-17623112D01*
X14555895Y-17637398D01*
X14570181Y-17651683D01*
X14584467Y-17680255D01*
X14584467Y-17765969D01*
X14570181Y-17794540D01*
X14555895Y-17808826D01*
X14527324Y-17823112D01*
X14484467Y-17823112D01*
X14755895Y-17823112D02*
X14727324Y-17808826D01*
X14713038Y-17780255D01*
X14713038Y-17523112D01*
X14984467Y-17808826D02*
X14955895Y-17823112D01*
X14898753Y-17823112D01*
X14870181Y-17808826D01*
X14855895Y-17780255D01*
X14855895Y-17665969D01*
X14870181Y-17637398D01*
X14898753Y-17623112D01*
X14955895Y-17623112D01*
X14984467Y-17637398D01*
X14998753Y-17665969D01*
X14998753Y-17694540D01*
X14855895Y-17723112D01*
X15113038Y-17808826D02*
X15141610Y-17823112D01*
X15198753Y-17823112D01*
X15227324Y-17808826D01*
X15241610Y-17780255D01*
X15241610Y-17765969D01*
X15227324Y-17737398D01*
X15198753Y-17723112D01*
X15155895Y-17723112D01*
X15127324Y-17708826D01*
X15113038Y-17680255D01*
X15113038Y-17665969D01*
X15127324Y-17637398D01*
X15155895Y-17623112D01*
X15198753Y-17623112D01*
X15227324Y-17637398D01*
X15598753Y-17708826D02*
X15827324Y-17708826D01*
X15713038Y-17823112D02*
X15713038Y-17594540D01*
X16184467Y-17551683D02*
X16198753Y-17537398D01*
X16227324Y-17523112D01*
X16298753Y-17523112D01*
X16327324Y-17537398D01*
X16341610Y-17551683D01*
X16355895Y-17580255D01*
X16355895Y-17608826D01*
X16341610Y-17651683D01*
X16170181Y-17823112D01*
X16355895Y-17823112D01*
X16698753Y-17808826D02*
X16727324Y-17823112D01*
X16784467Y-17823112D01*
X16813038Y-17808826D01*
X16827324Y-17780255D01*
X16827324Y-17765969D01*
X16813038Y-17737398D01*
X16784467Y-17723112D01*
X16741610Y-17723112D01*
X16713038Y-17708826D01*
X16698753Y-17680255D01*
X16698753Y-17665969D01*
X16713038Y-17637398D01*
X16741610Y-17623112D01*
X16784467Y-17623112D01*
X16813038Y-17637398D01*
X16998753Y-17823112D02*
X16970181Y-17808826D01*
X16955896Y-17780255D01*
X16955896Y-17523112D01*
X17155896Y-17823112D02*
X17127324Y-17808826D01*
X17113038Y-17794540D01*
X17098753Y-17765969D01*
X17098753Y-17680255D01*
X17113038Y-17651683D01*
X17127324Y-17637398D01*
X17155896Y-17623112D01*
X17198753Y-17623112D01*
X17227324Y-17637398D01*
X17241610Y-17651683D01*
X17255896Y-17680255D01*
X17255896Y-17765969D01*
X17241610Y-17794540D01*
X17227324Y-17808826D01*
X17198753Y-17823112D01*
X17155896Y-17823112D01*
X17341610Y-17623112D02*
X17455896Y-17623112D01*
X17384467Y-17523112D02*
X17384467Y-17780255D01*
X17398753Y-17808826D01*
X17427324Y-17823112D01*
X17455896Y-17823112D01*
X17541610Y-17808826D02*
X17570181Y-17823112D01*
X17627324Y-17823112D01*
X17655896Y-17808826D01*
X17670181Y-17780255D01*
X17670181Y-17765969D01*
X17655896Y-17737398D01*
X17627324Y-17723112D01*
X17584467Y-17723112D01*
X17555896Y-17708826D01*
X17541610Y-17680255D01*
X17541610Y-17665969D01*
X17555896Y-17637398D01*
X17584467Y-17623112D01*
X17627324Y-17623112D01*
X17655896Y-17637398D01*
X17770181Y-17937398D02*
X17784467Y-17923112D01*
X17813038Y-17880255D01*
X17827324Y-17851683D01*
X17841610Y-17808826D01*
X17855896Y-17737398D01*
X17855896Y-17680255D01*
X17841610Y-17608826D01*
X17827324Y-17565969D01*
X17813038Y-17537398D01*
X17784467Y-17494540D01*
X17770181Y-17480255D01*
X8043753Y-17963398D02*
X8283753Y-18203398D01*
X8283753Y-17963398D02*
X8043753Y-18203398D01*
X8248606Y-18168251D02*
X8248606Y-17998544D01*
X8078899Y-17998544D01*
X8078899Y-18168251D01*
X8248606Y-18168251D01*
X8555896Y-17947683D02*
X8570181Y-17933398D01*
X8598753Y-17919112D01*
X8670181Y-17919112D01*
X8698753Y-17933398D01*
X8713038Y-17947683D01*
X8727324Y-17976255D01*
X8727324Y-18004826D01*
X8713038Y-18047683D01*
X8541610Y-18219112D01*
X8727324Y-18219112D01*
X8855896Y-18190540D02*
X8870181Y-18204826D01*
X8855896Y-18219112D01*
X8841610Y-18204826D01*
X8855896Y-18190540D01*
X8855896Y-18219112D01*
X9127324Y-18019112D02*
X9127324Y-18219112D01*
X9055896Y-17904826D02*
X8984467Y-18119112D01*
X9170181Y-18119112D01*
X9341610Y-17919112D02*
X9370181Y-17919112D01*
X9398753Y-17933398D01*
X9413038Y-17947683D01*
X9427324Y-17976255D01*
X9441610Y-18033398D01*
X9441610Y-18104826D01*
X9427324Y-18161969D01*
X9413038Y-18190540D01*
X9398753Y-18204826D01*
X9370181Y-18219112D01*
X9341610Y-18219112D01*
X9313038Y-18204826D01*
X9298753Y-18190540D01*
X9284467Y-18161969D01*
X9270181Y-18104826D01*
X9270181Y-18033398D01*
X9284467Y-17976255D01*
X9298753Y-17947683D01*
X9313038Y-17933398D01*
X9341610Y-17919112D01*
X9627324Y-17919112D02*
X9655896Y-17919112D01*
X9684467Y-17933398D01*
X9698753Y-17947683D01*
X9713038Y-17976255D01*
X9727324Y-18033398D01*
X9727324Y-18104826D01*
X9713038Y-18161969D01*
X9698753Y-18190540D01*
X9684467Y-18204826D01*
X9655896Y-18219112D01*
X9627324Y-18219112D01*
X9598753Y-18204826D01*
X9584467Y-18190540D01*
X9570181Y-18161969D01*
X9555896Y-18104826D01*
X9555896Y-18033398D01*
X9570181Y-17976255D01*
X9584467Y-17947683D01*
X9598753Y-17933398D01*
X9627324Y-17919112D01*
X9855896Y-18219112D02*
X9855896Y-18019112D01*
X9855896Y-18047683D02*
X9870181Y-18033398D01*
X9898753Y-18019112D01*
X9941610Y-18019112D01*
X9970181Y-18033398D01*
X9984467Y-18061969D01*
X9984467Y-18219112D01*
X9984467Y-18061969D02*
X9998753Y-18033398D01*
X10027324Y-18019112D01*
X10070181Y-18019112D01*
X10098753Y-18033398D01*
X10113038Y-18061969D01*
X10113038Y-18219112D01*
X10255896Y-18219112D02*
X10255896Y-18019112D01*
X10255896Y-18047683D02*
X10270181Y-18033398D01*
X10298753Y-18019112D01*
X10341610Y-18019112D01*
X10370181Y-18033398D01*
X10384467Y-18061969D01*
X10384467Y-18219112D01*
X10384467Y-18061969D02*
X10398753Y-18033398D01*
X10427324Y-18019112D01*
X10470181Y-18019112D01*
X10498753Y-18033398D01*
X10513038Y-18061969D01*
X10513038Y-18219112D01*
X11098753Y-17904826D02*
X10841610Y-18290540D01*
X11484467Y-17919112D02*
X11513038Y-17919112D01*
X11541610Y-17933398D01*
X11555895Y-17947683D01*
X11570181Y-17976255D01*
X11584467Y-18033398D01*
X11584467Y-18104826D01*
X11570181Y-18161969D01*
X11555895Y-18190540D01*
X11541610Y-18204826D01*
X11513038Y-18219112D01*
X11484467Y-18219112D01*
X11455895Y-18204826D01*
X11441610Y-18190540D01*
X11427324Y-18161969D01*
X11413038Y-18104826D01*
X11413038Y-18033398D01*
X11427324Y-17976255D01*
X11441610Y-17947683D01*
X11455895Y-17933398D01*
X11484467Y-17919112D01*
X11713038Y-18190540D02*
X11727324Y-18204826D01*
X11713038Y-18219112D01*
X11698753Y-18204826D01*
X11713038Y-18190540D01*
X11713038Y-18219112D01*
X11913038Y-17919112D02*
X11941610Y-17919112D01*
X11970181Y-17933398D01*
X11984467Y-17947683D01*
X11998753Y-17976255D01*
X12013038Y-18033398D01*
X12013038Y-18104826D01*
X11998753Y-18161969D01*
X11984467Y-18190540D01*
X11970181Y-18204826D01*
X11941610Y-18219112D01*
X11913038Y-18219112D01*
X11884467Y-18204826D01*
X11870181Y-18190540D01*
X11855895Y-18161969D01*
X11841610Y-18104826D01*
X11841610Y-18033398D01*
X11855895Y-17976255D01*
X11870181Y-17947683D01*
X11884467Y-17933398D01*
X11913038Y-17919112D01*
X12155895Y-18219112D02*
X12213038Y-18219112D01*
X12241610Y-18204826D01*
X12255895Y-18190540D01*
X12284467Y-18147683D01*
X12298753Y-18090540D01*
X12298753Y-17976255D01*
X12284467Y-17947683D01*
X12270181Y-17933398D01*
X12241610Y-17919112D01*
X12184467Y-17919112D01*
X12155895Y-17933398D01*
X12141610Y-17947683D01*
X12127324Y-17976255D01*
X12127324Y-18047683D01*
X12141610Y-18076255D01*
X12155895Y-18090540D01*
X12184467Y-18104826D01*
X12241610Y-18104826D01*
X12270181Y-18090540D01*
X12284467Y-18076255D01*
X12298753Y-18047683D01*
X12555895Y-18019112D02*
X12555895Y-18219112D01*
X12484467Y-17904826D02*
X12413038Y-18119112D01*
X12598753Y-18119112D01*
X12855895Y-17919112D02*
X12713038Y-17919112D01*
X12698753Y-18061969D01*
X12713038Y-18047683D01*
X12741610Y-18033398D01*
X12813038Y-18033398D01*
X12841610Y-18047683D01*
X12855895Y-18061969D01*
X12870181Y-18090540D01*
X12870181Y-18161969D01*
X12855895Y-18190540D01*
X12841610Y-18204826D01*
X12813038Y-18219112D01*
X12741610Y-18219112D01*
X12713038Y-18204826D01*
X12698753Y-18190540D01*
X12984467Y-17919112D02*
X12984467Y-17976255D01*
X13098753Y-17919112D02*
X13098753Y-17976255D01*
X13541610Y-18333398D02*
X13527324Y-18319112D01*
X13498753Y-18276255D01*
X13484467Y-18247683D01*
X13470181Y-18204826D01*
X13455895Y-18133398D01*
X13455895Y-18076255D01*
X13470181Y-18004826D01*
X13484467Y-17961969D01*
X13498753Y-17933398D01*
X13527324Y-17890540D01*
X13541610Y-17876255D01*
X13641610Y-17947683D02*
X13655895Y-17933398D01*
X13684467Y-17919112D01*
X13755895Y-17919112D01*
X13784467Y-17933398D01*
X13798753Y-17947683D01*
X13813038Y-17976255D01*
X13813038Y-18004826D01*
X13798753Y-18047683D01*
X13627324Y-18219112D01*
X13813038Y-18219112D01*
X14170181Y-18219112D02*
X14170181Y-17919112D01*
X14298753Y-18219112D02*
X14298753Y-18061969D01*
X14284467Y-18033398D01*
X14255895Y-18019112D01*
X14213038Y-18019112D01*
X14184467Y-18033398D01*
X14170181Y-18047683D01*
X14484467Y-18219112D02*
X14455895Y-18204826D01*
X14441610Y-18190540D01*
X14427324Y-18161969D01*
X14427324Y-18076255D01*
X14441610Y-18047683D01*
X14455895Y-18033398D01*
X14484467Y-18019112D01*
X14527324Y-18019112D01*
X14555895Y-18033398D01*
X14570181Y-18047683D01*
X14584467Y-18076255D01*
X14584467Y-18161969D01*
X14570181Y-18190540D01*
X14555895Y-18204826D01*
X14527324Y-18219112D01*
X14484467Y-18219112D01*
X14755895Y-18219112D02*
X14727324Y-18204826D01*
X14713038Y-18176255D01*
X14713038Y-17919112D01*
X14984467Y-18204826D02*
X14955895Y-18219112D01*
X14898753Y-18219112D01*
X14870181Y-18204826D01*
X14855895Y-18176255D01*
X14855895Y-18061969D01*
X14870181Y-18033398D01*
X14898753Y-18019112D01*
X14955895Y-18019112D01*
X14984467Y-18033398D01*
X14998753Y-18061969D01*
X14998753Y-18090540D01*
X14855895Y-18119112D01*
X15113038Y-18204826D02*
X15141610Y-18219112D01*
X15198753Y-18219112D01*
X15227324Y-18204826D01*
X15241610Y-18176255D01*
X15241610Y-18161969D01*
X15227324Y-18133398D01*
X15198753Y-18119112D01*
X15155895Y-18119112D01*
X15127324Y-18104826D01*
X15113038Y-18076255D01*
X15113038Y-18061969D01*
X15127324Y-18033398D01*
X15155895Y-18019112D01*
X15198753Y-18019112D01*
X15227324Y-18033398D01*
X15341610Y-18333398D02*
X15355895Y-18319112D01*
X15384467Y-18276255D01*
X15398753Y-18247683D01*
X15413038Y-18204826D01*
X15427324Y-18133398D01*
X15427324Y-18076255D01*
X15413038Y-18004826D01*
X15398753Y-17961969D01*
X15384467Y-17933398D01*
X15355895Y-17890540D01*
X15341610Y-17876255D01*
X7813753Y-18244398D02*
X8283753Y-18714398D01*
X8283753Y-18244398D02*
X7813753Y-18714398D01*
X8048753Y-18714398D02*
X8283753Y-18479398D01*
X8048753Y-18244398D01*
X7813753Y-18479398D01*
X8048753Y-18714398D01*
X8698753Y-18415112D02*
X8698753Y-18615112D01*
X8627324Y-18300826D02*
X8555896Y-18515112D01*
X8741610Y-18515112D01*
X8855896Y-18586540D02*
X8870181Y-18600826D01*
X8855896Y-18615112D01*
X8841610Y-18600826D01*
X8855896Y-18586540D01*
X8855896Y-18615112D01*
X8970181Y-18315112D02*
X9170181Y-18315112D01*
X9041610Y-18615112D01*
X9341610Y-18315112D02*
X9370181Y-18315112D01*
X9398753Y-18329398D01*
X9413038Y-18343683D01*
X9427324Y-18372255D01*
X9441610Y-18429398D01*
X9441610Y-18500826D01*
X9427324Y-18557969D01*
X9413038Y-18586540D01*
X9398753Y-18600826D01*
X9370181Y-18615112D01*
X9341610Y-18615112D01*
X9313038Y-18600826D01*
X9298753Y-18586540D01*
X9284467Y-18557969D01*
X9270181Y-18500826D01*
X9270181Y-18429398D01*
X9284467Y-18372255D01*
X9298753Y-18343683D01*
X9313038Y-18329398D01*
X9341610Y-18315112D01*
X9627324Y-18315112D02*
X9655896Y-18315112D01*
X9684467Y-18329398D01*
X9698753Y-18343683D01*
X9713038Y-18372255D01*
X9727324Y-18429398D01*
X9727324Y-18500826D01*
X9713038Y-18557969D01*
X9698753Y-18586540D01*
X9684467Y-18600826D01*
X9655896Y-18615112D01*
X9627324Y-18615112D01*
X9598753Y-18600826D01*
X9584467Y-18586540D01*
X9570181Y-18557969D01*
X9555896Y-18500826D01*
X9555896Y-18429398D01*
X9570181Y-18372255D01*
X9584467Y-18343683D01*
X9598753Y-18329398D01*
X9627324Y-18315112D01*
X9855896Y-18615112D02*
X9855896Y-18415112D01*
X9855896Y-18443683D02*
X9870181Y-18429398D01*
X9898753Y-18415112D01*
X9941610Y-18415112D01*
X9970181Y-18429398D01*
X9984467Y-18457969D01*
X9984467Y-18615112D01*
X9984467Y-18457969D02*
X9998753Y-18429398D01*
X10027324Y-18415112D01*
X10070181Y-18415112D01*
X10098753Y-18429398D01*
X10113038Y-18457969D01*
X10113038Y-18615112D01*
X10255896Y-18615112D02*
X10255896Y-18415112D01*
X10255896Y-18443683D02*
X10270181Y-18429398D01*
X10298753Y-18415112D01*
X10341610Y-18415112D01*
X10370181Y-18429398D01*
X10384467Y-18457969D01*
X10384467Y-18615112D01*
X10384467Y-18457969D02*
X10398753Y-18429398D01*
X10427324Y-18415112D01*
X10470181Y-18415112D01*
X10498753Y-18429398D01*
X10513038Y-18457969D01*
X10513038Y-18615112D01*
X11098753Y-18300826D02*
X10841610Y-18686540D01*
X11484467Y-18315112D02*
X11513038Y-18315112D01*
X11541610Y-18329398D01*
X11555895Y-18343683D01*
X11570181Y-18372255D01*
X11584467Y-18429398D01*
X11584467Y-18500826D01*
X11570181Y-18557969D01*
X11555895Y-18586540D01*
X11541610Y-18600826D01*
X11513038Y-18615112D01*
X11484467Y-18615112D01*
X11455895Y-18600826D01*
X11441610Y-18586540D01*
X11427324Y-18557969D01*
X11413038Y-18500826D01*
X11413038Y-18429398D01*
X11427324Y-18372255D01*
X11441610Y-18343683D01*
X11455895Y-18329398D01*
X11484467Y-18315112D01*
X11713038Y-18586540D02*
X11727324Y-18600826D01*
X11713038Y-18615112D01*
X11698753Y-18600826D01*
X11713038Y-18586540D01*
X11713038Y-18615112D01*
X12013038Y-18615112D02*
X11841610Y-18615112D01*
X11927324Y-18615112D02*
X11927324Y-18315112D01*
X11898753Y-18357969D01*
X11870181Y-18386540D01*
X11841610Y-18400826D01*
X12184467Y-18443683D02*
X12155895Y-18429398D01*
X12141610Y-18415112D01*
X12127324Y-18386540D01*
X12127324Y-18372255D01*
X12141610Y-18343683D01*
X12155895Y-18329398D01*
X12184467Y-18315112D01*
X12241610Y-18315112D01*
X12270181Y-18329398D01*
X12284467Y-18343683D01*
X12298753Y-18372255D01*
X12298753Y-18386540D01*
X12284467Y-18415112D01*
X12270181Y-18429398D01*
X12241610Y-18443683D01*
X12184467Y-18443683D01*
X12155895Y-18457969D01*
X12141610Y-18472255D01*
X12127324Y-18500826D01*
X12127324Y-18557969D01*
X12141610Y-18586540D01*
X12155895Y-18600826D01*
X12184467Y-18615112D01*
X12241610Y-18615112D01*
X12270181Y-18600826D01*
X12284467Y-18586540D01*
X12298753Y-18557969D01*
X12298753Y-18500826D01*
X12284467Y-18472255D01*
X12270181Y-18457969D01*
X12241610Y-18443683D01*
X12570181Y-18315112D02*
X12427324Y-18315112D01*
X12413038Y-18457969D01*
X12427324Y-18443683D01*
X12455895Y-18429398D01*
X12527324Y-18429398D01*
X12555895Y-18443683D01*
X12570181Y-18457969D01*
X12584467Y-18486540D01*
X12584467Y-18557969D01*
X12570181Y-18586540D01*
X12555895Y-18600826D01*
X12527324Y-18615112D01*
X12455895Y-18615112D01*
X12427324Y-18600826D01*
X12413038Y-18586540D01*
X12770181Y-18315112D02*
X12798753Y-18315112D01*
X12827324Y-18329398D01*
X12841610Y-18343683D01*
X12855895Y-18372255D01*
X12870181Y-18429398D01*
X12870181Y-18500826D01*
X12855895Y-18557969D01*
X12841610Y-18586540D01*
X12827324Y-18600826D01*
X12798753Y-18615112D01*
X12770181Y-18615112D01*
X12741610Y-18600826D01*
X12727324Y-18586540D01*
X12713038Y-18557969D01*
X12698753Y-18500826D01*
X12698753Y-18429398D01*
X12713038Y-18372255D01*
X12727324Y-18343683D01*
X12741610Y-18329398D01*
X12770181Y-18315112D01*
X12984467Y-18315112D02*
X12984467Y-18372255D01*
X13098753Y-18315112D02*
X13098753Y-18372255D01*
X13541610Y-18729398D02*
X13527324Y-18715112D01*
X13498753Y-18672255D01*
X13484467Y-18643683D01*
X13470181Y-18600826D01*
X13455895Y-18529398D01*
X13455895Y-18472255D01*
X13470181Y-18400826D01*
X13484467Y-18357969D01*
X13498753Y-18329398D01*
X13527324Y-18286540D01*
X13541610Y-18272255D01*
X13798753Y-18315112D02*
X13655895Y-18315112D01*
X13641610Y-18457969D01*
X13655895Y-18443683D01*
X13684467Y-18429398D01*
X13755895Y-18429398D01*
X13784467Y-18443683D01*
X13798753Y-18457969D01*
X13813038Y-18486540D01*
X13813038Y-18557969D01*
X13798753Y-18586540D01*
X13784467Y-18600826D01*
X13755895Y-18615112D01*
X13684467Y-18615112D01*
X13655895Y-18600826D01*
X13641610Y-18586540D01*
X14170181Y-18615112D02*
X14170181Y-18315112D01*
X14298753Y-18615112D02*
X14298753Y-18457969D01*
X14284467Y-18429398D01*
X14255895Y-18415112D01*
X14213038Y-18415112D01*
X14184467Y-18429398D01*
X14170181Y-18443683D01*
X14484467Y-18615112D02*
X14455895Y-18600826D01*
X14441610Y-18586540D01*
X14427324Y-18557969D01*
X14427324Y-18472255D01*
X14441610Y-18443683D01*
X14455895Y-18429398D01*
X14484467Y-18415112D01*
X14527324Y-18415112D01*
X14555895Y-18429398D01*
X14570181Y-18443683D01*
X14584467Y-18472255D01*
X14584467Y-18557969D01*
X14570181Y-18586540D01*
X14555895Y-18600826D01*
X14527324Y-18615112D01*
X14484467Y-18615112D01*
X14755895Y-18615112D02*
X14727324Y-18600826D01*
X14713038Y-18572255D01*
X14713038Y-18315112D01*
X14984467Y-18600826D02*
X14955895Y-18615112D01*
X14898753Y-18615112D01*
X14870181Y-18600826D01*
X14855895Y-18572255D01*
X14855895Y-18457969D01*
X14870181Y-18429398D01*
X14898753Y-18415112D01*
X14955895Y-18415112D01*
X14984467Y-18429398D01*
X14998753Y-18457969D01*
X14998753Y-18486540D01*
X14855895Y-18515112D01*
X15113038Y-18600826D02*
X15141610Y-18615112D01*
X15198753Y-18615112D01*
X15227324Y-18600826D01*
X15241610Y-18572255D01*
X15241610Y-18557969D01*
X15227324Y-18529398D01*
X15198753Y-18515112D01*
X15155895Y-18515112D01*
X15127324Y-18500826D01*
X15113038Y-18472255D01*
X15113038Y-18457969D01*
X15127324Y-18429398D01*
X15155895Y-18415112D01*
X15198753Y-18415112D01*
X15227324Y-18429398D01*
X15341610Y-18729398D02*
X15355895Y-18715112D01*
X15384467Y-18672255D01*
X15398753Y-18643683D01*
X15413038Y-18600826D01*
X15427324Y-18529398D01*
X15427324Y-18472255D01*
X15413038Y-18400826D01*
X15398753Y-18357969D01*
X15384467Y-18329398D01*
X15355895Y-18286540D01*
X15341610Y-18272255D01*
M02*
