%FSLAX45Y45*%
G04 Gerber Fmt 4.5, Leading zero omitted, Abs format (unit mm)*
G04 Created by KiCad (PCBNEW (5.1.12)-1) date 2021-12-11 09:13:44*
%MOMM*%
%LPD*%
G01*
G04 APERTURE LIST*
%TA.AperFunction,Profile*%
%ADD10C,0.200000*%
%TD*%
%ADD11C,0.200000*%
%ADD12C,0.300000*%
G04 APERTURE END LIST*
D10*
X11618662Y-13648078D02*
X11786231Y-13551064D01*
X11451092Y-13745092D02*
X11618662Y-13648078D01*
X8293753Y-5075063D02*
X8293753Y-4444370D01*
X8293753Y-5705756D02*
X8293753Y-5075063D01*
X11521171Y-3708676D02*
X10480388Y-3708676D01*
X21869242Y-12078973D02*
X22396000Y-12078973D01*
X21342484Y-12078973D02*
X21869242Y-12078973D01*
X20815726Y-12078973D02*
X21342484Y-12078973D01*
X20288967Y-12078973D02*
X20815726Y-12078973D01*
X19762209Y-12078973D02*
X20288967Y-12078973D01*
X19235451Y-12078973D02*
X19762209Y-12078973D01*
X18708693Y-12078973D02*
X19235451Y-12078973D01*
X18181935Y-12078973D02*
X18708693Y-12078973D01*
X18111352Y-12086078D02*
X18181935Y-12078973D01*
X18045633Y-12106456D02*
X18111352Y-12086078D01*
X17986177Y-12138706D02*
X18045633Y-12106456D01*
X17934388Y-12181427D02*
X17986177Y-12138706D01*
X17891668Y-12233216D02*
X17934388Y-12181427D01*
X17859417Y-12292671D02*
X17891668Y-12233216D01*
X17839039Y-12358391D02*
X17859417Y-12292671D01*
X17831935Y-12428973D02*
X17839039Y-12358391D01*
X19980765Y-3817049D02*
X18991954Y-3758537D01*
X20842076Y-3894556D02*
X19980765Y-3817049D01*
X21552570Y-3988516D02*
X20842076Y-3894556D01*
X22088932Y-4096385D02*
X21552570Y-3988516D01*
X17898956Y-3721565D02*
X16725088Y-3708676D01*
X18991954Y-3758537D02*
X17898956Y-3721565D01*
X17765831Y-13525566D02*
X17740350Y-13539388D01*
X17788026Y-13507257D02*
X17765831Y-13525566D01*
X17806335Y-13485062D02*
X17788026Y-13507257D01*
X17820157Y-13459581D02*
X17806335Y-13485062D01*
X17828890Y-13431415D02*
X17820157Y-13459581D01*
X17831935Y-13401166D02*
X17828890Y-13431415D01*
X22546000Y-5291838D02*
X22546000Y-6240000D01*
X22546000Y-4343676D02*
X22546000Y-5291838D01*
X8293753Y-6967143D02*
X8293753Y-6336449D01*
X8293753Y-7597836D02*
X8293753Y-6967143D01*
X8293753Y-8228530D02*
X8293753Y-7597836D01*
X8293753Y-8859223D02*
X8293753Y-8228530D01*
X10480388Y-3708676D02*
X9439604Y-3708676D01*
X12561954Y-3708676D02*
X11521171Y-3708676D01*
X13602738Y-3708676D02*
X12561954Y-3708676D01*
X14643521Y-3708676D02*
X13602738Y-3708676D01*
X15684305Y-3708676D02*
X14643521Y-3708676D01*
X16725088Y-3708676D02*
X15684305Y-3708676D01*
X8340094Y-3726596D02*
X8357930Y-3716921D01*
X8324557Y-3739412D02*
X8340094Y-3726596D01*
X8311741Y-3754949D02*
X8324557Y-3739412D01*
X8302066Y-3772785D02*
X8311741Y-3754949D01*
X8295952Y-3792501D02*
X8302066Y-3772785D01*
X8293821Y-3813676D02*
X8295952Y-3792501D01*
X8377646Y-3710807D02*
X8398821Y-3708676D01*
X8357930Y-3716921D02*
X8377646Y-3710807D01*
X9439604Y-3708676D02*
X8398821Y-3708676D01*
X8293753Y-6336449D02*
X8293753Y-5705756D01*
X8293753Y-4444370D02*
X8293753Y-3813676D01*
X8829176Y-11631807D02*
X8999333Y-11998954D01*
X8686311Y-11253067D02*
X8829176Y-11631807D01*
X8568800Y-10864913D02*
X8686311Y-11253067D01*
X8474708Y-10469525D02*
X8568800Y-10864913D01*
X8402097Y-10069083D02*
X8474708Y-10469525D01*
X8349030Y-9665766D02*
X8402097Y-10069083D01*
X8313569Y-9261756D02*
X8349030Y-9665766D01*
X8293778Y-8859232D02*
X8313569Y-9261756D01*
X10428886Y-14335728D02*
X10445676Y-14327176D01*
X10413021Y-14340447D02*
X10428886Y-14335728D01*
X10398125Y-14341397D02*
X10413021Y-14340447D01*
X10384247Y-14338644D02*
X10398125Y-14341397D01*
X10371433Y-14332253D02*
X10384247Y-14338644D01*
X10359730Y-14322288D02*
X10371433Y-14332253D01*
X10349184Y-14308815D02*
X10359730Y-14322288D01*
X10339843Y-14291898D02*
X10349184Y-14308815D01*
X11283523Y-13842106D02*
X11451092Y-13745092D01*
X11115954Y-13939120D02*
X11283523Y-13842106D01*
X10948384Y-14036134D02*
X11115954Y-13939120D01*
X10780815Y-14133148D02*
X10948384Y-14036134D01*
X10613245Y-14230162D02*
X10780815Y-14133148D01*
X10445676Y-14327176D02*
X10613245Y-14230162D01*
X10172273Y-14005266D02*
X10339843Y-14291898D01*
X10004704Y-13718634D02*
X10172273Y-14005266D01*
X9837134Y-13432002D02*
X10004704Y-13718634D01*
X9669565Y-13145370D02*
X9837134Y-13432002D01*
X9501995Y-12858738D02*
X9669565Y-13145370D01*
X9334426Y-12572106D02*
X9501995Y-12858738D01*
X9166856Y-12285474D02*
X9334426Y-12572106D01*
X8999287Y-11998842D02*
X9166856Y-12285474D01*
X16944983Y-13551166D02*
X17681935Y-13551166D01*
X16208030Y-13551166D02*
X16944983Y-13551166D01*
X15471078Y-13551166D02*
X16208030Y-13551166D01*
X14734126Y-13551166D02*
X15471078Y-13551166D01*
X13997174Y-13551166D02*
X14734126Y-13551166D01*
X13260222Y-13551166D02*
X13997174Y-13551166D01*
X12523269Y-13551166D02*
X13260222Y-13551166D01*
X11786317Y-13551166D02*
X12523269Y-13551166D01*
X17831935Y-13281601D02*
X17831935Y-13401166D01*
X17831935Y-13159797D02*
X17831935Y-13281601D01*
X17831935Y-13037993D02*
X17831935Y-13159797D01*
X17831935Y-12916189D02*
X17831935Y-13037993D01*
X17831935Y-12794385D02*
X17831935Y-12916189D01*
X17831935Y-12672581D02*
X17831935Y-12794385D01*
X17831935Y-12550777D02*
X17831935Y-12672581D01*
X17831935Y-12428973D02*
X17831935Y-12550777D01*
X17712184Y-13548121D02*
X17681935Y-13551166D01*
X17740350Y-13539388D02*
X17712184Y-13548121D01*
X22427847Y-4215619D02*
X22088932Y-4096385D01*
X22546000Y-4343676D02*
X22427847Y-4215619D01*
X22426249Y-12075929D02*
X22396000Y-12078973D01*
X22454415Y-12067195D02*
X22426249Y-12075929D01*
X22479896Y-12053374D02*
X22454415Y-12067195D01*
X22502091Y-12035065D02*
X22479896Y-12053374D01*
X22520400Y-12012870D02*
X22502091Y-12035065D01*
X22534222Y-11987389D02*
X22520400Y-12012870D01*
X22542955Y-11959223D02*
X22534222Y-11987389D01*
X22546000Y-11928973D02*
X22542955Y-11959223D01*
X22546000Y-10980811D02*
X22546000Y-11928973D01*
X22546000Y-10032649D02*
X22546000Y-10980811D01*
X22546000Y-9084487D02*
X22546000Y-10032649D01*
X22546000Y-8136324D02*
X22546000Y-9084487D01*
X22546000Y-7188162D02*
X22546000Y-8136324D01*
X22546000Y-6240000D02*
X22546000Y-7188162D01*
D11*
X8555000Y-4020000D02*
X8675000Y-4140000D01*
X8675000Y-4020000D02*
X8555000Y-4140000D01*
X8555000Y-4720000D02*
X8675000Y-4840000D01*
X8675000Y-4720000D02*
X8555000Y-4840000D01*
X8730000Y-4020000D02*
X8850000Y-4140000D01*
X8850000Y-4020000D02*
X8730000Y-4140000D01*
X8730000Y-4720000D02*
X8850000Y-4840000D01*
X8850000Y-4720000D02*
X8730000Y-4840000D01*
X10331000Y-12260059D02*
G75*
G03*
X10331000Y-12260059I-85000J0D01*
G01*
X10839000Y-13139941D02*
G75*
G03*
X10839000Y-13139941I-85000J0D01*
G01*
X11627000Y-5000000D02*
G75*
G03*
X11627000Y-5000000I-85000J0D01*
G01*
X11627000Y-6910000D02*
G75*
G03*
X11627000Y-6910000I-85000J0D01*
G01*
X11627000Y-8810000D02*
G75*
G03*
X11627000Y-8810000I-85000J0D01*
G01*
X11627000Y-10710000D02*
G75*
G03*
X11627000Y-10710000I-85000J0D01*
G01*
X12577000Y-12600000D02*
G75*
G03*
X12577000Y-12600000I-85000J0D01*
G01*
X12643000Y-5000000D02*
G75*
G03*
X12643000Y-5000000I-85000J0D01*
G01*
X12643000Y-6910000D02*
G75*
G03*
X12643000Y-6910000I-85000J0D01*
G01*
X12643000Y-8810000D02*
G75*
G03*
X12643000Y-8810000I-85000J0D01*
G01*
X12643000Y-10710000D02*
G75*
G03*
X12643000Y-10710000I-85000J0D01*
G01*
X13527000Y-4760000D02*
G75*
G03*
X13527000Y-4760000I-85000J0D01*
G01*
X13527000Y-6670000D02*
G75*
G03*
X13527000Y-6670000I-85000J0D01*
G01*
X13527000Y-8570000D02*
G75*
G03*
X13527000Y-8570000I-85000J0D01*
G01*
X13527000Y-10480000D02*
G75*
G03*
X13527000Y-10480000I-85000J0D01*
G01*
X13593000Y-12600000D02*
G75*
G03*
X13593000Y-12600000I-85000J0D01*
G01*
X14477000Y-12375000D02*
G75*
G03*
X14477000Y-12375000I-85000J0D01*
G01*
X14543000Y-4760000D02*
G75*
G03*
X14543000Y-4760000I-85000J0D01*
G01*
X14543000Y-6670000D02*
G75*
G03*
X14543000Y-6670000I-85000J0D01*
G01*
X14543000Y-8570000D02*
G75*
G03*
X14543000Y-8570000I-85000J0D01*
G01*
X14543000Y-10480000D02*
G75*
G03*
X14543000Y-10480000I-85000J0D01*
G01*
X15437000Y-4621000D02*
G75*
G03*
X15437000Y-4621000I-85000J0D01*
G01*
X15437000Y-6530000D02*
G75*
G03*
X15437000Y-6530000I-85000J0D01*
G01*
X15437000Y-8440000D02*
G75*
G03*
X15437000Y-8440000I-85000J0D01*
G01*
X15437000Y-10340000D02*
G75*
G03*
X15437000Y-10340000I-85000J0D01*
G01*
X15493000Y-12375000D02*
G75*
G03*
X15493000Y-12375000I-85000J0D01*
G01*
X16387000Y-12375000D02*
G75*
G03*
X16387000Y-12375000I-85000J0D01*
G01*
X16453000Y-4621000D02*
G75*
G03*
X16453000Y-4621000I-85000J0D01*
G01*
X16453000Y-6530000D02*
G75*
G03*
X16453000Y-6530000I-85000J0D01*
G01*
X16453000Y-8440000D02*
G75*
G03*
X16453000Y-8440000I-85000J0D01*
G01*
X16453000Y-10340000D02*
G75*
G03*
X16453000Y-10340000I-85000J0D01*
G01*
X17337000Y-4760000D02*
G75*
G03*
X17337000Y-4760000I-85000J0D01*
G01*
X17337000Y-6660000D02*
G75*
G03*
X17337000Y-6660000I-85000J0D01*
G01*
X17337000Y-8570000D02*
G75*
G03*
X17337000Y-8570000I-85000J0D01*
G01*
X17337000Y-10480000D02*
G75*
G03*
X17337000Y-10480000I-85000J0D01*
G01*
X17403000Y-12375000D02*
G75*
G03*
X17403000Y-12375000I-85000J0D01*
G01*
X18353000Y-4760000D02*
G75*
G03*
X18353000Y-4760000I-85000J0D01*
G01*
X18353000Y-6660000D02*
G75*
G03*
X18353000Y-6660000I-85000J0D01*
G01*
X18353000Y-8570000D02*
G75*
G03*
X18353000Y-8570000I-85000J0D01*
G01*
X18353000Y-10480000D02*
G75*
G03*
X18353000Y-10480000I-85000J0D01*
G01*
X19247000Y-5240000D02*
G75*
G03*
X19247000Y-5240000I-85000J0D01*
G01*
X19247000Y-7130000D02*
G75*
G03*
X19247000Y-7130000I-85000J0D01*
G01*
X19247000Y-9050000D02*
G75*
G03*
X19247000Y-9050000I-85000J0D01*
G01*
X19247000Y-10950000D02*
G75*
G03*
X19247000Y-10950000I-85000J0D01*
G01*
X20263000Y-5240000D02*
G75*
G03*
X20263000Y-5240000I-85000J0D01*
G01*
X20263000Y-7130000D02*
G75*
G03*
X20263000Y-7130000I-85000J0D01*
G01*
X20263000Y-9050000D02*
G75*
G03*
X20263000Y-9050000I-85000J0D01*
G01*
X20263000Y-10950000D02*
G75*
G03*
X20263000Y-10950000I-85000J0D01*
G01*
X21147000Y-5390000D02*
G75*
G03*
X21147000Y-5390000I-85000J0D01*
G01*
X21147000Y-7280000D02*
G75*
G03*
X21147000Y-7280000I-85000J0D01*
G01*
X21147000Y-9200000D02*
G75*
G03*
X21147000Y-9200000I-85000J0D01*
G01*
X21152000Y-11100000D02*
G75*
G03*
X21152000Y-11100000I-85000J0D01*
G01*
X22163000Y-5390000D02*
G75*
G03*
X22163000Y-5390000I-85000J0D01*
G01*
X22163000Y-7280000D02*
G75*
G03*
X22163000Y-7280000I-85000J0D01*
G01*
X22163000Y-9200000D02*
G75*
G03*
X22163000Y-9200000I-85000J0D01*
G01*
X22168000Y-11100000D02*
G75*
G03*
X22168000Y-11100000I-85000J0D01*
G01*
X10225000Y-12128686D02*
X10225000Y-12318686D01*
X10130000Y-12223686D02*
X10320000Y-12223686D01*
X10775000Y-13081314D02*
X10775000Y-13271314D01*
X10680000Y-13176314D02*
X10870000Y-13176314D01*
X11500000Y-4905000D02*
X11500000Y-5095000D01*
X11405000Y-5000000D02*
X11595000Y-5000000D01*
X11500000Y-6815000D02*
X11500000Y-7005000D01*
X11405000Y-6910000D02*
X11595000Y-6910000D01*
X11500000Y-8715000D02*
X11500000Y-8905000D01*
X11405000Y-8810000D02*
X11595000Y-8810000D01*
X11500000Y-10615000D02*
X11500000Y-10805000D01*
X11405000Y-10710000D02*
X11595000Y-10710000D01*
X12450000Y-12505000D02*
X12450000Y-12695000D01*
X12355000Y-12600000D02*
X12545000Y-12600000D01*
X12600000Y-4905000D02*
X12600000Y-5095000D01*
X12505000Y-5000000D02*
X12695000Y-5000000D01*
X12600000Y-6815000D02*
X12600000Y-7005000D01*
X12505000Y-6910000D02*
X12695000Y-6910000D01*
X12600000Y-8715000D02*
X12600000Y-8905000D01*
X12505000Y-8810000D02*
X12695000Y-8810000D01*
X12600000Y-10615000D02*
X12600000Y-10805000D01*
X12505000Y-10710000D02*
X12695000Y-10710000D01*
X13400000Y-4665000D02*
X13400000Y-4855000D01*
X13305000Y-4760000D02*
X13495000Y-4760000D01*
X13400000Y-6575000D02*
X13400000Y-6765000D01*
X13305000Y-6670000D02*
X13495000Y-6670000D01*
X13400000Y-8475000D02*
X13400000Y-8665000D01*
X13305000Y-8570000D02*
X13495000Y-8570000D01*
X13400000Y-10385000D02*
X13400000Y-10575000D01*
X13305000Y-10480000D02*
X13495000Y-10480000D01*
X13550000Y-12505000D02*
X13550000Y-12695000D01*
X13455000Y-12600000D02*
X13645000Y-12600000D01*
X14350000Y-12280000D02*
X14350000Y-12470000D01*
X14255000Y-12375000D02*
X14445000Y-12375000D01*
X14500000Y-4665000D02*
X14500000Y-4855000D01*
X14405000Y-4760000D02*
X14595000Y-4760000D01*
X14500000Y-6575000D02*
X14500000Y-6765000D01*
X14405000Y-6670000D02*
X14595000Y-6670000D01*
X14500000Y-8475000D02*
X14500000Y-8665000D01*
X14405000Y-8570000D02*
X14595000Y-8570000D01*
X14500000Y-10385000D02*
X14500000Y-10575000D01*
X14405000Y-10480000D02*
X14595000Y-10480000D01*
X15310000Y-4526000D02*
X15310000Y-4716000D01*
X15215000Y-4621000D02*
X15405000Y-4621000D01*
X15310000Y-6435000D02*
X15310000Y-6625000D01*
X15215000Y-6530000D02*
X15405000Y-6530000D01*
X15310000Y-8345000D02*
X15310000Y-8535000D01*
X15215000Y-8440000D02*
X15405000Y-8440000D01*
X15310000Y-10245000D02*
X15310000Y-10435000D01*
X15215000Y-10340000D02*
X15405000Y-10340000D01*
X15450000Y-12280000D02*
X15450000Y-12470000D01*
X15355000Y-12375000D02*
X15545000Y-12375000D01*
X16260000Y-12280000D02*
X16260000Y-12470000D01*
X16165000Y-12375000D02*
X16355000Y-12375000D01*
X16410000Y-4526000D02*
X16410000Y-4716000D01*
X16315000Y-4621000D02*
X16505000Y-4621000D01*
X16410000Y-6435000D02*
X16410000Y-6625000D01*
X16315000Y-6530000D02*
X16505000Y-6530000D01*
X16410000Y-8345000D02*
X16410000Y-8535000D01*
X16315000Y-8440000D02*
X16505000Y-8440000D01*
X16410000Y-10245000D02*
X16410000Y-10435000D01*
X16315000Y-10340000D02*
X16505000Y-10340000D01*
X17210000Y-4665000D02*
X17210000Y-4855000D01*
X17115000Y-4760000D02*
X17305000Y-4760000D01*
X17210000Y-6565000D02*
X17210000Y-6755000D01*
X17115000Y-6660000D02*
X17305000Y-6660000D01*
X17210000Y-8475000D02*
X17210000Y-8665000D01*
X17115000Y-8570000D02*
X17305000Y-8570000D01*
X17210000Y-10385000D02*
X17210000Y-10575000D01*
X17115000Y-10480000D02*
X17305000Y-10480000D01*
X17360000Y-12280000D02*
X17360000Y-12470000D01*
X17265000Y-12375000D02*
X17455000Y-12375000D01*
X18310000Y-4665000D02*
X18310000Y-4855000D01*
X18215000Y-4760000D02*
X18405000Y-4760000D01*
X18310000Y-6565000D02*
X18310000Y-6755000D01*
X18215000Y-6660000D02*
X18405000Y-6660000D01*
X18310000Y-8475000D02*
X18310000Y-8665000D01*
X18215000Y-8570000D02*
X18405000Y-8570000D01*
X18310000Y-10385000D02*
X18310000Y-10575000D01*
X18215000Y-10480000D02*
X18405000Y-10480000D01*
X19120000Y-5145000D02*
X19120000Y-5335000D01*
X19025000Y-5240000D02*
X19215000Y-5240000D01*
X19120000Y-7035000D02*
X19120000Y-7225000D01*
X19025000Y-7130000D02*
X19215000Y-7130000D01*
X19120000Y-8955000D02*
X19120000Y-9145000D01*
X19025000Y-9050000D02*
X19215000Y-9050000D01*
X19120000Y-10855000D02*
X19120000Y-11045000D01*
X19025000Y-10950000D02*
X19215000Y-10950000D01*
X20220000Y-5145000D02*
X20220000Y-5335000D01*
X20125000Y-5240000D02*
X20315000Y-5240000D01*
X20220000Y-7035000D02*
X20220000Y-7225000D01*
X20125000Y-7130000D02*
X20315000Y-7130000D01*
X20220000Y-8955000D02*
X20220000Y-9145000D01*
X20125000Y-9050000D02*
X20315000Y-9050000D01*
X20220000Y-10855000D02*
X20220000Y-11045000D01*
X20125000Y-10950000D02*
X20315000Y-10950000D01*
X21020000Y-5295000D02*
X21020000Y-5485000D01*
X20925000Y-5390000D02*
X21115000Y-5390000D01*
X21020000Y-7185000D02*
X21020000Y-7375000D01*
X20925000Y-7280000D02*
X21115000Y-7280000D01*
X21020000Y-9105000D02*
X21020000Y-9295000D01*
X20925000Y-9200000D02*
X21115000Y-9200000D01*
X21025000Y-11005000D02*
X21025000Y-11195000D01*
X20930000Y-11100000D02*
X21120000Y-11100000D01*
X22120000Y-5295000D02*
X22120000Y-5485000D01*
X22025000Y-5390000D02*
X22215000Y-5390000D01*
X22120000Y-7185000D02*
X22120000Y-7375000D01*
X22025000Y-7280000D02*
X22215000Y-7280000D01*
X22120000Y-9105000D02*
X22120000Y-9295000D01*
X22025000Y-9200000D02*
X22215000Y-9200000D01*
X22125000Y-11005000D02*
X22125000Y-11195000D01*
X22030000Y-11100000D02*
X22220000Y-11100000D01*
X10035638Y-12558054D02*
X10035638Y-12345920D01*
X9823504Y-12345920D01*
X9823504Y-12558054D01*
X10035638Y-12558054D01*
X10095112Y-13101067D02*
X10095112Y-12888933D01*
X9882978Y-12888933D01*
X9882978Y-13101067D01*
X10095112Y-13101067D01*
X10535638Y-13424080D02*
X10535638Y-13211946D01*
X10323504Y-13211946D01*
X10323504Y-13424080D01*
X10535638Y-13424080D01*
X10635538Y-12349111D02*
X10635538Y-12136977D01*
X10423404Y-12136977D01*
X10423404Y-12349111D01*
X10635538Y-12349111D01*
X10919008Y-12332096D02*
X10919008Y-12119962D01*
X10706874Y-12119962D01*
X10706874Y-12332096D01*
X10919008Y-12332096D01*
X11016538Y-13009023D02*
X11016538Y-12796889D01*
X10804404Y-12796889D01*
X10804404Y-13009023D01*
X11016538Y-13009023D01*
X11173008Y-12772037D02*
X11173008Y-12559903D01*
X10960874Y-12559903D01*
X10960874Y-12772037D01*
X11173008Y-12772037D01*
X11656067Y-5476067D02*
X11656067Y-5263933D01*
X11443933Y-5263933D01*
X11443933Y-5476067D01*
X11656067Y-5476067D01*
X11656067Y-7386067D02*
X11656067Y-7173933D01*
X11443933Y-7173933D01*
X11443933Y-7386067D01*
X11656067Y-7386067D01*
X11656067Y-9286067D02*
X11656067Y-9073933D01*
X11443933Y-9073933D01*
X11443933Y-9286067D01*
X11656067Y-9286067D01*
X11656067Y-11186067D02*
X11656067Y-10973933D01*
X11443933Y-10973933D01*
X11443933Y-11186067D01*
X11656067Y-11186067D01*
X11775067Y-4852067D02*
X11775067Y-4639933D01*
X11562933Y-4639933D01*
X11562933Y-4852067D01*
X11775067Y-4852067D01*
X11775067Y-6762067D02*
X11775067Y-6549933D01*
X11562933Y-6549933D01*
X11562933Y-6762067D01*
X11775067Y-6762067D01*
X11775067Y-8662067D02*
X11775067Y-8449933D01*
X11562933Y-8449933D01*
X11562933Y-8662067D01*
X11775067Y-8662067D01*
X11775067Y-10562067D02*
X11775067Y-10349933D01*
X11562933Y-10349933D01*
X11562933Y-10562067D01*
X11775067Y-10562067D01*
X11902067Y-4598067D02*
X11902067Y-4385933D01*
X11689933Y-4385933D01*
X11689933Y-4598067D01*
X11902067Y-4598067D01*
X11902067Y-6508067D02*
X11902067Y-6295933D01*
X11689933Y-6295933D01*
X11689933Y-6508067D01*
X11902067Y-6508067D01*
X11902067Y-8408067D02*
X11902067Y-8195933D01*
X11689933Y-8195933D01*
X11689933Y-8408067D01*
X11902067Y-8408067D01*
X11902067Y-10308067D02*
X11902067Y-10095933D01*
X11689933Y-10095933D01*
X11689933Y-10308067D01*
X11902067Y-10308067D01*
X12156067Y-5696067D02*
X12156067Y-5483933D01*
X11943933Y-5483933D01*
X11943933Y-5696067D01*
X12156067Y-5696067D01*
X12156067Y-7606067D02*
X12156067Y-7393933D01*
X11943933Y-7393933D01*
X11943933Y-7606067D01*
X12156067Y-7606067D01*
X12156067Y-9506067D02*
X12156067Y-9293933D01*
X11943933Y-9293933D01*
X11943933Y-9506067D01*
X12156067Y-9506067D01*
X12156067Y-11406067D02*
X12156067Y-11193933D01*
X11943933Y-11193933D01*
X11943933Y-11406067D01*
X12156067Y-11406067D01*
X12410067Y-4598067D02*
X12410067Y-4385933D01*
X12197933Y-4385933D01*
X12197933Y-4598067D01*
X12410067Y-4598067D01*
X12410067Y-6508067D02*
X12410067Y-6295933D01*
X12197933Y-6295933D01*
X12197933Y-6508067D01*
X12410067Y-6508067D01*
X12410067Y-8408067D02*
X12410067Y-8195933D01*
X12197933Y-8195933D01*
X12197933Y-8408067D01*
X12410067Y-8408067D01*
X12410067Y-10308067D02*
X12410067Y-10095933D01*
X12197933Y-10095933D01*
X12197933Y-10308067D01*
X12410067Y-10308067D01*
X12537067Y-4852067D02*
X12537067Y-4639933D01*
X12324933Y-4639933D01*
X12324933Y-4852067D01*
X12537067Y-4852067D01*
X12537067Y-6762067D02*
X12537067Y-6549933D01*
X12324933Y-6549933D01*
X12324933Y-6762067D01*
X12537067Y-6762067D01*
X12537067Y-8662067D02*
X12537067Y-8449933D01*
X12324933Y-8449933D01*
X12324933Y-8662067D01*
X12537067Y-8662067D01*
X12537067Y-10562067D02*
X12537067Y-10349933D01*
X12324933Y-10349933D01*
X12324933Y-10562067D01*
X12537067Y-10562067D01*
X12606067Y-13076067D02*
X12606067Y-12863933D01*
X12393933Y-12863933D01*
X12393933Y-13076067D01*
X12606067Y-13076067D01*
X12656067Y-5476067D02*
X12656067Y-5263933D01*
X12443933Y-5263933D01*
X12443933Y-5476067D01*
X12656067Y-5476067D01*
X12656067Y-7386067D02*
X12656067Y-7173933D01*
X12443933Y-7173933D01*
X12443933Y-7386067D01*
X12656067Y-7386067D01*
X12656067Y-9286067D02*
X12656067Y-9073933D01*
X12443933Y-9073933D01*
X12443933Y-9286067D01*
X12656067Y-9286067D01*
X12656067Y-11186067D02*
X12656067Y-10973933D01*
X12443933Y-10973933D01*
X12443933Y-11186067D01*
X12656067Y-11186067D01*
X12725067Y-12452067D02*
X12725067Y-12239933D01*
X12512933Y-12239933D01*
X12512933Y-12452067D01*
X12725067Y-12452067D01*
X12852067Y-12198067D02*
X12852067Y-11985933D01*
X12639933Y-11985933D01*
X12639933Y-12198067D01*
X12852067Y-12198067D01*
X13106067Y-13296067D02*
X13106067Y-13083933D01*
X12893933Y-13083933D01*
X12893933Y-13296067D01*
X13106067Y-13296067D01*
X13360067Y-12198067D02*
X13360067Y-11985933D01*
X13147933Y-11985933D01*
X13147933Y-12198067D01*
X13360067Y-12198067D01*
X13487067Y-12452067D02*
X13487067Y-12239933D01*
X13274933Y-12239933D01*
X13274933Y-12452067D01*
X13487067Y-12452067D01*
X13556067Y-5236067D02*
X13556067Y-5023933D01*
X13343933Y-5023933D01*
X13343933Y-5236067D01*
X13556067Y-5236067D01*
X13556067Y-7146067D02*
X13556067Y-6933933D01*
X13343933Y-6933933D01*
X13343933Y-7146067D01*
X13556067Y-7146067D01*
X13556067Y-9046067D02*
X13556067Y-8833933D01*
X13343933Y-8833933D01*
X13343933Y-9046067D01*
X13556067Y-9046067D01*
X13556067Y-10956067D02*
X13556067Y-10743933D01*
X13343933Y-10743933D01*
X13343933Y-10956067D01*
X13556067Y-10956067D01*
X13606067Y-13076067D02*
X13606067Y-12863933D01*
X13393933Y-12863933D01*
X13393933Y-13076067D01*
X13606067Y-13076067D01*
X13675067Y-4612067D02*
X13675067Y-4399933D01*
X13462933Y-4399933D01*
X13462933Y-4612067D01*
X13675067Y-4612067D01*
X13675067Y-6522067D02*
X13675067Y-6309933D01*
X13462933Y-6309933D01*
X13462933Y-6522067D01*
X13675067Y-6522067D01*
X13675067Y-8422067D02*
X13675067Y-8209933D01*
X13462933Y-8209933D01*
X13462933Y-8422067D01*
X13675067Y-8422067D01*
X13675067Y-10332067D02*
X13675067Y-10119933D01*
X13462933Y-10119933D01*
X13462933Y-10332067D01*
X13675067Y-10332067D01*
X13802067Y-4358067D02*
X13802067Y-4145933D01*
X13589933Y-4145933D01*
X13589933Y-4358067D01*
X13802067Y-4358067D01*
X13802067Y-6268067D02*
X13802067Y-6055933D01*
X13589933Y-6055933D01*
X13589933Y-6268067D01*
X13802067Y-6268067D01*
X13802067Y-8168067D02*
X13802067Y-7955933D01*
X13589933Y-7955933D01*
X13589933Y-8168067D01*
X13802067Y-8168067D01*
X13802067Y-10078067D02*
X13802067Y-9865933D01*
X13589933Y-9865933D01*
X13589933Y-10078067D01*
X13802067Y-10078067D01*
X14056067Y-5456067D02*
X14056067Y-5243933D01*
X13843933Y-5243933D01*
X13843933Y-5456067D01*
X14056067Y-5456067D01*
X14056067Y-7366067D02*
X14056067Y-7153933D01*
X13843933Y-7153933D01*
X13843933Y-7366067D01*
X14056067Y-7366067D01*
X14056067Y-9266067D02*
X14056067Y-9053933D01*
X13843933Y-9053933D01*
X13843933Y-9266067D01*
X14056067Y-9266067D01*
X14056067Y-11176067D02*
X14056067Y-10963933D01*
X13843933Y-10963933D01*
X13843933Y-11176067D01*
X14056067Y-11176067D01*
X14310067Y-4358067D02*
X14310067Y-4145933D01*
X14097933Y-4145933D01*
X14097933Y-4358067D01*
X14310067Y-4358067D01*
X14310067Y-6268067D02*
X14310067Y-6055933D01*
X14097933Y-6055933D01*
X14097933Y-6268067D01*
X14310067Y-6268067D01*
X14310067Y-8168067D02*
X14310067Y-7955933D01*
X14097933Y-7955933D01*
X14097933Y-8168067D01*
X14310067Y-8168067D01*
X14310067Y-10078067D02*
X14310067Y-9865933D01*
X14097933Y-9865933D01*
X14097933Y-10078067D01*
X14310067Y-10078067D01*
X14437067Y-4612067D02*
X14437067Y-4399933D01*
X14224933Y-4399933D01*
X14224933Y-4612067D01*
X14437067Y-4612067D01*
X14437067Y-6522067D02*
X14437067Y-6309933D01*
X14224933Y-6309933D01*
X14224933Y-6522067D01*
X14437067Y-6522067D01*
X14437067Y-8422067D02*
X14437067Y-8209933D01*
X14224933Y-8209933D01*
X14224933Y-8422067D01*
X14437067Y-8422067D01*
X14437067Y-10332067D02*
X14437067Y-10119933D01*
X14224933Y-10119933D01*
X14224933Y-10332067D01*
X14437067Y-10332067D01*
X14506067Y-12851067D02*
X14506067Y-12638933D01*
X14293933Y-12638933D01*
X14293933Y-12851067D01*
X14506067Y-12851067D01*
X14556067Y-5236067D02*
X14556067Y-5023933D01*
X14343933Y-5023933D01*
X14343933Y-5236067D01*
X14556067Y-5236067D01*
X14556067Y-7146067D02*
X14556067Y-6933933D01*
X14343933Y-6933933D01*
X14343933Y-7146067D01*
X14556067Y-7146067D01*
X14556067Y-9046067D02*
X14556067Y-8833933D01*
X14343933Y-8833933D01*
X14343933Y-9046067D01*
X14556067Y-9046067D01*
X14556067Y-10956067D02*
X14556067Y-10743933D01*
X14343933Y-10743933D01*
X14343933Y-10956067D01*
X14556067Y-10956067D01*
X14625067Y-12227067D02*
X14625067Y-12014933D01*
X14412933Y-12014933D01*
X14412933Y-12227067D01*
X14625067Y-12227067D01*
X14752067Y-11973067D02*
X14752067Y-11760933D01*
X14539933Y-11760933D01*
X14539933Y-11973067D01*
X14752067Y-11973067D01*
X15006067Y-13071067D02*
X15006067Y-12858933D01*
X14793933Y-12858933D01*
X14793933Y-13071067D01*
X15006067Y-13071067D01*
X15260067Y-11973067D02*
X15260067Y-11760933D01*
X15047933Y-11760933D01*
X15047933Y-11973067D01*
X15260067Y-11973067D01*
X15387067Y-12227067D02*
X15387067Y-12014933D01*
X15174933Y-12014933D01*
X15174933Y-12227067D01*
X15387067Y-12227067D01*
X15466067Y-5097067D02*
X15466067Y-4884933D01*
X15253933Y-4884933D01*
X15253933Y-5097067D01*
X15466067Y-5097067D01*
X15466067Y-7006067D02*
X15466067Y-6793933D01*
X15253933Y-6793933D01*
X15253933Y-7006067D01*
X15466067Y-7006067D01*
X15466067Y-8916067D02*
X15466067Y-8703933D01*
X15253933Y-8703933D01*
X15253933Y-8916067D01*
X15466067Y-8916067D01*
X15466067Y-10816067D02*
X15466067Y-10603933D01*
X15253933Y-10603933D01*
X15253933Y-10816067D01*
X15466067Y-10816067D01*
X15506067Y-12851067D02*
X15506067Y-12638933D01*
X15293933Y-12638933D01*
X15293933Y-12851067D01*
X15506067Y-12851067D01*
X15585067Y-4473067D02*
X15585067Y-4260933D01*
X15372933Y-4260933D01*
X15372933Y-4473067D01*
X15585067Y-4473067D01*
X15585067Y-6382067D02*
X15585067Y-6169933D01*
X15372933Y-6169933D01*
X15372933Y-6382067D01*
X15585067Y-6382067D01*
X15585067Y-8292067D02*
X15585067Y-8079933D01*
X15372933Y-8079933D01*
X15372933Y-8292067D01*
X15585067Y-8292067D01*
X15585067Y-10192067D02*
X15585067Y-9979933D01*
X15372933Y-9979933D01*
X15372933Y-10192067D01*
X15585067Y-10192067D01*
X15712067Y-4219067D02*
X15712067Y-4006933D01*
X15499933Y-4006933D01*
X15499933Y-4219067D01*
X15712067Y-4219067D01*
X15712067Y-6128067D02*
X15712067Y-5915933D01*
X15499933Y-5915933D01*
X15499933Y-6128067D01*
X15712067Y-6128067D01*
X15712067Y-8038067D02*
X15712067Y-7825933D01*
X15499933Y-7825933D01*
X15499933Y-8038067D01*
X15712067Y-8038067D01*
X15712067Y-9938067D02*
X15712067Y-9725933D01*
X15499933Y-9725933D01*
X15499933Y-9938067D01*
X15712067Y-9938067D01*
X15966067Y-5317067D02*
X15966067Y-5104933D01*
X15753933Y-5104933D01*
X15753933Y-5317067D01*
X15966067Y-5317067D01*
X15966067Y-7226067D02*
X15966067Y-7013933D01*
X15753933Y-7013933D01*
X15753933Y-7226067D01*
X15966067Y-7226067D01*
X15966067Y-9136067D02*
X15966067Y-8923933D01*
X15753933Y-8923933D01*
X15753933Y-9136067D01*
X15966067Y-9136067D01*
X15966067Y-11036067D02*
X15966067Y-10823933D01*
X15753933Y-10823933D01*
X15753933Y-11036067D01*
X15966067Y-11036067D01*
X16220067Y-4219067D02*
X16220067Y-4006933D01*
X16007933Y-4006933D01*
X16007933Y-4219067D01*
X16220067Y-4219067D01*
X16220067Y-6128067D02*
X16220067Y-5915933D01*
X16007933Y-5915933D01*
X16007933Y-6128067D01*
X16220067Y-6128067D01*
X16220067Y-8038067D02*
X16220067Y-7825933D01*
X16007933Y-7825933D01*
X16007933Y-8038067D01*
X16220067Y-8038067D01*
X16220067Y-9938067D02*
X16220067Y-9725933D01*
X16007933Y-9725933D01*
X16007933Y-9938067D01*
X16220067Y-9938067D01*
X16347067Y-4473067D02*
X16347067Y-4260933D01*
X16134933Y-4260933D01*
X16134933Y-4473067D01*
X16347067Y-4473067D01*
X16347067Y-6382067D02*
X16347067Y-6169933D01*
X16134933Y-6169933D01*
X16134933Y-6382067D01*
X16347067Y-6382067D01*
X16347067Y-8292067D02*
X16347067Y-8079933D01*
X16134933Y-8079933D01*
X16134933Y-8292067D01*
X16347067Y-8292067D01*
X16347067Y-10192067D02*
X16347067Y-9979933D01*
X16134933Y-9979933D01*
X16134933Y-10192067D01*
X16347067Y-10192067D01*
X16416067Y-12851067D02*
X16416067Y-12638933D01*
X16203933Y-12638933D01*
X16203933Y-12851067D01*
X16416067Y-12851067D01*
X16466067Y-5097067D02*
X16466067Y-4884933D01*
X16253933Y-4884933D01*
X16253933Y-5097067D01*
X16466067Y-5097067D01*
X16466067Y-7006067D02*
X16466067Y-6793933D01*
X16253933Y-6793933D01*
X16253933Y-7006067D01*
X16466067Y-7006067D01*
X16466067Y-8916067D02*
X16466067Y-8703933D01*
X16253933Y-8703933D01*
X16253933Y-8916067D01*
X16466067Y-8916067D01*
X16466067Y-10816067D02*
X16466067Y-10603933D01*
X16253933Y-10603933D01*
X16253933Y-10816067D01*
X16466067Y-10816067D01*
X16535067Y-12227067D02*
X16535067Y-12014933D01*
X16322933Y-12014933D01*
X16322933Y-12227067D01*
X16535067Y-12227067D01*
X16662067Y-11973067D02*
X16662067Y-11760933D01*
X16449933Y-11760933D01*
X16449933Y-11973067D01*
X16662067Y-11973067D01*
X16916067Y-13071067D02*
X16916067Y-12858933D01*
X16703933Y-12858933D01*
X16703933Y-13071067D01*
X16916067Y-13071067D01*
X17170067Y-11973067D02*
X17170067Y-11760933D01*
X16957933Y-11760933D01*
X16957933Y-11973067D01*
X17170067Y-11973067D01*
X17297067Y-12227067D02*
X17297067Y-12014933D01*
X17084933Y-12014933D01*
X17084933Y-12227067D01*
X17297067Y-12227067D01*
X17366067Y-5236067D02*
X17366067Y-5023933D01*
X17153933Y-5023933D01*
X17153933Y-5236067D01*
X17366067Y-5236067D01*
X17366067Y-7136067D02*
X17366067Y-6923933D01*
X17153933Y-6923933D01*
X17153933Y-7136067D01*
X17366067Y-7136067D01*
X17366067Y-9046067D02*
X17366067Y-8833933D01*
X17153933Y-8833933D01*
X17153933Y-9046067D01*
X17366067Y-9046067D01*
X17366067Y-10956067D02*
X17366067Y-10743933D01*
X17153933Y-10743933D01*
X17153933Y-10956067D01*
X17366067Y-10956067D01*
X17416067Y-12851067D02*
X17416067Y-12638933D01*
X17203933Y-12638933D01*
X17203933Y-12851067D01*
X17416067Y-12851067D01*
X17485067Y-4612067D02*
X17485067Y-4399933D01*
X17272933Y-4399933D01*
X17272933Y-4612067D01*
X17485067Y-4612067D01*
X17485067Y-6512067D02*
X17485067Y-6299933D01*
X17272933Y-6299933D01*
X17272933Y-6512067D01*
X17485067Y-6512067D01*
X17485067Y-8422067D02*
X17485067Y-8209933D01*
X17272933Y-8209933D01*
X17272933Y-8422067D01*
X17485067Y-8422067D01*
X17485067Y-10332067D02*
X17485067Y-10119933D01*
X17272933Y-10119933D01*
X17272933Y-10332067D01*
X17485067Y-10332067D01*
X17612067Y-4358067D02*
X17612067Y-4145933D01*
X17399933Y-4145933D01*
X17399933Y-4358067D01*
X17612067Y-4358067D01*
X17612067Y-6258067D02*
X17612067Y-6045933D01*
X17399933Y-6045933D01*
X17399933Y-6258067D01*
X17612067Y-6258067D01*
X17612067Y-8168067D02*
X17612067Y-7955933D01*
X17399933Y-7955933D01*
X17399933Y-8168067D01*
X17612067Y-8168067D01*
X17612067Y-10078067D02*
X17612067Y-9865933D01*
X17399933Y-9865933D01*
X17399933Y-10078067D01*
X17612067Y-10078067D01*
X17866067Y-5456067D02*
X17866067Y-5243933D01*
X17653933Y-5243933D01*
X17653933Y-5456067D01*
X17866067Y-5456067D01*
X17866067Y-7356067D02*
X17866067Y-7143933D01*
X17653933Y-7143933D01*
X17653933Y-7356067D01*
X17866067Y-7356067D01*
X17866067Y-9266067D02*
X17866067Y-9053933D01*
X17653933Y-9053933D01*
X17653933Y-9266067D01*
X17866067Y-9266067D01*
X17866067Y-11176067D02*
X17866067Y-10963933D01*
X17653933Y-10963933D01*
X17653933Y-11176067D01*
X17866067Y-11176067D01*
X18120067Y-4358067D02*
X18120067Y-4145933D01*
X17907933Y-4145933D01*
X17907933Y-4358067D01*
X18120067Y-4358067D01*
X18120067Y-6258067D02*
X18120067Y-6045933D01*
X17907933Y-6045933D01*
X17907933Y-6258067D01*
X18120067Y-6258067D01*
X18120067Y-8168067D02*
X18120067Y-7955933D01*
X17907933Y-7955933D01*
X17907933Y-8168067D01*
X18120067Y-8168067D01*
X18120067Y-10078067D02*
X18120067Y-9865933D01*
X17907933Y-9865933D01*
X17907933Y-10078067D01*
X18120067Y-10078067D01*
X18247067Y-4612067D02*
X18247067Y-4399933D01*
X18034933Y-4399933D01*
X18034933Y-4612067D01*
X18247067Y-4612067D01*
X18247067Y-6512067D02*
X18247067Y-6299933D01*
X18034933Y-6299933D01*
X18034933Y-6512067D01*
X18247067Y-6512067D01*
X18247067Y-8422067D02*
X18247067Y-8209933D01*
X18034933Y-8209933D01*
X18034933Y-8422067D01*
X18247067Y-8422067D01*
X18247067Y-10332067D02*
X18247067Y-10119933D01*
X18034933Y-10119933D01*
X18034933Y-10332067D01*
X18247067Y-10332067D01*
X18366067Y-5236067D02*
X18366067Y-5023933D01*
X18153933Y-5023933D01*
X18153933Y-5236067D01*
X18366067Y-5236067D01*
X18366067Y-7136067D02*
X18366067Y-6923933D01*
X18153933Y-6923933D01*
X18153933Y-7136067D01*
X18366067Y-7136067D01*
X18366067Y-9046067D02*
X18366067Y-8833933D01*
X18153933Y-8833933D01*
X18153933Y-9046067D01*
X18366067Y-9046067D01*
X18366067Y-10956067D02*
X18366067Y-10743933D01*
X18153933Y-10743933D01*
X18153933Y-10956067D01*
X18366067Y-10956067D01*
X19276067Y-5716067D02*
X19276067Y-5503933D01*
X19063933Y-5503933D01*
X19063933Y-5716067D01*
X19276067Y-5716067D01*
X19276067Y-7606067D02*
X19276067Y-7393933D01*
X19063933Y-7393933D01*
X19063933Y-7606067D01*
X19276067Y-7606067D01*
X19276067Y-9526067D02*
X19276067Y-9313933D01*
X19063933Y-9313933D01*
X19063933Y-9526067D01*
X19276067Y-9526067D01*
X19276067Y-11426067D02*
X19276067Y-11213933D01*
X19063933Y-11213933D01*
X19063933Y-11426067D01*
X19276067Y-11426067D01*
X19395067Y-5092067D02*
X19395067Y-4879933D01*
X19182933Y-4879933D01*
X19182933Y-5092067D01*
X19395067Y-5092067D01*
X19395067Y-6982067D02*
X19395067Y-6769933D01*
X19182933Y-6769933D01*
X19182933Y-6982067D01*
X19395067Y-6982067D01*
X19395067Y-8902067D02*
X19395067Y-8689933D01*
X19182933Y-8689933D01*
X19182933Y-8902067D01*
X19395067Y-8902067D01*
X19395067Y-10802067D02*
X19395067Y-10589933D01*
X19182933Y-10589933D01*
X19182933Y-10802067D01*
X19395067Y-10802067D01*
X19522067Y-4838067D02*
X19522067Y-4625933D01*
X19309933Y-4625933D01*
X19309933Y-4838067D01*
X19522067Y-4838067D01*
X19522067Y-6728067D02*
X19522067Y-6515933D01*
X19309933Y-6515933D01*
X19309933Y-6728067D01*
X19522067Y-6728067D01*
X19522067Y-8648067D02*
X19522067Y-8435933D01*
X19309933Y-8435933D01*
X19309933Y-8648067D01*
X19522067Y-8648067D01*
X19522067Y-10548067D02*
X19522067Y-10335933D01*
X19309933Y-10335933D01*
X19309933Y-10548067D01*
X19522067Y-10548067D01*
X19776067Y-5936067D02*
X19776067Y-5723933D01*
X19563933Y-5723933D01*
X19563933Y-5936067D01*
X19776067Y-5936067D01*
X19776067Y-7826067D02*
X19776067Y-7613933D01*
X19563933Y-7613933D01*
X19563933Y-7826067D01*
X19776067Y-7826067D01*
X19776067Y-9746067D02*
X19776067Y-9533933D01*
X19563933Y-9533933D01*
X19563933Y-9746067D01*
X19776067Y-9746067D01*
X19776067Y-11646067D02*
X19776067Y-11433933D01*
X19563933Y-11433933D01*
X19563933Y-11646067D01*
X19776067Y-11646067D01*
X20030067Y-4838067D02*
X20030067Y-4625933D01*
X19817933Y-4625933D01*
X19817933Y-4838067D01*
X20030067Y-4838067D01*
X20030067Y-6728067D02*
X20030067Y-6515933D01*
X19817933Y-6515933D01*
X19817933Y-6728067D01*
X20030067Y-6728067D01*
X20030067Y-8648067D02*
X20030067Y-8435933D01*
X19817933Y-8435933D01*
X19817933Y-8648067D01*
X20030067Y-8648067D01*
X20030067Y-10548067D02*
X20030067Y-10335933D01*
X19817933Y-10335933D01*
X19817933Y-10548067D01*
X20030067Y-10548067D01*
X20157067Y-5092067D02*
X20157067Y-4879933D01*
X19944933Y-4879933D01*
X19944933Y-5092067D01*
X20157067Y-5092067D01*
X20157067Y-6982067D02*
X20157067Y-6769933D01*
X19944933Y-6769933D01*
X19944933Y-6982067D01*
X20157067Y-6982067D01*
X20157067Y-8902067D02*
X20157067Y-8689933D01*
X19944933Y-8689933D01*
X19944933Y-8902067D01*
X20157067Y-8902067D01*
X20157067Y-10802067D02*
X20157067Y-10589933D01*
X19944933Y-10589933D01*
X19944933Y-10802067D01*
X20157067Y-10802067D01*
X20276067Y-5716067D02*
X20276067Y-5503933D01*
X20063933Y-5503933D01*
X20063933Y-5716067D01*
X20276067Y-5716067D01*
X20276067Y-7606067D02*
X20276067Y-7393933D01*
X20063933Y-7393933D01*
X20063933Y-7606067D01*
X20276067Y-7606067D01*
X20276067Y-9526067D02*
X20276067Y-9313933D01*
X20063933Y-9313933D01*
X20063933Y-9526067D01*
X20276067Y-9526067D01*
X20276067Y-11426067D02*
X20276067Y-11213933D01*
X20063933Y-11213933D01*
X20063933Y-11426067D01*
X20276067Y-11426067D01*
X21176067Y-5866067D02*
X21176067Y-5653933D01*
X20963933Y-5653933D01*
X20963933Y-5866067D01*
X21176067Y-5866067D01*
X21176067Y-7756067D02*
X21176067Y-7543933D01*
X20963933Y-7543933D01*
X20963933Y-7756067D01*
X21176067Y-7756067D01*
X21176067Y-9676067D02*
X21176067Y-9463933D01*
X20963933Y-9463933D01*
X20963933Y-9676067D01*
X21176067Y-9676067D01*
X21181067Y-11576067D02*
X21181067Y-11363933D01*
X20968933Y-11363933D01*
X20968933Y-11576067D01*
X21181067Y-11576067D01*
X21295067Y-5242067D02*
X21295067Y-5029933D01*
X21082933Y-5029933D01*
X21082933Y-5242067D01*
X21295067Y-5242067D01*
X21295067Y-7132067D02*
X21295067Y-6919933D01*
X21082933Y-6919933D01*
X21082933Y-7132067D01*
X21295067Y-7132067D01*
X21295067Y-9052067D02*
X21295067Y-8839933D01*
X21082933Y-8839933D01*
X21082933Y-9052067D01*
X21295067Y-9052067D01*
X21300067Y-10952067D02*
X21300067Y-10739933D01*
X21087933Y-10739933D01*
X21087933Y-10952067D01*
X21300067Y-10952067D01*
X21422067Y-4988067D02*
X21422067Y-4775933D01*
X21209933Y-4775933D01*
X21209933Y-4988067D01*
X21422067Y-4988067D01*
X21422067Y-6878067D02*
X21422067Y-6665933D01*
X21209933Y-6665933D01*
X21209933Y-6878067D01*
X21422067Y-6878067D01*
X21422067Y-8798067D02*
X21422067Y-8585933D01*
X21209933Y-8585933D01*
X21209933Y-8798067D01*
X21422067Y-8798067D01*
X21427067Y-10698067D02*
X21427067Y-10485933D01*
X21214933Y-10485933D01*
X21214933Y-10698067D01*
X21427067Y-10698067D01*
X21676067Y-6086067D02*
X21676067Y-5873933D01*
X21463933Y-5873933D01*
X21463933Y-6086067D01*
X21676067Y-6086067D01*
X21676067Y-7976067D02*
X21676067Y-7763933D01*
X21463933Y-7763933D01*
X21463933Y-7976067D01*
X21676067Y-7976067D01*
X21676067Y-9896067D02*
X21676067Y-9683933D01*
X21463933Y-9683933D01*
X21463933Y-9896067D01*
X21676067Y-9896067D01*
X21681067Y-11796067D02*
X21681067Y-11583933D01*
X21468933Y-11583933D01*
X21468933Y-11796067D01*
X21681067Y-11796067D01*
X21930067Y-4988067D02*
X21930067Y-4775933D01*
X21717933Y-4775933D01*
X21717933Y-4988067D01*
X21930067Y-4988067D01*
X21930067Y-6878067D02*
X21930067Y-6665933D01*
X21717933Y-6665933D01*
X21717933Y-6878067D01*
X21930067Y-6878067D01*
X21930067Y-8798067D02*
X21930067Y-8585933D01*
X21717933Y-8585933D01*
X21717933Y-8798067D01*
X21930067Y-8798067D01*
X21935067Y-10698067D02*
X21935067Y-10485933D01*
X21722933Y-10485933D01*
X21722933Y-10698067D01*
X21935067Y-10698067D01*
X22057067Y-5242067D02*
X22057067Y-5029933D01*
X21844933Y-5029933D01*
X21844933Y-5242067D01*
X22057067Y-5242067D01*
X22057067Y-7132067D02*
X22057067Y-6919933D01*
X21844933Y-6919933D01*
X21844933Y-7132067D01*
X22057067Y-7132067D01*
X22057067Y-9052067D02*
X22057067Y-8839933D01*
X21844933Y-8839933D01*
X21844933Y-9052067D01*
X22057067Y-9052067D01*
X22062067Y-10952067D02*
X22062067Y-10739933D01*
X21849933Y-10739933D01*
X21849933Y-10952067D01*
X22062067Y-10952067D01*
X22176067Y-5866067D02*
X22176067Y-5653933D01*
X21963933Y-5653933D01*
X21963933Y-5866067D01*
X22176067Y-5866067D01*
X22176067Y-7756067D02*
X22176067Y-7543933D01*
X21963933Y-7543933D01*
X21963933Y-7756067D01*
X22176067Y-7756067D01*
X22176067Y-9676067D02*
X22176067Y-9463933D01*
X21963933Y-9463933D01*
X21963933Y-9676067D01*
X22176067Y-9676067D01*
X22181067Y-11576067D02*
X22181067Y-11363933D01*
X21968933Y-11363933D01*
X21968933Y-11576067D01*
X22181067Y-11576067D01*
X10500000Y-12900000D02*
X10700000Y-12700000D01*
X10500000Y-12500000D01*
X10300000Y-12700000D01*
X10500000Y-12900000D01*
X12050000Y-5200000D02*
X12250000Y-5000000D01*
X12050000Y-4800000D01*
X11850000Y-5000000D01*
X12050000Y-5200000D01*
X12050000Y-7110000D02*
X12250000Y-6910000D01*
X12050000Y-6710000D01*
X11850000Y-6910000D01*
X12050000Y-7110000D01*
X12050000Y-9010000D02*
X12250000Y-8810000D01*
X12050000Y-8610000D01*
X11850000Y-8810000D01*
X12050000Y-9010000D01*
X12050000Y-10910000D02*
X12250000Y-10710000D01*
X12050000Y-10510000D01*
X11850000Y-10710000D01*
X12050000Y-10910000D01*
X13000000Y-12800000D02*
X13200000Y-12600000D01*
X13000000Y-12400000D01*
X12800000Y-12600000D01*
X13000000Y-12800000D01*
X13950000Y-4960000D02*
X14150000Y-4760000D01*
X13950000Y-4560000D01*
X13750000Y-4760000D01*
X13950000Y-4960000D01*
X13950000Y-6870000D02*
X14150000Y-6670000D01*
X13950000Y-6470000D01*
X13750000Y-6670000D01*
X13950000Y-6870000D01*
X13950000Y-8770000D02*
X14150000Y-8570000D01*
X13950000Y-8370000D01*
X13750000Y-8570000D01*
X13950000Y-8770000D01*
X13950000Y-10680000D02*
X14150000Y-10480000D01*
X13950000Y-10280000D01*
X13750000Y-10480000D01*
X13950000Y-10680000D01*
X14900000Y-12575000D02*
X15100000Y-12375000D01*
X14900000Y-12175000D01*
X14700000Y-12375000D01*
X14900000Y-12575000D01*
X15860000Y-4821000D02*
X16060000Y-4621000D01*
X15860000Y-4421000D01*
X15660000Y-4621000D01*
X15860000Y-4821000D01*
X15860000Y-6730000D02*
X16060000Y-6530000D01*
X15860000Y-6330000D01*
X15660000Y-6530000D01*
X15860000Y-6730000D01*
X15860000Y-8640000D02*
X16060000Y-8440000D01*
X15860000Y-8240000D01*
X15660000Y-8440000D01*
X15860000Y-8640000D01*
X15860000Y-10540000D02*
X16060000Y-10340000D01*
X15860000Y-10140000D01*
X15660000Y-10340000D01*
X15860000Y-10540000D01*
X16810000Y-12575000D02*
X17010000Y-12375000D01*
X16810000Y-12175000D01*
X16610000Y-12375000D01*
X16810000Y-12575000D01*
X17760000Y-4960000D02*
X17960000Y-4760000D01*
X17760000Y-4560000D01*
X17560000Y-4760000D01*
X17760000Y-4960000D01*
X17760000Y-6860000D02*
X17960000Y-6660000D01*
X17760000Y-6460000D01*
X17560000Y-6660000D01*
X17760000Y-6860000D01*
X17760000Y-8770000D02*
X17960000Y-8570000D01*
X17760000Y-8370000D01*
X17560000Y-8570000D01*
X17760000Y-8770000D01*
X17760000Y-10680000D02*
X17960000Y-10480000D01*
X17760000Y-10280000D01*
X17560000Y-10480000D01*
X17760000Y-10680000D01*
X19670000Y-5440000D02*
X19870000Y-5240000D01*
X19670000Y-5040000D01*
X19470000Y-5240000D01*
X19670000Y-5440000D01*
X19670000Y-7330000D02*
X19870000Y-7130000D01*
X19670000Y-6930000D01*
X19470000Y-7130000D01*
X19670000Y-7330000D01*
X19670000Y-9250000D02*
X19870000Y-9050000D01*
X19670000Y-8850000D01*
X19470000Y-9050000D01*
X19670000Y-9250000D01*
X19670000Y-11150000D02*
X19870000Y-10950000D01*
X19670000Y-10750000D01*
X19470000Y-10950000D01*
X19670000Y-11150000D01*
X21570000Y-5590000D02*
X21770000Y-5390000D01*
X21570000Y-5190000D01*
X21370000Y-5390000D01*
X21570000Y-5590000D01*
X21570000Y-7480000D02*
X21770000Y-7280000D01*
X21570000Y-7080000D01*
X21370000Y-7280000D01*
X21570000Y-7480000D01*
X21570000Y-9400000D02*
X21770000Y-9200000D01*
X21570000Y-9000000D01*
X21370000Y-9200000D01*
X21570000Y-9400000D01*
X21575000Y-11300000D02*
X21775000Y-11100000D01*
X21575000Y-10900000D01*
X21375000Y-11100000D01*
X21575000Y-11300000D01*
D12*
X8570181Y-14817112D02*
X8570181Y-14517112D01*
X8641610Y-14517112D01*
X8684467Y-14531397D01*
X8713038Y-14559969D01*
X8727324Y-14588540D01*
X8741610Y-14645683D01*
X8741610Y-14688540D01*
X8727324Y-14745683D01*
X8713038Y-14774255D01*
X8684467Y-14802826D01*
X8641610Y-14817112D01*
X8570181Y-14817112D01*
X8870181Y-14817112D02*
X8870181Y-14617112D01*
X8870181Y-14674255D02*
X8884467Y-14645683D01*
X8898753Y-14631397D01*
X8927324Y-14617112D01*
X8955896Y-14617112D01*
X9055896Y-14817112D02*
X9055896Y-14617112D01*
X9055896Y-14517112D02*
X9041610Y-14531397D01*
X9055896Y-14545683D01*
X9070181Y-14531397D01*
X9055896Y-14517112D01*
X9055896Y-14545683D01*
X9241610Y-14817112D02*
X9213038Y-14802826D01*
X9198753Y-14774255D01*
X9198753Y-14517112D01*
X9398753Y-14817112D02*
X9370181Y-14802826D01*
X9355896Y-14774255D01*
X9355896Y-14517112D01*
X9741610Y-14817112D02*
X9741610Y-14517112D01*
X9841610Y-14731397D01*
X9941610Y-14517112D01*
X9941610Y-14817112D01*
X10213038Y-14817112D02*
X10213038Y-14659969D01*
X10198753Y-14631397D01*
X10170181Y-14617112D01*
X10113038Y-14617112D01*
X10084467Y-14631397D01*
X10213038Y-14802826D02*
X10184467Y-14817112D01*
X10113038Y-14817112D01*
X10084467Y-14802826D01*
X10070181Y-14774255D01*
X10070181Y-14745683D01*
X10084467Y-14717112D01*
X10113038Y-14702826D01*
X10184467Y-14702826D01*
X10213038Y-14688540D01*
X10355896Y-14617112D02*
X10355896Y-14917112D01*
X10355896Y-14631397D02*
X10384467Y-14617112D01*
X10441610Y-14617112D01*
X10470181Y-14631397D01*
X10484467Y-14645683D01*
X10498753Y-14674255D01*
X10498753Y-14759969D01*
X10484467Y-14788540D01*
X10470181Y-14802826D01*
X10441610Y-14817112D01*
X10384467Y-14817112D01*
X10355896Y-14802826D01*
X10627324Y-14788540D02*
X10641610Y-14802826D01*
X10627324Y-14817112D01*
X10613038Y-14802826D01*
X10627324Y-14788540D01*
X10627324Y-14817112D01*
X10627324Y-14631397D02*
X10641610Y-14645683D01*
X10627324Y-14659969D01*
X10613038Y-14645683D01*
X10627324Y-14631397D01*
X10627324Y-14659969D01*
X8163753Y-15251397D02*
X8283753Y-15371397D01*
X8283753Y-15251397D02*
X8163753Y-15371397D01*
X8727324Y-15447112D02*
X8555896Y-15447112D01*
X8641610Y-15447112D02*
X8641610Y-15147112D01*
X8613038Y-15189969D01*
X8584467Y-15218540D01*
X8555896Y-15232826D01*
X8855896Y-15418540D02*
X8870181Y-15432826D01*
X8855896Y-15447112D01*
X8841610Y-15432826D01*
X8855896Y-15418540D01*
X8855896Y-15447112D01*
X8984467Y-15175683D02*
X8998753Y-15161397D01*
X9027324Y-15147112D01*
X9098753Y-15147112D01*
X9127324Y-15161397D01*
X9141610Y-15175683D01*
X9155896Y-15204255D01*
X9155896Y-15232826D01*
X9141610Y-15275683D01*
X8970181Y-15447112D01*
X9155896Y-15447112D01*
X9341610Y-15147112D02*
X9370181Y-15147112D01*
X9398753Y-15161397D01*
X9413038Y-15175683D01*
X9427324Y-15204255D01*
X9441610Y-15261397D01*
X9441610Y-15332826D01*
X9427324Y-15389969D01*
X9413038Y-15418540D01*
X9398753Y-15432826D01*
X9370181Y-15447112D01*
X9341610Y-15447112D01*
X9313038Y-15432826D01*
X9298753Y-15418540D01*
X9284467Y-15389969D01*
X9270181Y-15332826D01*
X9270181Y-15261397D01*
X9284467Y-15204255D01*
X9298753Y-15175683D01*
X9313038Y-15161397D01*
X9341610Y-15147112D01*
X9627324Y-15147112D02*
X9655896Y-15147112D01*
X9684467Y-15161397D01*
X9698753Y-15175683D01*
X9713038Y-15204255D01*
X9727324Y-15261397D01*
X9727324Y-15332826D01*
X9713038Y-15389969D01*
X9698753Y-15418540D01*
X9684467Y-15432826D01*
X9655896Y-15447112D01*
X9627324Y-15447112D01*
X9598753Y-15432826D01*
X9584467Y-15418540D01*
X9570181Y-15389969D01*
X9555896Y-15332826D01*
X9555896Y-15261397D01*
X9570181Y-15204255D01*
X9584467Y-15175683D01*
X9598753Y-15161397D01*
X9627324Y-15147112D01*
X9855896Y-15447112D02*
X9855896Y-15247112D01*
X9855896Y-15275683D02*
X9870181Y-15261397D01*
X9898753Y-15247112D01*
X9941610Y-15247112D01*
X9970181Y-15261397D01*
X9984467Y-15289969D01*
X9984467Y-15447112D01*
X9984467Y-15289969D02*
X9998753Y-15261397D01*
X10027324Y-15247112D01*
X10070181Y-15247112D01*
X10098753Y-15261397D01*
X10113038Y-15289969D01*
X10113038Y-15447112D01*
X10255896Y-15447112D02*
X10255896Y-15247112D01*
X10255896Y-15275683D02*
X10270181Y-15261397D01*
X10298753Y-15247112D01*
X10341610Y-15247112D01*
X10370181Y-15261397D01*
X10384467Y-15289969D01*
X10384467Y-15447112D01*
X10384467Y-15289969D02*
X10398753Y-15261397D01*
X10427324Y-15247112D01*
X10470181Y-15247112D01*
X10498753Y-15261397D01*
X10513038Y-15289969D01*
X10513038Y-15447112D01*
X11098753Y-15132826D02*
X10841610Y-15518540D01*
X11484467Y-15147112D02*
X11513038Y-15147112D01*
X11541610Y-15161397D01*
X11555895Y-15175683D01*
X11570181Y-15204255D01*
X11584467Y-15261397D01*
X11584467Y-15332826D01*
X11570181Y-15389969D01*
X11555895Y-15418540D01*
X11541610Y-15432826D01*
X11513038Y-15447112D01*
X11484467Y-15447112D01*
X11455895Y-15432826D01*
X11441610Y-15418540D01*
X11427324Y-15389969D01*
X11413038Y-15332826D01*
X11413038Y-15261397D01*
X11427324Y-15204255D01*
X11441610Y-15175683D01*
X11455895Y-15161397D01*
X11484467Y-15147112D01*
X11713038Y-15418540D02*
X11727324Y-15432826D01*
X11713038Y-15447112D01*
X11698753Y-15432826D01*
X11713038Y-15418540D01*
X11713038Y-15447112D01*
X11913038Y-15147112D02*
X11941610Y-15147112D01*
X11970181Y-15161397D01*
X11984467Y-15175683D01*
X11998753Y-15204255D01*
X12013038Y-15261397D01*
X12013038Y-15332826D01*
X11998753Y-15389969D01*
X11984467Y-15418540D01*
X11970181Y-15432826D01*
X11941610Y-15447112D01*
X11913038Y-15447112D01*
X11884467Y-15432826D01*
X11870181Y-15418540D01*
X11855895Y-15389969D01*
X11841610Y-15332826D01*
X11841610Y-15261397D01*
X11855895Y-15204255D01*
X11870181Y-15175683D01*
X11884467Y-15161397D01*
X11913038Y-15147112D01*
X12270181Y-15247112D02*
X12270181Y-15447112D01*
X12198753Y-15132826D02*
X12127324Y-15347112D01*
X12313038Y-15347112D01*
X12398753Y-15147112D02*
X12598753Y-15147112D01*
X12470181Y-15447112D01*
X12698753Y-15175683D02*
X12713038Y-15161397D01*
X12741610Y-15147112D01*
X12813038Y-15147112D01*
X12841610Y-15161397D01*
X12855895Y-15175683D01*
X12870181Y-15204255D01*
X12870181Y-15232826D01*
X12855895Y-15275683D01*
X12684467Y-15447112D01*
X12870181Y-15447112D01*
X12984467Y-15147112D02*
X12984467Y-15204255D01*
X13098753Y-15147112D02*
X13098753Y-15204255D01*
X13541610Y-15561397D02*
X13527324Y-15547112D01*
X13498753Y-15504255D01*
X13484467Y-15475683D01*
X13470181Y-15432826D01*
X13455895Y-15361397D01*
X13455895Y-15304255D01*
X13470181Y-15232826D01*
X13484467Y-15189969D01*
X13498753Y-15161397D01*
X13527324Y-15118540D01*
X13541610Y-15104255D01*
X13784467Y-15247112D02*
X13784467Y-15447112D01*
X13713038Y-15132826D02*
X13641610Y-15347112D01*
X13827324Y-15347112D01*
X14170181Y-15447112D02*
X14170181Y-15147112D01*
X14298753Y-15447112D02*
X14298753Y-15289969D01*
X14284467Y-15261397D01*
X14255895Y-15247112D01*
X14213038Y-15247112D01*
X14184467Y-15261397D01*
X14170181Y-15275683D01*
X14484467Y-15447112D02*
X14455895Y-15432826D01*
X14441610Y-15418540D01*
X14427324Y-15389969D01*
X14427324Y-15304255D01*
X14441610Y-15275683D01*
X14455895Y-15261397D01*
X14484467Y-15247112D01*
X14527324Y-15247112D01*
X14555895Y-15261397D01*
X14570181Y-15275683D01*
X14584467Y-15304255D01*
X14584467Y-15389969D01*
X14570181Y-15418540D01*
X14555895Y-15432826D01*
X14527324Y-15447112D01*
X14484467Y-15447112D01*
X14755895Y-15447112D02*
X14727324Y-15432826D01*
X14713038Y-15404255D01*
X14713038Y-15147112D01*
X14984467Y-15432826D02*
X14955895Y-15447112D01*
X14898753Y-15447112D01*
X14870181Y-15432826D01*
X14855895Y-15404255D01*
X14855895Y-15289969D01*
X14870181Y-15261397D01*
X14898753Y-15247112D01*
X14955895Y-15247112D01*
X14984467Y-15261397D01*
X14998753Y-15289969D01*
X14998753Y-15318540D01*
X14855895Y-15347112D01*
X15113038Y-15432826D02*
X15141610Y-15447112D01*
X15198753Y-15447112D01*
X15227324Y-15432826D01*
X15241610Y-15404255D01*
X15241610Y-15389969D01*
X15227324Y-15361397D01*
X15198753Y-15347112D01*
X15155895Y-15347112D01*
X15127324Y-15332826D01*
X15113038Y-15304255D01*
X15113038Y-15289969D01*
X15127324Y-15261397D01*
X15155895Y-15247112D01*
X15198753Y-15247112D01*
X15227324Y-15261397D01*
X15341610Y-15561397D02*
X15355895Y-15547112D01*
X15384467Y-15504255D01*
X15398753Y-15475683D01*
X15413038Y-15432826D01*
X15427324Y-15361397D01*
X15427324Y-15304255D01*
X15413038Y-15232826D01*
X15398753Y-15189969D01*
X15384467Y-15161397D01*
X15355895Y-15118540D01*
X15341610Y-15104255D01*
X15884467Y-15561397D02*
X15870181Y-15547112D01*
X15841610Y-15504255D01*
X15827324Y-15475683D01*
X15813038Y-15432826D01*
X15798753Y-15361397D01*
X15798753Y-15304255D01*
X15813038Y-15232826D01*
X15827324Y-15189969D01*
X15841610Y-15161397D01*
X15870181Y-15118540D01*
X15884467Y-15104255D01*
X15998753Y-15247112D02*
X15998753Y-15447112D01*
X15998753Y-15275683D02*
X16013038Y-15261397D01*
X16041610Y-15247112D01*
X16084467Y-15247112D01*
X16113038Y-15261397D01*
X16127324Y-15289969D01*
X16127324Y-15447112D01*
X16313038Y-15447112D02*
X16284467Y-15432826D01*
X16270181Y-15418540D01*
X16255895Y-15389969D01*
X16255895Y-15304255D01*
X16270181Y-15275683D01*
X16284467Y-15261397D01*
X16313038Y-15247112D01*
X16355895Y-15247112D01*
X16384467Y-15261397D01*
X16398753Y-15275683D01*
X16413038Y-15304255D01*
X16413038Y-15389969D01*
X16398753Y-15418540D01*
X16384467Y-15432826D01*
X16355895Y-15447112D01*
X16313038Y-15447112D01*
X16498753Y-15247112D02*
X16613038Y-15247112D01*
X16541610Y-15147112D02*
X16541610Y-15404255D01*
X16555895Y-15432826D01*
X16584467Y-15447112D01*
X16613038Y-15447112D01*
X16941610Y-15247112D02*
X16941610Y-15547112D01*
X16941610Y-15261397D02*
X16970181Y-15247112D01*
X17027324Y-15247112D01*
X17055896Y-15261397D01*
X17070181Y-15275683D01*
X17084467Y-15304255D01*
X17084467Y-15389969D01*
X17070181Y-15418540D01*
X17055896Y-15432826D01*
X17027324Y-15447112D01*
X16970181Y-15447112D01*
X16941610Y-15432826D01*
X17255896Y-15447112D02*
X17227324Y-15432826D01*
X17213038Y-15404255D01*
X17213038Y-15147112D01*
X17498753Y-15447112D02*
X17498753Y-15289969D01*
X17484467Y-15261397D01*
X17455896Y-15247112D01*
X17398753Y-15247112D01*
X17370181Y-15261397D01*
X17498753Y-15432826D02*
X17470181Y-15447112D01*
X17398753Y-15447112D01*
X17370181Y-15432826D01*
X17355896Y-15404255D01*
X17355896Y-15375683D01*
X17370181Y-15347112D01*
X17398753Y-15332826D01*
X17470181Y-15332826D01*
X17498753Y-15318540D01*
X17598753Y-15247112D02*
X17713038Y-15247112D01*
X17641610Y-15147112D02*
X17641610Y-15404255D01*
X17655896Y-15432826D01*
X17684467Y-15447112D01*
X17713038Y-15447112D01*
X17927324Y-15432826D02*
X17898753Y-15447112D01*
X17841610Y-15447112D01*
X17813038Y-15432826D01*
X17798753Y-15404255D01*
X17798753Y-15289969D01*
X17813038Y-15261397D01*
X17841610Y-15247112D01*
X17898753Y-15247112D01*
X17927324Y-15261397D01*
X17941610Y-15289969D01*
X17941610Y-15318540D01*
X17798753Y-15347112D01*
X18198753Y-15447112D02*
X18198753Y-15147112D01*
X18198753Y-15432826D02*
X18170181Y-15447112D01*
X18113038Y-15447112D01*
X18084467Y-15432826D01*
X18070181Y-15418540D01*
X18055896Y-15389969D01*
X18055896Y-15304255D01*
X18070181Y-15275683D01*
X18084467Y-15261397D01*
X18113038Y-15247112D01*
X18170181Y-15247112D01*
X18198753Y-15261397D01*
X18313038Y-15561397D02*
X18327324Y-15547112D01*
X18355896Y-15504255D01*
X18370181Y-15475683D01*
X18384467Y-15432826D01*
X18398753Y-15361397D01*
X18398753Y-15304255D01*
X18384467Y-15232826D01*
X18370181Y-15189969D01*
X18355896Y-15161397D01*
X18327324Y-15118540D01*
X18313038Y-15104255D01*
X8283753Y-15707397D02*
G75*
G03*
X8283753Y-15707397I-85000J0D01*
G01*
X8727324Y-15843112D02*
X8555896Y-15843112D01*
X8641610Y-15843112D02*
X8641610Y-15543112D01*
X8613038Y-15585969D01*
X8584467Y-15614540D01*
X8555896Y-15628826D01*
X8855896Y-15814540D02*
X8870181Y-15828826D01*
X8855896Y-15843112D01*
X8841610Y-15828826D01*
X8855896Y-15814540D01*
X8855896Y-15843112D01*
X8970181Y-15543112D02*
X9170181Y-15543112D01*
X9041610Y-15843112D01*
X9341610Y-15543112D02*
X9370181Y-15543112D01*
X9398753Y-15557397D01*
X9413038Y-15571683D01*
X9427324Y-15600255D01*
X9441610Y-15657397D01*
X9441610Y-15728826D01*
X9427324Y-15785969D01*
X9413038Y-15814540D01*
X9398753Y-15828826D01*
X9370181Y-15843112D01*
X9341610Y-15843112D01*
X9313038Y-15828826D01*
X9298753Y-15814540D01*
X9284467Y-15785969D01*
X9270181Y-15728826D01*
X9270181Y-15657397D01*
X9284467Y-15600255D01*
X9298753Y-15571683D01*
X9313038Y-15557397D01*
X9341610Y-15543112D01*
X9627324Y-15543112D02*
X9655896Y-15543112D01*
X9684467Y-15557397D01*
X9698753Y-15571683D01*
X9713038Y-15600255D01*
X9727324Y-15657397D01*
X9727324Y-15728826D01*
X9713038Y-15785969D01*
X9698753Y-15814540D01*
X9684467Y-15828826D01*
X9655896Y-15843112D01*
X9627324Y-15843112D01*
X9598753Y-15828826D01*
X9584467Y-15814540D01*
X9570181Y-15785969D01*
X9555896Y-15728826D01*
X9555896Y-15657397D01*
X9570181Y-15600255D01*
X9584467Y-15571683D01*
X9598753Y-15557397D01*
X9627324Y-15543112D01*
X9855896Y-15843112D02*
X9855896Y-15643112D01*
X9855896Y-15671683D02*
X9870181Y-15657397D01*
X9898753Y-15643112D01*
X9941610Y-15643112D01*
X9970181Y-15657397D01*
X9984467Y-15685969D01*
X9984467Y-15843112D01*
X9984467Y-15685969D02*
X9998753Y-15657397D01*
X10027324Y-15643112D01*
X10070181Y-15643112D01*
X10098753Y-15657397D01*
X10113038Y-15685969D01*
X10113038Y-15843112D01*
X10255896Y-15843112D02*
X10255896Y-15643112D01*
X10255896Y-15671683D02*
X10270181Y-15657397D01*
X10298753Y-15643112D01*
X10341610Y-15643112D01*
X10370181Y-15657397D01*
X10384467Y-15685969D01*
X10384467Y-15843112D01*
X10384467Y-15685969D02*
X10398753Y-15657397D01*
X10427324Y-15643112D01*
X10470181Y-15643112D01*
X10498753Y-15657397D01*
X10513038Y-15685969D01*
X10513038Y-15843112D01*
X11098753Y-15528826D02*
X10841610Y-15914540D01*
X11484467Y-15543112D02*
X11513038Y-15543112D01*
X11541610Y-15557397D01*
X11555895Y-15571683D01*
X11570181Y-15600255D01*
X11584467Y-15657397D01*
X11584467Y-15728826D01*
X11570181Y-15785969D01*
X11555895Y-15814540D01*
X11541610Y-15828826D01*
X11513038Y-15843112D01*
X11484467Y-15843112D01*
X11455895Y-15828826D01*
X11441610Y-15814540D01*
X11427324Y-15785969D01*
X11413038Y-15728826D01*
X11413038Y-15657397D01*
X11427324Y-15600255D01*
X11441610Y-15571683D01*
X11455895Y-15557397D01*
X11484467Y-15543112D01*
X11713038Y-15814540D02*
X11727324Y-15828826D01*
X11713038Y-15843112D01*
X11698753Y-15828826D01*
X11713038Y-15814540D01*
X11713038Y-15843112D01*
X11913038Y-15543112D02*
X11941610Y-15543112D01*
X11970181Y-15557397D01*
X11984467Y-15571683D01*
X11998753Y-15600255D01*
X12013038Y-15657397D01*
X12013038Y-15728826D01*
X11998753Y-15785969D01*
X11984467Y-15814540D01*
X11970181Y-15828826D01*
X11941610Y-15843112D01*
X11913038Y-15843112D01*
X11884467Y-15828826D01*
X11870181Y-15814540D01*
X11855895Y-15785969D01*
X11841610Y-15728826D01*
X11841610Y-15657397D01*
X11855895Y-15600255D01*
X11870181Y-15571683D01*
X11884467Y-15557397D01*
X11913038Y-15543112D01*
X12270181Y-15543112D02*
X12213038Y-15543112D01*
X12184467Y-15557397D01*
X12170181Y-15571683D01*
X12141610Y-15614540D01*
X12127324Y-15671683D01*
X12127324Y-15785969D01*
X12141610Y-15814540D01*
X12155895Y-15828826D01*
X12184467Y-15843112D01*
X12241610Y-15843112D01*
X12270181Y-15828826D01*
X12284467Y-15814540D01*
X12298753Y-15785969D01*
X12298753Y-15714540D01*
X12284467Y-15685969D01*
X12270181Y-15671683D01*
X12241610Y-15657397D01*
X12184467Y-15657397D01*
X12155895Y-15671683D01*
X12141610Y-15685969D01*
X12127324Y-15714540D01*
X12555895Y-15543112D02*
X12498753Y-15543112D01*
X12470181Y-15557397D01*
X12455895Y-15571683D01*
X12427324Y-15614540D01*
X12413038Y-15671683D01*
X12413038Y-15785969D01*
X12427324Y-15814540D01*
X12441610Y-15828826D01*
X12470181Y-15843112D01*
X12527324Y-15843112D01*
X12555895Y-15828826D01*
X12570181Y-15814540D01*
X12584467Y-15785969D01*
X12584467Y-15714540D01*
X12570181Y-15685969D01*
X12555895Y-15671683D01*
X12527324Y-15657397D01*
X12470181Y-15657397D01*
X12441610Y-15671683D01*
X12427324Y-15685969D01*
X12413038Y-15714540D01*
X12727324Y-15843112D02*
X12784467Y-15843112D01*
X12813038Y-15828826D01*
X12827324Y-15814540D01*
X12855895Y-15771683D01*
X12870181Y-15714540D01*
X12870181Y-15600255D01*
X12855895Y-15571683D01*
X12841610Y-15557397D01*
X12813038Y-15543112D01*
X12755895Y-15543112D01*
X12727324Y-15557397D01*
X12713038Y-15571683D01*
X12698753Y-15600255D01*
X12698753Y-15671683D01*
X12713038Y-15700255D01*
X12727324Y-15714540D01*
X12755895Y-15728826D01*
X12813038Y-15728826D01*
X12841610Y-15714540D01*
X12855895Y-15700255D01*
X12870181Y-15671683D01*
X12984467Y-15543112D02*
X12984467Y-15600255D01*
X13098753Y-15543112D02*
X13098753Y-15600255D01*
X13541610Y-15957397D02*
X13527324Y-15943112D01*
X13498753Y-15900255D01*
X13484467Y-15871683D01*
X13470181Y-15828826D01*
X13455895Y-15757397D01*
X13455895Y-15700255D01*
X13470181Y-15628826D01*
X13484467Y-15585969D01*
X13498753Y-15557397D01*
X13527324Y-15514540D01*
X13541610Y-15500255D01*
X13798753Y-15543112D02*
X13655895Y-15543112D01*
X13641610Y-15685969D01*
X13655895Y-15671683D01*
X13684467Y-15657397D01*
X13755895Y-15657397D01*
X13784467Y-15671683D01*
X13798753Y-15685969D01*
X13813038Y-15714540D01*
X13813038Y-15785969D01*
X13798753Y-15814540D01*
X13784467Y-15828826D01*
X13755895Y-15843112D01*
X13684467Y-15843112D01*
X13655895Y-15828826D01*
X13641610Y-15814540D01*
X14070181Y-15543112D02*
X14013038Y-15543112D01*
X13984467Y-15557397D01*
X13970181Y-15571683D01*
X13941610Y-15614540D01*
X13927324Y-15671683D01*
X13927324Y-15785969D01*
X13941610Y-15814540D01*
X13955895Y-15828826D01*
X13984467Y-15843112D01*
X14041610Y-15843112D01*
X14070181Y-15828826D01*
X14084467Y-15814540D01*
X14098753Y-15785969D01*
X14098753Y-15714540D01*
X14084467Y-15685969D01*
X14070181Y-15671683D01*
X14041610Y-15657397D01*
X13984467Y-15657397D01*
X13955895Y-15671683D01*
X13941610Y-15685969D01*
X13927324Y-15714540D01*
X14455895Y-15843112D02*
X14455895Y-15543112D01*
X14584467Y-15843112D02*
X14584467Y-15685969D01*
X14570181Y-15657397D01*
X14541610Y-15643112D01*
X14498753Y-15643112D01*
X14470181Y-15657397D01*
X14455895Y-15671683D01*
X14770181Y-15843112D02*
X14741610Y-15828826D01*
X14727324Y-15814540D01*
X14713038Y-15785969D01*
X14713038Y-15700255D01*
X14727324Y-15671683D01*
X14741610Y-15657397D01*
X14770181Y-15643112D01*
X14813038Y-15643112D01*
X14841610Y-15657397D01*
X14855895Y-15671683D01*
X14870181Y-15700255D01*
X14870181Y-15785969D01*
X14855895Y-15814540D01*
X14841610Y-15828826D01*
X14813038Y-15843112D01*
X14770181Y-15843112D01*
X15041610Y-15843112D02*
X15013038Y-15828826D01*
X14998753Y-15800255D01*
X14998753Y-15543112D01*
X15270181Y-15828826D02*
X15241610Y-15843112D01*
X15184467Y-15843112D01*
X15155895Y-15828826D01*
X15141610Y-15800255D01*
X15141610Y-15685969D01*
X15155895Y-15657397D01*
X15184467Y-15643112D01*
X15241610Y-15643112D01*
X15270181Y-15657397D01*
X15284467Y-15685969D01*
X15284467Y-15714540D01*
X15141610Y-15743112D01*
X15398753Y-15828826D02*
X15427324Y-15843112D01*
X15484467Y-15843112D01*
X15513038Y-15828826D01*
X15527324Y-15800255D01*
X15527324Y-15785969D01*
X15513038Y-15757397D01*
X15484467Y-15743112D01*
X15441610Y-15743112D01*
X15413038Y-15728826D01*
X15398753Y-15700255D01*
X15398753Y-15685969D01*
X15413038Y-15657397D01*
X15441610Y-15643112D01*
X15484467Y-15643112D01*
X15513038Y-15657397D01*
X15627324Y-15957397D02*
X15641610Y-15943112D01*
X15670181Y-15900255D01*
X15684467Y-15871683D01*
X15698753Y-15828826D01*
X15713038Y-15757397D01*
X15713038Y-15700255D01*
X15698753Y-15628826D01*
X15684467Y-15585969D01*
X15670181Y-15557397D01*
X15641610Y-15514540D01*
X15627324Y-15500255D01*
X16170181Y-15957397D02*
X16155895Y-15943112D01*
X16127324Y-15900255D01*
X16113038Y-15871683D01*
X16098753Y-15828826D01*
X16084467Y-15757397D01*
X16084467Y-15700255D01*
X16098753Y-15628826D01*
X16113038Y-15585969D01*
X16127324Y-15557397D01*
X16155895Y-15514540D01*
X16170181Y-15500255D01*
X16284467Y-15643112D02*
X16284467Y-15843112D01*
X16284467Y-15671683D02*
X16298753Y-15657397D01*
X16327324Y-15643112D01*
X16370181Y-15643112D01*
X16398753Y-15657397D01*
X16413038Y-15685969D01*
X16413038Y-15843112D01*
X16598753Y-15843112D02*
X16570181Y-15828826D01*
X16555895Y-15814540D01*
X16541610Y-15785969D01*
X16541610Y-15700255D01*
X16555895Y-15671683D01*
X16570181Y-15657397D01*
X16598753Y-15643112D01*
X16641610Y-15643112D01*
X16670181Y-15657397D01*
X16684467Y-15671683D01*
X16698753Y-15700255D01*
X16698753Y-15785969D01*
X16684467Y-15814540D01*
X16670181Y-15828826D01*
X16641610Y-15843112D01*
X16598753Y-15843112D01*
X16784467Y-15643112D02*
X16898753Y-15643112D01*
X16827324Y-15543112D02*
X16827324Y-15800255D01*
X16841610Y-15828826D01*
X16870181Y-15843112D01*
X16898753Y-15843112D01*
X17227324Y-15643112D02*
X17227324Y-15943112D01*
X17227324Y-15657397D02*
X17255896Y-15643112D01*
X17313038Y-15643112D01*
X17341610Y-15657397D01*
X17355896Y-15671683D01*
X17370181Y-15700255D01*
X17370181Y-15785969D01*
X17355896Y-15814540D01*
X17341610Y-15828826D01*
X17313038Y-15843112D01*
X17255896Y-15843112D01*
X17227324Y-15828826D01*
X17541610Y-15843112D02*
X17513038Y-15828826D01*
X17498753Y-15800255D01*
X17498753Y-15543112D01*
X17784467Y-15843112D02*
X17784467Y-15685969D01*
X17770181Y-15657397D01*
X17741610Y-15643112D01*
X17684467Y-15643112D01*
X17655896Y-15657397D01*
X17784467Y-15828826D02*
X17755896Y-15843112D01*
X17684467Y-15843112D01*
X17655896Y-15828826D01*
X17641610Y-15800255D01*
X17641610Y-15771683D01*
X17655896Y-15743112D01*
X17684467Y-15728826D01*
X17755896Y-15728826D01*
X17784467Y-15714540D01*
X17884467Y-15643112D02*
X17998753Y-15643112D01*
X17927324Y-15543112D02*
X17927324Y-15800255D01*
X17941610Y-15828826D01*
X17970181Y-15843112D01*
X17998753Y-15843112D01*
X18213038Y-15828826D02*
X18184467Y-15843112D01*
X18127324Y-15843112D01*
X18098753Y-15828826D01*
X18084467Y-15800255D01*
X18084467Y-15685969D01*
X18098753Y-15657397D01*
X18127324Y-15643112D01*
X18184467Y-15643112D01*
X18213038Y-15657397D01*
X18227324Y-15685969D01*
X18227324Y-15714540D01*
X18084467Y-15743112D01*
X18484467Y-15843112D02*
X18484467Y-15543112D01*
X18484467Y-15828826D02*
X18455896Y-15843112D01*
X18398753Y-15843112D01*
X18370181Y-15828826D01*
X18355896Y-15814540D01*
X18341610Y-15785969D01*
X18341610Y-15700255D01*
X18355896Y-15671683D01*
X18370181Y-15657397D01*
X18398753Y-15643112D01*
X18455896Y-15643112D01*
X18484467Y-15657397D01*
X18598753Y-15957397D02*
X18613038Y-15943112D01*
X18641610Y-15900255D01*
X18655896Y-15871683D01*
X18670181Y-15828826D01*
X18684467Y-15757397D01*
X18684467Y-15700255D01*
X18670181Y-15628826D01*
X18655896Y-15585969D01*
X18641610Y-15557397D01*
X18613038Y-15514540D01*
X18598753Y-15500255D01*
X8188753Y-16008397D02*
X8188753Y-16198397D01*
X8093753Y-16103397D02*
X8283753Y-16103397D01*
X8727324Y-16239112D02*
X8555896Y-16239112D01*
X8641610Y-16239112D02*
X8641610Y-15939112D01*
X8613038Y-15981969D01*
X8584467Y-16010540D01*
X8555896Y-16024826D01*
X8855896Y-16210540D02*
X8870181Y-16224826D01*
X8855896Y-16239112D01*
X8841610Y-16224826D01*
X8855896Y-16210540D01*
X8855896Y-16239112D01*
X9013038Y-16239112D02*
X9070181Y-16239112D01*
X9098753Y-16224826D01*
X9113038Y-16210540D01*
X9141610Y-16167683D01*
X9155896Y-16110540D01*
X9155896Y-15996255D01*
X9141610Y-15967683D01*
X9127324Y-15953397D01*
X9098753Y-15939112D01*
X9041610Y-15939112D01*
X9013038Y-15953397D01*
X8998753Y-15967683D01*
X8984467Y-15996255D01*
X8984467Y-16067683D01*
X8998753Y-16096255D01*
X9013038Y-16110540D01*
X9041610Y-16124826D01*
X9098753Y-16124826D01*
X9127324Y-16110540D01*
X9141610Y-16096255D01*
X9155896Y-16067683D01*
X9341610Y-15939112D02*
X9370181Y-15939112D01*
X9398753Y-15953397D01*
X9413038Y-15967683D01*
X9427324Y-15996255D01*
X9441610Y-16053397D01*
X9441610Y-16124826D01*
X9427324Y-16181969D01*
X9413038Y-16210540D01*
X9398753Y-16224826D01*
X9370181Y-16239112D01*
X9341610Y-16239112D01*
X9313038Y-16224826D01*
X9298753Y-16210540D01*
X9284467Y-16181969D01*
X9270181Y-16124826D01*
X9270181Y-16053397D01*
X9284467Y-15996255D01*
X9298753Y-15967683D01*
X9313038Y-15953397D01*
X9341610Y-15939112D01*
X9627324Y-15939112D02*
X9655896Y-15939112D01*
X9684467Y-15953397D01*
X9698753Y-15967683D01*
X9713038Y-15996255D01*
X9727324Y-16053397D01*
X9727324Y-16124826D01*
X9713038Y-16181969D01*
X9698753Y-16210540D01*
X9684467Y-16224826D01*
X9655896Y-16239112D01*
X9627324Y-16239112D01*
X9598753Y-16224826D01*
X9584467Y-16210540D01*
X9570181Y-16181969D01*
X9555896Y-16124826D01*
X9555896Y-16053397D01*
X9570181Y-15996255D01*
X9584467Y-15967683D01*
X9598753Y-15953397D01*
X9627324Y-15939112D01*
X9855896Y-16239112D02*
X9855896Y-16039112D01*
X9855896Y-16067683D02*
X9870181Y-16053397D01*
X9898753Y-16039112D01*
X9941610Y-16039112D01*
X9970181Y-16053397D01*
X9984467Y-16081969D01*
X9984467Y-16239112D01*
X9984467Y-16081969D02*
X9998753Y-16053397D01*
X10027324Y-16039112D01*
X10070181Y-16039112D01*
X10098753Y-16053397D01*
X10113038Y-16081969D01*
X10113038Y-16239112D01*
X10255896Y-16239112D02*
X10255896Y-16039112D01*
X10255896Y-16067683D02*
X10270181Y-16053397D01*
X10298753Y-16039112D01*
X10341610Y-16039112D01*
X10370181Y-16053397D01*
X10384467Y-16081969D01*
X10384467Y-16239112D01*
X10384467Y-16081969D02*
X10398753Y-16053397D01*
X10427324Y-16039112D01*
X10470181Y-16039112D01*
X10498753Y-16053397D01*
X10513038Y-16081969D01*
X10513038Y-16239112D01*
X11098753Y-15924826D02*
X10841610Y-16310540D01*
X11484467Y-15939112D02*
X11513038Y-15939112D01*
X11541610Y-15953397D01*
X11555895Y-15967683D01*
X11570181Y-15996255D01*
X11584467Y-16053397D01*
X11584467Y-16124826D01*
X11570181Y-16181969D01*
X11555895Y-16210540D01*
X11541610Y-16224826D01*
X11513038Y-16239112D01*
X11484467Y-16239112D01*
X11455895Y-16224826D01*
X11441610Y-16210540D01*
X11427324Y-16181969D01*
X11413038Y-16124826D01*
X11413038Y-16053397D01*
X11427324Y-15996255D01*
X11441610Y-15967683D01*
X11455895Y-15953397D01*
X11484467Y-15939112D01*
X11713038Y-16210540D02*
X11727324Y-16224826D01*
X11713038Y-16239112D01*
X11698753Y-16224826D01*
X11713038Y-16210540D01*
X11713038Y-16239112D01*
X11913038Y-15939112D02*
X11941610Y-15939112D01*
X11970181Y-15953397D01*
X11984467Y-15967683D01*
X11998753Y-15996255D01*
X12013038Y-16053397D01*
X12013038Y-16124826D01*
X11998753Y-16181969D01*
X11984467Y-16210540D01*
X11970181Y-16224826D01*
X11941610Y-16239112D01*
X11913038Y-16239112D01*
X11884467Y-16224826D01*
X11870181Y-16210540D01*
X11855895Y-16181969D01*
X11841610Y-16124826D01*
X11841610Y-16053397D01*
X11855895Y-15996255D01*
X11870181Y-15967683D01*
X11884467Y-15953397D01*
X11913038Y-15939112D01*
X12113038Y-15939112D02*
X12313038Y-15939112D01*
X12184467Y-16239112D01*
X12555895Y-16039112D02*
X12555895Y-16239112D01*
X12484467Y-15924826D02*
X12413038Y-16139112D01*
X12598753Y-16139112D01*
X12755895Y-16067683D02*
X12727324Y-16053397D01*
X12713038Y-16039112D01*
X12698753Y-16010540D01*
X12698753Y-15996255D01*
X12713038Y-15967683D01*
X12727324Y-15953397D01*
X12755895Y-15939112D01*
X12813038Y-15939112D01*
X12841610Y-15953397D01*
X12855895Y-15967683D01*
X12870181Y-15996255D01*
X12870181Y-16010540D01*
X12855895Y-16039112D01*
X12841610Y-16053397D01*
X12813038Y-16067683D01*
X12755895Y-16067683D01*
X12727324Y-16081969D01*
X12713038Y-16096255D01*
X12698753Y-16124826D01*
X12698753Y-16181969D01*
X12713038Y-16210540D01*
X12727324Y-16224826D01*
X12755895Y-16239112D01*
X12813038Y-16239112D01*
X12841610Y-16224826D01*
X12855895Y-16210540D01*
X12870181Y-16181969D01*
X12870181Y-16124826D01*
X12855895Y-16096255D01*
X12841610Y-16081969D01*
X12813038Y-16067683D01*
X12984467Y-15939112D02*
X12984467Y-15996255D01*
X13098753Y-15939112D02*
X13098753Y-15996255D01*
X13541610Y-16353397D02*
X13527324Y-16339112D01*
X13498753Y-16296255D01*
X13484467Y-16267683D01*
X13470181Y-16224826D01*
X13455895Y-16153397D01*
X13455895Y-16096255D01*
X13470181Y-16024826D01*
X13484467Y-15981969D01*
X13498753Y-15953397D01*
X13527324Y-15910540D01*
X13541610Y-15896255D01*
X13798753Y-15939112D02*
X13655895Y-15939112D01*
X13641610Y-16081969D01*
X13655895Y-16067683D01*
X13684467Y-16053397D01*
X13755895Y-16053397D01*
X13784467Y-16067683D01*
X13798753Y-16081969D01*
X13813038Y-16110540D01*
X13813038Y-16181969D01*
X13798753Y-16210540D01*
X13784467Y-16224826D01*
X13755895Y-16239112D01*
X13684467Y-16239112D01*
X13655895Y-16224826D01*
X13641610Y-16210540D01*
X14070181Y-15939112D02*
X14013038Y-15939112D01*
X13984467Y-15953397D01*
X13970181Y-15967683D01*
X13941610Y-16010540D01*
X13927324Y-16067683D01*
X13927324Y-16181969D01*
X13941610Y-16210540D01*
X13955895Y-16224826D01*
X13984467Y-16239112D01*
X14041610Y-16239112D01*
X14070181Y-16224826D01*
X14084467Y-16210540D01*
X14098753Y-16181969D01*
X14098753Y-16110540D01*
X14084467Y-16081969D01*
X14070181Y-16067683D01*
X14041610Y-16053397D01*
X13984467Y-16053397D01*
X13955895Y-16067683D01*
X13941610Y-16081969D01*
X13927324Y-16110540D01*
X14455895Y-16239112D02*
X14455895Y-15939112D01*
X14584467Y-16239112D02*
X14584467Y-16081969D01*
X14570181Y-16053397D01*
X14541610Y-16039112D01*
X14498753Y-16039112D01*
X14470181Y-16053397D01*
X14455895Y-16067683D01*
X14770181Y-16239112D02*
X14741610Y-16224826D01*
X14727324Y-16210540D01*
X14713038Y-16181969D01*
X14713038Y-16096255D01*
X14727324Y-16067683D01*
X14741610Y-16053397D01*
X14770181Y-16039112D01*
X14813038Y-16039112D01*
X14841610Y-16053397D01*
X14855895Y-16067683D01*
X14870181Y-16096255D01*
X14870181Y-16181969D01*
X14855895Y-16210540D01*
X14841610Y-16224826D01*
X14813038Y-16239112D01*
X14770181Y-16239112D01*
X15041610Y-16239112D02*
X15013038Y-16224826D01*
X14998753Y-16196255D01*
X14998753Y-15939112D01*
X15270181Y-16224826D02*
X15241610Y-16239112D01*
X15184467Y-16239112D01*
X15155895Y-16224826D01*
X15141610Y-16196255D01*
X15141610Y-16081969D01*
X15155895Y-16053397D01*
X15184467Y-16039112D01*
X15241610Y-16039112D01*
X15270181Y-16053397D01*
X15284467Y-16081969D01*
X15284467Y-16110540D01*
X15141610Y-16139112D01*
X15398753Y-16224826D02*
X15427324Y-16239112D01*
X15484467Y-16239112D01*
X15513038Y-16224826D01*
X15527324Y-16196255D01*
X15527324Y-16181969D01*
X15513038Y-16153397D01*
X15484467Y-16139112D01*
X15441610Y-16139112D01*
X15413038Y-16124826D01*
X15398753Y-16096255D01*
X15398753Y-16081969D01*
X15413038Y-16053397D01*
X15441610Y-16039112D01*
X15484467Y-16039112D01*
X15513038Y-16053397D01*
X15627324Y-16353397D02*
X15641610Y-16339112D01*
X15670181Y-16296255D01*
X15684467Y-16267683D01*
X15698753Y-16224826D01*
X15713038Y-16153397D01*
X15713038Y-16096255D01*
X15698753Y-16024826D01*
X15684467Y-15981969D01*
X15670181Y-15953397D01*
X15641610Y-15910540D01*
X15627324Y-15896255D01*
X16170181Y-16353397D02*
X16155895Y-16339112D01*
X16127324Y-16296255D01*
X16113038Y-16267683D01*
X16098753Y-16224826D01*
X16084467Y-16153397D01*
X16084467Y-16096255D01*
X16098753Y-16024826D01*
X16113038Y-15981969D01*
X16127324Y-15953397D01*
X16155895Y-15910540D01*
X16170181Y-15896255D01*
X16284467Y-16039112D02*
X16284467Y-16239112D01*
X16284467Y-16067683D02*
X16298753Y-16053397D01*
X16327324Y-16039112D01*
X16370181Y-16039112D01*
X16398753Y-16053397D01*
X16413038Y-16081969D01*
X16413038Y-16239112D01*
X16598753Y-16239112D02*
X16570181Y-16224826D01*
X16555895Y-16210540D01*
X16541610Y-16181969D01*
X16541610Y-16096255D01*
X16555895Y-16067683D01*
X16570181Y-16053397D01*
X16598753Y-16039112D01*
X16641610Y-16039112D01*
X16670181Y-16053397D01*
X16684467Y-16067683D01*
X16698753Y-16096255D01*
X16698753Y-16181969D01*
X16684467Y-16210540D01*
X16670181Y-16224826D01*
X16641610Y-16239112D01*
X16598753Y-16239112D01*
X16784467Y-16039112D02*
X16898753Y-16039112D01*
X16827324Y-15939112D02*
X16827324Y-16196255D01*
X16841610Y-16224826D01*
X16870181Y-16239112D01*
X16898753Y-16239112D01*
X17227324Y-16039112D02*
X17227324Y-16339112D01*
X17227324Y-16053397D02*
X17255896Y-16039112D01*
X17313038Y-16039112D01*
X17341610Y-16053397D01*
X17355896Y-16067683D01*
X17370181Y-16096255D01*
X17370181Y-16181969D01*
X17355896Y-16210540D01*
X17341610Y-16224826D01*
X17313038Y-16239112D01*
X17255896Y-16239112D01*
X17227324Y-16224826D01*
X17541610Y-16239112D02*
X17513038Y-16224826D01*
X17498753Y-16196255D01*
X17498753Y-15939112D01*
X17784467Y-16239112D02*
X17784467Y-16081969D01*
X17770181Y-16053397D01*
X17741610Y-16039112D01*
X17684467Y-16039112D01*
X17655896Y-16053397D01*
X17784467Y-16224826D02*
X17755896Y-16239112D01*
X17684467Y-16239112D01*
X17655896Y-16224826D01*
X17641610Y-16196255D01*
X17641610Y-16167683D01*
X17655896Y-16139112D01*
X17684467Y-16124826D01*
X17755896Y-16124826D01*
X17784467Y-16110540D01*
X17884467Y-16039112D02*
X17998753Y-16039112D01*
X17927324Y-15939112D02*
X17927324Y-16196255D01*
X17941610Y-16224826D01*
X17970181Y-16239112D01*
X17998753Y-16239112D01*
X18213038Y-16224826D02*
X18184467Y-16239112D01*
X18127324Y-16239112D01*
X18098753Y-16224826D01*
X18084467Y-16196255D01*
X18084467Y-16081969D01*
X18098753Y-16053397D01*
X18127324Y-16039112D01*
X18184467Y-16039112D01*
X18213038Y-16053397D01*
X18227324Y-16081969D01*
X18227324Y-16110540D01*
X18084467Y-16139112D01*
X18484467Y-16239112D02*
X18484467Y-15939112D01*
X18484467Y-16224826D02*
X18455896Y-16239112D01*
X18398753Y-16239112D01*
X18370181Y-16224826D01*
X18355896Y-16210540D01*
X18341610Y-16181969D01*
X18341610Y-16096255D01*
X18355896Y-16067683D01*
X18370181Y-16053397D01*
X18398753Y-16039112D01*
X18455896Y-16039112D01*
X18484467Y-16053397D01*
X18598753Y-16353397D02*
X18613038Y-16339112D01*
X18641610Y-16296255D01*
X18655896Y-16267683D01*
X18670181Y-16224826D01*
X18684467Y-16153397D01*
X18684467Y-16096255D01*
X18670181Y-16024826D01*
X18655896Y-15981969D01*
X18641610Y-15953397D01*
X18613038Y-15910540D01*
X18598753Y-15896255D01*
X8239820Y-16605464D02*
X8239820Y-16393330D01*
X8027686Y-16393330D01*
X8027686Y-16605464D01*
X8239820Y-16605464D01*
X8541610Y-16335112D02*
X8727324Y-16335112D01*
X8627324Y-16449397D01*
X8670181Y-16449397D01*
X8698753Y-16463683D01*
X8713038Y-16477969D01*
X8727324Y-16506540D01*
X8727324Y-16577969D01*
X8713038Y-16606540D01*
X8698753Y-16620826D01*
X8670181Y-16635112D01*
X8584467Y-16635112D01*
X8555896Y-16620826D01*
X8541610Y-16606540D01*
X8855896Y-16606540D02*
X8870181Y-16620826D01*
X8855896Y-16635112D01*
X8841610Y-16620826D01*
X8855896Y-16606540D01*
X8855896Y-16635112D01*
X9055896Y-16335112D02*
X9084467Y-16335112D01*
X9113038Y-16349397D01*
X9127324Y-16363683D01*
X9141610Y-16392255D01*
X9155896Y-16449397D01*
X9155896Y-16520826D01*
X9141610Y-16577969D01*
X9127324Y-16606540D01*
X9113038Y-16620826D01*
X9084467Y-16635112D01*
X9055896Y-16635112D01*
X9027324Y-16620826D01*
X9013038Y-16606540D01*
X8998753Y-16577969D01*
X8984467Y-16520826D01*
X8984467Y-16449397D01*
X8998753Y-16392255D01*
X9013038Y-16363683D01*
X9027324Y-16349397D01*
X9055896Y-16335112D01*
X9341610Y-16335112D02*
X9370181Y-16335112D01*
X9398753Y-16349397D01*
X9413038Y-16363683D01*
X9427324Y-16392255D01*
X9441610Y-16449397D01*
X9441610Y-16520826D01*
X9427324Y-16577969D01*
X9413038Y-16606540D01*
X9398753Y-16620826D01*
X9370181Y-16635112D01*
X9341610Y-16635112D01*
X9313038Y-16620826D01*
X9298753Y-16606540D01*
X9284467Y-16577969D01*
X9270181Y-16520826D01*
X9270181Y-16449397D01*
X9284467Y-16392255D01*
X9298753Y-16363683D01*
X9313038Y-16349397D01*
X9341610Y-16335112D01*
X9627324Y-16335112D02*
X9655896Y-16335112D01*
X9684467Y-16349397D01*
X9698753Y-16363683D01*
X9713038Y-16392255D01*
X9727324Y-16449397D01*
X9727324Y-16520826D01*
X9713038Y-16577969D01*
X9698753Y-16606540D01*
X9684467Y-16620826D01*
X9655896Y-16635112D01*
X9627324Y-16635112D01*
X9598753Y-16620826D01*
X9584467Y-16606540D01*
X9570181Y-16577969D01*
X9555896Y-16520826D01*
X9555896Y-16449397D01*
X9570181Y-16392255D01*
X9584467Y-16363683D01*
X9598753Y-16349397D01*
X9627324Y-16335112D01*
X9855896Y-16635112D02*
X9855896Y-16435112D01*
X9855896Y-16463683D02*
X9870181Y-16449397D01*
X9898753Y-16435112D01*
X9941610Y-16435112D01*
X9970181Y-16449397D01*
X9984467Y-16477969D01*
X9984467Y-16635112D01*
X9984467Y-16477969D02*
X9998753Y-16449397D01*
X10027324Y-16435112D01*
X10070181Y-16435112D01*
X10098753Y-16449397D01*
X10113038Y-16477969D01*
X10113038Y-16635112D01*
X10255896Y-16635112D02*
X10255896Y-16435112D01*
X10255896Y-16463683D02*
X10270181Y-16449397D01*
X10298753Y-16435112D01*
X10341610Y-16435112D01*
X10370181Y-16449397D01*
X10384467Y-16477969D01*
X10384467Y-16635112D01*
X10384467Y-16477969D02*
X10398753Y-16449397D01*
X10427324Y-16435112D01*
X10470181Y-16435112D01*
X10498753Y-16449397D01*
X10513038Y-16477969D01*
X10513038Y-16635112D01*
X11098753Y-16320826D02*
X10841610Y-16706540D01*
X11484467Y-16335112D02*
X11513038Y-16335112D01*
X11541610Y-16349397D01*
X11555895Y-16363683D01*
X11570181Y-16392255D01*
X11584467Y-16449397D01*
X11584467Y-16520826D01*
X11570181Y-16577969D01*
X11555895Y-16606540D01*
X11541610Y-16620826D01*
X11513038Y-16635112D01*
X11484467Y-16635112D01*
X11455895Y-16620826D01*
X11441610Y-16606540D01*
X11427324Y-16577969D01*
X11413038Y-16520826D01*
X11413038Y-16449397D01*
X11427324Y-16392255D01*
X11441610Y-16363683D01*
X11455895Y-16349397D01*
X11484467Y-16335112D01*
X11713038Y-16606540D02*
X11727324Y-16620826D01*
X11713038Y-16635112D01*
X11698753Y-16620826D01*
X11713038Y-16606540D01*
X11713038Y-16635112D01*
X12013038Y-16635112D02*
X11841610Y-16635112D01*
X11927324Y-16635112D02*
X11927324Y-16335112D01*
X11898753Y-16377969D01*
X11870181Y-16406540D01*
X11841610Y-16420826D01*
X12298753Y-16635112D02*
X12127324Y-16635112D01*
X12213038Y-16635112D02*
X12213038Y-16335112D01*
X12184467Y-16377969D01*
X12155895Y-16406540D01*
X12127324Y-16420826D01*
X12470181Y-16463683D02*
X12441610Y-16449397D01*
X12427324Y-16435112D01*
X12413038Y-16406540D01*
X12413038Y-16392255D01*
X12427324Y-16363683D01*
X12441610Y-16349397D01*
X12470181Y-16335112D01*
X12527324Y-16335112D01*
X12555895Y-16349397D01*
X12570181Y-16363683D01*
X12584467Y-16392255D01*
X12584467Y-16406540D01*
X12570181Y-16435112D01*
X12555895Y-16449397D01*
X12527324Y-16463683D01*
X12470181Y-16463683D01*
X12441610Y-16477969D01*
X12427324Y-16492255D01*
X12413038Y-16520826D01*
X12413038Y-16577969D01*
X12427324Y-16606540D01*
X12441610Y-16620826D01*
X12470181Y-16635112D01*
X12527324Y-16635112D01*
X12555895Y-16620826D01*
X12570181Y-16606540D01*
X12584467Y-16577969D01*
X12584467Y-16520826D01*
X12570181Y-16492255D01*
X12555895Y-16477969D01*
X12527324Y-16463683D01*
X12870181Y-16635112D02*
X12698753Y-16635112D01*
X12784467Y-16635112D02*
X12784467Y-16335112D01*
X12755895Y-16377969D01*
X12727324Y-16406540D01*
X12698753Y-16420826D01*
X12984467Y-16335112D02*
X12984467Y-16392255D01*
X13098753Y-16335112D02*
X13098753Y-16392255D01*
X13541610Y-16749397D02*
X13527324Y-16735112D01*
X13498753Y-16692255D01*
X13484467Y-16663683D01*
X13470181Y-16620826D01*
X13455895Y-16549397D01*
X13455895Y-16492255D01*
X13470181Y-16420826D01*
X13484467Y-16377969D01*
X13498753Y-16349397D01*
X13527324Y-16306540D01*
X13541610Y-16292255D01*
X13813038Y-16635112D02*
X13641610Y-16635112D01*
X13727324Y-16635112D02*
X13727324Y-16335112D01*
X13698753Y-16377969D01*
X13670181Y-16406540D01*
X13641610Y-16420826D01*
X13955895Y-16635112D02*
X14013038Y-16635112D01*
X14041610Y-16620826D01*
X14055895Y-16606540D01*
X14084467Y-16563683D01*
X14098753Y-16506540D01*
X14098753Y-16392255D01*
X14084467Y-16363683D01*
X14070181Y-16349397D01*
X14041610Y-16335112D01*
X13984467Y-16335112D01*
X13955895Y-16349397D01*
X13941610Y-16363683D01*
X13927324Y-16392255D01*
X13927324Y-16463683D01*
X13941610Y-16492255D01*
X13955895Y-16506540D01*
X13984467Y-16520826D01*
X14041610Y-16520826D01*
X14070181Y-16506540D01*
X14084467Y-16492255D01*
X14098753Y-16463683D01*
X14355895Y-16335112D02*
X14298753Y-16335112D01*
X14270181Y-16349397D01*
X14255895Y-16363683D01*
X14227324Y-16406540D01*
X14213038Y-16463683D01*
X14213038Y-16577969D01*
X14227324Y-16606540D01*
X14241610Y-16620826D01*
X14270181Y-16635112D01*
X14327324Y-16635112D01*
X14355895Y-16620826D01*
X14370181Y-16606540D01*
X14384467Y-16577969D01*
X14384467Y-16506540D01*
X14370181Y-16477969D01*
X14355895Y-16463683D01*
X14327324Y-16449397D01*
X14270181Y-16449397D01*
X14241610Y-16463683D01*
X14227324Y-16477969D01*
X14213038Y-16506540D01*
X14741610Y-16635112D02*
X14741610Y-16335112D01*
X14870181Y-16635112D02*
X14870181Y-16477969D01*
X14855895Y-16449397D01*
X14827324Y-16435112D01*
X14784467Y-16435112D01*
X14755895Y-16449397D01*
X14741610Y-16463683D01*
X15055895Y-16635112D02*
X15027324Y-16620826D01*
X15013038Y-16606540D01*
X14998753Y-16577969D01*
X14998753Y-16492255D01*
X15013038Y-16463683D01*
X15027324Y-16449397D01*
X15055895Y-16435112D01*
X15098753Y-16435112D01*
X15127324Y-16449397D01*
X15141610Y-16463683D01*
X15155895Y-16492255D01*
X15155895Y-16577969D01*
X15141610Y-16606540D01*
X15127324Y-16620826D01*
X15098753Y-16635112D01*
X15055895Y-16635112D01*
X15327324Y-16635112D02*
X15298753Y-16620826D01*
X15284467Y-16592255D01*
X15284467Y-16335112D01*
X15555895Y-16620826D02*
X15527324Y-16635112D01*
X15470181Y-16635112D01*
X15441610Y-16620826D01*
X15427324Y-16592255D01*
X15427324Y-16477969D01*
X15441610Y-16449397D01*
X15470181Y-16435112D01*
X15527324Y-16435112D01*
X15555895Y-16449397D01*
X15570181Y-16477969D01*
X15570181Y-16506540D01*
X15427324Y-16535112D01*
X15684467Y-16620826D02*
X15713038Y-16635112D01*
X15770181Y-16635112D01*
X15798753Y-16620826D01*
X15813038Y-16592255D01*
X15813038Y-16577969D01*
X15798753Y-16549397D01*
X15770181Y-16535112D01*
X15727324Y-16535112D01*
X15698753Y-16520826D01*
X15684467Y-16492255D01*
X15684467Y-16477969D01*
X15698753Y-16449397D01*
X15727324Y-16435112D01*
X15770181Y-16435112D01*
X15798753Y-16449397D01*
X15913038Y-16749397D02*
X15927324Y-16735112D01*
X15955895Y-16692255D01*
X15970181Y-16663683D01*
X15984467Y-16620826D01*
X15998753Y-16549397D01*
X15998753Y-16492255D01*
X15984467Y-16420826D01*
X15970181Y-16377969D01*
X15955895Y-16349397D01*
X15927324Y-16306540D01*
X15913038Y-16292255D01*
X16455895Y-16749397D02*
X16441610Y-16735112D01*
X16413038Y-16692255D01*
X16398753Y-16663683D01*
X16384467Y-16620826D01*
X16370181Y-16549397D01*
X16370181Y-16492255D01*
X16384467Y-16420826D01*
X16398753Y-16377969D01*
X16413038Y-16349397D01*
X16441610Y-16306540D01*
X16455895Y-16292255D01*
X16570181Y-16435112D02*
X16570181Y-16635112D01*
X16570181Y-16463683D02*
X16584467Y-16449397D01*
X16613038Y-16435112D01*
X16655895Y-16435112D01*
X16684467Y-16449397D01*
X16698753Y-16477969D01*
X16698753Y-16635112D01*
X16884467Y-16635112D02*
X16855896Y-16620826D01*
X16841610Y-16606540D01*
X16827324Y-16577969D01*
X16827324Y-16492255D01*
X16841610Y-16463683D01*
X16855896Y-16449397D01*
X16884467Y-16435112D01*
X16927324Y-16435112D01*
X16955896Y-16449397D01*
X16970181Y-16463683D01*
X16984467Y-16492255D01*
X16984467Y-16577969D01*
X16970181Y-16606540D01*
X16955896Y-16620826D01*
X16927324Y-16635112D01*
X16884467Y-16635112D01*
X17070181Y-16435112D02*
X17184467Y-16435112D01*
X17113038Y-16335112D02*
X17113038Y-16592255D01*
X17127324Y-16620826D01*
X17155896Y-16635112D01*
X17184467Y-16635112D01*
X17513038Y-16435112D02*
X17513038Y-16735112D01*
X17513038Y-16449397D02*
X17541610Y-16435112D01*
X17598753Y-16435112D01*
X17627324Y-16449397D01*
X17641610Y-16463683D01*
X17655896Y-16492255D01*
X17655896Y-16577969D01*
X17641610Y-16606540D01*
X17627324Y-16620826D01*
X17598753Y-16635112D01*
X17541610Y-16635112D01*
X17513038Y-16620826D01*
X17827324Y-16635112D02*
X17798753Y-16620826D01*
X17784467Y-16592255D01*
X17784467Y-16335112D01*
X18070181Y-16635112D02*
X18070181Y-16477969D01*
X18055896Y-16449397D01*
X18027324Y-16435112D01*
X17970181Y-16435112D01*
X17941610Y-16449397D01*
X18070181Y-16620826D02*
X18041610Y-16635112D01*
X17970181Y-16635112D01*
X17941610Y-16620826D01*
X17927324Y-16592255D01*
X17927324Y-16563683D01*
X17941610Y-16535112D01*
X17970181Y-16520826D01*
X18041610Y-16520826D01*
X18070181Y-16506540D01*
X18170181Y-16435112D02*
X18284467Y-16435112D01*
X18213038Y-16335112D02*
X18213038Y-16592255D01*
X18227324Y-16620826D01*
X18255896Y-16635112D01*
X18284467Y-16635112D01*
X18498753Y-16620826D02*
X18470181Y-16635112D01*
X18413038Y-16635112D01*
X18384467Y-16620826D01*
X18370181Y-16592255D01*
X18370181Y-16477969D01*
X18384467Y-16449397D01*
X18413038Y-16435112D01*
X18470181Y-16435112D01*
X18498753Y-16449397D01*
X18513038Y-16477969D01*
X18513038Y-16506540D01*
X18370181Y-16535112D01*
X18770181Y-16635112D02*
X18770181Y-16335112D01*
X18770181Y-16620826D02*
X18741610Y-16635112D01*
X18684467Y-16635112D01*
X18655896Y-16620826D01*
X18641610Y-16606540D01*
X18627324Y-16577969D01*
X18627324Y-16492255D01*
X18641610Y-16463683D01*
X18655896Y-16449397D01*
X18684467Y-16435112D01*
X18741610Y-16435112D01*
X18770181Y-16449397D01*
X18884467Y-16749397D02*
X18898753Y-16735112D01*
X18927324Y-16692255D01*
X18941610Y-16663683D01*
X18955896Y-16620826D01*
X18970181Y-16549397D01*
X18970181Y-16492255D01*
X18955896Y-16420826D01*
X18941610Y-16377969D01*
X18927324Y-16349397D01*
X18898753Y-16306540D01*
X18884467Y-16292255D01*
X8083753Y-17129398D02*
X8283753Y-16929398D01*
X8083753Y-16729397D01*
X7883753Y-16929398D01*
X8083753Y-17129398D01*
X8698753Y-16865112D02*
X8698753Y-17065112D01*
X8627324Y-16750826D02*
X8555896Y-16965112D01*
X8741610Y-16965112D01*
X8855896Y-17036540D02*
X8870181Y-17050826D01*
X8855896Y-17065112D01*
X8841610Y-17050826D01*
X8855896Y-17036540D01*
X8855896Y-17065112D01*
X9055896Y-16765112D02*
X9084467Y-16765112D01*
X9113038Y-16779398D01*
X9127324Y-16793683D01*
X9141610Y-16822255D01*
X9155896Y-16879398D01*
X9155896Y-16950826D01*
X9141610Y-17007969D01*
X9127324Y-17036540D01*
X9113038Y-17050826D01*
X9084467Y-17065112D01*
X9055896Y-17065112D01*
X9027324Y-17050826D01*
X9013038Y-17036540D01*
X8998753Y-17007969D01*
X8984467Y-16950826D01*
X8984467Y-16879398D01*
X8998753Y-16822255D01*
X9013038Y-16793683D01*
X9027324Y-16779398D01*
X9055896Y-16765112D01*
X9341610Y-16765112D02*
X9370181Y-16765112D01*
X9398753Y-16779398D01*
X9413038Y-16793683D01*
X9427324Y-16822255D01*
X9441610Y-16879398D01*
X9441610Y-16950826D01*
X9427324Y-17007969D01*
X9413038Y-17036540D01*
X9398753Y-17050826D01*
X9370181Y-17065112D01*
X9341610Y-17065112D01*
X9313038Y-17050826D01*
X9298753Y-17036540D01*
X9284467Y-17007969D01*
X9270181Y-16950826D01*
X9270181Y-16879398D01*
X9284467Y-16822255D01*
X9298753Y-16793683D01*
X9313038Y-16779398D01*
X9341610Y-16765112D01*
X9627324Y-16765112D02*
X9655896Y-16765112D01*
X9684467Y-16779398D01*
X9698753Y-16793683D01*
X9713038Y-16822255D01*
X9727324Y-16879398D01*
X9727324Y-16950826D01*
X9713038Y-17007969D01*
X9698753Y-17036540D01*
X9684467Y-17050826D01*
X9655896Y-17065112D01*
X9627324Y-17065112D01*
X9598753Y-17050826D01*
X9584467Y-17036540D01*
X9570181Y-17007969D01*
X9555896Y-16950826D01*
X9555896Y-16879398D01*
X9570181Y-16822255D01*
X9584467Y-16793683D01*
X9598753Y-16779398D01*
X9627324Y-16765112D01*
X9855896Y-17065112D02*
X9855896Y-16865112D01*
X9855896Y-16893683D02*
X9870181Y-16879398D01*
X9898753Y-16865112D01*
X9941610Y-16865112D01*
X9970181Y-16879398D01*
X9984467Y-16907969D01*
X9984467Y-17065112D01*
X9984467Y-16907969D02*
X9998753Y-16879398D01*
X10027324Y-16865112D01*
X10070181Y-16865112D01*
X10098753Y-16879398D01*
X10113038Y-16907969D01*
X10113038Y-17065112D01*
X10255896Y-17065112D02*
X10255896Y-16865112D01*
X10255896Y-16893683D02*
X10270181Y-16879398D01*
X10298753Y-16865112D01*
X10341610Y-16865112D01*
X10370181Y-16879398D01*
X10384467Y-16907969D01*
X10384467Y-17065112D01*
X10384467Y-16907969D02*
X10398753Y-16879398D01*
X10427324Y-16865112D01*
X10470181Y-16865112D01*
X10498753Y-16879398D01*
X10513038Y-16907969D01*
X10513038Y-17065112D01*
X11098753Y-16750826D02*
X10841610Y-17136540D01*
X11484467Y-16765112D02*
X11513038Y-16765112D01*
X11541610Y-16779398D01*
X11555895Y-16793683D01*
X11570181Y-16822255D01*
X11584467Y-16879398D01*
X11584467Y-16950826D01*
X11570181Y-17007969D01*
X11555895Y-17036540D01*
X11541610Y-17050826D01*
X11513038Y-17065112D01*
X11484467Y-17065112D01*
X11455895Y-17050826D01*
X11441610Y-17036540D01*
X11427324Y-17007969D01*
X11413038Y-16950826D01*
X11413038Y-16879398D01*
X11427324Y-16822255D01*
X11441610Y-16793683D01*
X11455895Y-16779398D01*
X11484467Y-16765112D01*
X11713038Y-17036540D02*
X11727324Y-17050826D01*
X11713038Y-17065112D01*
X11698753Y-17050826D01*
X11713038Y-17036540D01*
X11713038Y-17065112D01*
X12013038Y-17065112D02*
X11841610Y-17065112D01*
X11927324Y-17065112D02*
X11927324Y-16765112D01*
X11898753Y-16807969D01*
X11870181Y-16836540D01*
X11841610Y-16850826D01*
X12284467Y-16765112D02*
X12141610Y-16765112D01*
X12127324Y-16907969D01*
X12141610Y-16893683D01*
X12170181Y-16879398D01*
X12241610Y-16879398D01*
X12270181Y-16893683D01*
X12284467Y-16907969D01*
X12298753Y-16936540D01*
X12298753Y-17007969D01*
X12284467Y-17036540D01*
X12270181Y-17050826D01*
X12241610Y-17065112D01*
X12170181Y-17065112D01*
X12141610Y-17050826D01*
X12127324Y-17036540D01*
X12398753Y-16765112D02*
X12598753Y-16765112D01*
X12470181Y-17065112D01*
X12855895Y-16765112D02*
X12713038Y-16765112D01*
X12698753Y-16907969D01*
X12713038Y-16893683D01*
X12741610Y-16879398D01*
X12813038Y-16879398D01*
X12841610Y-16893683D01*
X12855895Y-16907969D01*
X12870181Y-16936540D01*
X12870181Y-17007969D01*
X12855895Y-17036540D01*
X12841610Y-17050826D01*
X12813038Y-17065112D01*
X12741610Y-17065112D01*
X12713038Y-17050826D01*
X12698753Y-17036540D01*
X12984467Y-16765112D02*
X12984467Y-16822255D01*
X13098753Y-16765112D02*
X13098753Y-16822255D01*
X13541610Y-17179398D02*
X13527324Y-17165112D01*
X13498753Y-17122255D01*
X13484467Y-17093683D01*
X13470181Y-17050826D01*
X13455895Y-16979398D01*
X13455895Y-16922255D01*
X13470181Y-16850826D01*
X13484467Y-16807969D01*
X13498753Y-16779398D01*
X13527324Y-16736540D01*
X13541610Y-16722255D01*
X13641610Y-16793683D02*
X13655895Y-16779398D01*
X13684467Y-16765112D01*
X13755895Y-16765112D01*
X13784467Y-16779398D01*
X13798753Y-16793683D01*
X13813038Y-16822255D01*
X13813038Y-16850826D01*
X13798753Y-16893683D01*
X13627324Y-17065112D01*
X13813038Y-17065112D01*
X13984467Y-16893683D02*
X13955895Y-16879398D01*
X13941610Y-16865112D01*
X13927324Y-16836540D01*
X13927324Y-16822255D01*
X13941610Y-16793683D01*
X13955895Y-16779398D01*
X13984467Y-16765112D01*
X14041610Y-16765112D01*
X14070181Y-16779398D01*
X14084467Y-16793683D01*
X14098753Y-16822255D01*
X14098753Y-16836540D01*
X14084467Y-16865112D01*
X14070181Y-16879398D01*
X14041610Y-16893683D01*
X13984467Y-16893683D01*
X13955895Y-16907969D01*
X13941610Y-16922255D01*
X13927324Y-16950826D01*
X13927324Y-17007969D01*
X13941610Y-17036540D01*
X13955895Y-17050826D01*
X13984467Y-17065112D01*
X14041610Y-17065112D01*
X14070181Y-17050826D01*
X14084467Y-17036540D01*
X14098753Y-17007969D01*
X14098753Y-16950826D01*
X14084467Y-16922255D01*
X14070181Y-16907969D01*
X14041610Y-16893683D01*
X14455895Y-17065112D02*
X14455895Y-16765112D01*
X14584467Y-17065112D02*
X14584467Y-16907969D01*
X14570181Y-16879398D01*
X14541610Y-16865112D01*
X14498753Y-16865112D01*
X14470181Y-16879398D01*
X14455895Y-16893683D01*
X14770181Y-17065112D02*
X14741610Y-17050826D01*
X14727324Y-17036540D01*
X14713038Y-17007969D01*
X14713038Y-16922255D01*
X14727324Y-16893683D01*
X14741610Y-16879398D01*
X14770181Y-16865112D01*
X14813038Y-16865112D01*
X14841610Y-16879398D01*
X14855895Y-16893683D01*
X14870181Y-16922255D01*
X14870181Y-17007969D01*
X14855895Y-17036540D01*
X14841610Y-17050826D01*
X14813038Y-17065112D01*
X14770181Y-17065112D01*
X15041610Y-17065112D02*
X15013038Y-17050826D01*
X14998753Y-17022255D01*
X14998753Y-16765112D01*
X15270181Y-17050826D02*
X15241610Y-17065112D01*
X15184467Y-17065112D01*
X15155895Y-17050826D01*
X15141610Y-17022255D01*
X15141610Y-16907969D01*
X15155895Y-16879398D01*
X15184467Y-16865112D01*
X15241610Y-16865112D01*
X15270181Y-16879398D01*
X15284467Y-16907969D01*
X15284467Y-16936540D01*
X15141610Y-16965112D01*
X15398753Y-17050826D02*
X15427324Y-17065112D01*
X15484467Y-17065112D01*
X15513038Y-17050826D01*
X15527324Y-17022255D01*
X15527324Y-17007969D01*
X15513038Y-16979398D01*
X15484467Y-16965112D01*
X15441610Y-16965112D01*
X15413038Y-16950826D01*
X15398753Y-16922255D01*
X15398753Y-16907969D01*
X15413038Y-16879398D01*
X15441610Y-16865112D01*
X15484467Y-16865112D01*
X15513038Y-16879398D01*
X15627324Y-17179398D02*
X15641610Y-17165112D01*
X15670181Y-17122255D01*
X15684467Y-17093683D01*
X15698753Y-17050826D01*
X15713038Y-16979398D01*
X15713038Y-16922255D01*
X15698753Y-16850826D01*
X15684467Y-16807969D01*
X15670181Y-16779398D01*
X15641610Y-16736540D01*
X15627324Y-16722255D01*
X16170181Y-17179398D02*
X16155895Y-17165112D01*
X16127324Y-17122255D01*
X16113038Y-17093683D01*
X16098753Y-17050826D01*
X16084467Y-16979398D01*
X16084467Y-16922255D01*
X16098753Y-16850826D01*
X16113038Y-16807969D01*
X16127324Y-16779398D01*
X16155895Y-16736540D01*
X16170181Y-16722255D01*
X16284467Y-16865112D02*
X16284467Y-17065112D01*
X16284467Y-16893683D02*
X16298753Y-16879398D01*
X16327324Y-16865112D01*
X16370181Y-16865112D01*
X16398753Y-16879398D01*
X16413038Y-16907969D01*
X16413038Y-17065112D01*
X16598753Y-17065112D02*
X16570181Y-17050826D01*
X16555895Y-17036540D01*
X16541610Y-17007969D01*
X16541610Y-16922255D01*
X16555895Y-16893683D01*
X16570181Y-16879398D01*
X16598753Y-16865112D01*
X16641610Y-16865112D01*
X16670181Y-16879398D01*
X16684467Y-16893683D01*
X16698753Y-16922255D01*
X16698753Y-17007969D01*
X16684467Y-17036540D01*
X16670181Y-17050826D01*
X16641610Y-17065112D01*
X16598753Y-17065112D01*
X16784467Y-16865112D02*
X16898753Y-16865112D01*
X16827324Y-16765112D02*
X16827324Y-17022255D01*
X16841610Y-17050826D01*
X16870181Y-17065112D01*
X16898753Y-17065112D01*
X17227324Y-16865112D02*
X17227324Y-17165112D01*
X17227324Y-16879398D02*
X17255896Y-16865112D01*
X17313038Y-16865112D01*
X17341610Y-16879398D01*
X17355896Y-16893683D01*
X17370181Y-16922255D01*
X17370181Y-17007969D01*
X17355896Y-17036540D01*
X17341610Y-17050826D01*
X17313038Y-17065112D01*
X17255896Y-17065112D01*
X17227324Y-17050826D01*
X17541610Y-17065112D02*
X17513038Y-17050826D01*
X17498753Y-17022255D01*
X17498753Y-16765112D01*
X17784467Y-17065112D02*
X17784467Y-16907969D01*
X17770181Y-16879398D01*
X17741610Y-16865112D01*
X17684467Y-16865112D01*
X17655896Y-16879398D01*
X17784467Y-17050826D02*
X17755896Y-17065112D01*
X17684467Y-17065112D01*
X17655896Y-17050826D01*
X17641610Y-17022255D01*
X17641610Y-16993683D01*
X17655896Y-16965112D01*
X17684467Y-16950826D01*
X17755896Y-16950826D01*
X17784467Y-16936540D01*
X17884467Y-16865112D02*
X17998753Y-16865112D01*
X17927324Y-16765112D02*
X17927324Y-17022255D01*
X17941610Y-17050826D01*
X17970181Y-17065112D01*
X17998753Y-17065112D01*
X18213038Y-17050826D02*
X18184467Y-17065112D01*
X18127324Y-17065112D01*
X18098753Y-17050826D01*
X18084467Y-17022255D01*
X18084467Y-16907969D01*
X18098753Y-16879398D01*
X18127324Y-16865112D01*
X18184467Y-16865112D01*
X18213038Y-16879398D01*
X18227324Y-16907969D01*
X18227324Y-16936540D01*
X18084467Y-16965112D01*
X18484467Y-17065112D02*
X18484467Y-16765112D01*
X18484467Y-17050826D02*
X18455896Y-17065112D01*
X18398753Y-17065112D01*
X18370181Y-17050826D01*
X18355896Y-17036540D01*
X18341610Y-17007969D01*
X18341610Y-16922255D01*
X18355896Y-16893683D01*
X18370181Y-16879398D01*
X18398753Y-16865112D01*
X18455896Y-16865112D01*
X18484467Y-16879398D01*
X18598753Y-17179398D02*
X18613038Y-17165112D01*
X18641610Y-17122255D01*
X18655896Y-17093683D01*
X18670181Y-17050826D01*
X18684467Y-16979398D01*
X18684467Y-16922255D01*
X18670181Y-16850826D01*
X18655896Y-16807969D01*
X18641610Y-16779398D01*
X18613038Y-16736540D01*
X18598753Y-16722255D01*
M02*
