G04 #@! TF.GenerationSoftware,KiCad,Pcbnew,(5.1.12)-1*
G04 #@! TF.CreationDate,2021-12-11T09:13:36+00:00*
G04 #@! TF.ProjectId,Lily58_Pro,4c696c79-3538-45f5-9072-6f2e6b696361,rev?*
G04 #@! TF.SameCoordinates,Original*
G04 #@! TF.FileFunction,Paste,Bot*
G04 #@! TF.FilePolarity,Positive*
%FSLAX46Y46*%
G04 Gerber Fmt 4.6, Leading zero omitted, Abs format (unit mm)*
G04 Created by KiCad (PCBNEW (5.1.12)-1) date 2021-12-11 09:13:36*
%MOMM*%
%LPD*%
G01*
G04 APERTURE LIST*
%ADD10R,2.000000X2.000000*%
%ADD11R,1.900000X2.000000*%
%ADD12C,0.100000*%
%ADD13R,1.143000X0.635000*%
G04 APERTURE END LIST*
D10*
X160000000Y-127450000D03*
D11*
X170900000Y-129650000D03*
D10*
X161200000Y-121210000D03*
X173700000Y-118670000D03*
X140900000Y-127450000D03*
D11*
X151800000Y-129650000D03*
D10*
X142100000Y-121210000D03*
X154600000Y-118670000D03*
X121900000Y-129700000D03*
D11*
X132800000Y-131900000D03*
D10*
X123100000Y-123460000D03*
X135600000Y-120920000D03*
D12*
G36*
X99111731Y-122201219D02*
G01*
X97379681Y-123201219D01*
X96379681Y-121469169D01*
X98111731Y-120469169D01*
X99111731Y-122201219D01*
G37*
G36*
X102631475Y-132697595D02*
G01*
X100899425Y-133697595D01*
X99949425Y-132052147D01*
X101681475Y-131052147D01*
X102631475Y-132697595D01*
G37*
G36*
X105115730Y-120120450D02*
G01*
X103383680Y-121120450D01*
X102383680Y-119388400D01*
X104115730Y-118388400D01*
X105115730Y-120120450D01*
G37*
G36*
X113565434Y-129675767D02*
G01*
X111833384Y-130675767D01*
X110833384Y-128943717D01*
X112565434Y-127943717D01*
X113565434Y-129675767D01*
G37*
D10*
X207650000Y-114700000D03*
D11*
X218550000Y-116900000D03*
D10*
X208850000Y-108460000D03*
X221350000Y-105920000D03*
X188600000Y-113200000D03*
D11*
X199500000Y-115400000D03*
D10*
X189800000Y-106960000D03*
X202300000Y-104420000D03*
X169500000Y-108500000D03*
D11*
X180400000Y-110700000D03*
D10*
X170700000Y-102260000D03*
X183200000Y-99720000D03*
X150500000Y-107100000D03*
D11*
X161400000Y-109300000D03*
D10*
X151700000Y-100860000D03*
X164200000Y-98320000D03*
X131400000Y-108500000D03*
D11*
X142300000Y-110700000D03*
D10*
X132600000Y-102260000D03*
X145100000Y-99720000D03*
X112400000Y-110800000D03*
D11*
X123300000Y-113000000D03*
D10*
X113600000Y-104560000D03*
X126100000Y-102020000D03*
X207600000Y-95700000D03*
D11*
X218500000Y-97900000D03*
D10*
X208800000Y-89460000D03*
X221300000Y-86920000D03*
X188600000Y-94200000D03*
D11*
X199500000Y-96400000D03*
D10*
X189800000Y-87960000D03*
X202300000Y-85420000D03*
X169500000Y-89400000D03*
D11*
X180400000Y-91600000D03*
D10*
X170700000Y-83160000D03*
X183200000Y-80620000D03*
X150500000Y-88100000D03*
D11*
X161400000Y-90300000D03*
D10*
X151700000Y-81860000D03*
X164200000Y-79320000D03*
X131400000Y-89400000D03*
D11*
X142300000Y-91600000D03*
D10*
X132600000Y-83160000D03*
X145100000Y-80620000D03*
X112400000Y-91800000D03*
D11*
X123300000Y-94000000D03*
D10*
X113600000Y-85560000D03*
X126100000Y-83020000D03*
X207600000Y-76500000D03*
D11*
X218500000Y-78700000D03*
D10*
X208800000Y-70260000D03*
X221300000Y-67720000D03*
X188600000Y-75000000D03*
D11*
X199500000Y-77200000D03*
D10*
X189800000Y-68760000D03*
X202300000Y-66220000D03*
X169500000Y-70300000D03*
D11*
X180400000Y-72500000D03*
D10*
X170700000Y-64060000D03*
X183200000Y-61520000D03*
X150500000Y-69000000D03*
D11*
X161400000Y-71200000D03*
D10*
X151700000Y-62760000D03*
X164200000Y-60220000D03*
X131400000Y-70400000D03*
D11*
X142300000Y-72600000D03*
D10*
X132600000Y-64160000D03*
X145100000Y-61620000D03*
X112400000Y-72800000D03*
D11*
X123300000Y-75000000D03*
D10*
X113600000Y-66560000D03*
X126100000Y-64020000D03*
X207600000Y-57600000D03*
D11*
X218500000Y-59800000D03*
D10*
X208800000Y-51360000D03*
X221300000Y-48820000D03*
X188600000Y-56100000D03*
D11*
X199500000Y-58300000D03*
D10*
X189800000Y-49860000D03*
X202300000Y-47320000D03*
X169500000Y-51300000D03*
D11*
X180400000Y-53500000D03*
D10*
X170700000Y-45060000D03*
X183200000Y-42520000D03*
X150500000Y-49910000D03*
D11*
X161400000Y-52110000D03*
D10*
X151700000Y-43670000D03*
X164200000Y-41130000D03*
X131400000Y-51300000D03*
D11*
X142300000Y-53500000D03*
D10*
X132600000Y-45060000D03*
X145100000Y-42520000D03*
X112400000Y-53700000D03*
D11*
X123300000Y-55900000D03*
D10*
X113600000Y-47460000D03*
X126100000Y-44920000D03*
D13*
X104300000Y-68799620D03*
X104300000Y-69800380D03*
X101700000Y-69800380D03*
X101700000Y-68799620D03*
X99200000Y-68799620D03*
X99200000Y-69800380D03*
X96700000Y-69800380D03*
X96700000Y-68799620D03*
M02*
